<svg width="90" height="90" viewBox="0 0 90 90" fill="none" xmlns="http://www.w3.org/2000/svg">
<path d="M81.0739 21.3174C80.9126 21.3174 80.7283 21.2255 80.6361 21.0875C80.2675 20.5126 79.8528 19.9607 79.4381 19.4088C79.2768 19.1789 79.3229 18.8569 79.5533 18.6729C79.7837 18.512 80.1062 18.558 80.2905 18.7879C80.7052 19.3628 81.1199 19.9377 81.5116 20.5126C81.6729 20.7426 81.6037 21.0875 81.3734 21.2255C81.2812 21.2944 81.166 21.3174 81.0739 21.3174Z" fill="#A2BCCB"/>
<path d="M44.4894 89.5568C43.7061 89.5568 42.8997 89.5339 42.1164 89.488C41.8169 89.465 41.6096 89.2356 41.6326 88.9373C41.6557 88.6389 41.9091 88.4324 42.1855 88.4553C43.5448 88.5242 44.9271 88.5242 46.2633 88.4783C46.5628 88.4783 46.7932 88.6848 46.8162 88.9831C46.8393 89.2815 46.6089 89.5109 46.3094 89.5339C45.7104 89.5339 45.1114 89.5568 44.4894 89.5568ZM52.9445 88.7307C52.691 88.7307 52.4837 88.5471 52.4376 88.3177C52.3915 88.0423 52.5758 87.7669 52.8523 87.6981C54.1425 87.4457 55.4326 87.1244 56.6997 86.7573L56.8149 86.7343C57.0914 86.6425 57.3909 86.8031 57.46 87.0785C57.5521 87.3539 57.3909 87.6522 57.1144 87.721L56.9992 87.744C55.686 88.1111 54.3728 88.4324 53.0597 88.7078C53.0136 88.7307 52.9675 88.7307 52.9445 88.7307ZM63.1965 85.4034C62.9892 85.4034 62.8049 85.2886 62.7127 85.105C62.5975 84.8526 62.7127 84.5314 62.9662 84.4166C64.1872 83.8429 65.4082 83.2004 66.5601 82.535C66.8136 82.3973 67.1361 82.4661 67.2743 82.7185C67.4126 82.9709 67.3434 83.2922 67.09 83.4299C65.892 84.1183 64.648 84.7838 63.4039 85.3575C63.3578 85.3804 63.2887 85.4034 63.1965 85.4034ZM72.3428 79.6665C72.1815 79.6665 72.0433 79.5977 71.9281 79.483C71.7438 79.2535 71.7899 78.9322 71.9972 78.7487C73.0339 77.8996 74.0707 76.9817 75.0152 76.0409C75.2226 75.8343 75.5451 75.8343 75.7525 76.0409C75.9598 76.2474 75.9598 76.5687 75.7525 76.7752C74.7618 77.739 73.7251 78.6798 72.6423 79.5518C72.5732 79.6436 72.458 79.6665 72.3428 79.6665ZM79.8072 71.8874C79.692 71.8874 79.5999 71.8645 79.4847 71.7956C79.2543 71.635 79.2082 71.2908 79.3695 71.0613C80.1758 69.9828 80.9361 68.8584 81.6503 67.688C81.8116 67.4356 82.111 67.3668 82.3645 67.5045C82.6179 67.6651 82.687 67.9634 82.5488 68.2158C81.8346 69.3862 81.0513 70.5565 80.2219 71.6579C80.1297 71.8186 79.9685 71.8874 79.8072 71.8874ZM85.1521 62.5479C85.083 62.5479 85.0139 62.5249 84.9448 62.502C84.6683 62.3872 84.5531 62.0889 84.6683 61.8135C85.1982 60.5744 85.659 59.2894 86.0506 58.0043C86.1428 57.7289 86.4192 57.5683 86.6957 57.6601C86.9722 57.7519 87.1334 58.0273 87.0413 58.3026C86.6266 59.6106 86.1428 60.9416 85.6129 62.2037C85.5438 62.4102 85.3364 62.5479 85.1521 62.5479ZM88.055 52.1757C88.0319 52.1757 88.0089 52.1757 87.9858 52.1757C87.7094 52.1298 87.502 51.8774 87.5481 51.5791C87.7555 50.2481 87.8937 48.8942 87.9628 47.5403C87.9858 47.265 88.2393 47.0355 88.5157 47.0585C88.8152 47.0814 89.0226 47.3109 88.9995 47.6092C88.9304 48.986 88.7922 50.3858 88.5848 51.7397C88.5157 51.9921 88.3084 52.1757 88.055 52.1757ZM88.3084 41.4134C88.0319 41.4134 87.8246 41.2069 87.7785 40.9545C87.6403 39.6235 87.4329 38.2696 87.1795 36.9387C87.1334 36.6633 87.3177 36.388 87.5942 36.3191C87.8706 36.2732 88.1471 36.4568 88.2162 36.7322C88.4927 38.0861 88.677 39.4629 88.8152 40.8397C88.8383 41.1151 88.6309 41.3905 88.3544 41.4134C88.3314 41.4134 88.3314 41.4134 88.3084 41.4134ZM85.9354 30.9265C85.7281 30.9265 85.5207 30.7888 85.4516 30.5823C84.9909 29.3202 84.484 28.0581 83.908 26.8189C83.7929 26.5665 83.908 26.2453 84.1615 26.1305C84.4149 26.0158 84.7374 26.1305 84.8526 26.3829C85.4286 27.6221 85.9815 28.9301 86.4423 30.2381C86.5344 30.5135 86.3962 30.8118 86.1197 30.9036C86.0506 30.9036 85.9815 30.9265 85.9354 30.9265Z" fill="#A2BCCB"/>
<path d="M35.5033 88.619C35.4572 88.619 35.4342 88.619 35.3881 88.619C34.6969 88.4811 34.0058 88.3201 33.3377 88.1361C33.0612 88.0672 32.9 87.7682 32.9691 87.4923C33.0382 87.2163 33.3377 87.0553 33.6142 87.1243C34.2823 87.3083 34.9504 87.4463 35.6185 87.6072C35.8949 87.6762 36.0792 87.9522 36.0332 88.2281C35.9641 88.4581 35.7337 88.619 35.5033 88.619Z" fill="#A2BCCB"/>
<path d="M7.09582 68.7729C6.91151 68.7729 6.75024 68.6809 6.65809 68.5199C6.28947 67.922 5.92086 67.3011 5.59832 66.7032C5.46009 66.4503 5.55224 66.1283 5.80566 65.9904C6.05909 65.8524 6.38163 65.9444 6.51986 66.1973C6.8424 66.7952 7.21101 67.3931 7.55659 67.968C7.71786 68.221 7.6257 68.5429 7.39532 68.6809C7.28012 68.7499 7.18797 68.7729 7.09582 68.7729Z" fill="#A2BCCB"/>
<path d="M3.27145 60.9875C3.0641 60.9875 2.85675 60.8498 2.78764 60.6433C2.41902 59.6566 2.07345 58.6239 1.77395 57.5913C1.6818 57.3159 1.61268 57.0176 1.54357 56.7423C1.47445 56.4669 1.63572 56.1686 1.91218 56.0997C2.18864 56.0309 2.48814 56.1915 2.55725 56.4669C2.62637 56.7423 2.71852 57.0176 2.78764 57.293C3.08714 58.3027 3.40968 59.2894 3.77829 60.2761C3.87044 60.5515 3.73221 60.8498 3.47879 60.9416C3.40967 60.9875 3.34056 60.9875 3.27145 60.9875ZM0.806337 50.7071C0.552914 50.7071 0.322529 50.5006 0.276453 50.2482C0.115184 48.8943 0.0230308 47.5175 -7.62939e-06 46.1636C-7.62939e-06 45.8653 0.230376 45.6358 0.506837 45.6358C0.783298 45.6358 1.03672 45.8653 1.03672 46.1406C1.05976 47.4716 1.15191 48.8025 1.31318 50.1334C1.33622 50.4088 1.15191 50.6842 0.852413 50.7071C0.852413 50.7071 0.829375 50.7071 0.806337 50.7071ZM0.875453 40.1055C0.852414 40.1055 0.829375 40.1055 0.806337 40.1055C0.529876 40.0596 0.32253 39.8072 0.345568 39.5318C0.529876 38.1779 0.760258 36.8241 1.05976 35.4931C1.12887 35.2178 1.40534 35.0342 1.6818 35.103C1.95826 35.1718 2.14256 35.4472 2.07345 35.7226C1.77395 37.0076 1.54357 38.3386 1.3823 39.6466C1.35926 39.9219 1.12888 40.1055 0.875453 40.1055ZM3.50183 29.8481C3.43271 29.8481 3.3636 29.8481 3.31752 29.8022C3.04106 29.6875 2.92587 29.3891 3.01802 29.1367C3.50183 27.8746 4.07779 26.6125 4.67679 25.3963C4.81502 25.1439 5.11452 25.0292 5.36794 25.1669C5.62136 25.3045 5.73656 25.6029 5.59833 25.8553C4.99933 27.0485 4.44641 28.2647 3.98564 29.5039C3.91652 29.7334 3.70918 29.8481 3.50183 29.8481ZM8.5242 20.5315C8.43205 20.5315 8.31686 20.5086 8.2247 20.4397C7.99432 20.2791 7.9252 19.9578 8.08647 19.7054C8.86978 18.6039 9.7222 17.5025 10.5977 16.4698C10.782 16.2404 11.1045 16.2174 11.3349 16.401C11.5653 16.5846 11.5883 16.9059 11.404 17.1353C10.5516 18.145 9.7222 19.2006 8.96193 20.302C8.84674 20.4397 8.68547 20.5315 8.5242 20.5315ZM15.62 12.6606C15.4818 12.6606 15.3205 12.5918 15.2284 12.477C15.0441 12.2705 15.0671 11.9263 15.2745 11.7427C16.3112 10.8478 17.394 9.99872 18.4998 9.19557C18.7302 9.03494 19.0528 9.08083 19.2371 9.31031C19.3983 9.53978 19.3523 9.86104 19.1219 10.0446C18.0391 10.8248 16.9793 11.6509 15.9886 12.5229C15.8735 12.6147 15.7583 12.6606 15.62 12.6606ZM24.4207 6.71727C24.2364 6.71727 24.0521 6.60253 23.9599 6.4419C23.8217 6.18948 23.9369 5.86822 24.1903 5.73054C25.4114 5.11097 26.6554 4.53728 27.9225 4.03244C28.199 3.9177 28.4985 4.05538 28.5907 4.33075C28.7058 4.60612 28.5676 4.90444 28.2912 4.99623C27.0471 5.50107 25.826 6.0518 24.6511 6.64843C24.582 6.71727 24.5129 6.71727 24.4207 6.71727ZM34.3963 3.06865C34.166 3.06865 33.9356 2.90803 33.8895 2.67856C33.8204 2.40319 34.0047 2.12782 34.2811 2.05898C35.6174 1.73772 36.9766 1.4853 38.3129 1.30173C38.5893 1.25583 38.8658 1.46235 38.9119 1.73772C38.9579 2.01308 38.7506 2.28846 38.4741 2.33435C37.1609 2.51793 35.8247 2.77034 34.5346 3.06865C34.4885 3.06865 34.4424 3.06865 34.3963 3.06865ZM49.0257 2.12782C49.0027 2.12782 48.9796 2.12782 48.9796 2.12782C47.6434 1.99014 46.3072 1.9213 44.971 1.89835C44.6715 1.89835 44.4411 1.66888 44.4641 1.37056C44.4641 1.0952 44.6945 0.865723 44.994 0.865723C46.3533 0.88867 47.7356 0.957512 49.0948 1.0952C49.3713 1.11814 49.6017 1.37056 49.5556 1.66888C49.5095 1.9213 49.2791 2.12782 49.0257 2.12782Z" fill="#A2BCCB"/>
<path d="M57.5271 3.85517C57.4811 3.85517 57.4119 3.85517 57.3659 3.83218C56.7208 3.62521 56.0527 3.44124 55.3846 3.25727C55.1081 3.18828 54.9468 2.88932 55.016 2.61336C55.0851 2.33741 55.3846 2.17644 55.661 2.24543C56.3522 2.4294 57.0203 2.61337 57.6884 2.82033C57.9649 2.91232 58.1261 3.18827 58.034 3.46423C57.9649 3.71719 57.7575 3.85517 57.5271 3.85517Z" fill="#A2BCCB"/>
<path d="M19.5531 23.845C19.9189 23.5025 20.4125 23.3356 20.9149 23.3795C26.2562 23.8582 36.2205 21.2933 42.7297 14.6525C43.1836 14.1913 44.0078 14.4504 44.5234 14.8369C51.7641 20.2304 63.7689 21.346 67.9379 21.5743C68.8017 21.6227 69.498 22.2859 69.5862 23.1423C73.3762 59.6183 49.543 72.8383 44.6027 75.1705C44.0606 75.4252 43.426 75.3901 42.9192 75.0739C18.2839 59.7808 19.3372 39.8936 18.9978 25.1583C18.9846 24.6663 19.1873 24.1832 19.5531 23.845Z" fill="#7FB5CE"/>
<path opacity="0.61" d="M43.9376 72.5259C43.8274 72.5259 43.7173 72.4952 43.6203 72.4337C34.176 66.4166 28.0194 59.2224 24.8023 50.4427C21.9289 42.6029 21.7879 34.6137 21.6645 27.5689L21.6469 26.629C21.6425 26.4709 21.7042 26.326 21.8143 26.2118C21.9245 26.0976 22.0744 26.0361 22.233 26.0361C28.0811 26.0361 36.8599 23.4623 43.2986 17.7132C43.4969 17.5375 43.7878 17.5155 44.0125 17.6604C51.0858 22.338 61.1779 23.6995 66.5633 24.0948C66.8497 24.1168 67.0745 24.3364 67.1009 24.6262C68.3525 38.8609 65.3822 50.8951 58.2737 60.3995C52.9632 67.497 46.6656 71.1951 44.2064 72.4556C44.1183 72.5039 44.0302 72.5259 43.9376 72.5259ZM44.0919 72.2492L44.1447 72.3546L44.0919 72.2492C46.5378 70.9975 52.7957 67.3213 58.0798 60.2633C65.153 50.8072 68.1101 38.8257 66.863 24.6526C66.8497 24.4857 66.7131 24.3539 66.5457 24.3408C61.1382 23.9455 50.9977 22.5751 43.8803 17.8669C43.7481 17.779 43.5762 17.7922 43.4617 17.8976C36.9745 23.6907 28.1296 26.282 22.2418 26.282C22.1405 26.282 22.0523 26.3172 21.9906 26.3874C21.9245 26.4533 21.8893 26.5412 21.8937 26.6334L21.9113 27.5733C22.0347 34.6006 22.1757 42.5634 25.0359 50.368C28.2354 59.095 34.3611 66.2497 43.7569 72.2404C43.8539 72.2975 43.9861 72.3063 44.0919 72.2492Z" fill="white"/>
<path opacity="0.61" d="M52.7873 37.6143H51.6723C51.117 37.6143 50.6719 37.1663 50.6719 36.6173V32.8225C50.6719 31.4654 49.5657 30.363 48.204 30.363H41.3026C39.9408 30.363 38.8346 31.4654 38.8346 32.8225V36.6173C38.8346 37.1707 38.3851 37.6143 37.8342 37.6143H36.7193C36.164 37.6143 35.7189 37.1663 35.7189 36.6173V32.8225C35.7189 29.7481 38.2176 27.2578 41.3026 27.2578H48.204C51.2889 27.2578 53.7877 29.7481 53.7877 32.8225V36.6173C53.7877 37.1663 53.3382 37.6143 52.7873 37.6143Z" fill="white"/>
<path opacity="0.61" d="M54.1662 38.5103H35.335C34.1804 38.5103 33.2461 39.4414 33.2461 40.5921V54.9936C33.2461 56.1443 34.1804 57.0754 35.335 57.0754H54.1662C55.3209 57.0754 56.2552 56.1443 56.2552 54.9936V40.5921C56.2552 39.4414 55.3209 38.5103 54.1662 38.5103ZM47.4455 52.4286C47.5645 52.9118 47.1943 53.3817 46.6919 53.3817H42.8093C42.3069 53.3817 41.9412 52.9162 42.0557 52.4286L42.9636 48.6691C41.8927 48.0322 41.1964 46.842 41.2669 45.4936C41.3594 43.75 42.7785 42.3182 44.5281 42.2128C46.5553 42.0854 48.2432 43.6885 48.2432 45.6825C48.2432 46.9518 47.5601 48.063 46.5421 48.6691L47.4455 52.4286Z" fill="white"/>
</svg>
