<svg width="203" height="217" viewBox="0 0 203 217" fill="none" xmlns="http://www.w3.org/2000/svg">
<path d="M199.412 141.925C202.437 141.505 158.529 127.664 119.463 85.831C101.047 66.1176 82.331 38.4933 62.541 36.3136C46.0657 34.496 14.1761 64.0784 3.94367 74.0519C2.66376 75.2973 3.41869 77.4693 5.19043 77.6549C13.9604 78.5833 33.4102 81.5987 44.0506 90.6552C58.0904 102.593 78.4081 102.523 92.6567 96.6294C106.905 90.7359 115.54 88.4986 135.151 104.403C154.79 120.304 190.834 143.103 199.412 141.925Z" fill="#AEC8D7"/>
<path opacity="0.5" d="M24.5538 69.2372C39.8668 59.8451 60.4314 55.8789 77.1298 63.1432L78.7132 63.8404C82.4033 65.5048 106.087 78.9834 122.989 92.0179C123.205 92.1837 123.244 92.4831 123.071 92.6882C122.797 93.0505 122.355 92.77 122.413 92.7901C112.142 85.9275 98.458 77.658 87.9556 71.6613C76.58 65.0525 68.7609 60.6569 53.6162 61.6009C36.9104 62.8691 24.8986 69.9234 24.936 69.913C24.7489 70.0092 24.5131 69.9456 24.4166 69.7588C24.3201 69.572 24.3837 69.3368 24.5538 69.2372Z" fill="white"/>
<path d="M191.876 152.683C193.704 152.491 174.398 143.145 164.583 130.083C154.767 117.021 136.118 95.997 115.113 90.0436C94.108 84.0902 80.4527 91.4351 72.8135 114.826C66.4406 134.315 61.6241 145.237 57.3774 149.513C56.3285 150.574 56.6345 152.367 57.9551 153.048C65.02 156.722 82.9234 164.035 97.256 153.037C115.538 139.014 130.306 111.067 144.334 116.663C158.363 122.258 161.361 128.651 164.886 133.388C168.405 138.158 179.797 153.994 191.876 152.683Z" fill="#A3BDCC"/>
<path opacity="0.5" d="M89.4312 127.761C91.4946 118.23 97.3096 106.325 106.329 101.757C118.339 96.2138 130.428 98.5839 141.611 106.686C146.232 110.212 148.508 112.22 153.198 117.21C153.572 117.61 152.999 118.188 152.601 117.819C150.164 115.638 147.654 113.327 144.756 111.145C126.644 96.627 112.798 102.352 112.075 102.291C111.218 103 102.808 102.584 94.3629 118.611C92.7916 121.622 91.4224 124.779 90.3093 127.985L90.306 128.002C90.2253 128.234 89.97 128.361 89.7375 128.28C89.5018 128.217 89.3778 127.989 89.4312 127.761Z" fill="white"/>
</svg>
