<svg width="379" height="389" viewBox="0 0 379 389" fill="none" xmlns="http://www.w3.org/2000/svg">
<path d="M365.191 264.66L363.639 265.953C363.373 266.164 363.335 266.566 363.547 266.831C363.758 267.096 364.161 267.134 364.426 266.923L365.979 265.63C366.245 265.418 366.283 265.017 366.071 264.752C365.859 264.487 365.457 264.449 365.191 264.66Z" fill="#1D87B7"/>
<path d="M359.958 268.932L358.396 270.192C358.131 270.403 358.093 270.804 358.304 271.07C358.516 271.335 358.919 271.373 359.184 271.161L360.746 269.902C361.012 269.69 361.05 269.289 360.838 269.024C360.626 268.759 360.257 268.712 359.958 268.932Z" fill="#1D87B7"/>
<path d="M354.716 273.17L353.121 274.439C352.855 274.65 352.817 275.051 353.029 275.317C353.241 275.582 353.643 275.62 353.909 275.408L355.504 274.14C355.769 273.929 355.807 273.527 355.596 273.262C355.384 272.997 354.982 272.959 354.716 273.17Z" fill="#1D87B7"/>
<path d="M349.467 277.375L347.872 278.644C347.606 278.855 347.568 279.256 347.78 279.522C347.992 279.787 348.394 279.825 348.66 279.613L350.255 278.345C350.52 278.134 350.558 277.732 350.347 277.467C350.135 277.202 349.733 277.164 349.467 277.375Z" fill="#1D87B7"/>
<path d="M344.181 281.589L342.586 282.857C342.32 283.069 342.249 283.479 342.46 283.744C342.672 284.009 343.083 284.08 343.349 283.869L344.944 282.6C345.21 282.389 345.248 281.988 345.036 281.723C344.849 281.415 344.446 281.377 344.181 281.589Z" fill="#1D87B7"/>
<path d="M338.85 285.744L337.246 286.979C336.98 287.19 336.909 287.6 337.121 287.866C337.333 288.131 337.743 288.202 338.009 287.991L339.613 286.756C339.879 286.544 339.95 286.134 339.738 285.869C339.518 285.571 339.116 285.533 338.85 285.744Z" fill="#1D87B7"/>
<path d="M333.505 289.868L331.901 291.103C331.636 291.314 331.564 291.724 331.776 291.989C331.988 292.255 332.399 292.326 332.665 292.114L334.268 290.879C334.534 290.668 334.605 290.258 334.394 289.993C334.173 289.694 333.771 289.656 333.505 289.868Z" fill="#1D87B7"/>
<path d="M328.112 293.932L326.5 295.134C326.201 295.354 326.163 295.755 326.375 296.02C326.595 296.319 326.997 296.357 327.263 296.146L328.876 294.944C329.175 294.724 329.213 294.322 329.001 294.057C328.823 293.783 328.412 293.712 328.112 293.932Z" fill="#1D87B7"/>
<path d="M322.701 297.931L321.056 299.141C320.756 299.362 320.718 299.763 320.897 300.037C321.117 300.335 321.52 300.373 321.794 300.195L323.44 298.985C323.739 298.765 323.777 298.363 323.599 298.09C323.378 297.791 322.967 297.72 322.701 297.931Z" fill="#1D87B7"/>
<path d="M317.205 301.879L315.551 303.057C315.252 303.277 315.18 303.687 315.392 303.952C315.613 304.25 316.024 304.322 316.29 304.11L317.944 302.933C318.243 302.713 318.314 302.303 318.103 302.038C317.915 301.731 317.505 301.659 317.205 301.879Z" fill="#1D87B7"/>
<path d="M311.693 305.762L310.03 306.906C309.73 307.126 309.65 307.503 309.871 307.801C310.091 308.1 310.469 308.18 310.768 307.96L312.431 306.816C312.73 306.596 312.81 306.219 312.59 305.921C312.403 305.613 311.992 305.542 311.693 305.762Z" fill="#1D87B7"/>
<path d="M306.121 309.553L304.449 310.663C304.142 310.85 304.07 311.26 304.257 311.567C304.444 311.875 304.855 311.946 305.163 311.759L306.868 310.64C307.176 310.453 307.248 310.043 307.06 309.736C306.84 309.437 306.429 309.366 306.121 309.553Z" fill="#1D87B7"/>
<path d="M300.499 313.287L298.785 314.373C298.477 314.56 298.372 314.978 298.593 315.277C298.78 315.584 299.2 315.689 299.499 315.469L301.204 314.35C301.512 314.163 301.583 313.753 301.396 313.446C301.218 313.172 300.798 313.067 300.499 313.287Z" fill="#1D87B7"/>
<path d="M294.808 316.896L293.085 317.949C292.777 318.135 292.673 318.554 292.86 318.861C293.047 319.168 293.466 319.273 293.774 319.086L295.488 318C295.796 317.814 295.901 317.395 295.714 317.088C295.527 316.781 295.116 316.709 294.808 316.896Z" fill="#1D87B7"/>
<path d="M289.057 320.414L287.326 321.433C287.018 321.62 286.913 322.039 287.1 322.346C287.287 322.653 287.707 322.758 288.015 322.571L289.771 321.51C290.079 321.323 290.183 320.904 289.996 320.597C289.785 320.332 289.365 320.227 289.057 320.414Z" fill="#1D87B7"/>
<path d="M283.216 323.849L281.443 324.844C281.135 325.031 280.996 325.458 281.184 325.765C281.371 326.072 281.799 326.21 282.107 326.024L283.88 325.029C284.188 324.842 284.293 324.424 284.139 324.108C283.977 323.759 283.557 323.654 283.216 323.849Z" fill="#1D87B7"/>
<path d="M277.337 327.152L275.555 328.113C275.247 328.3 275.1 328.694 275.296 329.034C275.483 329.342 275.878 329.488 276.219 329.293L278.001 328.332C278.309 328.145 278.456 327.751 278.26 327.41C278.098 327.061 277.678 326.957 277.337 327.152Z" fill="#1D87B7"/>
<path d="M271.383 330.297L269.592 331.224C269.242 331.387 269.137 331.805 269.3 332.154C269.462 332.504 269.882 332.608 270.232 332.446L272.023 331.518C272.373 331.356 272.477 330.938 272.315 330.588C272.161 330.272 271.733 330.135 271.383 330.297Z" fill="#1D87B7"/>
<path d="M265.368 333.351L263.568 334.246C263.218 334.408 263.08 334.835 263.267 335.142C263.43 335.492 263.858 335.629 264.166 335.443L265.999 334.54C266.349 334.377 266.487 333.95 266.3 333.643C266.146 333.327 265.718 333.189 265.368 333.351Z" fill="#1D87B7"/>
<path d="M259.285 336.28L257.435 337.117C257.085 337.279 256.938 337.673 257.1 338.022C257.263 338.371 257.658 338.518 258.008 338.356L259.858 337.519C260.208 337.357 260.355 336.963 260.192 336.614C260.063 336.256 259.635 336.118 259.285 336.28Z" fill="#1D87B7"/>
<path d="M253.16 339.044L251.301 339.847C250.951 340.009 250.804 340.403 250.933 340.761C251.096 341.11 251.491 341.257 251.849 341.128L253.708 340.325C254.058 340.163 254.205 339.769 254.076 339.411C253.914 339.061 253.51 338.882 253.16 339.044Z" fill="#1D87B7"/>
<path d="M246.925 341.657L245.049 342.394C244.69 342.523 244.51 342.925 244.673 343.274C244.802 343.632 245.205 343.812 245.555 343.65L247.465 342.905C247.824 342.776 248.004 342.374 247.841 342.024C247.712 341.666 247.309 341.487 246.925 341.657Z" fill="#1D87B7"/>
<path d="M240.639 344.072L238.754 344.775C238.395 344.904 238.215 345.306 238.344 345.664C238.473 346.022 238.877 346.202 239.235 346.073L241.154 345.361C241.512 345.233 241.693 344.83 241.564 344.472C241.401 344.123 240.998 343.943 240.639 344.072Z" fill="#1D87B7"/>
<path d="M234.297 346.287L232.394 346.924C232.036 347.052 231.813 347.43 231.951 347.822C232.08 348.18 232.459 348.401 232.851 348.264L234.787 347.619C235.145 347.49 235.368 347.112 235.23 346.721C235.068 346.372 234.664 346.192 234.297 346.287Z" fill="#1D87B7"/>
<path d="M227.889 348.378L225.936 348.956C225.568 349.052 225.355 349.463 225.45 349.83C225.546 350.196 225.958 350.409 226.326 350.314L228.279 349.735C228.646 349.64 228.86 349.229 228.764 348.862C228.627 348.471 228.248 348.249 227.889 348.378Z" fill="#1D87B7"/>
<path d="M221.387 350.245L219.426 350.79C219.058 350.885 218.836 351.263 218.94 351.663C219.036 352.03 219.415 352.252 219.815 352.148L221.777 351.602C222.145 351.507 222.367 351.129 222.263 350.729C222.167 350.362 221.788 350.141 221.387 350.245Z" fill="#1D87B7"/>
<path d="M214.876 351.936L212.897 352.414C212.529 352.51 212.274 352.896 212.369 353.263C212.465 353.63 212.852 353.885 213.22 353.789L215.199 353.311C215.566 353.216 215.822 352.829 215.726 352.462C215.631 352.096 215.243 351.84 214.876 351.936Z" fill="#1D87B7"/>
<path d="M208.312 353.428L206.315 353.84C205.939 353.902 205.683 354.289 205.754 354.698C205.816 355.073 206.204 355.328 206.613 355.257L208.61 354.845C208.986 354.783 209.242 354.397 209.171 353.988C209.067 353.588 208.688 353.366 208.312 353.428Z" fill="#1D87B7"/>
<path d="M201.704 354.753L199.724 355.09C199.348 355.152 199.092 355.539 199.154 355.914C199.216 356.289 199.604 356.544 199.98 356.482L201.994 356.137C202.37 356.075 202.626 355.688 202.563 355.313C202.459 354.913 202.072 354.658 201.704 354.753Z" fill="#1D87B7"/>
<path d="M195.037 355.847L193.039 356.116C192.663 356.178 192.365 356.541 192.428 356.916C192.49 357.291 192.853 357.588 193.229 357.526L195.26 357.248C195.636 357.186 195.934 356.824 195.872 356.448C195.801 356.04 195.447 355.776 195.037 355.847Z" fill="#1D87B7"/>
<path d="M188.349 356.731L186.343 356.968C185.958 356.996 185.66 357.358 185.698 357.776C185.727 358.16 186.089 358.457 186.508 358.419L188.514 358.183C188.899 358.154 189.197 357.792 189.159 357.375C189.122 356.957 188.759 356.66 188.349 356.731Z" fill="#1D87B7"/>
<path d="M181.635 357.375L179.611 357.545C179.226 357.573 178.928 357.935 178.923 358.328C178.952 358.712 179.315 359.009 179.709 359.014L181.733 358.844C182.117 358.815 182.415 358.453 182.386 358.069C182.416 357.634 182.053 357.337 181.635 357.375Z" fill="#1D87B7"/>
<path d="M174.936 357.801L172.919 357.862C172.526 357.858 172.195 358.228 172.223 358.612C172.219 359.005 172.59 359.335 172.975 359.307L175.025 359.237C175.41 359.208 175.75 358.871 175.721 358.487C175.692 358.103 175.329 357.805 174.936 357.801Z" fill="#1D87B7"/>
<path d="M168.208 357.985L166.174 357.98C165.78 357.975 165.44 358.312 165.436 358.705C165.431 359.098 165.769 359.437 166.163 359.441L168.197 359.447C168.59 359.451 168.93 359.114 168.935 358.721C168.931 358.295 168.601 357.99 168.208 357.985Z" fill="#1D87B7"/>
<path d="M161.446 357.896L159.428 357.815C159.035 357.81 158.686 358.114 158.648 358.516C158.644 358.908 158.948 359.256 159.35 359.294L161.402 359.366C161.795 359.371 162.144 359.067 162.182 358.665C162.187 358.273 161.882 357.925 161.446 357.896Z" fill="#1D87B7"/>
<path d="M154.722 357.546L152.72 357.39C152.318 357.352 151.969 357.656 151.931 358.058C151.893 358.459 152.198 358.807 152.6 358.845L154.635 358.992C155.038 359.03 155.386 358.726 155.424 358.325C155.462 357.923 155.157 357.575 154.722 357.546Z" fill="#1D87B7"/>
<path d="M148.03 356.905L146.036 356.641C145.633 356.603 145.243 356.882 145.205 357.283C145.167 357.685 145.447 358.075 145.849 358.112L147.877 358.369C148.279 358.406 148.67 358.127 148.708 357.726C148.746 357.324 148.475 356.968 148.03 356.905Z" fill="#1D87B7"/>
<path d="M141.401 355.964L139.422 355.623C139.011 355.552 138.621 355.832 138.549 356.242C138.478 356.652 138.758 357.042 139.169 357.113L141.19 357.477C141.601 357.549 141.991 357.269 142.063 356.859C142.092 356.425 141.812 356.035 141.401 355.964Z" fill="#1D87B7"/>
<path d="M134.796 354.696L132.825 354.248C132.405 354.143 132.014 354.423 131.934 354.799C131.83 355.218 132.11 355.608 132.487 355.688L134.459 356.136C134.878 356.241 135.269 355.962 135.349 355.585C135.454 355.166 135.207 354.768 134.796 354.696Z" fill="#1D87B7"/>
<path d="M128.279 353.086L126.348 352.52C125.962 352.407 125.521 352.629 125.416 353.047C125.302 353.433 125.524 353.873 125.944 353.978L127.908 354.535C128.294 354.648 128.736 354.427 128.84 354.008C128.912 353.598 128.665 353.2 128.279 353.086Z" fill="#1D87B7"/>
<path d="M121.842 351.1L119.952 350.417C119.557 350.27 119.115 350.492 118.968 350.886C118.821 351.28 119.043 351.72 119.438 351.867L121.362 352.541C121.757 352.688 122.198 352.467 122.312 352.081C122.458 351.687 122.27 351.238 121.842 351.1Z" fill="#1D87B7"/>
<path d="M115.559 348.755L113.718 347.987C113.323 347.841 112.864 347.995 112.717 348.39C112.57 348.784 112.725 349.241 113.12 349.388L115.003 350.18C115.398 350.327 115.857 350.172 116.004 349.778C116.151 349.384 115.962 348.935 115.559 348.755Z" fill="#1D87B7"/>
<path d="M109.425 346.015L107.625 345.13C107.255 344.941 106.796 345.096 106.607 345.466C106.419 345.835 106.574 346.293 106.944 346.481L108.786 347.391C109.156 347.579 109.615 347.424 109.804 347.055C109.993 346.686 109.838 346.228 109.425 346.015Z" fill="#1D87B7"/>
<path d="M103.512 342.899L101.786 341.888C101.407 341.666 100.94 341.787 100.717 342.165C100.495 342.543 100.617 343.01 100.996 343.232L102.763 344.267C103.142 344.489 103.61 344.368 103.799 343.998C104.012 343.587 103.891 343.12 103.512 342.899Z" fill="#1D87B7"/>
<path d="M97.8153 339.372L96.1636 338.235C95.8181 338.004 95.3418 338.092 95.0774 338.446C94.8463 338.791 94.9347 339.266 95.2888 339.53L96.9826 340.691C97.328 340.922 97.8044 340.834 98.0688 340.48C98.2578 340.111 98.1695 339.636 97.8153 339.372Z" fill="#1D87B7"/>
<path d="M92.3479 335.499L90.779 334.269C90.4248 334.005 89.9399 334.06 89.6754 334.414C89.411 334.767 89.4659 335.251 89.82 335.515L91.431 336.769C91.7851 337.033 92.2701 336.978 92.5012 336.633C92.7569 336.247 92.702 335.763 92.3479 335.499Z" fill="#1D87B7"/>
<path d="M87.179 331.267L85.6843 329.911C85.3636 329.639 84.8699 329.66 84.5968 329.98C84.3236 330.3 84.3451 330.793 84.6658 331.065L86.194 332.412C86.5148 332.685 87.0084 332.663 87.2815 332.343C87.5213 332.032 87.4998 331.539 87.179 331.267Z" fill="#1D87B7"/>
<path d="M82.3074 326.671L80.8955 325.223C80.5995 324.909 80.0971 324.897 79.7906 325.225C79.4754 325.521 79.4635 326.022 79.7929 326.328L81.2048 327.776C81.5009 328.091 82.0032 328.103 82.3097 327.774C82.5916 327.487 82.6035 326.986 82.3074 326.671Z" fill="#1D87B7"/>
<path d="M77.7511 321.782L76.4306 320.274C76.1346 319.96 75.6569 319.906 75.333 320.168C75.0178 320.463 74.9638 320.94 75.2265 321.263L76.5556 322.804C76.8516 323.119 77.3293 323.173 77.6445 322.877C78.0019 322.606 78.0137 322.105 77.7511 321.782Z" fill="#1D87B7"/>
<path d="M73.4768 316.606L72.2725 314.997C72.0012 314.641 71.5236 314.587 71.1662 314.858C70.8089 315.129 70.7549 315.605 71.0263 315.962L72.2726 317.595C72.5439 317.952 73.0216 318.006 73.3789 317.735C73.6942 317.44 73.7481 316.963 73.4768 316.606Z" fill="#1D87B7"/>
<path d="M69.5606 311.16L68.4479 309.491C68.21 309.126 67.7236 309.039 67.3576 309.276C66.9917 309.514 66.9043 309.999 67.1422 310.364L68.2636 312.066C68.5015 312.431 68.9878 312.518 69.3538 312.281C69.7198 312.044 69.8072 311.558 69.5606 311.16Z" fill="#1D87B7"/>
<path d="M65.9859 305.518L64.9646 303.79C64.7601 303.416 64.265 303.296 63.8903 303.5C63.5155 303.704 63.3947 304.198 63.5993 304.572L64.6292 306.333C64.8338 306.707 65.3289 306.827 65.7036 306.623C66.0696 306.386 66.2325 305.916 65.9859 305.518Z" fill="#1D87B7"/>
<path d="M62.7412 299.648L61.8449 297.852C61.6317 297.445 61.1701 297.316 60.7533 297.495C60.3452 297.708 60.2157 298.169 60.3955 298.584L61.3339 300.405C61.5385 300.779 62.0088 300.941 62.4256 300.762C62.8003 300.558 62.9545 300.055 62.7412 299.648Z" fill="#1D87B7"/>
<path d="M59.8172 293.625L59.0123 291.77C58.8325 291.354 58.3621 291.192 57.9453 291.371C57.5284 291.551 57.3655 292.02 57.5453 292.436L58.3502 294.291C58.53 294.707 59.0004 294.869 59.4172 294.69C59.8341 294.51 60.0057 294.074 59.8172 293.625Z" fill="#1D87B7"/>
<path d="M57.2503 287.473L56.5457 285.592C56.3993 285.167 55.9203 284.971 55.4948 285.117C55.0693 285.263 54.873 285.741 55.0194 286.166L55.7327 288.08C55.8792 288.505 56.3582 288.701 56.7837 288.555C57.1918 288.342 57.3968 287.897 57.2503 287.473Z" fill="#1D87B7"/>
<path d="M54.9985 281.167L54.394 279.26C54.2476 278.836 53.7933 278.598 53.3678 278.744C52.9423 278.89 52.704 279.343 52.8504 279.768L53.4636 281.708C53.61 282.133 54.0643 282.371 54.4898 282.225C54.9066 282.045 55.1449 281.592 54.9985 281.167Z" fill="#1D87B7"/>
<path d="M53.0732 274.741L52.569 272.808C52.456 272.375 51.993 272.104 51.5588 272.217C51.1246 272.329 50.8529 272.791 50.9659 273.225L51.4788 275.191C51.5918 275.624 52.0548 275.895 52.4803 275.749C52.9479 275.628 53.1862 275.174 53.0732 274.741Z" fill="#1D87B7"/>
<path d="M51.4801 268.229L51.0761 266.27C50.9965 265.828 50.5335 265.557 50.0906 265.636C49.6477 265.716 49.376 266.178 49.4556 266.62L49.8684 268.612C49.948 269.054 50.411 269.325 50.8538 269.246C51.288 269.133 51.5685 268.704 51.4801 268.229Z" fill="#1D87B7"/>
<path d="M50.1972 261.672L49.8599 259.696C49.7803 259.254 49.3753 258.932 48.9325 259.012C48.4896 259.091 48.1671 259.495 48.2467 259.937L48.5927 261.947C48.6723 262.389 49.0772 262.711 49.52 262.631C49.9629 262.552 50.2768 262.114 50.1972 261.672Z" fill="#1D87B7"/>
<path d="M49.2159 255.037L48.9788 253.035C48.9326 252.584 48.5277 252.262 48.0761 252.308C47.6246 252.354 47.3021 252.758 47.3483 253.209L47.594 255.245C47.6403 255.695 48.0452 256.017 48.4967 255.971C48.9483 255.925 49.2621 255.488 49.2159 255.037Z" fill="#1D87B7"/>
<path d="M48.5525 248.39L48.4243 246.395C48.3781 245.945 47.9979 245.581 47.5463 245.627C47.0947 245.673 46.7301 246.052 46.7763 246.503L46.9131 248.532C46.9594 248.982 47.3396 249.346 47.7912 249.3C48.2428 249.254 48.5987 248.841 48.5525 248.39Z" fill="#1D87B7"/>
<path d="M48.2306 241.69L48.1692 239.678C48.1563 239.218 47.7762 238.854 47.3159 238.867C46.8556 238.88 46.491 239.259 46.5038 239.719L46.5405 241.773C46.5533 242.232 46.9335 242.596 47.3938 242.584C47.8454 242.537 48.21 242.158 48.2306 241.69Z" fill="#1D87B7"/>
<path d="M48.1613 234.996L48.2089 232.991C48.2295 232.523 47.8492 232.159 47.3803 232.139C46.9113 232.118 46.5466 232.498 46.526 232.966L46.4872 235.004C46.4666 235.472 46.8468 235.836 47.3158 235.856C47.7674 235.81 48.1741 235.456 48.1613 234.996Z" fill="#1D87B7"/>
<path d="M48.4409 228.281L48.5638 226.292C48.5844 225.824 48.2376 225.452 47.7934 225.389C47.3244 225.368 46.9511 225.715 46.8885 226.158L46.7407 228.189C46.7202 228.657 47.067 229.03 47.5112 229.092C47.9802 229.113 48.3869 228.758 48.4409 228.281Z" fill="#1D87B7"/>
<path d="M48.9823 221.606L49.2056 219.591C49.2596 219.114 48.9375 218.7 48.4685 218.679C47.9908 218.625 47.5754 218.947 47.5548 219.415L47.3315 221.43C47.2775 221.907 47.6331 222.312 48.0686 222.342C48.5129 222.404 48.9284 222.083 48.9823 221.606Z" fill="#1D87B7"/>
<path d="M49.8162 214.961L50.1149 212.962C50.1775 212.519 49.8802 212.062 49.4025 212.008C48.9582 211.946 48.5007 212.243 48.4467 212.719L48.148 214.718C48.0854 215.162 48.3828 215.618 48.8604 215.672C49.3134 215.768 49.7622 215.438 49.8162 214.961Z" fill="#1D87B7"/>
<path d="M50.9514 208.38L51.3256 206.397C51.4217 205.945 51.1243 205.489 50.6713 205.393C50.2184 205.297 49.7608 205.594 49.6648 206.046L49.2572 208.038C49.1611 208.49 49.4585 208.946 49.9115 209.042C50.3978 209.129 50.8553 208.832 50.9514 208.38Z" fill="#1D87B7"/>
<path d="M52.3392 201.804L52.8223 199.828C52.9184 199.376 52.6544 198.911 52.2014 198.815C51.7484 198.719 51.2822 198.982 51.1861 199.434L50.703 201.41C50.607 201.862 50.871 202.328 51.3239 202.424C51.7856 202.553 52.2431 202.256 52.3392 201.804Z" fill="#1D87B7"/>
<path d="M54.0348 195.326L54.6021 193.399C54.7316 192.938 54.4676 192.473 54.0059 192.344C53.5442 192.215 53.078 192.478 52.9485 192.939L52.3899 194.899C52.2604 195.36 52.5244 195.825 52.9861 195.954C53.439 196.05 53.9053 195.786 54.0348 195.326Z" fill="#1D87B7"/>
<path d="M55.9611 188.894L56.6039 186.984C56.7334 186.523 56.5028 186.049 56.0745 185.911C55.6128 185.782 55.138 186.012 54.9998 186.44L54.3656 188.384C54.2362 188.844 54.4668 189.318 54.8951 189.456C55.3233 189.594 55.7982 189.364 55.9611 188.894Z" fill="#1D87B7"/>
<path d="M58.1618 182.568L58.8801 180.674C59.0517 180.238 58.8124 179.73 58.3754 179.559C57.9385 179.388 57.4302 179.627 57.2586 180.063L56.5403 181.958C56.3688 182.394 56.6081 182.901 57.045 183.072C57.482 183.243 57.9903 183.004 58.1618 182.568Z" fill="#1D87B7"/>
<path d="M60.5985 176.324L61.3589 174.454C61.5304 174.018 61.3245 173.502 60.8876 173.331C60.4506 173.16 59.9336 173.366 59.7621 173.802L58.9683 175.68C58.7967 176.116 59.0026 176.632 59.4396 176.803C59.9099 176.966 60.4269 176.76 60.5985 176.324Z" fill="#1D87B7"/>
<path d="M63.2682 170.162L64.1128 168.341C64.3177 167.896 64.1119 167.38 63.7083 167.2C63.3048 167.021 62.7456 167.201 62.5654 167.604L61.6961 169.467C61.4911 169.912 61.697 170.427 62.1006 170.607C62.5796 170.803 63.0632 170.606 63.2682 170.162Z" fill="#1D87B7"/>
<path d="M66.224 164.137L67.144 162.332C67.3576 161.921 67.1851 161.396 66.7642 161.15C66.352 160.936 65.8263 161.108 65.5793 161.528L64.6594 163.333C64.4457 163.745 64.6182 164.269 65.0391 164.516C65.4513 164.729 65.977 164.557 66.224 164.137Z" fill="#1D87B7"/>
<path d="M69.3491 158.211L70.3534 156.455C70.6005 156.035 70.428 155.51 70.007 155.264C69.5861 155.017 69.0604 155.19 68.8133 155.61L67.8177 157.398C67.5707 157.818 67.7431 158.343 68.1641 158.59C68.5676 158.769 69.1021 158.631 69.3491 158.211Z" fill="#1D87B7"/>
<path d="M72.7197 152.399L73.7661 150.668C74.0131 150.248 73.874 149.715 73.4865 149.46C73.0655 149.213 72.5311 149.352 72.2754 149.739L71.229 151.47C70.9819 151.89 71.121 152.423 71.5085 152.678C71.9382 152.958 72.4726 152.819 72.7197 152.399Z" fill="#1D87B7"/>
<path d="M76.2983 146.71L77.4287 145.028C77.7178 144.633 77.57 144.066 77.1825 143.811C76.7863 143.523 76.2185 143.67 75.9628 144.057L74.8324 145.738C74.5766 146.125 74.691 146.7 75.0786 146.955C75.4748 147.244 76.0512 147.13 76.2983 146.71Z" fill="#1D87B7"/>
<path d="M80.0978 141.177L81.2704 139.52C81.5596 139.125 81.4538 138.583 81.0576 138.294C80.6614 138.006 80.1183 138.111 79.8292 138.506L78.6566 140.163C78.3674 140.559 78.4731 141.101 78.8693 141.389C79.2656 141.678 79.8087 141.572 80.0978 141.177Z" fill="#1D87B7"/>
<path d="M84.0714 135.776L85.2948 134.177C85.584 133.781 85.5117 133.231 85.1154 132.942C84.7192 132.654 84.1674 132.726 83.8783 133.121L82.6214 134.729C82.3323 135.124 82.4046 135.675 82.8008 135.963C83.2217 136.21 83.7735 136.138 84.0714 135.776Z" fill="#1D87B7"/>
<path d="M88.2574 130.498L89.5315 128.957C89.8627 128.586 89.7817 128.002 89.4189 127.705C89.0474 127.374 88.4622 127.455 88.1644 127.817L86.8656 129.4C86.5344 129.771 86.6154 130.355 86.9782 130.652C87.3745 130.94 87.9262 130.868 88.2574 130.498Z" fill="#1D87B7"/>
<path d="M92.5865 125.36L93.9027 123.844C94.234 123.473 94.1951 122.913 93.8236 122.583C93.4521 122.252 92.8916 122.291 92.5604 122.662L91.2107 124.187C90.8795 124.558 90.9183 125.117 91.2898 125.447C91.6614 125.778 92.2553 125.731 92.5865 125.36Z" fill="#1D87B7"/>
<path d="M97.0614 120.361L98.4285 118.903C98.7597 118.532 98.7543 117.964 98.3827 117.634C98.0112 117.303 97.442 117.309 97.1108 117.68L95.719 119.18C95.3878 119.551 95.3933 120.119 95.7648 120.449C96.161 120.738 96.7302 120.732 97.0614 120.361Z" fill="#1D87B7"/>
<path d="M101.71 115.496L103.12 114.062C103.459 113.725 103.487 113.148 103.107 112.784C102.769 112.445 102.191 112.417 101.827 112.796L100.384 114.239C100.044 114.576 100.016 115.153 100.396 115.517C100.81 115.872 101.379 115.866 101.71 115.496Z" fill="#1D87B7"/>
<path d="M106.513 110.803L107.973 109.428C108.346 109.082 108.341 108.514 107.994 108.141C107.647 107.768 107.078 107.774 106.705 108.12L105.22 109.538C104.847 109.884 104.852 110.452 105.199 110.824C105.562 111.121 106.14 111.149 106.513 110.803Z" fill="#1D87B7"/>
<path d="M111.451 106.218L112.953 104.867C113.326 104.521 113.354 103.945 113.008 103.572C112.661 103.199 112.083 103.172 111.71 103.518L110.208 104.869C109.834 105.215 109.806 105.791 110.144 106.131C110.5 106.537 111.078 106.564 111.451 106.218Z" fill="#1D87B7"/>
<path d="M116.539 101.806L118.091 100.513C118.473 100.201 118.535 99.6153 118.188 99.2428C117.874 98.8616 117.288 98.8004 116.906 99.1132L115.353 100.406C114.971 100.719 114.91 101.304 115.257 101.677C115.579 102.091 116.123 102.128 116.539 101.806Z" fill="#1D87B7"/>
<path d="M121.738 97.5429L123.333 96.2745C123.715 95.9618 123.776 95.3765 123.496 94.9866C123.183 94.6054 122.596 94.5442 122.206 94.8236L120.611 96.092C120.229 96.4047 120.167 96.9901 120.447 97.38C120.769 97.7945 121.323 97.8643 121.738 97.5429Z" fill="#1D87B7"/>
<path d="M127.039 93.3956L128.651 92.1939C129.067 91.8725 129.137 91.3205 128.848 90.8973C128.526 90.4827 127.973 90.4129 127.549 90.701L125.903 91.9114C125.488 92.2328 125.418 92.7848 125.707 93.208C126.071 93.6472 126.624 93.717 127.039 93.3956Z" fill="#1D87B7"/>
<path d="M132.458 89.4309L134.112 88.2539C134.536 87.9658 134.631 87.3718 134.342 86.9486C134.054 86.5254 133.459 86.4309 133.034 86.719L131.38 87.896C130.956 88.1841 130.861 88.7781 131.141 89.168C131.481 89.6492 132.034 89.719 132.458 89.4309Z" fill="#1D87B7"/>
<path d="M138.022 85.6061L139.694 84.4957C140.118 84.2076 140.221 83.6469 139.966 83.215C139.677 82.7918 139.115 82.6886 138.683 82.9434L136.977 84.0625C136.553 84.3505 136.45 84.9112 136.705 85.3431C137.003 85.7996 137.598 85.8941 138.022 85.6061Z" fill="#1D87B7"/>
<path d="M143.662 81.9391L145.376 80.8534C145.809 80.5986 145.937 79.996 145.682 79.5641C145.427 79.1322 144.823 79.0043 144.39 79.2591L142.676 80.3449C142.243 80.5996 142.115 81.2023 142.37 81.6342C142.634 82.0994 143.205 82.2359 143.662 81.9391Z" fill="#1D87B7"/>
<path d="M149.412 78.421L151.143 77.4019C151.576 77.1471 151.747 76.5691 151.491 76.1372C151.236 75.7053 150.657 75.5355 150.224 75.7902L148.459 76.818C148.026 77.0728 147.856 77.6508 148.111 78.0827C148.375 78.5479 148.946 78.6844 149.412 78.421Z" fill="#1D87B7"/>
<path d="M155.238 75.0597L157.012 74.0653C157.478 73.8018 157.615 73.2325 157.393 72.7919C157.129 72.3267 156.558 72.1902 156.117 72.4116L154.343 73.406C153.877 73.6695 153.741 74.2388 153.962 74.6794C154.193 75.1533 154.772 75.3231 155.238 75.0597Z" fill="#1D87B7"/>
<path d="M161.144 71.8572L162.935 70.9294C163.409 70.6993 163.58 70.1213 163.349 69.6474C163.118 69.1735 162.539 69.0037 162.064 69.2338L160.24 70.1702C159.765 70.4004 159.595 70.9784 159.859 71.4436C160.132 71.9422 160.677 72.1207 161.144 71.8572Z" fill="#1D87B7"/>
<path d="M167.166 68.8369L168.966 67.9425C169.441 67.7124 169.62 67.1677 169.389 66.6938C169.158 66.2199 168.613 66.0414 168.138 66.2715L166.305 67.1746C165.83 67.4047 165.651 67.9494 165.882 68.4233C166.137 68.8552 166.691 69.067 167.166 68.8369Z" fill="#1D87B7"/>
<path d="M173.256 65.9407L175.106 65.1043C175.581 64.8741 175.793 64.3208 175.563 63.8469C175.332 63.373 174.778 63.1612 174.303 63.3913L172.453 64.2278C171.978 64.4579 171.765 65.0112 171.996 65.4851C172.193 65.9677 172.781 66.1709 173.256 65.9407Z" fill="#1D87B7"/>
<path d="M179.399 63.244L181.266 62.4742C181.75 62.2774 181.995 61.7154 181.765 61.2415C181.568 60.7589 181.004 60.5137 180.53 60.7438L178.671 61.547C178.187 61.7438 177.975 62.2971 178.172 62.7797C178.352 63.1956 178.915 63.4408 179.399 63.244Z" fill="#1D87B7"/>
<path d="M185.643 60.6626L187.361 60.0028C187.845 59.806 188.09 59.244 187.893 58.7614C187.696 58.2788 187.133 58.0337 186.649 58.2305L184.931 58.8903C184.448 59.087 184.202 59.6491 184.399 60.1316C184.596 60.6142 185.16 60.8594 185.643 60.6626Z" fill="#1D87B7"/>
<path d="M193.329 44.0617L195.532 56.4572L203.02 49.6471L193.329 44.0617Z" fill="#1D87B7"/>
<path d="M248.069 27.0444L219.652 62.3847C219.115 63.0572 218.299 63.4821 217.429 63.5656C216.56 63.649 215.704 63.3737 215.054 62.796L180.508 33.0257C180.103 32.7043 179.956 32.1385 180.143 31.6279C180.297 31.1259 180.779 30.7876 181.273 30.7662L248.069 27.0444Z" fill="#79BCD9"/>
<path d="M193.332 44.0553L248.075 27.0376L198.869 48.8754L199.346 52.3424L193.332 44.0553Z" fill="#1D87B7"/>
<path d="M202.205 51.7106L195.53 56.4673L198.862 48.8773L202.205 51.7106Z" fill="#1D779F"/>
</svg>
