<svg width="249" height="264" viewBox="0 0 249 264" fill="none" xmlns="http://www.w3.org/2000/svg">
<path d="M0.00422299 190.562C0.00422299 190.562 91.1774 83.9979 184.927 48.3333C191.244 45.9281 197.71 51.4156 196.307 57.9912C187.089 102.016 147.275 229.51 0.00422299 190.562Z" fill="#AEC8D7"/>
<path d="M16.1804 188.924C15.7351 189.048 15.9001 189.722 16.3621 189.641C33.3473 186.807 103.858 166.326 167.24 86.0924C167.461 85.8346 167.066 85.5202 166.859 85.7483C150.254 103.376 86.6848 167.165 16.1804 188.924Z" fill="#DCE5FE"/>
<path d="M197.428 186.346C179.465 177.665 97.0844 142.48 45.4371 198.375C44.428 199.456 44.9253 201.233 46.3576 201.612C61.548 205.854 131.273 222.32 197.432 189.89C198.912 189.192 198.922 187.071 197.428 186.346Z" fill="#A3BDCC"/>
<path d="M174.411 186.717C174.748 186.758 174.855 186.273 174.501 186.189C159.129 182.682 110.935 174.866 53.6947 197.772C53.7245 197.786 111.408 177.907 174.411 186.717Z" fill="#DCE5FE"/>
</svg>
