<svg width="99" height="83" viewBox="0 0 99 83" fill="none" xmlns="http://www.w3.org/2000/svg">
<path d="M69.6202 24.3801C69.4817 24.3801 69.3234 24.3011 69.2443 24.1826C68.9277 23.6889 68.5716 23.215 68.2155 22.7411C68.077 22.5436 68.1166 22.2672 68.3145 22.1092C68.5123 21.9709 68.7893 22.0104 68.9475 22.2079C69.3036 22.7016 69.6598 23.1953 69.9961 23.6889C70.1346 23.8864 70.0752 24.1826 69.8774 24.3011C69.7982 24.3603 69.6993 24.3801 69.6202 24.3801Z" fill="#7FB5CE"/>
<path d="M38.2035 82.9792C37.5309 82.9792 36.8384 82.9595 36.1658 82.9201C35.9086 82.9004 35.7306 82.7033 35.7503 82.4472C35.7701 82.191 35.9877 82.0136 36.2251 82.0333C37.3924 82.0924 38.5794 82.0925 39.7269 82.053C39.984 82.053 40.1819 82.2304 40.2017 82.4866C40.2214 82.7427 40.0236 82.9398 39.7664 82.9595C39.252 82.9595 38.7377 82.9792 38.2035 82.9792ZM45.4641 82.2698C45.2465 82.2698 45.0684 82.1121 45.0289 81.9151C44.9893 81.6786 45.1476 81.4422 45.385 81.3831C46.4929 81.1663 47.6007 80.8904 48.6888 80.5751L48.7878 80.5554C49.0252 80.4766 49.2824 80.6145 49.3417 80.851C49.4208 81.0875 49.2824 81.3436 49.045 81.4028L48.946 81.4225C47.8184 81.7377 46.6907 82.0136 45.563 82.2501C45.5235 82.2698 45.4839 82.2698 45.4641 82.2698ZM54.2678 79.4125C54.0898 79.4125 53.9315 79.314 53.8524 79.1563C53.7535 78.9396 53.8524 78.6637 54.07 78.5652C55.1185 78.0725 56.1671 77.5208 57.1562 76.9493C57.3739 76.8311 57.6508 76.8902 57.7695 77.107C57.8882 77.3237 57.8289 77.5996 57.6113 77.7178C56.5825 78.309 55.5142 78.8804 54.4459 79.3731C54.4063 79.3928 54.347 79.4125 54.2678 79.4125ZM62.1219 74.4862C61.9835 74.4862 61.8648 74.427 61.7658 74.3285C61.6076 74.1314 61.6471 73.8556 61.8252 73.6979C62.7154 72.9688 63.6057 72.1806 64.4168 71.3727C64.5949 71.1953 64.8719 71.1953 65.0499 71.3727C65.228 71.55 65.228 71.8259 65.0499 72.0033C64.1992 72.8309 63.309 73.6388 62.3791 74.3876C62.3198 74.4664 62.2209 74.4862 62.1219 74.4862ZM68.5318 67.806C68.4329 67.806 68.3538 67.7863 68.2549 67.7272C68.057 67.5892 68.0175 67.2937 68.156 67.0966C68.8484 66.1705 69.5012 65.2049 70.1145 64.1999C70.253 63.9831 70.5102 63.924 70.7278 64.0423C70.9454 64.1802 71.0048 64.4364 70.8861 64.6531C70.2728 65.6581 69.6002 66.6631 68.8879 67.609C68.8088 67.7469 68.6703 67.806 68.5318 67.806ZM73.1216 59.7859C73.0623 59.7859 73.0029 59.7662 72.9436 59.7465C72.7062 59.648 72.6073 59.3918 72.7062 59.1553C73.1612 58.0912 73.5569 56.9877 73.8932 55.8842C73.9723 55.6478 74.2098 55.5098 74.4472 55.5886C74.6846 55.6675 74.823 55.9039 74.7439 56.1404C74.3878 57.2636 73.9723 58.4065 73.5173 59.4903C73.458 59.6677 73.2799 59.7859 73.1216 59.7859ZM75.6144 50.879C75.5946 50.879 75.5748 50.879 75.555 50.879C75.3176 50.8396 75.1396 50.6229 75.1791 50.3667C75.3572 49.2238 75.4759 48.0612 75.5353 46.8986C75.555 46.6621 75.7727 46.465 76.0101 46.4847C76.2673 46.5045 76.4453 46.7015 76.4255 46.9577C76.3662 48.14 76.2475 49.342 76.0694 50.5046C76.0101 50.7214 75.832 50.879 75.6144 50.879ZM75.832 41.6372C75.5946 41.6372 75.4166 41.4598 75.377 41.2431C75.2583 40.1002 75.0802 38.9375 74.8626 37.7946C74.823 37.5582 74.9813 37.3217 75.2187 37.2626C75.4561 37.2232 75.6935 37.3808 75.7529 37.6173C75.9903 38.7799 76.1485 39.9622 76.2672 41.1446C76.287 41.381 76.109 41.6175 75.8716 41.6372C75.8518 41.6372 75.8518 41.6372 75.832 41.6372ZM73.7943 32.6318C73.6162 32.6318 73.4382 32.5136 73.3788 32.3362C72.9832 31.2524 72.5479 30.1686 72.0533 29.1045C71.9544 28.8878 72.0533 28.6119 72.271 28.5134C72.4886 28.4149 72.7655 28.5134 72.8645 28.7301C73.3591 29.7942 73.8339 30.9174 74.2295 32.0407C74.3087 32.2771 74.19 32.5333 73.9526 32.6121C73.8932 32.6121 73.8339 32.6318 73.7943 32.6318Z" fill="#7FB5CE"/>
<path d="M30.4885 82.1737C30.4489 82.1737 30.4291 82.1737 30.3896 82.1737C29.7961 82.0552 29.2026 81.917 28.6288 81.759C28.3914 81.6998 28.2529 81.4431 28.3123 81.2061C28.3716 80.9691 28.6288 80.8309 28.8662 80.8901C29.44 81.0481 30.0137 81.1666 30.5874 81.3048C30.8248 81.3641 30.9831 81.601 30.9435 81.838C30.8842 82.0355 30.6863 82.1737 30.4885 82.1737Z" fill="#7FB5CE"/>
<path d="M6.09517 65.131C5.9369 65.131 5.79841 65.052 5.71928 64.9138C5.40274 64.4003 5.0862 63.8672 4.80923 63.3537C4.69052 63.1365 4.76966 62.86 4.98728 62.7416C5.2049 62.6231 5.48187 62.7021 5.60058 62.9193C5.87755 63.4327 6.19409 63.9461 6.49084 64.4398C6.62933 64.657 6.55019 64.9335 6.35235 65.052C6.25344 65.1112 6.1743 65.131 6.09517 65.131Z" fill="#7FB5CE"/>
<path d="M2.81026 58.4455C2.6322 58.4455 2.45415 58.3273 2.3948 58.1499C2.07826 57.3026 1.78151 56.4158 1.52432 55.5291C1.44518 55.2926 1.38583 55.0365 1.32648 54.8C1.26713 54.5635 1.40562 54.3074 1.64302 54.2482C1.88043 54.1891 2.13761 54.3271 2.19696 54.5636C2.25631 54.8 2.33545 55.0365 2.3948 55.2729C2.65199 56.14 2.92896 56.9873 3.2455 57.8346C3.32463 58.0711 3.20593 58.3273 2.98831 58.4061C2.92896 58.4455 2.86961 58.4455 2.81026 58.4455ZM0.693405 49.6175C0.475785 49.6175 0.277947 49.4401 0.23838 49.2234C0.0998943 48.0608 0.0207602 46.8784 0.000976562 45.7158C0.000976562 45.4597 0.198813 45.2626 0.436217 45.2626C0.673621 45.2626 0.891242 45.4597 0.891242 45.6961C0.911025 46.839 0.99016 47.9819 1.12865 49.1248C1.14843 49.3613 0.99016 49.5978 0.732972 49.6175C0.732972 49.6175 0.713189 49.6175 0.693405 49.6175ZM0.752757 40.5136C0.732973 40.5136 0.713189 40.5136 0.693405 40.5136C0.456001 40.4742 0.277948 40.2574 0.297732 40.021C0.456001 38.8583 0.653836 37.6957 0.911024 36.5528C0.970375 36.3164 1.20778 36.1587 1.44519 36.2178C1.68259 36.2769 1.84086 36.5134 1.78151 36.7499C1.52432 37.8534 1.32648 38.9963 1.188 40.1195C1.16821 40.356 0.970377 40.5136 0.752757 40.5136ZM3.00809 31.7053C2.94874 31.7053 2.88939 31.7053 2.84982 31.6659C2.61242 31.5673 2.5135 31.3112 2.59264 31.0944C3.00809 30.0106 3.50269 28.9268 4.01706 27.8825C4.13576 27.6657 4.39295 27.5672 4.61057 27.6854C4.82819 27.8036 4.92711 28.0598 4.80841 28.2766C4.29403 29.3012 3.81923 30.3456 3.42355 31.4097C3.3642 31.6068 3.18615 31.7053 3.00809 31.7053ZM7.32093 23.7049C7.2418 23.7049 7.14288 23.6852 7.06375 23.6261C6.86591 23.4882 6.80656 23.2123 6.94504 22.9955C7.61769 22.0496 8.34969 21.1038 9.10147 20.217C9.25973 20.02 9.53671 20.0003 9.73454 20.1579C9.93238 20.3156 9.95216 20.5915 9.79389 20.7885C9.0619 21.6555 8.34968 22.562 7.69682 23.5078C7.59791 23.6261 7.45942 23.7049 7.32093 23.7049ZM13.4143 16.946C13.2956 16.946 13.1571 16.8868 13.078 16.7883C12.9197 16.611 12.9395 16.3154 13.1176 16.1577C14.0078 15.3892 14.9376 14.6601 15.8873 13.9704C16.0851 13.8325 16.3621 13.8719 16.5203 14.069C16.6588 14.266 16.6193 14.5419 16.4214 14.6995C15.4916 15.3695 14.5815 16.0789 13.7308 16.8277C13.6319 16.9066 13.533 16.946 13.4143 16.946ZM20.9717 11.8423C20.8134 11.8423 20.6551 11.7437 20.576 11.6058C20.4573 11.389 20.5562 11.1132 20.7738 10.9949C21.8224 10.4629 22.8907 9.97024 23.9788 9.53672C24.2162 9.4382 24.4734 9.55643 24.5525 9.79289C24.6514 10.0294 24.5327 10.2855 24.2953 10.3644C23.227 10.7979 22.1785 11.2708 21.1695 11.7831C21.1102 11.8423 21.0508 11.8423 20.9717 11.8423ZM29.538 8.7091C29.3402 8.7091 29.1423 8.57117 29.1028 8.37411C29.0434 8.13765 29.2017 7.90118 29.4391 7.84207C30.5865 7.56619 31.7538 7.34943 32.9012 7.19179C33.1386 7.15238 33.376 7.32972 33.4156 7.56619C33.4552 7.80265 33.2771 8.03912 33.0397 8.07853C31.912 8.23618 30.7646 8.45293 29.6567 8.7091C29.6171 8.7091 29.5776 8.7091 29.538 8.7091ZM42.1006 7.90118C42.0808 7.90118 42.0611 7.90118 42.0611 7.90118C40.9136 7.78295 39.7662 7.72383 38.6187 7.70413C38.3615 7.70413 38.1637 7.50707 38.1835 7.2509C38.1835 7.01444 38.3813 6.81738 38.6385 6.81738C39.8057 6.83709 40.9927 6.8962 42.16 7.01444C42.3974 7.03414 42.5952 7.2509 42.5557 7.50707C42.5161 7.72383 42.3182 7.90118 42.1006 7.90118Z" fill="#7FB5CE"/>
<path d="M49.4006 9.38478C49.361 9.38478 49.3017 9.38478 49.2621 9.36503C48.7082 9.18731 48.1344 9.02933 47.5607 8.87135C47.3233 8.8121 47.1848 8.55538 47.2442 8.31841C47.3035 8.08144 47.5607 7.94321 47.7981 8.00245C48.3916 8.16043 48.9654 8.31841 49.5391 8.49614C49.7765 8.57513 49.915 8.8121 49.8358 9.04907C49.7765 9.26629 49.5984 9.38478 49.4006 9.38478Z" fill="#7FB5CE"/>
<path d="M50.2517 18.5813C50.0934 18.4828 49.8758 18.5025 49.7175 18.6208L45.5234 22.1874C43.0702 21.4189 40.4588 21.0445 37.8077 21.1036L34.7611 16.5123C34.6621 16.3546 34.4643 16.2758 34.2665 16.3152L27.8566 17.9508C27.6785 17.9902 27.54 18.1675 27.5202 18.3449L27.085 23.823C24.7308 25.0447 22.6337 26.6409 20.8532 28.4932L15.4522 27.3897C15.2544 27.3503 15.0763 27.4291 14.9774 27.6064L11.6142 33.2816C11.5153 33.4393 11.535 33.656 11.6538 33.8136L15.2346 37.9912C14.463 40.4347 14.0871 43.0358 14.1465 45.6763L9.5369 48.7109C9.37863 48.8095 9.2995 49.0065 9.33906 49.2036L10.9811 55.5882C11.0207 55.7655 11.1987 55.9034 11.3768 55.9231L16.8766 56.3567C18.1032 58.7016 19.7057 60.7904 21.5654 62.5639L20.4575 67.9435C20.4179 68.1405 20.497 68.3179 20.6751 68.4164L26.3728 71.7663C26.5311 71.8648 26.7487 71.8451 26.907 71.7269L31.1011 68.1602C33.5543 68.9287 36.1657 69.3031 38.8167 69.244L41.8634 73.8354C41.9623 73.993 42.1602 74.0718 42.358 74.0324L48.7679 72.3969C48.9459 72.3575 49.0844 72.1801 49.1042 72.0028L49.5395 66.5247C51.8937 65.3029 53.9908 63.7068 55.7713 61.8545L61.1723 62.958C61.3701 62.9974 61.5481 62.9186 61.6471 62.7412L65.0103 57.0661C65.1092 56.9084 65.0894 56.6917 64.9707 56.534L61.3899 52.3565C62.1614 49.913 62.5373 47.3119 62.478 44.6713L67.0876 41.6367C67.2458 41.5382 67.325 41.3411 67.2854 41.1441L65.6434 34.7595C65.6038 34.5822 65.4257 34.4442 65.2477 34.4245L59.7478 33.991C58.5212 31.6461 56.9188 29.5573 55.0591 27.7838L56.167 22.4042C56.2066 22.2071 56.1274 22.0298 55.9494 21.9313L50.2517 18.5813Z" fill="#7FB5CE"/>
<path d="M38.3225 51.7059C37.7092 51.7059 37.0761 51.6074 36.4628 51.4301C34.7812 50.9374 33.3963 49.8142 32.5654 48.2969C31.7345 46.7598 31.5367 45.0061 32.0313 43.3311C32.5259 41.6561 33.6535 40.2767 35.1769 39.4491C36.72 38.6215 38.4808 38.4244 40.1624 38.9171C41.844 39.4097 43.2288 40.5329 44.0598 42.0502C44.8907 43.5873 45.0885 45.341 44.5939 47.016C44.0993 48.691 42.9716 50.0704 41.4483 50.898C40.4591 51.43 39.3908 51.7059 38.3225 51.7059ZM38.3027 39.9812C37.452 39.9812 36.6013 40.1979 35.81 40.6117C34.5834 41.2817 33.6931 42.3655 33.3172 43.7055C32.9215 45.0258 33.0798 46.4445 33.7327 47.6466C34.4053 48.8683 35.4934 49.7551 36.8387 50.1295C38.1642 50.5236 39.5886 50.3659 40.7954 49.7157C42.022 49.0457 42.9123 47.9619 43.2882 46.6219C43.6839 45.3016 43.5256 43.9025 42.8727 42.6808C42.2001 41.4591 41.112 40.5723 39.7667 40.1979C39.2919 40.06 38.7973 39.9812 38.3027 39.9812Z" fill="url(#paint0_linear_157_4025)"/>
<path d="M38.2437 61.8745C30.8248 61.8745 24.0588 56.889 22.12 49.4207C21.7639 48.0413 21.5858 46.6422 21.5858 45.2628C21.5858 42.3267 22.3772 39.4497 23.9005 36.8683C26.1558 33.0652 29.7763 30.3458 34.0891 29.2423C35.2365 28.9468 36.4236 28.7694 37.5908 28.73L37.6501 30.07C36.562 30.1094 35.4937 30.267 34.4254 30.5429C34.2869 30.5823 34.1484 30.6217 34.0297 30.6611C26.4328 32.8287 21.7639 40.4153 23.2081 48.1004C23.2674 48.4354 23.3466 48.7704 23.4257 49.1054C25.5228 57.2437 33.8912 62.1701 42.0619 60.0616C48.9664 58.2881 53.5562 52.0809 53.5562 45.3023C53.5562 44.0411 53.3979 42.7799 53.0814 41.5188C52.389 38.8389 50.9843 36.4151 49.0257 34.484L49.9754 33.5381C52.112 35.6466 53.6353 38.2871 54.3871 41.2035C54.7432 42.5829 54.9213 43.9623 54.9213 45.322C54.9213 52.7115 49.916 59.4704 42.418 61.3819C41.0134 61.7169 39.6285 61.8745 38.2437 61.8745Z" fill="url(#paint1_linear_157_4025)"/>
<path d="M95.7538 10.4674C95.5955 10.4674 95.457 10.3885 95.3779 10.2502C95.0812 9.75655 94.7448 9.26287 94.4085 8.78894C94.27 8.59147 94.3096 8.31501 94.5074 8.15703C94.7053 8.0188 94.9822 8.05829 95.1405 8.25576C95.4966 8.74944 95.8527 9.26287 96.1692 9.77629C96.3077 9.99351 96.2286 10.27 96.011 10.3884C95.9121 10.4477 95.8329 10.4674 95.7538 10.4674Z" fill="#7FB5CE"/>
<path d="M81.9456 39.6269C81.728 39.6269 81.5302 39.4693 81.5104 39.2525C81.4708 39.0161 81.6489 38.7796 81.8863 38.7402C82.7568 38.622 83.6075 38.4249 84.4582 38.1884C84.7549 38.1096 85.0517 38.0111 85.3484 37.9126C85.5858 37.8338 85.843 37.952 85.9222 38.1884C86.0013 38.4249 85.8826 38.6811 85.6452 38.7599C85.3484 38.8584 85.0319 38.957 84.7154 39.0555C83.8251 39.3117 82.9348 39.5087 82.0248 39.6466C81.9852 39.6269 81.9654 39.6269 81.9456 39.6269ZM90.7098 36.0406C90.5713 36.0406 90.4328 35.9814 90.3537 35.8632C90.2152 35.6662 90.2548 35.3903 90.4526 35.2326C91.4022 34.5232 92.2925 33.735 93.1037 32.868C93.2619 32.6906 93.5587 32.6709 93.7367 32.8483C93.9148 33.0059 93.9346 33.3015 93.7565 33.4789C92.9058 34.3853 91.976 35.2129 90.9868 35.9617C90.8879 36.0012 90.8087 36.0406 90.7098 36.0406ZM96.7043 28.7496C96.6449 28.7496 96.5658 28.7298 96.5064 28.7101C96.2888 28.6116 96.1899 28.3357 96.2888 28.119C96.8032 27.0549 97.1989 25.9317 97.4956 24.7888C97.555 24.5523 97.8122 24.4144 98.0496 24.4735C98.287 24.5326 98.4255 24.7888 98.3661 25.0252C98.0496 26.2273 97.6341 27.3899 97.0999 28.5131C97.0406 28.651 96.8823 28.7496 96.7043 28.7496ZM98.5442 19.488C98.3068 19.488 98.1089 19.3106 98.0891 19.0742C98.0298 17.8919 97.8517 16.7292 97.5748 15.5666C97.5154 15.3302 97.6539 15.0937 97.9111 15.0346C98.1485 14.9755 98.3859 15.1134 98.4452 15.3696C98.742 16.5716 98.9201 17.813 98.9992 19.0348C99.019 19.2909 98.8211 19.488 98.5837 19.5077C98.5442 19.488 98.5442 19.488 98.5442 19.488Z" fill="#7FB5CE"/>
<path d="M76.0292 39.5899C76.0094 39.5899 75.9896 39.5899 75.95 39.5899C75.3565 39.4911 74.7432 39.3726 74.1497 39.2146C73.9123 39.1554 73.7738 38.8987 73.8332 38.6617C73.8925 38.4247 74.1299 38.2865 74.3871 38.3457C74.9608 38.484 75.5346 38.6222 76.1083 38.7012C76.3457 38.7407 76.5238 38.9777 76.4842 39.2146C76.4446 39.4319 76.2468 39.5899 76.0292 39.5899Z" fill="#7FB5CE"/>
<path d="M62.6347 30.6659C62.4764 30.6659 62.3379 30.5869 62.2588 30.4487C61.9423 29.9352 61.6455 29.3823 61.3685 28.8492C61.2498 28.6319 61.3487 28.3555 61.5664 28.2567C61.784 28.1383 62.061 28.237 62.1599 28.4542C62.4171 28.9676 62.7138 29.5008 63.0106 29.9945C63.1491 30.2117 63.0699 30.4881 62.8721 30.6066C62.793 30.6461 62.7138 30.6659 62.6347 30.6659Z" fill="#7FB5CE"/>
<path d="M59.9836 23.6062C59.766 23.6062 59.5682 23.4486 59.5484 23.2319C59.3703 22.1875 59.2912 21.1234 59.2912 20.0593C59.2912 19.9016 59.2912 19.744 59.2912 19.5864C59.2912 19.3302 59.5088 19.1331 59.7462 19.1528C60.0034 19.1528 60.1815 19.3696 60.1815 19.6061C60.1815 19.744 60.1815 19.9016 60.1815 20.0396C60.1815 21.0445 60.2606 22.0692 60.4386 23.0742C60.4782 23.3107 60.3199 23.5471 60.0628 23.5865C60.043 23.6062 60.0232 23.6062 59.9836 23.6062ZM60.7552 14.3447C60.7156 14.3447 60.6563 14.3447 60.6167 14.325C60.3793 14.2462 60.2606 13.99 60.3397 13.7535C60.7354 12.6106 61.23 11.4874 61.8235 10.4233C61.9422 10.2066 62.2192 10.1278 62.4368 10.246C62.6544 10.3642 62.7336 10.6401 62.6148 10.8569C62.0411 11.8618 61.5663 12.9456 61.1904 14.0491C61.1113 14.2265 60.9332 14.3447 60.7552 14.3447ZM65.7407 6.52166C65.622 6.52166 65.5033 6.48224 65.4241 6.38372C65.2461 6.20637 65.2659 5.93049 65.4439 5.75314C66.3342 4.90581 67.2838 4.157 68.3125 3.48702C68.5104 3.34908 68.8071 3.4082 68.9258 3.62496C69.0643 3.84172 69.005 4.1176 68.7874 4.23583C67.818 4.86641 66.8881 5.59551 66.0572 6.40343C65.9781 6.48225 65.8594 6.52166 65.7407 6.52166ZM73.8322 1.91059C73.6343 1.91059 73.4563 1.77265 73.3969 1.5953C73.3376 1.35884 73.4761 1.10267 73.7135 1.04355C74.9005 0.708563 76.1073 0.491798 77.3141 0.373566C77.5713 0.353861 77.7889 0.531209 77.8087 0.767674C77.8285 1.00414 77.6504 1.2406 77.413 1.26031C76.2656 1.37854 75.0983 1.5953 73.9707 1.91059C73.9113 1.91059 73.8718 1.91059 73.8322 1.91059Z" fill="#7FB5CE"/>
<path d="M84.8917 2.03245C84.8522 2.03245 84.7928 2.03244 84.7532 2.01269C84.1993 1.83497 83.6255 1.69675 83.0518 1.57827C82.8144 1.51902 82.6561 1.28206 82.6957 1.04509C82.755 0.808123 82.9925 0.650148 83.2299 0.689642C83.8234 0.808125 84.4169 0.9661 85.0104 1.14383C85.2478 1.22281 85.3863 1.45978 85.3072 1.69674C85.2676 1.91396 85.0896 2.03245 84.8917 2.03245Z" fill="#7FB5CE"/>
<path d="M85.3275 6.541C85.2483 6.48188 85.1296 6.50159 85.0505 6.56071L82.8941 8.39331C81.6279 7.9992 80.3024 7.80215 78.9373 7.84156L77.3744 5.49661C77.3151 5.41779 77.2162 5.37838 77.1172 5.39809L73.8332 6.24542C73.7342 6.26512 73.6749 6.34394 73.6551 6.44247L73.4375 9.26035C72.2307 9.89092 71.1624 10.6988 70.2325 11.6644L67.4628 11.0929C67.3639 11.0732 67.265 11.1126 67.2254 11.2112L65.5042 14.1276C65.4449 14.2064 65.4647 14.3246 65.524 14.4034L67.3639 16.5513C66.9682 17.8125 66.7704 19.1327 66.81 20.4924L64.4557 22.0491C64.3766 22.1083 64.337 22.2068 64.3568 22.3053L65.2075 25.5764C65.2273 25.6749 65.3064 25.734 65.4053 25.7537L68.2344 25.9705C68.8675 27.1725 69.6786 28.2366 70.648 29.1628L70.0743 31.9215C70.0545 32.0201 70.094 32.1186 70.193 32.158L73.1209 33.8724C73.2001 33.9315 73.3188 33.9118 73.3979 33.8526L75.5543 32.0201C76.8205 32.4142 78.146 32.6112 79.5111 32.5718L81.074 34.9167C81.1333 34.9956 81.2323 35.035 81.3312 35.0153L84.6153 34.168C84.7142 34.1482 84.7735 34.0694 84.7933 33.9709L85.0109 31.153C86.2177 30.5225 87.2861 29.7145 88.2159 28.749L90.9856 29.3204C91.0845 29.3401 91.1834 29.3007 91.223 29.2022L92.9442 26.2858C93.0035 26.207 92.9837 26.0887 92.9244 26.0099L91.0845 23.862C91.4802 22.6009 91.678 21.2806 91.6385 19.921L93.9927 18.3642C94.0718 18.3051 94.1114 18.2066 94.0916 18.1081L93.2409 14.837C93.2211 14.7384 93.142 14.6793 93.0431 14.6596L90.214 14.4429C89.581 13.2408 88.7698 12.1767 87.8004 11.2506L88.3741 8.49184C88.3939 8.39331 88.3544 8.29478 88.2555 8.25537L85.3275 6.541Z" fill="#7FB5CE"/>
<path d="M79.1947 23.8819C78.8386 23.8819 78.4825 23.8228 78.1461 23.7242C77.1965 23.4484 76.425 22.8178 75.9502 21.9508C74.9808 20.1773 75.6336 17.9309 77.4339 16.9653C79.2145 15.9997 81.4698 16.65 82.4392 18.4432C82.914 19.3102 83.0129 20.2955 82.7359 21.2413C82.459 22.1872 81.8259 22.9557 80.9554 23.4287C80.4015 23.7242 79.808 23.8819 79.1947 23.8819ZM79.1947 17.8717C78.8188 17.8717 78.4231 17.9703 78.067 18.1476C76.9393 18.7585 76.5041 20.1773 77.1372 21.3202C77.7505 22.4434 79.1749 22.8769 80.3223 22.2463C80.8763 21.9508 81.2719 21.4581 81.45 20.8472C81.628 20.2561 81.5687 19.6255 81.2522 19.0738C80.8367 18.3053 80.0256 17.8717 79.1947 17.8717Z" fill="url(#paint2_linear_157_4025)"/>
<path d="M79.1562 29.1233C77.5933 29.1233 76.0502 28.7095 74.6456 27.8819C72.6078 26.6799 71.1636 24.7685 70.5701 22.4629C70.3723 21.7338 70.2932 20.985 70.2932 20.2559C70.2932 16.3148 72.9639 12.7088 76.9602 11.6841C76.98 11.6841 76.9998 11.6841 77.0196 11.6644C77.5735 11.5264 78.1473 11.4476 78.721 11.4082C78.7606 11.4082 78.8001 11.4082 78.8397 11.4082L78.899 12.7482C78.3649 12.7679 77.8307 12.8467 77.3164 12.9846C73.3003 14.0093 70.8669 18.108 71.8956 22.1279C72.3902 24.0591 73.6168 25.6946 75.3578 26.7193C77.0987 27.744 79.1167 28.0198 81.0555 27.5272C84.4583 26.6602 86.7136 23.6058 86.7136 20.2559C86.7136 19.645 86.6345 19.0145 86.4762 18.3839C86.1399 17.0636 85.4475 15.8616 84.4781 14.9158L85.4277 13.9699C86.5751 15.0931 87.3863 16.5119 87.7819 18.0489C87.9798 18.778 88.0589 19.5268 88.0589 20.2559C88.0589 24.197 85.3881 27.8031 81.3918 28.8278C80.64 29.0248 79.8882 29.1233 79.1562 29.1233Z" fill="url(#paint3_linear_157_4025)"/>
<defs>
<linearGradient id="paint0_linear_157_4025" x1="31.7545" y1="45.1747" x2="44.8628" y2="45.1747" gradientUnits="userSpaceOnUse">
<stop stop-color="#DAE3FE"/>
<stop offset="1" stop-color="#E9EFFD"/>
</linearGradient>
<linearGradient id="paint1_linear_157_4025" x1="21.5949" y1="45.3069" x2="54.8955" y2="45.3069" gradientUnits="userSpaceOnUse">
<stop stop-color="#DAE3FE"/>
<stop offset="1" stop-color="#E9EFFD"/>
</linearGradient>
<linearGradient id="paint2_linear_157_4025" x1="75.501" y1="20.2047" x2="82.8873" y2="20.2047" gradientUnits="userSpaceOnUse">
<stop stop-color="#DAE3FE"/>
<stop offset="1" stop-color="#E9EFFD"/>
</linearGradient>
<linearGradient id="paint3_linear_157_4025" x1="70.2833" y1="20.2726" x2="88.0417" y2="20.2726" gradientUnits="userSpaceOnUse">
<stop stop-color="#DAE3FE"/>
<stop offset="1" stop-color="#E9EFFD"/>
</linearGradient>
</defs>
</svg>
