<svg width="208" height="207" viewBox="0 0 208 207" fill="none" xmlns="http://www.w3.org/2000/svg">
<g clip-path="url(#clip0_157_4071)">
<path d="M188.567 47.5672C188.192 47.5672 187.763 47.3533 187.548 47.0324C186.691 45.6953 185.727 44.4117 184.762 43.128C184.387 42.5932 184.494 41.8444 185.03 41.4165C185.566 41.0421 186.316 41.149 186.745 41.6839C187.709 43.021 188.674 44.3581 189.585 45.6953C189.96 46.2301 189.799 47.0324 189.263 47.3533C189.049 47.5137 188.781 47.5672 188.567 47.5672Z" fill="#F58220"/>
<path d="M103.475 206.282C101.653 206.282 99.7773 206.229 97.9554 206.122C97.2588 206.068 96.7766 205.535 96.8301 204.841C96.8837 204.147 97.4731 203.667 98.1161 203.72C101.278 203.88 104.493 203.88 107.6 203.773C108.297 203.773 108.833 204.254 108.887 204.948C108.94 205.641 108.404 206.175 107.708 206.229C106.314 206.229 104.921 206.282 103.475 206.282ZM123.14 204.361C122.55 204.361 122.068 203.934 121.961 203.4C121.854 202.759 122.282 202.119 122.925 201.959C125.926 201.372 128.927 200.625 131.874 199.771L132.142 199.717C132.785 199.504 133.481 199.877 133.642 200.518C133.857 201.158 133.481 201.852 132.838 202.012L132.571 202.066C129.516 202.919 126.462 203.667 123.408 204.307C123.301 204.361 123.193 204.361 123.14 204.361ZM146.985 196.622C146.502 196.622 146.074 196.355 145.859 195.928C145.591 195.341 145.859 194.593 146.449 194.327C149.289 192.992 152.129 191.498 154.808 189.95C155.397 189.63 156.147 189.79 156.469 190.377C156.79 190.964 156.63 191.711 156.04 192.032C153.254 193.633 150.36 195.181 147.467 196.515C147.36 196.568 147.199 196.622 146.985 196.622ZM168.257 183.279C167.882 183.279 167.561 183.118 167.293 182.852C166.864 182.318 166.971 181.571 167.454 181.144C169.865 179.169 172.276 177.034 174.473 174.846C174.955 174.365 175.706 174.365 176.188 174.846C176.67 175.326 176.67 176.073 176.188 176.554C173.884 178.795 171.472 180.984 168.954 183.012C168.793 183.225 168.525 183.279 168.257 183.279ZM185.619 165.186C185.351 165.186 185.136 165.132 184.868 164.972C184.333 164.598 184.225 163.798 184.6 163.264C186.476 160.756 188.244 158.14 189.905 155.418C190.28 154.831 190.977 154.671 191.566 154.992C192.156 155.365 192.317 156.059 191.995 156.646C190.334 159.368 188.512 162.09 186.583 164.652C186.369 165.025 185.994 165.186 185.619 165.186ZM198.05 143.463C197.889 143.463 197.729 143.41 197.568 143.356C196.925 143.09 196.657 142.396 196.925 141.755C198.157 138.873 199.229 135.884 200.14 132.896C200.354 132.255 200.997 131.881 201.64 132.095C202.283 132.308 202.658 132.949 202.444 133.589C201.479 136.632 200.354 139.727 199.122 142.663C198.961 143.143 198.479 143.463 198.05 143.463ZM204.802 119.339C204.748 119.339 204.694 119.339 204.641 119.339C203.998 119.232 203.516 118.645 203.623 117.951C204.105 114.856 204.426 111.707 204.587 108.558C204.641 107.917 205.23 107.384 205.873 107.437C206.57 107.491 207.052 108.024 206.998 108.718C206.838 111.92 206.516 115.176 206.034 118.325C205.873 118.912 205.391 119.339 204.802 119.339ZM205.391 94.3076C204.748 94.3076 204.266 93.8272 204.159 93.2401C203.837 90.1446 203.355 86.9956 202.765 83.9001C202.658 83.2596 203.087 82.6192 203.73 82.459C204.373 82.3523 205.016 82.7793 205.177 83.4198C205.82 86.5687 206.248 89.771 206.57 92.9733C206.623 93.6138 206.141 94.2542 205.498 94.3076C205.445 94.3076 205.445 94.3076 205.391 94.3076ZM199.872 69.9166C199.39 69.9166 198.907 69.5964 198.747 69.1161C197.675 66.1806 196.496 63.2451 195.156 60.363C194.889 59.776 195.156 59.0288 195.746 58.7619C196.335 58.495 197.085 58.7619 197.353 59.349C198.693 62.2311 199.979 65.2733 201.051 68.3155C201.265 68.9559 200.944 69.6498 200.301 69.8633C200.14 69.8633 199.979 69.9166 199.872 69.9166Z" fill="#F58220"/>
<path d="M82.5757 204.101C82.4686 204.101 82.415 204.101 82.3078 204.101C80.7003 203.78 79.0928 203.406 77.5389 202.978C76.8959 202.817 76.5208 202.122 76.6815 201.48C76.8423 200.838 77.5389 200.464 78.1819 200.624C79.7358 201.052 81.2897 201.373 82.8436 201.748C83.4866 201.908 83.9153 202.55 83.8082 203.192C83.6474 203.727 83.1116 204.101 82.5757 204.101Z" fill="#F58220"/>
<path d="M16.5055 157.942C16.0768 157.942 15.7017 157.728 15.4874 157.353C14.63 155.963 13.7727 154.519 13.0225 153.128C12.701 152.54 12.9153 151.791 13.5048 151.47C14.0942 151.149 14.8444 151.363 15.1659 151.951C15.916 153.342 16.7734 154.732 17.5771 156.07C17.9522 156.658 17.7379 157.407 17.2021 157.728C16.9341 157.888 16.7198 157.942 16.5055 157.942Z" fill="#F58220"/>
<path d="M7.61086 139.834C7.12861 139.834 6.64635 139.514 6.4856 139.034C5.62826 136.739 4.8245 134.337 4.12791 131.935C3.91357 131.295 3.75282 130.601 3.59207 129.961C3.43132 129.32 3.80641 128.626 4.44942 128.466C5.09242 128.306 5.78901 128.68 5.94976 129.32C6.11051 129.961 6.32485 130.601 6.4856 131.242C7.18219 133.59 7.93236 135.885 8.78971 138.18C9.00404 138.82 8.68254 139.514 8.09311 139.728C7.93236 139.834 7.77161 139.834 7.61086 139.834ZM1.87739 115.924C1.28797 115.924 0.752126 115.443 0.644958 114.856C0.269871 111.707 0.055537 108.505 0.00195312 105.356C0.00195312 104.662 0.53779 104.129 1.1808 104.129C1.8238 104.129 2.41323 104.662 2.41323 105.303C2.46681 108.398 2.68115 111.494 3.05623 114.589C3.10982 115.23 2.68115 115.87 1.98456 115.924C1.98456 115.924 1.93097 115.924 1.87739 115.924ZM2.03814 91.266C1.98456 91.266 1.93097 91.266 1.87739 91.266C1.23438 91.1592 0.752128 90.5721 0.805711 89.9317C1.23438 86.7827 1.77022 83.6338 2.46681 80.5382C2.62756 79.8978 3.27057 79.4707 3.91358 79.6309C4.55658 79.791 4.98525 80.4315 4.8245 81.0719C4.12791 84.0608 3.59207 87.1563 3.21699 90.1985C3.1634 90.839 2.62757 91.266 2.03814 91.266ZM8.1467 67.4088C7.98595 67.4088 7.8252 67.4087 7.71803 67.302C7.07502 67.0351 6.8071 66.3413 7.02144 65.7542C8.1467 62.8187 9.4863 59.8833 10.8795 57.0546C11.201 56.4675 11.8976 56.2006 12.487 56.5209C13.0764 56.8411 13.3443 57.5349 13.0228 58.122C11.6297 60.8974 10.3436 63.7261 9.27197 66.6082C9.11121 67.1419 8.62896 67.4088 8.1467 67.4088ZM19.828 45.7397C19.6137 45.7397 19.3457 45.6864 19.1314 45.5263C18.5956 45.1527 18.4348 44.4054 18.8099 43.8183C20.6317 41.2565 22.6144 38.6946 24.6505 36.2929C25.0792 35.7592 25.8294 35.7058 26.3652 36.1328C26.9011 36.5597 26.9546 37.307 26.526 37.8407C24.5434 40.1891 22.6143 42.6441 20.8461 45.206C20.5782 45.5262 20.2031 45.7397 19.828 45.7397ZM36.3318 27.4332C36.0103 27.4332 35.6352 27.273 35.4209 27.0062C34.9922 26.5258 35.0458 25.7253 35.5281 25.2983C37.9393 23.2168 40.4578 21.242 43.0298 19.374C43.5657 19.0004 44.3158 19.1071 44.7445 19.6409C45.1196 20.1746 45.0124 20.9218 44.4766 21.3488C41.9581 23.1634 39.4933 25.0848 37.1892 27.113C36.9212 27.3264 36.6533 27.4332 36.3318 27.4332ZM56.8009 13.6098C56.3722 13.6098 55.9435 13.343 55.7292 12.9694C55.4077 12.3823 55.6756 11.6351 56.265 11.3149C59.105 9.87381 61.9985 8.5395 64.9456 7.36532C65.5886 7.09846 66.2852 7.41868 66.4995 8.05915C66.7675 8.69961 66.446 9.39346 65.803 9.60694C62.9094 10.7811 60.0695 12.0621 57.3367 13.4497C57.176 13.6098 57.0152 13.6098 56.8009 13.6098ZM80.0027 5.12369C79.4669 5.12369 78.931 4.75011 78.8238 4.21639C78.6631 3.57593 79.0918 2.93546 79.7348 2.77535C82.8426 2.02814 86.0041 1.44105 89.112 1.01408C89.755 0.907336 90.398 1.38766 90.5051 2.02813C90.6123 2.66859 90.13 3.30907 89.487 3.41582C86.4327 3.84279 83.3249 4.42986 80.3242 5.12369C80.217 5.12369 80.1099 5.12369 80.0027 5.12369ZM114.028 2.93546C113.975 2.93546 113.921 2.93546 113.921 2.93546C110.813 2.61522 107.706 2.45511 104.598 2.40174C103.901 2.40174 103.365 1.86802 103.419 1.17419C103.419 0.533726 103.955 0 104.651 0C107.813 0.0533719 111.028 0.213488 114.189 0.533719C114.832 0.587091 115.368 1.17418 115.261 1.86802C115.154 2.45511 114.618 2.93546 114.028 2.93546Z" fill="#F58220"/>
<path d="M133.802 6.9466C133.694 6.9466 133.534 6.94661 133.427 6.89313C131.926 6.41176 130.372 5.98387 128.818 5.55598C128.175 5.39552 127.8 4.70018 127.961 4.05835C128.122 3.41652 128.818 3.04213 129.461 3.20259C131.069 3.63048 132.623 4.05836 134.177 4.53974C134.82 4.75368 135.195 5.3955 134.98 6.03733C134.82 6.62568 134.337 6.9466 133.802 6.9466Z" fill="#F58220"/>
<path d="M45.4785 53.4464C46.3292 52.6496 47.4772 52.2614 48.6458 52.3635C61.0689 53.477 84.2443 47.5113 99.3837 32.0659C100.44 30.9933 102.356 31.596 103.556 32.4949C120.396 45.0392 148.318 47.6339 158.014 48.1651C160.023 48.2774 161.643 49.82 161.848 51.8119C170.663 136.65 115.23 167.397 103.74 172.822C102.479 173.414 101.003 173.332 99.8245 172.597C42.5264 137.027 44.9762 90.7729 44.187 56.5007C44.1562 55.3566 44.6277 54.2329 45.4785 53.4464Z" fill="#F58220"/>
<path opacity="0.61" d="M102.192 166.672C101.936 166.672 101.68 166.601 101.454 166.458C79.4882 152.463 65.1688 135.73 57.6862 115.31C51.0032 97.0758 50.6752 78.4943 50.3882 62.109L50.3472 59.923C50.3369 59.5552 50.4804 59.2181 50.7367 58.9525C50.9929 58.6869 51.3414 58.5439 51.7104 58.5439C65.3123 58.5439 85.7304 52.5578 100.706 39.186C101.167 38.7774 101.844 38.7263 102.366 39.0634C118.818 49.9427 142.29 53.1094 154.816 54.0288C155.482 54.0799 156.005 54.5906 156.067 55.2648C158.978 88.3724 152.069 116.362 135.536 138.468C123.184 154.976 108.537 163.577 102.817 166.509C102.612 166.621 102.407 166.672 102.192 166.672ZM102.551 166.029L102.674 166.274L102.551 166.029C108.24 163.117 122.795 154.567 135.085 138.151C151.536 116.158 158.414 88.2907 155.513 55.3261C155.482 54.9379 155.165 54.6315 154.775 54.6008C142.198 53.6815 118.613 50.4943 102.059 39.5436C101.751 39.3393 101.352 39.3699 101.085 39.6151C85.997 53.089 65.425 59.116 51.7309 59.116C51.4952 59.116 51.2902 59.1977 51.1467 59.3611C50.9929 59.5144 50.9109 59.7187 50.9212 59.9332L50.9622 62.1193C51.2492 78.4636 51.5772 96.9839 58.2295 115.136C65.671 135.434 79.9187 152.075 101.772 166.008C101.997 166.141 102.305 166.162 102.551 166.029Z" fill="white"/>
<path opacity="0.61" d="M122.77 85.4708H120.177C118.885 85.4708 117.85 84.4289 117.85 83.152V74.326C117.85 71.1695 115.277 68.6055 112.11 68.6055H96.0581C92.8909 68.6055 90.3181 71.1695 90.3181 74.326V83.152C90.3181 84.4391 89.2726 85.4708 87.9913 85.4708H85.3981C84.1065 85.4708 83.0713 84.4289 83.0713 83.152V74.326C83.0713 67.1753 88.8831 61.3833 96.0581 61.3833H112.11C119.285 61.3833 125.097 67.1753 125.097 74.326V83.152C125.097 84.4289 124.051 85.4708 122.77 85.4708Z" fill="white"/>
<path opacity="0.61" d="M125.979 87.5547H82.1808C79.4953 87.5547 77.3222 89.7203 77.3222 92.3967V125.893C77.3222 128.569 79.4953 130.735 82.1808 130.735H125.979C128.665 130.735 130.838 128.569 130.838 125.893V92.3967C130.838 89.7203 128.665 87.5547 125.979 87.5547ZM110.348 119.927C110.625 121.05 109.764 122.144 108.595 122.144H99.5649C98.3964 122.144 97.5456 121.061 97.8121 119.927L99.9237 111.183C97.4329 109.701 95.8134 106.933 95.9774 103.797C96.1926 99.7415 99.4932 96.4113 103.562 96.1661C108.277 95.8699 112.203 99.5985 112.203 104.236C112.203 107.188 110.614 109.773 108.247 111.183L110.348 119.927Z" fill="white"/>
</g>
<defs>
<clipPath id="clip0_157_4071">
<rect width="207.001" height="206.282" fill="white" transform="translate(0.00195312)"/>
</clipPath>
</defs>
</svg>
