<svg width="107" height="107" viewBox="0 0 107 107" fill="none" xmlns="http://www.w3.org/2000/svg">
<path d="M97.4704 24.6735C97.2765 24.6735 97.0549 24.5625 96.9441 24.396C96.501 23.7025 96.0024 23.0366 95.5038 22.3708C95.3099 22.0934 95.3653 21.705 95.6423 21.483C95.9193 21.2888 96.3071 21.3443 96.5287 21.6217C97.0272 22.3153 97.5258 23.0089 97.9967 23.7025C98.1906 23.9799 98.1075 24.396 97.8305 24.5625C97.7197 24.6457 97.5812 24.6735 97.4704 24.6735Z" fill="#F58220"/>
<path d="M53.4855 107C52.5438 107 51.5744 106.972 50.6326 106.917C50.2726 106.889 50.0233 106.613 50.051 106.253C50.0787 105.893 50.3834 105.644 50.7157 105.671C52.3499 105.754 54.0118 105.754 55.6183 105.699C55.9783 105.699 56.2553 105.948 56.283 106.308C56.3107 106.668 56.0337 106.945 55.6737 106.972C54.9535 106.972 54.2334 107 53.4855 107ZM63.6507 106.004C63.346 106.004 63.0967 105.782 63.0413 105.505C62.9859 105.173 63.2075 104.841 63.5399 104.758C65.091 104.453 66.6421 104.066 68.1654 103.623L68.3039 103.595C68.6363 103.484 68.9964 103.678 69.0795 104.01C69.1903 104.342 68.9964 104.702 68.664 104.785L68.5255 104.813C66.9467 105.256 65.368 105.644 63.7892 105.976C63.7338 106.004 63.6784 106.004 63.6507 106.004ZM75.9763 101.989C75.727 101.989 75.5054 101.851 75.3946 101.629C75.2561 101.325 75.3946 100.937 75.6993 100.799C77.1673 100.107 78.6353 99.3316 80.0202 98.5287C80.3248 98.3626 80.7126 98.4457 80.8788 98.7502C81.045 99.0547 80.9619 99.4423 80.6572 99.6084C79.2169 100.439 77.7212 101.242 76.2255 101.934C76.1701 101.962 76.0871 101.989 75.9763 101.989ZM86.9723 95.0682C86.7785 95.0682 86.6123 94.9851 86.4738 94.8467C86.2522 94.5698 86.3076 94.1823 86.5569 93.9608C87.8033 92.9365 89.0497 91.8291 90.1853 90.694C90.4346 90.4449 90.8224 90.4449 91.0716 90.694C91.3209 90.9432 91.3209 91.3308 91.0716 91.5799C89.8806 92.7427 88.6342 93.8777 87.3324 94.9298C87.2493 95.0405 87.1108 95.0682 86.9723 95.0682ZM95.9465 85.6831C95.808 85.6831 95.6972 85.6554 95.5587 85.5724C95.2817 85.3786 95.2263 84.9633 95.4202 84.6865C96.3896 83.3853 97.3037 82.0288 98.1623 80.6169C98.3562 80.3123 98.7163 80.2293 99.021 80.3954C99.3256 80.5892 99.4087 80.9491 99.2425 81.2536C98.3839 82.6655 97.4422 84.0774 96.445 85.4063C96.3343 85.6001 96.1404 85.6831 95.9465 85.6831ZM102.372 74.4156C102.289 74.4156 102.206 74.3879 102.123 74.3602C101.791 74.2218 101.652 73.8619 101.791 73.5296C102.428 72.0347 102.982 70.4844 103.453 68.934C103.563 68.6018 103.896 68.408 104.228 68.5188C104.561 68.6295 104.754 68.9617 104.644 69.2939C104.145 70.872 103.563 72.4777 102.926 74.0003C102.843 74.2495 102.594 74.4156 102.372 74.4156ZM105.862 61.9022C105.835 61.9022 105.807 61.9022 105.779 61.9022C105.447 61.8468 105.198 61.5423 105.253 61.1824C105.502 59.5767 105.668 57.9433 105.752 56.3099C105.779 55.9777 106.084 55.7009 106.416 55.7286C106.776 55.7562 107.026 56.0331 106.998 56.393C106.915 58.054 106.749 59.7428 106.499 61.3762C106.416 61.6807 106.167 61.9022 105.862 61.9022ZM106.167 48.9181C105.835 48.9181 105.585 48.669 105.53 48.3645C105.364 46.7588 105.115 45.1254 104.81 43.5197C104.754 43.1875 104.976 42.8553 105.308 42.7722C105.641 42.7168 105.973 42.9383 106.056 43.2705C106.389 44.9039 106.61 46.565 106.776 48.226C106.804 48.5582 106.555 48.8905 106.222 48.9181C106.195 48.9181 106.195 48.9181 106.167 48.9181ZM103.314 36.2664C103.065 36.2664 102.816 36.1003 102.732 35.8511C102.179 34.3284 101.569 32.8058 100.877 31.3108C100.738 31.0063 100.877 30.6187 101.181 30.4803C101.486 30.3419 101.874 30.4803 102.012 30.7848C102.705 32.2798 103.37 33.8578 103.923 35.4358C104.034 35.768 103.868 36.1279 103.536 36.2387C103.453 36.2387 103.37 36.2664 103.314 36.2664Z" fill="#F58220"/>
<path d="M42.6828 105.869C42.6274 105.869 42.5997 105.869 42.5443 105.869C41.7134 105.702 40.8825 105.508 40.0792 105.286C39.7469 105.203 39.553 104.842 39.6361 104.509C39.7192 104.177 40.0792 103.982 40.4116 104.066C41.2149 104.288 42.0181 104.454 42.8213 104.648C43.1537 104.731 43.3753 105.064 43.3199 105.397C43.2368 105.675 42.9598 105.869 42.6828 105.869Z" fill="#F58220"/>
<path d="M8.53064 81.9256C8.30906 81.9256 8.11517 81.8146 8.00438 81.6204C7.56121 80.8991 7.11804 80.15 6.73027 79.4287C6.56408 79.1235 6.67487 78.7351 6.97955 78.5687C7.28423 78.4022 7.672 78.5131 7.83819 78.8183C8.22596 79.5396 8.66913 80.261 9.0846 80.9546C9.27849 81.2598 9.16769 81.6482 8.89071 81.8146C8.75222 81.8978 8.64144 81.9256 8.53064 81.9256Z" fill="#F58220"/>
<path d="M3.93311 72.5333C3.68383 72.5333 3.43455 72.3672 3.35145 72.118C2.90828 70.9276 2.49282 69.6818 2.13274 68.436C2.02195 68.1038 1.93886 67.7439 1.85576 67.4117C1.77267 67.0795 1.96656 66.7195 2.29893 66.6365C2.63131 66.5534 2.99138 66.7473 3.07447 67.0795C3.15757 67.4117 3.26836 67.7439 3.35145 68.0761C3.71153 69.2942 4.0993 70.4846 4.54247 71.6751C4.65326 72.0073 4.48707 72.3672 4.18239 72.4779C4.0993 72.5333 4.0162 72.5333 3.93311 72.5333ZM0.969429 60.1306C0.664751 60.1306 0.387771 59.8815 0.332375 59.577C0.138489 57.9436 0.027698 56.2825 0 54.6491C0 54.2892 0.276979 54.0124 0.609354 54.0124C0.94173 54.0124 1.24641 54.2892 1.24641 54.6215C1.27411 56.2272 1.3849 57.8328 1.57878 59.4385C1.60648 59.7707 1.3849 60.103 1.02482 60.1306C1.02482 60.1306 0.997127 60.1306 0.969429 60.1306ZM1.05252 47.3404C1.02483 47.3404 0.997127 47.3404 0.969429 47.3404C0.637053 47.2851 0.387772 46.9805 0.41547 46.6483C0.637053 45.0149 0.91403 43.3816 1.2741 41.7759C1.3572 41.4436 1.68958 41.2221 2.02195 41.3052C2.35433 41.3883 2.57591 41.7205 2.49282 42.0527C2.13274 43.603 1.85576 45.2087 1.66188 46.7867C1.63418 47.119 1.3572 47.3404 1.05252 47.3404ZM4.21009 34.9655C4.127 34.9655 4.0439 34.9655 3.98851 34.9101C3.65613 34.7717 3.51764 34.4118 3.62843 34.1072C4.21009 32.5846 4.90254 31.062 5.62269 29.5947C5.78888 29.2902 6.14895 29.1517 6.45363 29.3179C6.75831 29.484 6.89679 29.8439 6.73061 30.1484C6.01046 31.588 5.34571 33.0553 4.79175 34.5502C4.70866 34.8271 4.45937 34.9655 4.21009 34.9655ZM10.2482 23.7256C10.1375 23.7256 9.99897 23.6979 9.88817 23.6149C9.61119 23.4211 9.5281 23.0335 9.72198 22.7289C10.6637 21.4001 11.6885 20.0712 12.7411 18.8254C12.9626 18.5486 13.3504 18.5209 13.6274 18.7424C13.9044 18.9638 13.9321 19.3514 13.7105 19.6283C12.6857 20.8464 11.6885 22.1199 10.7745 23.4487C10.636 23.6148 10.4421 23.7256 10.2482 23.7256ZM18.7792 14.2298C18.613 14.2298 18.4191 14.1468 18.3084 14.0083C18.0868 13.7592 18.1145 13.3439 18.3638 13.1224C19.6102 12.0427 20.912 11.0184 22.2415 10.0495C22.5184 9.85567 22.9062 9.91103 23.1278 10.1879C23.3217 10.4647 23.2663 10.8523 22.9893 11.0738C21.6875 12.0151 20.4134 13.0117 19.2224 14.0637C19.0839 14.1745 18.9454 14.2298 18.7792 14.2298ZM29.3598 7.05954C29.1383 7.05954 28.9167 6.92111 28.8059 6.72732C28.6397 6.42279 28.7782 6.03522 29.0829 5.86911C30.5509 5.12163 32.0465 4.42951 33.5699 3.82045C33.9023 3.68203 34.2624 3.84813 34.3732 4.18035C34.5117 4.51256 34.3455 4.87247 34.0131 4.9832C32.5174 5.59226 31.0494 6.25669 29.6368 6.97649C29.5537 7.05954 29.4706 7.05954 29.3598 7.05954ZM41.3531 2.6577C41.0761 2.6577 40.7991 2.46392 40.7437 2.18708C40.6606 1.85487 40.8822 1.52265 41.2146 1.4396C42.8211 1.05201 44.4552 0.747487 46.0617 0.526012C46.3941 0.470643 46.7265 0.719793 46.7819 1.05201C46.8373 1.38422 46.588 1.71644 46.2556 1.77181C44.6768 1.99329 43.0703 2.2978 41.5193 2.6577C41.4639 2.6577 41.4085 2.6577 41.3531 2.6577ZM58.9413 1.52265C58.9136 1.52265 58.8859 1.52265 58.8859 1.52265C57.2794 1.35654 55.6729 1.27349 54.0664 1.2458C53.7064 1.2458 53.4294 0.96896 53.4571 0.609062C53.4571 0.276848 53.7341 0 54.0941 0C55.7283 0.0276845 57.3902 0.110738 59.0244 0.276845C59.3567 0.304529 59.6337 0.609058 59.5783 0.968956C59.5229 1.27349 59.246 1.52265 58.9413 1.52265Z" fill="#F58220"/>
<path d="M69.1623 3.60337C69.1069 3.60337 69.0238 3.60337 68.9684 3.57563C68.1929 3.32594 67.3896 3.10399 66.5864 2.88204C66.254 2.79881 66.0601 2.43813 66.1432 2.1052C66.2263 1.77228 66.5864 1.57808 66.9188 1.66131C67.7497 1.88326 68.5529 2.10521 69.3562 2.3549C69.6886 2.46588 69.8824 2.7988 69.7717 3.13172C69.6886 3.4369 69.4393 3.60337 69.1623 3.60337Z" fill="#F58220"/>
<path d="M71.0381 46.0597C72.5546 44.5952 73.4996 42.5428 73.4996 40.2741C73.4996 38.0327 72.5537 35.8762 70.9049 34.357C70.6265 34.1005 70.1937 34.1187 69.9371 34.3962C69.6806 34.6747 69.6988 35.1074 69.9764 35.364C71.345 36.6249 72.1301 38.4143 72.1301 40.2741C72.1301 45.1896 66.9852 48.3791 62.623 46.317C62.4533 46.2368 62.3403 46.07 62.3291 45.8827C62.2738 44.9532 61.8719 41.9966 59.0411 39.9339C58.8896 39.8234 58.8085 39.6393 58.8313 39.4532C59.3525 35.1859 63.8047 32.4592 67.8829 34.0548C68.2353 34.1918 68.6325 34.0184 68.7703 33.6659C68.9081 33.3134 68.7338 32.9163 68.3814 32.7794C63.6215 30.9193 58.4229 33.9296 57.5398 38.842C57.5206 38.9487 57.4065 39.0077 57.306 38.967C55.3672 38.1828 53.1999 38.1938 51.2896 38.9672C51.1894 39.0077 51.0759 38.9492 51.0567 38.8428C50.3799 35.0882 47.0884 32.2297 43.1411 32.2297C43.1411 32.2297 43.1411 32.2297 43.1402 32.2297C39.7047 32.2297 36.647 34.4127 35.5314 37.6602C35.4081 38.018 35.5989 38.407 35.9568 38.5302C36.3137 38.6526 36.7036 38.4627 36.8268 38.1048C37.7517 35.4097 40.2898 33.5992 43.141 33.5992C46.543 33.5992 49.3588 36.158 49.7648 39.4518C49.7876 39.6374 49.7083 39.8213 49.5574 39.9316C47.632 41.3407 46.4208 43.5362 46.2719 45.8809C46.2601 46.0676 46.1481 46.2341 45.979 46.3142C41.775 48.3048 36.6712 45.4285 36.4716 40.5497C36.456 40.1718 36.1383 39.8796 35.7595 39.8933C35.3815 39.9089 35.0884 40.2275 35.1031 40.6054C35.1862 42.6323 36.0188 44.5285 37.4531 45.961C33.7956 46.5755 31 49.7637 31 53.5928V64.9175C31 66.4115 32.2112 67.6227 33.7052 67.6227H42.1576V71.0704C42.1576 72.5648 43.3692 73.7764 44.8637 73.7763L63.1993 73.7754C64.6565 73.7425 65.8424 72.5292 65.8424 71.0702V67.6227H74.2939C75.7885 67.6227 77 66.4112 77 64.9166V53.5928C77 49.9371 74.451 46.8658 71.0381 46.0597ZM51.1798 40.527C55.3576 38.3089 60.5457 41.0847 60.9479 45.8543C60.9452 45.8543 60.9433 45.8543 60.9415 45.8552H60.9479C60.9909 46.3479 60.9737 46.852 60.9242 47.2238C60.9178 47.2247 60.9105 47.2247 60.9031 47.2247H60.9242C60.7502 48.9914 59.6903 50.8664 57.9561 52.006H57.9524V52.0087C56.5327 52.9409 54.8809 53.2557 53.3363 53.0312V53.0275C53.3354 53.0284 53.3354 53.0293 53.3354 53.0312C52.5438 52.9379 51.5174 52.5844 50.6394 52.0059C46.3714 49.1998 46.7078 42.8929 51.1798 40.527ZM63.1509 72.4068H44.8637C44.1255 72.4068 43.5271 71.8084 43.5271 71.0702V59.7464C43.5271 58.3166 43.99 56.9654 44.8655 55.8397C45.0974 55.5411 45.0436 55.1112 44.745 54.8783C44.4465 54.6464 44.0165 54.7002 43.7836 54.9988C42.7199 56.3673 42.1576 58.0089 42.1576 59.7463V66.2531H33.7052C32.9675 66.2531 32.3695 65.6551 32.3695 64.9174V53.5929C32.3695 50.0749 35.2214 47.223 38.7394 47.223H39.0845C41.1336 48.4224 43.5994 48.6337 45.7866 47.8702C46.0788 47.7682 46.3916 47.9431 46.4615 48.2445C46.7409 49.4495 47.2919 50.5515 48.0461 51.4827C48.2788 51.7702 48.1342 52.1999 47.7783 52.301C47.17 52.4738 46.5834 52.7206 46.0342 53.0377C45.7064 53.2277 45.5941 53.6458 45.7831 53.9736C45.972 54.3013 46.3911 54.4136 46.7189 54.2247C48.2656 53.3301 49.6777 53.3708 50.1249 53.3772C50.2116 53.3784 50.2957 53.4024 50.3713 53.4449C52.8488 54.8362 55.8484 54.7841 58.2051 53.4561C58.2916 53.4074 58.3897 53.3815 58.4886 53.3874C61.8129 53.5864 64.4729 56.3545 64.4729 59.7464C64.473 62.0324 64.473 68.7844 64.473 71.0703C64.4729 71.8122 63.8541 72.4068 63.1509 72.4068ZM75.6305 64.9175C75.6305 65.6543 75.0307 66.2532 74.2939 66.2532H65.8424V59.7464C65.8424 56.0898 63.2942 53.0176 59.8796 52.2124C61.1956 50.9429 61.9934 49.3225 62.2488 47.6503C64.5357 48.6514 67.2457 48.5394 69.4943 47.2275C72.8979 47.3508 75.6305 50.1591 75.6305 53.5929V64.9175Z" fill="#F58220"/>
</svg>
