<svg width="107" height="107" viewBox="0 0 107 107" fill="none" xmlns="http://www.w3.org/2000/svg">
<path d="M97.4704 24.6735C97.2765 24.6735 97.0549 24.5625 96.9441 24.396C96.501 23.7025 96.0024 23.0366 95.5038 22.3708C95.3099 22.0934 95.3653 21.705 95.6423 21.483C95.9193 21.2888 96.3071 21.3443 96.5287 21.6217C97.0272 22.3153 97.5258 23.0089 97.9967 23.7025C98.1906 23.9799 98.1075 24.396 97.8305 24.5625C97.7197 24.6457 97.5812 24.6735 97.4704 24.6735Z" fill="#F58220"/>
<path d="M53.4855 107C52.5437 107 51.5743 106.972 50.6326 106.917C50.2725 106.889 50.0232 106.613 50.0509 106.253C50.0786 105.893 50.3833 105.644 50.7157 105.671C52.3499 105.754 54.0117 105.754 55.6182 105.699C55.9783 105.699 56.2553 105.948 56.283 106.308C56.3107 106.668 56.0337 106.945 55.6736 106.972C54.9535 106.972 54.2333 107 53.4855 107ZM63.6506 106.004C63.3459 106.004 63.0967 105.782 63.0413 105.505C62.9859 105.173 63.2075 104.841 63.5398 104.758C65.0909 104.453 66.642 104.066 68.1654 103.623L68.3039 103.595C68.6362 103.484 68.9963 103.678 69.0794 104.01C69.1902 104.342 68.9963 104.702 68.6639 104.785L68.5255 104.813C66.9467 105.256 65.3679 105.644 63.7891 105.976C63.7337 106.004 63.6783 106.004 63.6506 106.004ZM75.9762 101.989C75.7269 101.989 75.5053 101.851 75.3945 101.629C75.2561 101.325 75.3945 100.937 75.6992 100.799C77.1672 100.107 78.6352 99.3316 80.0201 98.5287C80.3248 98.3626 80.7125 98.4457 80.8787 98.7502C81.0449 99.0547 80.9618 99.4423 80.6572 99.6084C79.2169 100.439 77.7212 101.242 76.2255 101.934C76.1701 101.962 76.087 101.989 75.9762 101.989ZM86.9723 95.0682C86.7784 95.0682 86.6122 94.9851 86.4737 94.8467C86.2521 94.5698 86.3075 94.1823 86.5568 93.9608C87.8032 92.9365 89.0496 91.8291 90.1852 90.694C90.4345 90.4449 90.8223 90.4449 91.0716 90.694C91.3209 90.9432 91.3209 91.3308 91.0716 91.5799C89.8806 92.7427 88.6342 93.8777 87.3324 94.9298C87.2493 95.0405 87.1108 95.0682 86.9723 95.0682ZM95.9464 85.6831C95.8079 85.6831 95.6971 85.6554 95.5586 85.5724C95.2817 85.3786 95.2263 84.9633 95.4202 84.6865C96.3896 83.3853 97.3036 82.0288 98.1623 80.6169C98.3561 80.3123 98.7162 80.2293 99.0209 80.3954C99.3256 80.5892 99.4087 80.9491 99.2425 81.2536C98.3838 82.6655 97.4421 84.0774 96.445 85.4063C96.3342 85.6001 96.1403 85.6831 95.9464 85.6831ZM102.372 74.4156C102.289 74.4156 102.206 74.3879 102.123 74.3602C101.791 74.2218 101.652 73.8619 101.791 73.5296C102.428 72.0347 102.982 70.4844 103.453 68.934C103.563 68.6018 103.896 68.408 104.228 68.5188C104.56 68.6295 104.754 68.9617 104.644 69.2939C104.145 70.872 103.563 72.4777 102.926 74.0003C102.843 74.2495 102.594 74.4156 102.372 74.4156ZM105.862 61.9022C105.835 61.9022 105.807 61.9022 105.779 61.9022C105.447 61.8468 105.198 61.5423 105.253 61.1824C105.502 59.5767 105.668 57.9433 105.751 56.3099C105.779 55.9777 106.084 55.7009 106.416 55.7286C106.776 55.7562 107.026 56.0331 106.998 56.393C106.915 58.054 106.749 59.7428 106.499 61.3762C106.416 61.6807 106.167 61.9022 105.862 61.9022ZM106.167 48.9181C105.835 48.9181 105.585 48.669 105.53 48.3645C105.364 46.7588 105.114 45.1254 104.81 43.5197C104.754 43.1875 104.976 42.8553 105.308 42.7722C105.641 42.7168 105.973 42.9383 106.056 43.2705C106.389 44.9039 106.61 46.565 106.776 48.226C106.804 48.5582 106.555 48.8905 106.222 48.9181C106.195 48.9181 106.195 48.9181 106.167 48.9181ZM103.314 36.2664C103.065 36.2664 102.816 36.1003 102.732 35.8511C102.178 34.3284 101.569 32.8058 100.877 31.3108C100.738 31.0063 100.877 30.6187 101.181 30.4803C101.486 30.3419 101.874 30.4803 102.012 30.7848C102.705 32.2798 103.369 33.8578 103.923 35.4358C104.034 35.768 103.868 36.1279 103.536 36.2387C103.453 36.2387 103.369 36.2664 103.314 36.2664Z" fill="#F58220"/>
<path d="M42.6828 105.869C42.6274 105.869 42.5997 105.869 42.5443 105.869C41.7133 105.702 40.8824 105.508 40.0792 105.286C39.7468 105.203 39.5529 104.842 39.636 104.509C39.7191 104.177 40.0792 103.982 40.4116 104.066C41.2148 104.288 42.018 104.454 42.8213 104.648C43.1536 104.731 43.3752 105.064 43.3198 105.397C43.2367 105.675 42.9597 105.869 42.6828 105.869Z" fill="#F58220"/>
<path d="M8.53064 81.9256C8.30906 81.9256 8.11517 81.8146 8.00438 81.6204C7.56121 80.8991 7.11804 80.15 6.73027 79.4287C6.56408 79.1235 6.67487 78.7351 6.97955 78.5687C7.28423 78.4022 7.672 78.5131 7.83819 78.8183C8.22596 79.5396 8.66913 80.261 9.0846 80.9546C9.27849 81.2598 9.16769 81.6482 8.89071 81.8146C8.75222 81.8978 8.64144 81.9256 8.53064 81.9256Z" fill="#F58220"/>
<path d="M3.93311 72.5333C3.68383 72.5333 3.43455 72.3672 3.35145 72.118C2.90828 70.9276 2.49282 69.6818 2.13274 68.436C2.02195 68.1038 1.93886 67.7439 1.85576 67.4117C1.77267 67.0795 1.96656 66.7195 2.29893 66.6365C2.63131 66.5534 2.99138 66.7473 3.07447 67.0795C3.15757 67.4117 3.26836 67.7439 3.35145 68.0761C3.71153 69.2942 4.0993 70.4846 4.54247 71.6751C4.65326 72.0073 4.48707 72.3672 4.18239 72.4779C4.0993 72.5333 4.0162 72.5333 3.93311 72.5333ZM0.969429 60.1306C0.664751 60.1306 0.387771 59.8815 0.332375 59.577C0.138489 57.9436 0.027698 56.2825 0 54.6491C0 54.2892 0.276979 54.0124 0.609354 54.0124C0.94173 54.0124 1.24641 54.2892 1.24641 54.6215C1.27411 56.2272 1.3849 57.8328 1.57878 59.4385C1.60648 59.7707 1.3849 60.103 1.02482 60.1306C1.02482 60.1306 0.997127 60.1306 0.969429 60.1306ZM1.05252 47.3404C1.02483 47.3404 0.997127 47.3404 0.969429 47.3404C0.637053 47.2851 0.387772 46.9805 0.41547 46.6483C0.637053 45.0149 0.91403 43.3816 1.2741 41.7759C1.3572 41.4436 1.68958 41.2221 2.02195 41.3052C2.35433 41.3883 2.57591 41.7205 2.49282 42.0527C2.13274 43.603 1.85576 45.2087 1.66188 46.7867C1.63418 47.119 1.3572 47.3404 1.05252 47.3404ZM4.21009 34.9655C4.127 34.9655 4.0439 34.9655 3.98851 34.9101C3.65613 34.7717 3.51764 34.4118 3.62843 34.1072C4.21009 32.5846 4.90254 31.062 5.62269 29.5947C5.78888 29.2902 6.14895 29.1517 6.45363 29.3179C6.75831 29.484 6.89679 29.8439 6.73061 30.1484C6.01046 31.588 5.34571 33.0553 4.79175 34.5502C4.70866 34.8271 4.45937 34.9655 4.21009 34.9655ZM10.2482 23.7256C10.1375 23.7256 9.99897 23.6979 9.88817 23.6149C9.61119 23.4211 9.5281 23.0335 9.72198 22.7289C10.6637 21.4001 11.6885 20.0712 12.7411 18.8254C12.9626 18.5486 13.3504 18.5209 13.6274 18.7424C13.9044 18.9638 13.9321 19.3514 13.7105 19.6283C12.6857 20.8464 11.6885 22.1199 10.7745 23.4487C10.636 23.6148 10.4421 23.7256 10.2482 23.7256ZM18.7792 14.2298C18.613 14.2298 18.4191 14.1468 18.3084 14.0083C18.0868 13.7592 18.1145 13.3439 18.3638 13.1224C19.6102 12.0427 20.912 11.0184 22.2415 10.0495C22.5184 9.85567 22.9062 9.91103 23.1278 10.1879C23.3217 10.4647 23.2663 10.8523 22.9893 11.0738C21.6875 12.0151 20.4134 13.0117 19.2224 14.0637C19.0839 14.1745 18.9454 14.2298 18.7792 14.2298ZM29.3598 7.05954C29.1383 7.05954 28.9167 6.92111 28.8059 6.72732C28.6397 6.42279 28.7782 6.03522 29.0829 5.86911C30.5509 5.12163 32.0465 4.42951 33.5699 3.82045C33.9023 3.68203 34.2624 3.84813 34.3732 4.18035C34.5117 4.51256 34.3455 4.87247 34.0131 4.9832C32.5174 5.59226 31.0494 6.25669 29.6368 6.97649C29.5537 7.05954 29.4706 7.05954 29.3598 7.05954ZM41.3531 2.6577C41.0761 2.6577 40.7991 2.46392 40.7437 2.18708C40.6606 1.85487 40.8822 1.52265 41.2146 1.4396C42.8211 1.05201 44.4552 0.747487 46.0617 0.526012C46.3941 0.470643 46.7265 0.719793 46.7819 1.05201C46.8373 1.38422 46.588 1.71644 46.2556 1.77181C44.6768 1.99329 43.0703 2.2978 41.5193 2.6577C41.4639 2.6577 41.4085 2.6577 41.3531 2.6577ZM58.9413 1.52265C58.9136 1.52265 58.8859 1.52265 58.8859 1.52265C57.2794 1.35654 55.6729 1.27349 54.0664 1.2458C53.7064 1.2458 53.4294 0.96896 53.4571 0.609062C53.4571 0.276848 53.7341 0 54.0941 0C55.7283 0.0276845 57.3902 0.110738 59.0244 0.276845C59.3567 0.304529 59.6337 0.609058 59.5783 0.968956C59.5229 1.27349 59.246 1.52265 58.9413 1.52265Z" fill="#F58220"/>
<path d="M69.1623 3.60337C69.1069 3.60337 69.0238 3.60337 68.9684 3.57563C68.1929 3.32594 67.3896 3.10399 66.5864 2.88204C66.254 2.79881 66.0601 2.43813 66.1432 2.1052C66.2263 1.77228 66.5864 1.57808 66.9188 1.66131C67.7497 1.88326 68.5529 2.10521 69.3562 2.3549C69.6886 2.46588 69.8824 2.7988 69.7717 3.13172C69.6886 3.4369 69.4393 3.60337 69.1623 3.60337Z" fill="#F58220"/>
<g clip-path="url(#clip0_708_669)">
<path fill-rule="evenodd" clip-rule="evenodd" d="M68.0629 36.9147C68.2891 36.6398 68.2496 36.2336 67.9748 36.0074C64.1744 32.8799 59.306 31 54 31C49.8941 31 46.049 32.1252 42.7594 34.0857C42.4536 34.268 42.3534 34.6636 42.5357 34.9694C42.7179 35.2751 43.1135 35.3753 43.4193 35.1931C46.5148 33.3483 50.1326 32.289 54 32.289C58.9961 32.289 63.5773 34.058 67.1556 37.0028C67.4305 37.229 67.8367 37.1895 68.0629 36.9147Z" fill="#F58220"/>
<path fill-rule="evenodd" clip-rule="evenodd" d="M37.2473 66.2606C37.5328 66.0479 37.5919 65.6442 37.3793 65.3587C34.8098 61.9082 33.2891 57.6329 33.2891 52.9999C33.2891 46.3853 36.3901 40.4942 41.2195 36.7018C41.4995 36.4819 41.5482 36.0768 41.3284 35.7968C41.1086 35.5168 40.7034 35.4681 40.4234 35.6879C35.2962 39.7142 32 45.9729 32 52.9999C32 57.9198 33.616 62.4634 36.3454 66.1286C36.558 66.4141 36.9618 66.4732 37.2473 66.2606Z" fill="#F58220"/>
<path fill-rule="evenodd" clip-rule="evenodd" d="M40.0259 69.9925C43.8263 73.1209 48.6939 75 53.9999 75C66.15 75 75.9999 65.15 75.9999 53C75.9999 48.0801 74.3839 43.5366 71.6545 39.8714C71.4419 39.5859 71.0381 39.5268 70.7526 39.7394C70.4671 39.952 70.408 40.3558 70.6207 40.6413C73.1901 44.0917 74.7109 48.3671 74.7109 53C74.7109 64.4381 65.438 73.7109 53.9999 73.7109C49.0038 73.7109 44.4234 71.9428 40.8452 68.9972C40.5704 68.771 40.1642 68.8104 39.938 69.0852C39.7117 69.36 39.7511 69.7662 40.0259 69.9925Z" fill="#F58220"/>
<path fill-rule="evenodd" clip-rule="evenodd" d="M69.909 68.1946C70.1668 67.949 70.1766 67.5411 69.9311 67.2833C69.147 66.4603 68.2998 65.6971 67.3954 65.0036C67.113 64.7869 66.7084 64.8403 66.4918 65.1228C66.2751 65.4053 66.3285 65.8098 66.611 66.0265C67.4615 66.6787 68.2591 67.3971 68.9978 68.1725C69.2433 68.4302 69.6513 68.4401 69.909 68.1946Z" fill="#F58220"/>
<path fill-rule="evenodd" clip-rule="evenodd" d="M39.9382 66.3708C40.1645 66.6456 40.5707 66.6849 40.8454 66.4586C44.4227 63.5122 49.0039 61.7441 54.0001 61.7441C56.9433 61.7441 59.7423 62.3576 62.2757 63.464C62.6019 63.6064 62.9819 63.4575 63.1243 63.1312C63.2668 62.805 63.1178 62.4251 62.7916 62.2826C60.0983 61.1065 57.124 60.455 54.0001 60.455C48.6941 60.455 43.8255 62.3341 40.0259 65.4635C39.7512 65.6898 39.7119 66.096 39.9382 66.3708Z" fill="#F58220"/>
<path fill-rule="evenodd" clip-rule="evenodd" d="M55.9503 44.8221C55.993 45.1755 56.3141 45.4274 56.6675 45.3847C60.9322 44.8693 64.821 43.1327 67.974 40.5374C68.2488 40.3111 68.2882 39.9049 68.062 39.6301C67.8358 39.3553 67.4296 39.3159 67.1548 39.5421C64.1855 41.9862 60.5256 43.62 56.5128 44.1049C56.1594 44.1476 55.9076 44.4687 55.9503 44.8221Z" fill="#F58220"/>
<path fill-rule="evenodd" clip-rule="evenodd" d="M52.0497 44.8221C52.0924 44.4687 51.8405 44.1476 51.4871 44.1049C46.598 43.5142 42.2327 41.218 39.0021 37.8282C38.7565 37.5705 38.3485 37.5607 38.0909 37.8063C37.8332 38.0519 37.8234 38.4598 38.0689 38.7175C41.4985 42.3161 46.136 44.7568 51.3325 45.3847C51.6859 45.4274 52.007 45.1755 52.0497 44.8221Z" fill="#F58220"/>
<path fill-rule="evenodd" clip-rule="evenodd" d="M45.912 68.576C43.6973 65.3173 42.1662 60.7407 41.7848 55.5455C41.7587 55.1905 41.4498 54.9239 41.0948 54.9499C40.7398 54.976 40.4731 55.2849 40.4992 55.6399C40.8938 61.0159 42.4809 65.8207 44.8459 69.3006C47.2066 72.7743 50.4013 75 54 75C58.3592 75 62.1168 71.7447 64.5443 66.9266C64.7045 66.6087 64.5766 66.2211 64.2587 66.061C63.9408 65.9008 63.5533 66.0287 63.3931 66.3466C61.0683 70.9609 57.6587 73.7109 54 73.7109C50.9772 73.7109 48.1308 71.8409 45.912 68.576Z" fill="#F58220"/>
<path fill-rule="evenodd" clip-rule="evenodd" d="M65.6382 62.4087C65.9815 62.5028 66.3361 62.3008 66.4302 61.9575C67.1808 59.2203 67.597 56.1877 67.597 53C67.597 47.005 66.1245 41.5464 63.7098 37.5652C61.3024 33.5958 57.8886 31 54 31C50.4013 31 47.2066 33.2257 44.8459 36.6994C42.4809 40.1792 40.8938 44.984 40.4992 50.36C40.4731 50.715 40.7398 51.024 41.0948 51.05C41.4498 51.0761 41.7587 50.8094 41.7848 50.4544C42.1662 45.2593 43.6973 40.6827 45.912 37.424C48.1308 34.1591 50.9772 32.289 54 32.289C57.2648 32.289 60.3273 34.4738 62.6077 38.2337C64.8809 41.9818 66.3079 47.2009 66.3079 53C66.3079 56.077 65.906 58.9947 65.1871 61.6166C65.0929 61.9599 65.2949 62.3145 65.6382 62.4087Z" fill="#F58220"/>
<path fill-rule="evenodd" clip-rule="evenodd" d="M54 75C54.356 75 54.6445 74.7114 54.6445 74.3555V47.4957C54.6445 47.1397 54.356 46.8512 54 46.8512C53.644 46.8512 53.3555 47.1397 53.3555 47.4957V74.3555C53.3555 74.7114 53.644 75 54 75Z" fill="#F58220"/>
<path fill-rule="evenodd" clip-rule="evenodd" d="M54 42.9496C54.356 42.9496 54.6445 42.661 54.6445 42.3051V31.6445C54.6445 31.2885 54.356 31 54 31C53.644 31 53.3555 31.2885 53.3555 31.6445V42.3051C53.3555 42.661 53.644 42.9496 54 42.9496Z" fill="#F58220"/>
<path fill-rule="evenodd" clip-rule="evenodd" d="M42.9991 53C42.9991 53.356 43.2877 53.6445 43.6437 53.6445H70.0669C70.4228 53.6445 70.7114 53.356 70.7114 53C70.7114 52.644 70.4228 52.3555 70.0669 52.3555H43.6437C43.2877 52.3555 42.9991 52.644 42.9991 53Z" fill="#F58220"/>
<path fill-rule="evenodd" clip-rule="evenodd" d="M72.2823 53C72.2823 53.356 72.5709 53.6445 72.9269 53.6445H75.3555C75.7114 53.6445 76 53.356 76 53C76 52.644 75.7114 52.3555 75.3555 52.3555H72.9269C72.5709 52.3555 72.2823 52.644 72.2823 53Z" fill="#F58220"/>
<path fill-rule="evenodd" clip-rule="evenodd" d="M32 53C32 53.356 32.2886 53.6445 32.6445 53.6445H38.4522C38.8082 53.6445 39.0967 53.356 39.0967 53C39.0967 52.644 38.8082 52.3555 38.4522 52.3555H32.6445C32.2886 52.3555 32 52.644 32 53Z" fill="#F58220"/>
<path fill-rule="evenodd" clip-rule="evenodd" d="M69.4644 40.224C68.3869 40.224 67.5133 39.3504 67.5133 38.2729C67.5133 37.1953 68.3869 36.3217 69.4644 36.3217C70.5421 36.3217 71.4156 37.1953 71.4156 38.2729C71.4156 39.3504 70.5421 40.224 69.4644 40.224ZM66.2242 38.2729C66.2242 40.0624 67.6749 41.5131 69.4644 41.5131C71.254 41.5131 72.7046 40.0623 72.7046 38.2729C72.7046 36.4834 71.254 35.0327 69.4644 35.0327C67.6749 35.0327 66.2242 36.4834 66.2242 38.2729Z" fill="#F58220"/>
<path fill-rule="evenodd" clip-rule="evenodd" d="M54 46.8516C52.9225 46.8516 52.049 45.978 52.049 44.9004C52.049 43.8229 52.9225 42.9493 54 42.9493C55.0776 42.9493 55.9511 43.8229 55.9511 44.9004C55.9511 45.978 55.0776 46.8516 54 46.8516ZM50.7599 44.9004C50.7599 46.6899 52.2105 48.1406 54 48.1406C55.7896 48.1406 57.2402 46.6899 57.2402 44.9004C57.2402 43.111 55.7896 41.6603 54 41.6603C52.2105 41.6603 50.7599 43.111 50.7599 44.9004Z" fill="#F58220"/>
<path fill-rule="evenodd" clip-rule="evenodd" d="M41.0477 54.9512C39.9701 54.9512 39.0966 54.0776 39.0966 53C39.0966 51.9225 39.9701 51.0489 41.0477 51.0489C42.1252 51.0489 42.9988 51.9225 42.9988 53C42.9988 54.0776 42.1252 54.9512 41.0477 54.9512ZM37.8075 53C37.8075 54.7895 39.2582 56.2402 41.0477 56.2402C42.8372 56.2402 44.2879 54.7895 44.2879 53C44.2879 51.2106 42.8372 49.7599 41.0477 49.7599C39.2582 49.7599 37.8075 51.2106 37.8075 53Z" fill="#F58220"/>
<path fill-rule="evenodd" clip-rule="evenodd" d="M64.7811 66.1228C63.7035 66.1228 62.83 65.2492 62.83 64.1717C62.83 63.0941 63.7035 62.2206 64.7811 62.2206C65.8587 62.2206 66.7322 63.0941 66.7322 64.1717C66.7322 65.2493 65.8587 66.1228 64.7811 66.1228ZM61.5409 64.1717C61.5409 65.9612 62.9916 67.4119 64.7811 67.4119C66.5707 67.4119 68.0213 65.9612 68.0213 64.1717C68.0213 62.3822 66.5707 60.9315 64.7811 60.9315C62.9916 60.9315 61.5409 62.3822 61.5409 64.1717Z" fill="#F58220"/>
<path fill-rule="evenodd" clip-rule="evenodd" d="M38.5355 69.6791C37.4579 69.6791 36.5844 68.8055 36.5844 67.728C36.5844 66.6504 37.4579 65.7768 38.5355 65.7768C39.613 65.7768 40.4866 66.6504 40.4866 67.728C40.4866 68.8055 39.613 69.6791 38.5355 69.6791ZM35.2953 67.728C35.2953 69.5174 36.746 70.9681 38.5355 70.9681C40.325 70.9681 41.7757 69.5174 41.7757 67.728C41.7757 65.9385 40.325 64.4878 38.5355 64.4878C36.746 64.4878 35.2953 65.9385 35.2953 67.728Z" fill="#F58220"/>
</g>
<defs>
<clipPath id="clip0_708_669">
<rect width="44" height="44" fill="white" transform="translate(32 31)"/>
</clipPath>
</defs>
</svg>
