<svg width="107" height="107" viewBox="0 0 107 107" fill="none" xmlns="http://www.w3.org/2000/svg">
<path d="M97.4704 24.6735C97.2765 24.6735 97.0549 24.5625 96.9441 24.396C96.501 23.7025 96.0024 23.0366 95.5038 22.3708C95.3099 22.0934 95.3653 21.705 95.6423 21.483C95.9193 21.2888 96.3071 21.3443 96.5287 21.6217C97.0272 22.3153 97.5258 23.0089 97.9967 23.7025C98.1906 23.9799 98.1075 24.396 97.8305 24.5625C97.7197 24.6457 97.5812 24.6735 97.4704 24.6735Z" fill="#F58220"/>
<path d="M53.4855 107C52.5438 107 51.5744 106.972 50.6326 106.917C50.2726 106.889 50.0233 106.613 50.051 106.253C50.0787 105.893 50.3834 105.644 50.7157 105.671C52.3499 105.754 54.0118 105.754 55.6183 105.699C55.9783 105.699 56.2553 105.948 56.283 106.308C56.3107 106.668 56.0337 106.945 55.6737 106.972C54.9535 106.972 54.2334 107 53.4855 107ZM63.6507 106.004C63.346 106.004 63.0967 105.782 63.0413 105.505C62.9859 105.173 63.2075 104.841 63.5399 104.758C65.091 104.453 66.6421 104.066 68.1654 103.623L68.3039 103.595C68.6363 103.484 68.9964 103.678 69.0795 104.01C69.1903 104.342 68.9964 104.702 68.664 104.785L68.5255 104.813C66.9467 105.256 65.368 105.644 63.7892 105.976C63.7338 106.004 63.6784 106.004 63.6507 106.004ZM75.9763 101.989C75.727 101.989 75.5054 101.851 75.3946 101.629C75.2561 101.325 75.3946 100.937 75.6993 100.799C77.1673 100.107 78.6353 99.3316 80.0202 98.5287C80.3248 98.3626 80.7126 98.4457 80.8788 98.7502C81.045 99.0547 80.9619 99.4423 80.6572 99.6084C79.2169 100.439 77.7212 101.242 76.2255 101.934C76.1701 101.962 76.0871 101.989 75.9763 101.989ZM86.9723 95.0682C86.7785 95.0682 86.6123 94.9851 86.4738 94.8467C86.2522 94.5698 86.3076 94.1823 86.5569 93.9608C87.8033 92.9365 89.0497 91.8291 90.1853 90.694C90.4346 90.4449 90.8224 90.4449 91.0716 90.694C91.3209 90.9432 91.3209 91.3308 91.0716 91.5799C89.8806 92.7427 88.6342 93.8777 87.3324 94.9298C87.2493 95.0405 87.1108 95.0682 86.9723 95.0682ZM95.9465 85.6831C95.808 85.6831 95.6972 85.6554 95.5587 85.5724C95.2817 85.3786 95.2263 84.9633 95.4202 84.6865C96.3896 83.3853 97.3037 82.0288 98.1623 80.6169C98.3562 80.3123 98.7163 80.2293 99.021 80.3954C99.3256 80.5892 99.4087 80.9491 99.2425 81.2536C98.3839 82.6655 97.4422 84.0774 96.445 85.4063C96.3343 85.6001 96.1404 85.6831 95.9465 85.6831ZM102.372 74.4156C102.289 74.4156 102.206 74.3879 102.123 74.3602C101.791 74.2218 101.652 73.8619 101.791 73.5296C102.428 72.0347 102.982 70.4844 103.453 68.934C103.563 68.6018 103.896 68.408 104.228 68.5188C104.561 68.6295 104.754 68.9617 104.644 69.2939C104.145 70.872 103.563 72.4777 102.926 74.0003C102.843 74.2495 102.594 74.4156 102.372 74.4156ZM105.862 61.9022C105.835 61.9022 105.807 61.9022 105.779 61.9022C105.447 61.8468 105.198 61.5423 105.253 61.1824C105.502 59.5767 105.668 57.9433 105.752 56.3099C105.779 55.9777 106.084 55.7009 106.416 55.7286C106.776 55.7562 107.026 56.0331 106.998 56.393C106.915 58.054 106.749 59.7428 106.499 61.3762C106.416 61.6807 106.167 61.9022 105.862 61.9022ZM106.167 48.9181C105.835 48.9181 105.585 48.669 105.53 48.3645C105.364 46.7588 105.115 45.1254 104.81 43.5197C104.754 43.1875 104.976 42.8553 105.308 42.7722C105.641 42.7168 105.973 42.9383 106.056 43.2705C106.389 44.9039 106.61 46.565 106.776 48.226C106.804 48.5582 106.555 48.8905 106.222 48.9181C106.195 48.9181 106.195 48.9181 106.167 48.9181ZM103.314 36.2664C103.065 36.2664 102.816 36.1003 102.732 35.8511C102.179 34.3284 101.569 32.8058 100.877 31.3108C100.738 31.0063 100.877 30.6187 101.181 30.4803C101.486 30.3419 101.874 30.4803 102.012 30.7848C102.705 32.2798 103.37 33.8578 103.923 35.4358C104.034 35.768 103.868 36.1279 103.536 36.2387C103.453 36.2387 103.37 36.2664 103.314 36.2664Z" fill="#F58220"/>
<path d="M42.6828 105.869C42.6274 105.869 42.5997 105.869 42.5443 105.869C41.7134 105.702 40.8825 105.508 40.0792 105.286C39.7469 105.203 39.553 104.842 39.6361 104.509C39.7192 104.177 40.0792 103.982 40.4116 104.066C41.2149 104.288 42.0181 104.454 42.8213 104.648C43.1537 104.731 43.3753 105.064 43.3199 105.397C43.2368 105.675 42.9598 105.869 42.6828 105.869Z" fill="#F58220"/>
<path d="M8.53064 81.9256C8.30906 81.9256 8.11517 81.8146 8.00438 81.6204C7.56121 80.8991 7.11804 80.15 6.73027 79.4287C6.56408 79.1235 6.67487 78.7351 6.97955 78.5687C7.28423 78.4022 7.672 78.5131 7.83819 78.8183C8.22596 79.5396 8.66913 80.261 9.0846 80.9546C9.27849 81.2598 9.16769 81.6482 8.89071 81.8146C8.75222 81.8978 8.64144 81.9256 8.53064 81.9256Z" fill="#F58220"/>
<path d="M3.93311 72.5333C3.68383 72.5333 3.43455 72.3672 3.35145 72.118C2.90828 70.9276 2.49282 69.6818 2.13274 68.436C2.02195 68.1038 1.93886 67.7439 1.85576 67.4117C1.77267 67.0795 1.96656 66.7195 2.29893 66.6365C2.63131 66.5534 2.99138 66.7473 3.07447 67.0795C3.15757 67.4117 3.26836 67.7439 3.35145 68.0761C3.71153 69.2942 4.0993 70.4846 4.54247 71.6751C4.65326 72.0073 4.48707 72.3672 4.18239 72.4779C4.0993 72.5333 4.0162 72.5333 3.93311 72.5333ZM0.969429 60.1306C0.664751 60.1306 0.387771 59.8815 0.332375 59.577C0.138489 57.9436 0.027698 56.2825 0 54.6491C0 54.2892 0.276979 54.0124 0.609354 54.0124C0.94173 54.0124 1.24641 54.2892 1.24641 54.6215C1.27411 56.2272 1.3849 57.8328 1.57878 59.4385C1.60648 59.7707 1.3849 60.103 1.02482 60.1306C1.02482 60.1306 0.997127 60.1306 0.969429 60.1306ZM1.05252 47.3404C1.02483 47.3404 0.997127 47.3404 0.969429 47.3404C0.637053 47.2851 0.387772 46.9805 0.41547 46.6483C0.637053 45.0149 0.91403 43.3816 1.2741 41.7759C1.3572 41.4436 1.68958 41.2221 2.02195 41.3052C2.35433 41.3883 2.57591 41.7205 2.49282 42.0527C2.13274 43.603 1.85576 45.2087 1.66188 46.7867C1.63418 47.119 1.3572 47.3404 1.05252 47.3404ZM4.21009 34.9655C4.127 34.9655 4.0439 34.9655 3.98851 34.9101C3.65613 34.7717 3.51764 34.4118 3.62843 34.1072C4.21009 32.5846 4.90254 31.062 5.62269 29.5947C5.78888 29.2902 6.14895 29.1517 6.45363 29.3179C6.75831 29.484 6.89679 29.8439 6.73061 30.1484C6.01046 31.588 5.34571 33.0553 4.79175 34.5502C4.70866 34.8271 4.45937 34.9655 4.21009 34.9655ZM10.2482 23.7256C10.1375 23.7256 9.99897 23.6979 9.88817 23.6149C9.61119 23.4211 9.5281 23.0335 9.72198 22.7289C10.6637 21.4001 11.6885 20.0712 12.7411 18.8254C12.9626 18.5486 13.3504 18.5209 13.6274 18.7424C13.9044 18.9638 13.9321 19.3514 13.7105 19.6283C12.6857 20.8464 11.6885 22.1199 10.7745 23.4487C10.636 23.6148 10.4421 23.7256 10.2482 23.7256ZM18.7792 14.2298C18.613 14.2298 18.4191 14.1468 18.3084 14.0083C18.0868 13.7592 18.1145 13.3439 18.3638 13.1224C19.6102 12.0427 20.912 11.0184 22.2415 10.0495C22.5184 9.85567 22.9062 9.91103 23.1278 10.1879C23.3217 10.4647 23.2663 10.8523 22.9893 11.0738C21.6875 12.0151 20.4134 13.0117 19.2224 14.0637C19.0839 14.1745 18.9454 14.2298 18.7792 14.2298ZM29.3598 7.05954C29.1383 7.05954 28.9167 6.92111 28.8059 6.72732C28.6397 6.42279 28.7782 6.03522 29.0829 5.86911C30.5509 5.12163 32.0465 4.42951 33.5699 3.82045C33.9023 3.68203 34.2624 3.84813 34.3732 4.18035C34.5117 4.51256 34.3455 4.87247 34.0131 4.9832C32.5174 5.59226 31.0494 6.25669 29.6368 6.97649C29.5537 7.05954 29.4706 7.05954 29.3598 7.05954ZM41.3531 2.6577C41.0761 2.6577 40.7991 2.46392 40.7437 2.18708C40.6606 1.85487 40.8822 1.52265 41.2146 1.4396C42.8211 1.05201 44.4552 0.747487 46.0617 0.526012C46.3941 0.470643 46.7265 0.719793 46.7819 1.05201C46.8373 1.38422 46.588 1.71644 46.2556 1.77181C44.6768 1.99329 43.0703 2.2978 41.5193 2.6577C41.4639 2.6577 41.4085 2.6577 41.3531 2.6577ZM58.9413 1.52265C58.9136 1.52265 58.8859 1.52265 58.8859 1.52265C57.2794 1.35654 55.6729 1.27349 54.0664 1.2458C53.7064 1.2458 53.4294 0.96896 53.4571 0.609062C53.4571 0.276848 53.7341 0 54.0941 0C55.7283 0.0276845 57.3902 0.110738 59.0244 0.276845C59.3567 0.304529 59.6337 0.609058 59.5783 0.968956C59.5229 1.27349 59.246 1.52265 58.9413 1.52265Z" fill="#F58220"/>
<path d="M69.1623 3.60337C69.1069 3.60337 69.0238 3.60337 68.9684 3.57563C68.1929 3.32594 67.3896 3.10399 66.5864 2.88204C66.254 2.79881 66.0601 2.43813 66.1432 2.1052C66.2263 1.77228 66.5864 1.57808 66.9188 1.66131C67.7497 1.88326 68.5529 2.10521 69.3562 2.3549C69.6886 2.46588 69.8824 2.7988 69.7717 3.13172C69.6886 3.4369 69.4393 3.60337 69.1623 3.60337Z" fill="#F58220"/>
<g clip-path="url(#clip0_708_668)">
<path d="M75.4024 43.9661C75.3929 43.9419 75.3821 43.9187 75.3702 43.8962C74.3549 41.3147 72.8822 38.9125 70.9947 36.8095C70.7408 36.5265 70.3057 36.5028 70.0225 36.757C69.7396 37.0109 69.716 37.4462 69.97 37.7291C73.6155 41.7911 75.6232 47.0368 75.6232 52.4999C75.6232 52.662 75.6207 52.8238 75.6174 52.9853C75.6162 53.0422 75.6144 53.0991 75.6128 53.156C75.6098 53.2579 75.6059 53.3597 75.6016 53.4613C75.5984 53.5332 75.5957 53.6051 75.5919 53.6769C75.5888 53.7364 75.5847 53.7956 75.5811 53.855C75.35 57.6349 74.1567 61.2737 72.1261 64.4384C72.5708 62.6345 73.0254 60.5099 73.3093 58.4268C73.9092 54.0255 73.5539 51.2805 72.2234 50.0348C71.1391 49.0196 69.6395 49.8971 68.4344 50.602C67.95 50.8854 67.1387 51.3592 66.8792 51.3176C66.6577 51.2605 65.8324 50.5411 64.8221 48.7763C63.9221 47.2038 63.3314 45.5665 63.2808 44.5034C63.1669 42.1134 65.0418 39.2714 65.0605 39.2434C65.2169 39.0095 65.2145 38.7027 65.0555 38.4705C64.8213 38.1286 64.248 37.0793 64.4038 36.3393C64.4761 35.9964 64.6143 35.3379 62.2746 32.1867C63.175 32.5755 64.0509 33.0248 64.8957 33.5335C64.9014 33.537 64.9074 33.5396 64.9132 33.5428C65.9093 34.1444 66.8611 34.8265 67.7633 35.5882C68.0537 35.8336 68.4881 35.7967 68.7334 35.5063C68.9787 35.2157 68.942 34.7815 68.6514 34.5362C66.2288 32.4908 63.472 30.9805 60.4577 30.0475C60.4459 30.0438 60.4339 30.0425 60.4221 30.0396C58.1927 29.3541 55.8602 29 53.5 29C53.2585 29 53.0178 29.0049 52.7776 29.0121C52.7514 29.0129 52.7253 29.0141 52.6992 29.015C52.4996 29.0216 52.3006 29.0308 52.1019 29.0423C52.0829 29.0434 52.0639 29.0446 52.0449 29.0458C46.3154 29.3935 40.9769 31.7892 36.8831 35.883C32.4446 40.3216 30 46.2229 30 52.5C30 58.0385 31.9637 63.4165 35.5293 67.6435C35.6654 67.805 35.8599 67.8881 36.0558 67.8881C36.2125 67.8881 36.3702 67.8349 36.4994 67.7259C36.79 67.4807 36.8268 67.0464 36.5817 66.7558C33.2253 62.7768 31.377 57.714 31.377 52.5C31.377 51.3853 31.459 50.2833 31.6199 49.2007C31.6216 49.2082 31.6231 49.2156 31.6247 49.2229C31.6411 49.2958 31.6582 49.3696 31.6762 49.4449C32.5964 53.2779 37.8399 55.7297 40.3598 56.908C40.5628 57.0029 40.779 57.104 40.9588 57.1912C40.711 57.8239 40.344 58.9208 40.2106 60.1467C39.9229 62.7898 40.8474 64.725 42.884 65.7434C46.9017 67.7522 46.7659 68.8199 46.3622 71.9895C46.2983 72.4927 46.2543 72.958 46.2285 73.3957C43.4872 72.4424 40.9388 70.9511 38.7381 68.9781C38.4548 68.7244 38.0196 68.7482 37.7658 69.0312C37.5121 69.3143 37.5358 69.7495 37.8189 70.0033C40.393 72.3109 43.4142 73.9993 46.6643 74.9862C46.6732 74.9893 46.6814 74.9937 46.6906 74.9965C46.9886 75.0865 47.2893 75.1688 47.5911 75.2469C47.6202 75.2544 47.6493 75.2621 47.6785 75.2696C47.8182 75.3052 47.9583 75.3394 48.0988 75.3725C48.1472 75.3839 48.1957 75.395 48.2442 75.4061C48.3726 75.4354 48.5011 75.4641 48.6301 75.4913C48.6943 75.5048 48.7589 75.5176 48.8233 75.5306C48.9407 75.5543 49.0581 75.5782 49.1759 75.6C49.264 75.6165 49.3524 75.6313 49.4407 75.6468C49.5374 75.6637 49.6339 75.6814 49.7307 75.6971C49.9164 75.7272 50.1026 75.7549 50.2892 75.7805C50.3352 75.7868 50.3814 75.792 50.4274 75.798C50.5787 75.818 50.7303 75.8369 50.8822 75.8538C50.9319 75.8593 50.9816 75.864 51.0312 75.8692C51.1833 75.8852 51.3356 75.8999 51.4883 75.9131C51.5057 75.9145 51.5232 75.9166 51.5407 75.9181C51.5476 75.9187 51.5545 75.9186 51.5613 75.9189C52.2039 75.9718 52.8504 76 53.5 76C59.7771 76 65.6784 73.5555 70.117 69.117C74.1695 65.0643 76.5585 59.7921 76.9435 54.1279C76.9453 54.103 76.9465 54.078 76.9481 54.053C76.9579 53.9026 76.967 53.7519 76.9739 53.601C76.9774 53.5254 76.9794 53.4495 76.9823 53.3739C76.986 53.2686 76.9906 53.1635 76.9931 53.058C76.9975 52.8723 76.9999 52.6863 76.9999 52.5001C77 49.5562 76.4625 46.685 75.4024 43.9661ZM46.6966 31.4389C46.3949 31.9251 46.0897 32.4036 45.8023 32.7753C45.4249 33.2633 45.2212 33.3807 45.1562 33.4079C44.8747 33.2635 44.4872 32.9082 44.1555 32.4357C44.9808 32.0507 45.8292 31.718 46.6966 31.4389ZM52.2473 73.9414C51.9534 74.1421 51.6723 74.3341 51.4046 74.5236C51.3695 74.5203 51.3346 74.5163 51.2995 74.5128C51.1775 74.5008 51.0555 74.4884 50.9338 74.4743C50.8166 74.4608 50.6997 74.4454 50.5829 74.4299C50.54 74.4242 50.497 74.4194 50.4542 74.4135C49.4831 74.279 48.5253 74.0799 47.5863 73.8197C47.604 73.3179 47.6509 72.7712 47.7283 72.1633C48.1878 68.5533 48.1932 66.8585 43.4999 64.5118C42.0103 63.767 41.3632 62.3587 41.5763 60.3261C41.7491 58.6787 42.4334 57.2386 42.4399 57.2249C42.457 57.1897 42.4709 57.1531 42.4817 57.1155C42.6526 56.5202 42.0828 56.2205 41.8395 56.0926C41.6216 55.978 41.3222 55.838 40.9432 55.6608C38.7998 54.6585 33.7806 52.3115 33.0153 49.1241C32.999 49.0556 32.9832 48.9881 32.9682 48.921C32.4751 46.7297 32.778 44.4081 33.8208 42.3836C35.8388 38.4663 39.0546 35.1792 42.9206 33.0668C43.3938 33.7901 44.0228 34.3983 44.606 34.6711C45.2623 34.9779 45.955 34.7174 46.6647 33.8961C47.1373 33.3492 47.6093 32.5833 48.0657 31.8427C48.2591 31.529 48.4577 31.2068 48.6507 30.9111C50.0545 30.5973 51.4948 30.4206 52.9427 30.3846C53.1774 31.3353 53.0427 32.8107 51.9719 34.3871C51.8311 34.5943 50.8292 34.6946 50.4013 34.7374C49.593 34.8184 48.895 34.8882 48.4855 35.2978C48.0225 35.7607 48.1433 36.314 48.2081 36.6112C48.2818 36.9489 48.3123 37.0886 47.655 37.4591C45.819 38.494 44.9663 40.084 44.5083 40.9383L44.4497 41.0472C44.403 41.1337 44.0575 41.2334 43.8288 41.2992C43.1577 41.4926 42.1435 41.785 41.7957 43.0208C41.6965 43.3735 41.615 43.7431 41.5362 44.1007C41.4027 44.7065 41.162 45.7986 40.8721 45.9541C40.8207 45.8273 40.7665 45.5939 40.7279 45.4283C40.5713 44.7562 40.3348 43.7404 39.338 43.2269C38.7418 42.9197 38.1723 42.8538 37.6447 43.0307C36.7443 43.3328 36.2375 44.2568 35.8331 45.0992C35.2092 46.399 35.8206 47.2869 36.3118 48.0004C36.8086 48.7218 37.2777 49.4031 37.02 50.7456C36.8983 51.3796 37.3146 52.0458 38.2927 52.7824C39.198 53.4642 40.5385 54.1585 41.7906 54.5943C42.869 54.9696 44.3488 55.3183 45.2745 54.8486C46.579 54.1867 47.831 54.2011 49.2148 54.8942C50.4925 55.5341 51.6918 56.6698 52.7499 57.6718C54.1264 58.9754 55.3153 60.1011 56.5681 60.1302C59.1618 60.1906 61.9543 62.2335 62.0936 62.8252C62.3155 64.3642 60.4399 65.8833 58.785 67.2237C57.4108 68.3367 56.1127 69.3881 55.7933 70.57C55.4786 71.7343 53.6869 72.958 52.2473 73.9414ZM69.9247 67.3217C69.6719 67.601 69.4117 67.8752 69.1435 68.1435C65.0097 72.2773 59.5278 74.5722 53.6894 74.6208C55.2079 73.5644 56.7324 72.3724 57.1224 70.9294C57.3255 70.1778 58.508 69.22 59.6516 68.2938C61.5913 66.7228 63.7899 64.9421 63.4562 62.629C63.2999 61.5449 61.6741 60.5073 60.9824 60.1116C59.5286 59.2798 57.9312 58.7851 56.6002 58.754C56.6002 58.754 56.6002 58.754 56.6001 58.754C55.8771 58.7372 54.7686 57.6874 53.6966 56.6724C51.4793 54.5726 48.4425 51.697 44.6513 53.6211C44.2437 53.828 42.9636 53.6549 41.3057 52.9236C39.4722 52.1148 38.5082 51.2487 38.3827 50.9485C38.7236 49.0754 37.9859 48.0042 37.4457 47.2198C36.9627 46.5183 36.8091 46.2476 37.0743 45.6952C37.2784 45.27 37.6583 44.4785 38.0825 44.3362C38.1427 44.316 38.3258 44.2545 38.7073 44.4511C39.1081 44.6575 39.2365 45.0958 39.3868 45.7408C39.5304 46.3581 39.7695 47.3918 40.8679 47.3487C42.2419 47.2954 42.5812 45.7557 42.8806 44.3972C42.9552 44.0586 43.0323 43.7086 43.1209 43.3939C43.2484 42.9409 43.5356 42.8167 44.2099 42.6225C44.7134 42.4773 45.34 42.2967 45.6613 41.701L45.7213 41.5891C46.1409 40.8067 46.8431 39.4972 48.3307 38.6587C48.97 38.2984 49.3632 37.8965 49.5324 37.4303C49.6969 36.9774 49.6103 36.5806 49.553 36.318C49.5485 36.2973 49.5435 36.2742 49.5387 36.2513C49.7659 36.1848 50.2198 36.1394 50.5383 36.1076C51.5086 36.0103 52.6084 35.9003 53.1106 35.1609C54.1495 33.6314 54.592 31.8622 54.3493 30.3938C56.2232 30.4654 58.072 30.7731 59.8524 31.3056C62.7944 34.9867 63.0315 35.9412 63.0494 36.0901C62.8419 37.1508 63.3495 38.2722 63.6786 38.8576C63.1212 39.7898 61.7957 42.2663 61.9054 44.569C61.9676 45.8767 62.6265 47.7318 63.6679 49.5315C65.1465 52.0867 66.1734 52.5983 66.6539 52.676C67.409 52.7979 68.2443 52.3085 69.1294 51.7907C69.8969 51.3419 70.9484 50.7271 71.2822 51.0402C72.5509 52.2278 72.2419 56.0616 71.9449 58.2412C71.4529 61.8515 70.3993 65.6942 69.9247 67.3217Z" fill="#F58220"/>
</g>
<defs>
<clipPath id="clip0_708_668">
<rect width="47" height="47" fill="white" transform="translate(30 29)"/>
</clipPath>
</defs>
</svg>
