<svg width="871" height="485" viewBox="0 0 871 485" fill="none" xmlns="http://www.w3.org/2000/svg">
<path d="M222.787 419.421C222.787 419.421 141.196 324.056 57.3 292.14C51.6474 289.988 45.8609 294.899 47.1159 300.783C55.3655 340.181 90.9951 454.275 222.787 419.421Z" fill="#AEC8D7"/>
<path d="M208.31 417.954C208.709 418.065 208.561 418.668 208.148 418.596C192.948 416.06 129.848 397.732 73.1272 325.931C72.9303 325.7 73.2833 325.419 73.4686 325.623C88.3285 341.398 145.216 398.483 208.31 417.954Z" fill="#DCE5FE"/>
<path d="M46.1112 415.646C62.1864 407.878 135.909 376.391 182.128 426.411C183.031 427.379 182.586 428.969 181.304 429.308C167.71 433.105 105.313 447.839 46.1081 418.818C44.7836 418.193 44.7748 416.295 46.1112 415.646Z" fill="#A3BDCC"/>
<path d="M66.7084 415.979C66.4067 416.016 66.3112 415.582 66.6279 415.507C80.3841 412.368 123.513 405.373 174.737 425.872C174.71 425.884 123.089 408.095 66.7084 415.979Z" fill="#DCE5FE"/>
<path d="M672.362 423.174C672.362 423.174 733.823 313.748 809.899 266.107C815.024 262.896 821.656 266.586 821.571 272.602C821.15 312.852 808.418 431.7 672.362 423.174Z" fill="#AEC8D7"/>
<path d="M686.276 418.917C685.907 419.103 686.169 419.666 686.56 419.514C700.976 414.067 759.299 383.804 800.954 302.333C801.102 302.068 800.701 301.861 800.559 302.097C789.055 320.463 744.371 387.532 686.276 418.917Z" fill="#DCE5FE"/>
<path d="M844.92 385.071C827.64 380.582 749.198 364.051 713.603 422.114C712.906 423.239 713.652 424.712 714.975 424.795C729.048 425.872 793.12 428.175 845.541 388.182C846.718 387.311 846.357 385.447 844.92 385.071Z" fill="#A3BDCC"/>
<path d="M824.782 389.408C825.085 389.385 825.094 388.941 824.769 388.929C810.665 388.529 767 390.065 720.747 420.146C720.776 420.152 767.945 392.653 824.782 389.408Z" fill="#DCE5FE"/>
<path d="M755.636 248.772C736.472 221.765 682.352 202.586 712.186 150.115C722.484 122.511 725.477 92.8211 706.563 70.3706C660.863 16.0901 606.304 25.1332 546.145 47.7833C485.985 70.4334 437.932 115.867 371.06 113.139C334.645 111.643 300.801 94.1812 264.762 90.9217C253.658 89.9239 243.276 90.7886 233.584 93.2831C197.2 102.696 178.834 126.681 166.758 165.961C156.94 197.791 179.537 225.769 153.005 261.04C122.613 301.443 105.928 320.848 112.062 358.675C119.605 405.193 140.776 435.791 179.537 446.087C212.253 454.777 233.584 451.199 267.971 433.308C294.381 413.95 322.568 416.045 353.338 416.81C411.93 418.207 445.899 429.277 503.738 438.756C553.296 446.871 573.535 452.126 623.752 453.656C655.212 454.621 678.745 448.434 707.233 428.429C717.569 421.172 725.322 410.93 731.386 399.852C756.35 354.246 791.269 299.034 755.636 248.772Z" fill="#E1E6EC"/>
<path d="M324.455 262.439C324.507 262.442 324.558 262.443 324.61 262.443L392.26 262.375C392.658 262.376 393.051 262.298 393.419 262.146C393.786 261.994 394.12 261.771 394.4 261.489C394.681 261.208 394.904 260.875 395.056 260.507C395.208 260.14 395.286 259.746 395.285 259.349C395.285 258.951 395.206 258.557 395.053 258.19C394.901 257.823 394.677 257.49 394.395 257.21C394.114 256.929 393.78 256.707 393.412 256.556C393.044 256.405 392.651 256.328 392.253 256.329L324.603 256.397C323.814 256.396 323.056 256.704 322.491 257.255C321.926 257.806 321.599 258.556 321.58 259.346C321.56 260.135 321.85 260.9 322.387 261.478C322.925 262.056 323.667 262.401 324.455 262.439Z" fill="#83B9E6"/>
<path d="M418.459 196.17C418.435 196.216 418.412 196.262 418.391 196.309L389.926 257.697C389.758 258.057 389.663 258.447 389.646 258.845C389.629 259.242 389.691 259.638 389.827 260.012C389.964 260.385 390.172 260.728 390.441 261.02C390.71 261.313 391.034 261.55 391.395 261.717C391.755 261.884 392.145 261.978 392.542 261.995C392.939 262.011 393.336 261.949 393.709 261.811C394.082 261.674 394.424 261.465 394.716 261.195C395.008 260.926 395.244 260.601 395.41 260.24L423.875 198.852C424.208 198.137 424.248 197.319 423.987 196.575C423.726 195.83 423.184 195.217 422.476 194.867C421.769 194.516 420.953 194.456 420.203 194.7C419.452 194.944 418.826 195.471 418.459 196.17Z" fill="#7BBCDB"/>
<path d="M558.733 262.331C558.785 262.334 558.836 262.335 558.888 262.335L626.539 262.267C626.936 262.268 627.33 262.189 627.697 262.037C628.064 261.885 628.398 261.662 628.679 261.381C628.96 261.1 629.182 260.766 629.334 260.399C629.486 260.032 629.564 259.638 629.563 259.24C629.563 258.843 629.484 258.449 629.331 258.082C629.179 257.715 628.955 257.382 628.673 257.101C628.392 256.821 628.058 256.599 627.69 256.448C627.323 256.297 626.929 256.219 626.531 256.221L558.881 256.288C558.092 256.288 557.334 256.596 556.769 257.147C556.204 257.698 555.877 258.448 555.858 259.237C555.838 260.026 556.128 260.792 556.665 261.37C557.203 261.948 557.945 262.293 558.733 262.331Z" fill="#83B9E6"/>
<path d="M532.931 195.05C532.955 195.096 532.978 195.142 533 195.19L561.464 256.577C561.632 256.938 561.727 257.328 561.744 257.725C561.761 258.122 561.699 258.519 561.563 258.892C561.427 259.265 561.218 259.608 560.949 259.901C560.68 260.193 560.356 260.43 559.995 260.597C559.635 260.764 559.245 260.859 558.848 260.875C558.451 260.891 558.054 260.829 557.681 260.692C557.308 260.555 556.966 260.345 556.674 260.076C556.382 259.806 556.146 259.482 555.98 259.121L527.515 197.733C527.182 197.017 527.142 196.2 527.403 195.455C527.664 194.71 528.207 194.097 528.914 193.747C529.621 193.397 530.437 193.337 531.188 193.58C531.938 193.824 532.564 194.351 532.931 195.05Z" fill="#7CBCDC"/>
<path d="M367.663 270.586C367.412 271.824 342.943 379.011 336.74 406.184C336.025 409.316 338.615 412.223 341.962 412.053C343.076 412.013 344.146 411.605 345.004 410.894C345.863 410.183 346.462 409.207 346.709 408.12L377.317 269.854L367.663 270.586Z" fill="#98A2B7"/>
<path d="M307.246 411.303C295.458 411.303 290.243 410.292 287.911 409.369C288.139 410.354 288.694 411.233 289.485 411.862C290.276 412.491 291.256 412.834 292.267 412.834H333.967C334.279 412.834 334.586 412.761 334.865 412.623C335.144 412.485 335.388 412.284 335.577 412.036C335.766 411.788 335.896 411.5 335.955 411.194C336.015 410.888 336.004 410.573 335.922 410.272C331.169 410.654 321.073 411.303 307.246 411.303Z" fill="white"/>
<path d="M335.922 410.272C335.857 410.015 335.741 409.773 335.581 409.562C332.404 405.506 326.023 399.135 317.343 399.257C304.628 399.436 300.194 400.816 290.313 399.334L287.982 407.063C287.755 407.812 287.731 408.608 287.911 409.369C290.243 410.292 295.458 411.303 307.246 411.303C321.073 411.303 331.169 410.654 335.922 410.272Z" fill="#8794AC"/>
<path d="M293.175 391.006L290.313 400.74C290.313 400.74 296.653 403.627 302.228 401.309L303.323 392.875L293.175 391.006Z" fill="url(#paint0_linear_783_1883)"/>
<path d="M379.602 405.173C370.414 412.558 365.718 415.041 363.325 415.786C364.12 416.407 365.101 416.742 366.11 416.734C367.118 416.727 368.095 416.378 368.88 415.745L401.387 389.619C401.629 389.425 401.824 389.177 401.955 388.895C402.087 388.614 402.152 388.305 402.145 387.995C402.137 387.684 402.059 387.379 401.915 387.103C401.771 386.828 401.565 386.589 401.314 386.406C397.847 389.681 390.381 396.51 379.602 405.173Z" fill="white"/>
<path d="M401.314 386.406C401.103 386.247 400.862 386.133 400.605 386.069C395.601 384.912 386.657 383.967 379.966 389.5C370.166 397.606 367.57 401.454 358.944 406.496L361.943 413.953C362.233 414.676 362.71 415.308 363.325 415.786C365.718 415.041 370.414 412.558 379.602 405.173C390.381 396.51 397.847 389.681 401.314 386.406Z" fill="#8794AC"/>
<path d="M231.963 280.097C231.963 280.097 302.534 285.86 317.011 292.678C331.488 299.495 305.197 395.038 305.197 395.038C305.197 395.038 301.256 396.936 292.486 394.209C292.486 394.209 301.479 323.701 294.787 308.412L218.377 295.911L231.963 280.097Z" fill="#445A6E"/>
<path d="M351.932 393.075C352.588 393.672 358.944 406.496 358.944 406.496C358.944 406.496 366.021 404.964 367.464 400.485L361.096 388.91L351.932 393.075Z" fill="url(#paint1_linear_783_1883)"/>
<path d="M189.459 279.507C187.938 283.632 187.19 288.002 187.253 292.398C187.383 302.571 195.559 310.825 205.717 311.332L289.143 315.138C290 315.177 290.821 315.491 291.486 316.032C292.152 316.574 292.625 317.315 292.837 318.146C294.798 325.731 304.38 349.024 351.221 395.503C351.828 396.103 352.62 396.48 353.468 396.573C354.316 396.665 355.171 396.467 355.893 396.012L362.561 391.799C362.897 391.586 363.138 391.251 363.233 390.863C363.327 390.476 363.267 390.068 363.066 389.724L314.491 306.751C311.939 302.54 307.838 299.497 303.068 298.278L231.964 280.097L189.459 279.507Z" fill="#445A6E"/>
<path d="M286.242 151.758C286.242 151.758 262.738 165.702 253.626 173.36L272.46 183.871C272.46 183.871 282.637 172.111 292.333 167.211L286.242 151.758Z" fill="url(#paint2_linear_783_1883)"/>
<path d="M187.944 280.097C187.944 280.097 210.466 285.587 231.963 280.097C231.963 280.097 262.044 239.648 273.682 228.639C273.682 228.639 292.245 257.939 333.563 262.092L335.867 256.941C335.867 256.941 302.974 241.774 292.847 218.468C282.721 195.163 278.654 185.223 269.441 179.143C263.703 175.356 260.268 172.769 258.493 171.357C258.02 170.979 257.443 170.755 256.839 170.717C256.236 170.679 255.635 170.827 255.118 171.142C245.341 177.102 199.337 208.619 187.944 280.097Z" fill="#F58220"/>
<path d="M272.462 228.822C272.125 228.822 271.792 228.744 271.489 228.595C271.187 228.446 270.923 228.229 270.718 227.961C263.48 218.52 259.447 208.112 259.278 207.674C259.175 207.404 259.126 207.117 259.133 206.829C259.141 206.54 259.205 206.256 259.323 205.992C259.44 205.729 259.608 205.491 259.817 205.292C260.027 205.094 260.273 204.938 260.542 204.835C260.812 204.731 261.099 204.682 261.387 204.689C261.675 204.697 261.96 204.761 262.223 204.879C262.487 204.996 262.725 205.164 262.923 205.374C263.122 205.583 263.277 205.829 263.381 206.099C263.419 206.2 267.367 216.368 274.203 225.287C274.453 225.612 274.606 226.001 274.646 226.409C274.686 226.817 274.612 227.228 274.43 227.595C274.249 227.963 273.969 228.273 273.621 228.489C273.273 228.706 272.872 228.821 272.462 228.822Z" fill="#FF973F"/>
<path d="M331.079 254.251L335.729 253.011L349.85 249.74C350.692 249.545 351.563 249.519 352.415 249.663C353.267 249.806 354.082 250.117 354.813 250.577L366.955 258.218L333.425 258.162L331.079 254.251Z" fill="url(#paint3_linear_783_1883)"/>
<path d="M299.639 135.185C299.919 135.591 308.271 167.078 308.271 167.078L290.196 171.466L277.847 142.799C277.847 142.799 294.956 128.396 299.639 135.185Z" fill="url(#paint4_linear_783_1883)"/>
<path d="M284.589 147.206L289.908 162.806C289.975 163.005 290.07 163.193 290.189 163.366C290.922 164.432 293.713 167.914 297.1 164.84C300.174 162.052 303.02 159.552 305.629 159.121C306.194 159.027 306.774 159.147 307.255 159.458C307.736 159.768 308.083 160.247 308.23 160.801C308.988 163.662 310.577 170.141 311.099 175.98C311.148 176.552 310.98 177.121 310.63 177.576C310.279 178.03 309.771 178.337 309.206 178.436C305.678 179.067 298.2 180.19 291.973 179.684C291.56 179.652 291.163 179.509 290.824 179.27C290.485 179.031 290.217 178.705 290.048 178.327C288.37 174.554 283.23 163.108 281.304 160.14C279.497 157.355 274.993 157.384 273.103 157.531C272.797 157.556 272.49 157.517 272.199 157.419C271.909 157.32 271.641 157.164 271.413 156.959C269.777 155.492 266.672 151.76 271.142 147.38C271.364 147.164 271.54 146.905 271.659 146.619C271.779 146.333 271.84 146.026 271.838 145.717C271.837 145.407 271.773 145.1 271.65 144.816C271.527 144.531 271.348 144.275 271.124 144.061C269.244 142.254 267.246 139.064 270.453 135.168C273.712 131.208 277.952 131.889 280.543 132.866C281.05 133.053 281.606 133.056 282.115 132.874C282.623 132.693 283.052 132.338 283.325 131.872C283.657 131.327 284.229 130.919 285.213 131.014C285.528 131.038 285.844 130.997 286.142 130.892C286.44 130.787 286.713 130.621 286.943 130.405C287.173 130.188 287.355 129.926 287.478 129.635C287.601 129.344 287.662 129.03 287.656 128.714C287.638 126.155 288.588 122.932 293.041 121.598C300.941 119.23 305.771 126.893 306.196 132.576C306.622 138.259 297.91 140.339 292.805 139.901C288.924 139.569 285.999 143.389 284.819 145.24C284.636 145.529 284.52 145.856 284.48 146.197C284.44 146.537 284.477 146.882 284.589 147.206Z" fill="#CA7934"/>
<path d="M283.298 165.801C283.298 165.801 282.131 155.93 278.036 155.403C273.942 154.876 269.916 158.204 273.933 163.78C278.929 170.717 283.298 165.801 283.298 165.801Z" fill="url(#paint5_linear_783_1883)"/>
<path d="M607.492 270.395C607.742 271.633 632.211 378.819 638.415 405.993C639.13 409.125 636.54 412.032 633.192 411.862C632.078 411.821 631.009 411.414 630.15 410.703C629.292 409.991 628.693 409.016 628.446 407.929L597.838 269.663L607.492 270.395Z" fill="#98A2B7"/>
<path d="M216.156 408.203H222.949V328.851H216.156V408.203Z" fill="#98A2B7"/>
<path d="M249.3 409.62H189.806V405.87C189.806 405.691 189.877 405.52 190.003 405.394C190.129 405.268 190.3 405.197 190.479 405.197H248.627C248.715 405.197 248.803 405.214 248.884 405.248C248.966 405.282 249.04 405.332 249.103 405.394C249.165 405.456 249.215 405.531 249.248 405.612C249.282 405.694 249.3 405.781 249.3 405.87V409.62Z" fill="#98A2B7"/>
<path d="M188.281 310.523H248.473C250.411 310.523 252.269 311.293 253.638 312.664C255.008 314.034 255.778 315.892 255.778 317.83V324.437C255.778 326.375 255.008 328.234 253.638 329.604C252.269 330.974 250.411 331.744 248.473 331.744H188.281C187.322 331.744 186.372 331.555 185.486 331.188C184.6 330.821 183.794 330.282 183.116 329.604C182.438 328.925 181.9 328.12 181.533 327.233C181.166 326.347 180.977 325.397 180.977 324.437V317.83C180.977 315.892 181.746 314.034 183.116 312.664C184.486 311.293 186.344 310.523 188.281 310.523Z" fill="#98A2B7"/>
<path d="M647.326 397.573H640.533V324.095H647.326V397.573Z" fill="#98A2B7"/>
<path d="M614.183 398.99H673.676V395.24C673.676 395.062 673.605 394.891 673.479 394.764C673.353 394.638 673.182 394.567 673.004 394.567H614.855C614.677 394.567 614.506 394.638 614.38 394.764C614.254 394.891 614.183 395.062 614.183 395.24V398.99Z" fill="#98A2B7"/>
<path d="M675.2 307.631H615.009C614.049 307.631 613.099 307.82 612.213 308.187C611.327 308.554 610.522 309.092 609.843 309.771C609.165 310.449 608.627 311.255 608.26 312.141C607.893 313.028 607.704 313.978 607.704 314.938V321.545C607.704 323.482 608.473 325.341 609.843 326.711C611.213 328.082 613.071 328.851 615.009 328.851H675.2C677.138 328.851 678.996 328.082 680.366 326.711C681.736 325.341 682.505 323.482 682.505 321.545V314.938C682.505 313.978 682.316 313.028 681.949 312.142C681.582 311.255 681.044 310.45 680.366 309.771C679.687 309.093 678.882 308.554 677.996 308.187C677.109 307.82 676.16 307.631 675.2 307.631Z" fill="#98A2B7"/>
<path d="M593.784 275.101C593.784 275.101 583.69 276.666 572.342 284.255C571.464 284.835 570.765 285.648 570.324 286.604C569.883 287.559 569.717 288.618 569.845 289.663C571.204 300.43 576.791 335.279 595.215 369.316C596.181 371.115 596.472 373.2 596.037 375.195L592.836 390.095L586.9 395.663H602.19L612.37 368.106L608.017 366.729C606.371 366.208 604.93 365.184 603.898 363.8C602.866 362.416 602.295 360.742 602.265 359.016L601.754 329.455C602.19 316.285 593.681 307.198 593.681 307.198L618.099 306.009L593.784 275.101Z" fill="url(#paint6_linear_783_1883)"/>
<path d="M580.93 398.351C579.538 400.174 595.917 402.579 604.192 398.592C604.192 398.592 615.663 378.628 615.663 368.349C615.663 368.349 614.752 366.254 608.017 366.729C608.017 366.729 604.165 390.367 600.098 393.015C596.031 395.663 588.72 393.283 588.72 393.283C588.72 393.283 582.985 395.661 580.93 398.351Z" fill="#8794AC"/>
<path d="M615.009 307.631C614.879 307.406 588.719 304.484 588.719 304.484C588.719 304.484 589.575 312.441 586.9 323.393C584.224 334.345 545.816 381.797 545.816 381.797L549.843 394.567C537.392 398.906 525.143 399.599 513.091 396.779L538.049 381.797C538.049 381.797 561.407 302.175 575.714 287.971L601.936 278.896L615.009 307.631Z" fill="url(#paint7_linear_783_1883)"/>
<path d="M673.676 261.302C673.676 261.302 688.748 283.726 689.985 293.954C691.221 304.183 685.856 308.339 670.042 309.025C654.228 309.71 612.01 309.699 612.01 309.699L575.978 278.896C575.978 278.896 602.237 269.524 609.064 266.874C615.891 264.224 673.676 261.302 673.676 261.302Z" fill="#FEC223"/>
<path d="M548.321 390.267C548.321 390.267 552.657 394.467 549.728 399.141C549.728 399.141 515.382 405.231 506.056 402.468C506.056 402.468 507.993 398.047 518.493 393.015L517.719 393.61C517.505 393.773 517.349 393.999 517.274 394.257C517.199 394.515 517.209 394.79 517.301 395.042C517.394 395.293 517.565 395.509 517.789 395.656C518.014 395.804 518.279 395.876 518.547 395.861C525.467 395.466 539.786 394.198 548.321 390.267Z" fill="#8794AC"/>
<path d="M632.916 258.333C632.916 258.333 615.365 241.616 606.725 230.544C604.427 227.591 602.867 224.132 602.175 220.454C601.483 216.777 601.68 212.987 602.748 209.401C606.693 196.108 613.703 182.341 614.342 180.198C615.322 176.914 635.001 177.05 635.001 177.05C635.001 177.05 673.726 202.191 688.942 244.776L671.854 250.097C671.854 250.097 661.743 233.129 651.752 222.341C651.752 222.341 669.039 245.184 669.648 254.536L632.916 258.333Z" fill="#FEC223"/>
<path d="M611.962 161.842C612.168 162.525 617.304 179.558 617.706 179.911C618.108 180.265 628.97 180.849 634.083 177.354L625.409 159.19L611.962 161.842Z" fill="url(#paint8_linear_783_1883)"/>
<path d="M618.246 127.846C618.246 127.846 608.639 130.85 601.071 143.582C593.502 156.315 597.592 162.929 603.397 164.345C609.201 165.761 618.017 166.486 628.164 158.771C638.311 151.056 630.692 124.389 618.246 127.846Z" fill="url(#paint9_linear_783_1883)"/>
<path d="M622.595 151.042C622.595 151.042 631.449 132.199 614.172 130.291L609.826 132.742C609.826 132.742 604.527 121.305 615.445 117.15C626.364 112.994 641.464 119.101 644.537 133.571C647.61 148.04 644.136 156.855 636.109 162.857C628.083 168.859 625.781 160.948 625.781 160.948C625.781 160.948 630.406 155.054 629.097 151.534C627.787 148.015 623.623 151.706 623.623 151.706L622.595 151.042Z" fill="#1E3850"/>
<path d="M597.16 259.574L610.055 247.142L627.894 254.68C627.894 254.68 645.651 257.432 655.813 254.68L665.976 251.928L688.942 244.776L692.549 254.973C692.993 256.232 693.014 257.602 692.61 258.875C692.205 260.148 691.396 261.254 690.306 262.026C688.32 263.438 685.991 264.991 684.506 265.64C681.482 266.963 609.952 264.724 609.952 264.724L597.16 259.574Z" fill="url(#paint10_linear_783_1883)"/>
<path d="M642.967 135.639C640.963 133.15 642.781 129.451 645.97 129.266C656.265 128.667 671.571 131.78 675.962 154.126C680.908 179.297 684.485 191.989 689.164 194.609C692.237 196.33 692.012 200.807 688.675 201.933C686.207 202.766 682.786 202.814 678.045 201.278C641.47 189.431 654.722 150.236 642.967 135.639Z" fill="#1E3850"/>
<path d="M350.019 268.394C349.706 269.69 319.819 381.816 312.241 410.242C312.056 410.894 312.002 411.577 312.084 412.25C312.165 412.924 312.381 413.574 312.717 414.163C313.053 414.752 313.503 415.268 314.041 415.681C314.579 416.094 315.194 416.395 315.85 416.568C316.506 416.74 317.19 416.779 317.861 416.684C318.533 416.588 319.178 416.359 319.76 416.011C320.342 415.663 320.849 415.202 321.25 414.655C321.652 414.109 321.94 413.487 322.099 412.828L359.698 268.14L350.019 268.394Z" fill="#98A2B7"/>
<path d="M626.657 271.313C626.97 272.61 656.858 384.735 664.435 413.161C664.621 413.813 664.674 414.496 664.593 415.169C664.511 415.843 664.296 416.493 663.96 417.082C663.623 417.672 663.173 418.188 662.635 418.6C662.097 419.013 661.482 419.315 660.826 419.487C660.17 419.659 659.486 419.698 658.815 419.603C658.144 419.507 657.498 419.279 656.916 418.93C656.334 418.582 655.828 418.121 655.426 417.574C655.024 417.028 654.736 416.407 654.577 415.747L618.186 271.313H626.657Z" fill="#98A2B7"/>
<path d="M314.54 260.837H673.714C678.734 260.837 683.118 261.821 684.372 263.229L689.387 268.856C691.192 270.882 685.887 272.853 678.666 272.841L310.115 272.227C302.971 272.215 297.759 270.267 299.504 268.26L303.866 263.247C305.098 261.83 309.496 260.837 314.54 260.837Z" fill="#98A2B7"/>
<path d="M492.535 139.739C492.461 138.824 491.545 138.056 489.968 137.434C491.691 136.482 492.608 135.494 492.535 134.506C492.278 131.506 482.82 129.859 471.345 130.774C459.871 131.689 450.779 134.872 451.036 137.873C451.109 138.788 452.026 139.556 453.602 140.178C451.879 141.13 450.963 142.118 451.036 143.105C451.109 144.02 452.026 144.789 453.602 145.411C451.879 146.362 450.963 147.35 451.036 148.338C451.109 149.253 452.026 150.021 453.602 150.643C451.879 151.595 450.963 152.583 451.036 153.571C451.146 154.888 453.052 155.949 456.168 156.644C456.132 157.632 456.168 158.693 456.242 159.864C456.682 165.39 462.914 169.708 471.125 169.708C479.337 169.708 486.449 163.816 486.522 158.291C486.559 156.937 486.486 155.73 486.376 154.668C490.298 153.351 492.681 151.778 492.571 150.204C492.498 149.289 491.581 148.521 490.005 147.899C491.728 146.948 492.644 145.96 492.571 144.972C492.498 144.057 491.581 143.288 490.005 142.666C491.655 141.752 492.608 140.727 492.535 139.739Z" fill="#5F6F89"/>
<path d="M466.068 157.888C462.659 157.888 459.543 157.632 456.977 157.156C456.83 157.119 456.72 156.973 456.757 156.827C456.794 156.68 456.94 156.57 457.087 156.607C461.119 157.376 466.472 157.558 472.227 157.083C476.92 156.717 481.319 155.948 484.911 154.887C485.058 154.851 485.205 154.924 485.241 155.07C485.278 155.217 485.205 155.363 485.058 155.4C481.429 156.461 476.993 157.229 472.264 157.595C470.101 157.778 468.048 157.888 466.068 157.888Z" fill="url(#paint11_linear_783_1883)"/>
<path d="M466.105 152.619C461.669 152.619 457.747 152.217 454.961 151.412C454.814 151.375 454.741 151.229 454.777 151.082C454.814 150.936 454.961 150.863 455.107 150.899C459.067 152.034 465.482 152.363 472.227 151.851C478.899 151.302 485.095 149.948 488.871 148.228C489.017 148.155 489.164 148.228 489.237 148.375C489.311 148.521 489.237 148.667 489.091 148.74C485.278 150.497 479.009 151.851 472.264 152.4C470.138 152.546 468.085 152.619 466.105 152.619Z" fill="url(#paint12_linear_783_1883)"/>
<path d="M466.068 147.351C461.302 147.351 457.123 146.875 454.3 145.924C454.153 145.887 454.08 145.704 454.117 145.594C454.153 145.448 454.337 145.375 454.447 145.411C458.369 146.692 465.005 147.131 472.19 146.546C478.862 145.997 485.057 144.643 488.833 142.923C488.98 142.85 489.127 142.923 489.2 143.069C489.273 143.216 489.2 143.362 489.053 143.435C485.241 145.192 478.972 146.546 472.227 147.094C470.1 147.277 468.047 147.351 466.068 147.351Z" fill="url(#paint13_linear_783_1883)"/>
<path d="M466.107 142.117C462.331 142.117 458.885 141.824 456.209 141.202C456.062 141.165 455.952 141.019 455.989 140.873C456.025 140.726 456.172 140.616 456.319 140.653C460.351 141.531 466.143 141.787 472.229 141.275C478.828 140.726 485.023 139.409 488.762 137.689C488.909 137.616 489.055 137.689 489.129 137.835C489.202 137.982 489.129 138.128 488.982 138.201C485.17 139.921 478.901 141.275 472.266 141.824C470.139 142.007 468.086 142.117 466.107 142.117Z" fill="url(#paint14_linear_783_1883)"/>
<path d="M443.339 113.21C441.946 108.307 439.6 103.697 436.41 99.6716C429.592 91.0726 418.447 73.655 417.091 49.8339C415.111 15.1816 445.868 -2.1628 473.986 0.215652C502.067 2.55751 529.782 23.4513 526.776 55.6885C524.906 75.5211 513.798 90.5603 505.513 99.1959C500.271 104.685 496.495 111.418 494.479 118.699C491.986 127.664 486.084 138.825 472.043 139.483C453.787 140.361 446.235 123.456 443.339 113.21Z" fill="#FFCB2E"/>
<path d="M473.523 63.3078C467.346 62.7886 462.229 61.1636 457.918 57.4665C456.49 56.2405 454.877 54.7044 455.889 52.7044C456.876 50.7524 458.961 51.4087 460.66 51.8486C464.166 52.7573 467.614 53.9088 471.146 54.6827C475.476 55.6299 477.31 53.3415 475.805 49.1371C475.131 47.2572 474.015 45.6539 472.809 44.0937C471.487 42.3822 470.135 40.6923 468.901 38.9182C462.922 30.334 464.774 22.4758 473.162 15.9854C470.329 21.4397 469.965 28.5359 473.761 33.3365C476.2 36.4182 478.863 39.3244 481.252 42.4447C482.615 44.2235 483.792 46.1947 484.767 48.2187C487.581 54.0554 485.604 57.666 479.27 58.7549C476.325 59.2598 473.394 58.9328 470.456 59.0122C469.84 59.029 468.884 58.779 468.788 59.7068C468.747 60.1011 469.383 60.6684 469.833 60.9881C470.849 61.7093 471.944 62.3271 473.523 63.3078Z" fill="#FFE8D5"/>
<path d="M457.497 38.4834C457.042 42.183 457.421 44.9642 460.452 47.6494C461.058 48.1854 461.789 49.135 461.001 49.9667C460.057 50.9619 459.177 49.9523 458.456 49.4306C455.305 47.147 454.816 42.3225 457.497 38.4834Z" fill="#FFE8D5"/>
<path d="M471.972 48.0275C471.21 46.2966 469.957 44.8327 468.55 43.6236C463.666 39.4216 460.572 34.8615 463.472 24.9431C461.258 26.5753 459.537 32.8326 459.393 36.1452C459.106 42.8423 462.149 48.0948 467.438 52.0299C468.759 53.0131 470.414 53.191 471.819 52.0708C473.338 50.8592 472.552 49.3448 471.972 48.0275Z" fill="#FFE8D5"/>
<path d="M476.627 132.604L486.451 68.7884C486.671 67.4711 487.294 66.5929 487.918 66.8124C488.504 67.032 488.834 68.2761 488.651 69.5934C488.651 69.63 488.651 69.6666 488.614 69.7032L477.433 132.933C477.36 133.409 477.103 133.702 476.883 133.592C476.663 133.482 476.553 133.043 476.627 132.604Z" fill="#E5B114"/>
<path d="M466.436 133.081L456.611 69.2649C456.391 67.9476 455.768 67.0694 455.145 67.289C454.558 67.5085 454.228 68.7526 454.412 70.0699C454.412 70.1065 454.411 70.1431 454.448 70.1797L465.666 133.447C465.739 133.922 465.996 134.215 466.216 134.105C466.399 133.995 466.509 133.556 466.436 133.081Z" fill="#E5B114"/>
<path d="M505.698 90.9636C505.441 90.9636 505.185 90.8904 504.965 90.7074C504.415 90.3049 504.305 89.4999 504.708 88.951C506.394 86.719 507.898 84.3771 509.254 82.0352C509.584 81.4498 510.354 81.2302 510.94 81.5961C511.527 81.9255 511.747 82.6939 511.38 83.2793C509.987 85.6944 508.374 88.1094 506.651 90.4147C506.468 90.7806 506.064 90.9636 505.698 90.9636Z" fill="#FFE8D5"/>
<path d="M513.761 77.0934C513.577 77.0934 513.431 77.0568 513.248 76.9836C512.624 76.7275 512.331 75.959 512.588 75.337C522.962 51.4793 514.017 31.4271 513.907 31.2075C513.614 30.5855 513.907 29.8537 514.531 29.5609C515.154 29.2682 515.887 29.5609 516.18 30.183C516.584 31.0246 525.675 51.4427 514.861 76.3249C514.714 76.8372 514.274 77.0934 513.761 77.0934Z" fill="#FFE8D5"/>
<defs>
<linearGradient id="paint0_linear_783_1883" x1="290.313" y1="396.608" x2="303.323" y2="396.608" gradientUnits="userSpaceOnUse">
<stop stop-color="#FEBBBA"/>
<stop offset="1" stop-color="#FF928E"/>
</linearGradient>
<linearGradient id="paint1_linear_783_1883" x1="351.932" y1="397.703" x2="367.464" y2="397.703" gradientUnits="userSpaceOnUse">
<stop stop-color="#FEBBBA"/>
<stop offset="1" stop-color="#FF928E"/>
</linearGradient>
<linearGradient id="paint2_linear_783_1883" x1="253.626" y1="167.814" x2="292.333" y2="167.814" gradientUnits="userSpaceOnUse">
<stop stop-color="#FEBBBA"/>
<stop offset="1" stop-color="#FF928E"/>
</linearGradient>
<linearGradient id="paint3_linear_783_1883" x1="331.079" y1="253.895" x2="366.955" y2="253.895" gradientUnits="userSpaceOnUse">
<stop stop-color="#FEBBBA"/>
<stop offset="1" stop-color="#FF928E"/>
</linearGradient>
<linearGradient id="paint4_linear_783_1883" x1="293.726" y1="139.526" x2="291.042" y2="201.445" gradientUnits="userSpaceOnUse">
<stop stop-color="#FEBBBA"/>
<stop offset="1" stop-color="#FF928E"/>
</linearGradient>
<linearGradient id="paint5_linear_783_1883" x1="270.915" y1="202.838" x2="278.124" y2="160.502" gradientUnits="userSpaceOnUse">
<stop stop-color="#FEBBBA"/>
<stop offset="1" stop-color="#FF928E"/>
</linearGradient>
<linearGradient id="paint6_linear_783_1883" x1="469.269" y1="290.193" x2="652.826" y2="358.665" gradientUnits="userSpaceOnUse">
<stop stop-color="#FEBBBA"/>
<stop offset="1" stop-color="#FF928E"/>
</linearGradient>
<linearGradient id="paint7_linear_783_1883" x1="516.256" y1="311.866" x2="410.313" y2="245.214" gradientUnits="userSpaceOnUse">
<stop stop-color="#FEBBBA"/>
<stop offset="1" stop-color="#FF928E"/>
</linearGradient>
<linearGradient id="paint8_linear_783_1883" x1="627.567" y1="198.763" x2="622.466" y2="166.044" gradientUnits="userSpaceOnUse">
<stop stop-color="#FEBBBA"/>
<stop offset="1" stop-color="#FF928E"/>
</linearGradient>
<linearGradient id="paint9_linear_783_1883" x1="602.386" y1="137.393" x2="644.263" y2="172.18" gradientUnits="userSpaceOnUse">
<stop stop-color="#FEBBBA"/>
<stop offset="1" stop-color="#FF928E"/>
</linearGradient>
<linearGradient id="paint10_linear_783_1883" x1="656.832" y1="255.417" x2="752.572" y2="255.417" gradientUnits="userSpaceOnUse">
<stop stop-color="#FEBBBA"/>
<stop offset="1" stop-color="#FF928E"/>
</linearGradient>
<linearGradient id="paint11_linear_783_1883" x1="469.76" y1="160.5" x2="451.841" y2="225.893" gradientUnits="userSpaceOnUse">
<stop stop-color="#53D8FF"/>
<stop offset="1" stop-color="#3840F7"/>
</linearGradient>
<linearGradient id="paint12_linear_783_1883" x1="469.094" y1="160.318" x2="451.177" y2="225.71" gradientUnits="userSpaceOnUse">
<stop stop-color="#53D8FF"/>
<stop offset="1" stop-color="#3840F7"/>
</linearGradient>
<linearGradient id="paint13_linear_783_1883" x1="467.422" y1="159.861" x2="449.504" y2="225.254" gradientUnits="userSpaceOnUse">
<stop stop-color="#53D8FF"/>
<stop offset="1" stop-color="#3840F7"/>
</linearGradient>
<linearGradient id="paint14_linear_783_1883" x1="466.977" y1="159.736" x2="449.059" y2="225.13" gradientUnits="userSpaceOnUse">
<stop stop-color="#53D8FF"/>
<stop offset="1" stop-color="#3840F7"/>
</linearGradient>
</defs>
</svg>
