<svg width="107" height="107" viewBox="0 0 107 107" fill="none" xmlns="http://www.w3.org/2000/svg">
<path d="M97.4704 24.6735C97.2765 24.6735 97.0549 24.5625 96.9441 24.396C96.501 23.7025 96.0024 23.0366 95.5038 22.3708C95.3099 22.0934 95.3653 21.705 95.6423 21.483C95.9193 21.2888 96.3071 21.3443 96.5287 21.6217C97.0272 22.3153 97.5258 23.0089 97.9967 23.7025C98.1906 23.9799 98.1075 24.396 97.8305 24.5625C97.7197 24.6457 97.5812 24.6735 97.4704 24.6735Z" fill="#F58220"/>
<path d="M53.4855 107C52.5437 107 51.5743 106.972 50.6326 106.917C50.2725 106.889 50.0232 106.613 50.0509 106.253C50.0786 105.893 50.3833 105.644 50.7157 105.671C52.3499 105.754 54.0117 105.754 55.6182 105.699C55.9783 105.699 56.2553 105.948 56.283 106.308C56.3107 106.668 56.0337 106.945 55.6736 106.972C54.9535 106.972 54.2333 107 53.4855 107ZM63.6506 106.004C63.3459 106.004 63.0967 105.782 63.0413 105.505C62.9859 105.173 63.2075 104.841 63.5398 104.758C65.0909 104.453 66.642 104.066 68.1654 103.623L68.3039 103.595C68.6362 103.484 68.9963 103.678 69.0794 104.01C69.1902 104.342 68.9963 104.702 68.6639 104.785L68.5255 104.813C66.9467 105.256 65.3679 105.644 63.7891 105.976C63.7337 106.004 63.6783 106.004 63.6506 106.004ZM75.9762 101.989C75.7269 101.989 75.5053 101.851 75.3945 101.629C75.2561 101.325 75.3945 100.937 75.6992 100.799C77.1672 100.107 78.6352 99.3316 80.0201 98.5287C80.3248 98.3626 80.7125 98.4457 80.8787 98.7502C81.0449 99.0547 80.9618 99.4423 80.6572 99.6084C79.2169 100.439 77.7212 101.242 76.2255 101.934C76.1701 101.962 76.087 101.989 75.9762 101.989ZM86.9723 95.0682C86.7784 95.0682 86.6122 94.9851 86.4737 94.8467C86.2521 94.5698 86.3075 94.1823 86.5568 93.9608C87.8032 92.9365 89.0496 91.8291 90.1852 90.694C90.4345 90.4449 90.8223 90.4449 91.0716 90.694C91.3209 90.9432 91.3209 91.3308 91.0716 91.5799C89.8806 92.7427 88.6342 93.8777 87.3324 94.9298C87.2493 95.0405 87.1108 95.0682 86.9723 95.0682ZM95.9464 85.6831C95.8079 85.6831 95.6971 85.6554 95.5586 85.5724C95.2817 85.3786 95.2263 84.9633 95.4202 84.6865C96.3896 83.3853 97.3036 82.0288 98.1623 80.6169C98.3561 80.3123 98.7162 80.2293 99.0209 80.3954C99.3256 80.5892 99.4087 80.9491 99.2425 81.2536C98.3838 82.6655 97.4421 84.0774 96.445 85.4063C96.3342 85.6001 96.1403 85.6831 95.9464 85.6831ZM102.372 74.4156C102.289 74.4156 102.206 74.3879 102.123 74.3602C101.791 74.2218 101.652 73.8619 101.791 73.5296C102.428 72.0347 102.982 70.4844 103.453 68.934C103.563 68.6018 103.896 68.408 104.228 68.5188C104.56 68.6295 104.754 68.9617 104.644 69.2939C104.145 70.872 103.563 72.4777 102.926 74.0003C102.843 74.2495 102.594 74.4156 102.372 74.4156ZM105.862 61.9022C105.835 61.9022 105.807 61.9022 105.779 61.9022C105.447 61.8468 105.198 61.5423 105.253 61.1824C105.502 59.5767 105.668 57.9433 105.751 56.3099C105.779 55.9777 106.084 55.7009 106.416 55.7286C106.776 55.7562 107.026 56.0331 106.998 56.393C106.915 58.054 106.749 59.7428 106.499 61.3762C106.416 61.6807 106.167 61.9022 105.862 61.9022ZM106.167 48.9181C105.835 48.9181 105.585 48.669 105.53 48.3645C105.364 46.7588 105.114 45.1254 104.81 43.5197C104.754 43.1875 104.976 42.8553 105.308 42.7722C105.641 42.7168 105.973 42.9383 106.056 43.2705C106.389 44.9039 106.61 46.565 106.776 48.226C106.804 48.5582 106.555 48.8905 106.222 48.9181C106.195 48.9181 106.195 48.9181 106.167 48.9181ZM103.314 36.2664C103.065 36.2664 102.816 36.1003 102.732 35.8511C102.178 34.3284 101.569 32.8058 100.877 31.3108C100.738 31.0063 100.877 30.6187 101.181 30.4803C101.486 30.3419 101.874 30.4803 102.012 30.7848C102.705 32.2798 103.369 33.8578 103.923 35.4358C104.034 35.768 103.868 36.1279 103.536 36.2387C103.453 36.2387 103.369 36.2664 103.314 36.2664Z" fill="#F58220"/>
<path d="M42.6828 105.869C42.6274 105.869 42.5997 105.869 42.5443 105.869C41.7133 105.702 40.8824 105.508 40.0792 105.286C39.7468 105.203 39.5529 104.842 39.636 104.509C39.7191 104.177 40.0792 103.982 40.4116 104.066C41.2148 104.288 42.018 104.454 42.8213 104.648C43.1536 104.731 43.3752 105.064 43.3198 105.397C43.2367 105.675 42.9597 105.869 42.6828 105.869Z" fill="#F58220"/>
<path d="M8.53064 81.9256C8.30906 81.9256 8.11517 81.8146 8.00438 81.6204C7.56121 80.8991 7.11804 80.15 6.73027 79.4287C6.56408 79.1235 6.67487 78.7351 6.97955 78.5687C7.28423 78.4022 7.672 78.5131 7.83819 78.8183C8.22596 79.5396 8.66913 80.261 9.0846 80.9546C9.27849 81.2598 9.16769 81.6482 8.89071 81.8146C8.75222 81.8978 8.64144 81.9256 8.53064 81.9256Z" fill="#F58220"/>
<path d="M3.93311 72.5333C3.68383 72.5333 3.43455 72.3672 3.35145 72.118C2.90828 70.9276 2.49282 69.6818 2.13274 68.436C2.02195 68.1038 1.93886 67.7439 1.85576 67.4117C1.77267 67.0795 1.96656 66.7195 2.29893 66.6365C2.63131 66.5534 2.99138 66.7473 3.07447 67.0795C3.15757 67.4117 3.26836 67.7439 3.35145 68.0761C3.71153 69.2942 4.0993 70.4846 4.54247 71.6751C4.65326 72.0073 4.48707 72.3672 4.18239 72.4779C4.0993 72.5333 4.0162 72.5333 3.93311 72.5333ZM0.969429 60.1306C0.664751 60.1306 0.387771 59.8815 0.332375 59.577C0.138489 57.9436 0.027698 56.2825 0 54.6491C0 54.2892 0.276979 54.0124 0.609354 54.0124C0.94173 54.0124 1.24641 54.2892 1.24641 54.6215C1.27411 56.2272 1.3849 57.8328 1.57878 59.4385C1.60648 59.7707 1.3849 60.103 1.02482 60.1306C1.02482 60.1306 0.997127 60.1306 0.969429 60.1306ZM1.05252 47.3404C1.02483 47.3404 0.997127 47.3404 0.969429 47.3404C0.637053 47.2851 0.387772 46.9805 0.41547 46.6483C0.637053 45.0149 0.91403 43.3816 1.2741 41.7759C1.3572 41.4436 1.68958 41.2221 2.02195 41.3052C2.35433 41.3883 2.57591 41.7205 2.49282 42.0527C2.13274 43.603 1.85576 45.2087 1.66188 46.7867C1.63418 47.119 1.3572 47.3404 1.05252 47.3404ZM4.21009 34.9655C4.127 34.9655 4.0439 34.9655 3.98851 34.9101C3.65613 34.7717 3.51764 34.4118 3.62843 34.1072C4.21009 32.5846 4.90254 31.062 5.62269 29.5947C5.78888 29.2902 6.14895 29.1517 6.45363 29.3179C6.75831 29.484 6.89679 29.8439 6.73061 30.1484C6.01046 31.588 5.34571 33.0553 4.79175 34.5502C4.70866 34.8271 4.45937 34.9655 4.21009 34.9655ZM10.2482 23.7256C10.1375 23.7256 9.99897 23.6979 9.88817 23.6149C9.61119 23.4211 9.5281 23.0335 9.72198 22.7289C10.6637 21.4001 11.6885 20.0712 12.7411 18.8254C12.9626 18.5486 13.3504 18.5209 13.6274 18.7424C13.9044 18.9638 13.9321 19.3514 13.7105 19.6283C12.6857 20.8464 11.6885 22.1199 10.7745 23.4487C10.636 23.6148 10.4421 23.7256 10.2482 23.7256ZM18.7792 14.2298C18.613 14.2298 18.4191 14.1468 18.3084 14.0083C18.0868 13.7592 18.1145 13.3439 18.3638 13.1224C19.6102 12.0427 20.912 11.0184 22.2415 10.0495C22.5184 9.85567 22.9062 9.91103 23.1278 10.1879C23.3217 10.4647 23.2663 10.8523 22.9893 11.0738C21.6875 12.0151 20.4134 13.0117 19.2224 14.0637C19.0839 14.1745 18.9454 14.2298 18.7792 14.2298ZM29.3598 7.05954C29.1383 7.05954 28.9167 6.92111 28.8059 6.72732C28.6397 6.42279 28.7782 6.03522 29.0829 5.86911C30.5509 5.12163 32.0465 4.42951 33.5699 3.82045C33.9023 3.68203 34.2624 3.84813 34.3732 4.18035C34.5117 4.51256 34.3455 4.87247 34.0131 4.9832C32.5174 5.59226 31.0494 6.25669 29.6368 6.97649C29.5537 7.05954 29.4706 7.05954 29.3598 7.05954ZM41.3531 2.6577C41.0761 2.6577 40.7991 2.46392 40.7437 2.18708C40.6606 1.85487 40.8822 1.52265 41.2146 1.4396C42.8211 1.05201 44.4552 0.747487 46.0617 0.526012C46.3941 0.470643 46.7265 0.719793 46.7819 1.05201C46.8373 1.38422 46.588 1.71644 46.2556 1.77181C44.6768 1.99329 43.0703 2.2978 41.5193 2.6577C41.4639 2.6577 41.4085 2.6577 41.3531 2.6577ZM58.9413 1.52265C58.9136 1.52265 58.8859 1.52265 58.8859 1.52265C57.2794 1.35654 55.6729 1.27349 54.0664 1.2458C53.7064 1.2458 53.4294 0.96896 53.4571 0.609062C53.4571 0.276848 53.7341 0 54.0941 0C55.7283 0.0276845 57.3902 0.110738 59.0244 0.276845C59.3567 0.304529 59.6337 0.609058 59.5783 0.968956C59.5229 1.27349 59.246 1.52265 58.9413 1.52265Z" fill="#F58220"/>
<path d="M69.1623 3.60337C69.1069 3.60337 69.0238 3.60337 68.9684 3.57563C68.1929 3.32594 67.3896 3.10399 66.5864 2.88204C66.254 2.79881 66.0601 2.43813 66.1432 2.1052C66.2263 1.77228 66.5864 1.57808 66.9188 1.66131C67.7497 1.88326 68.5529 2.10521 69.3562 2.3549C69.6886 2.46588 69.8824 2.7988 69.7717 3.13172C69.6886 3.4369 69.4393 3.60337 69.1623 3.60337Z" fill="#F58220"/>
<path d="M72.5046 31.5047V57.6478C72.5046 57.8327 72.4303 58.0101 72.298 58.1409C72.1657 58.2716 71.9863 58.3451 71.7992 58.3451C71.6121 58.3451 71.4327 58.2716 71.3004 58.1409C71.1681 58.0101 71.0938 57.8327 71.0938 57.6478V31.5047C71.0935 31.1615 70.9554 30.8324 70.7099 30.5897C70.4643 30.347 70.1314 30.2105 69.7842 30.2102H38.6382C38.2909 30.2105 37.958 30.347 37.7125 30.5897C37.4669 30.8324 37.3289 31.1615 37.3285 31.5047V38.7435C37.3285 38.9285 37.2542 39.1058 37.1219 39.2366C36.9896 39.3673 36.8102 39.4408 36.6231 39.4408C36.436 39.4408 36.2566 39.3673 36.1243 39.2366C35.992 39.1058 35.9177 38.9285 35.9177 38.7435V31.5047C35.9185 30.7918 36.2053 30.1082 36.7154 29.6041C37.2254 29.1 37.9169 28.8164 38.6382 28.8157H69.7842C70.5054 28.8165 71.1969 29.1001 71.7069 29.6042C72.2169 30.1083 72.5038 30.7918 72.5046 31.5047ZM71.7992 66.2712C71.7066 66.2711 71.6148 66.2891 71.5292 66.3242C71.4436 66.3592 71.3658 66.4105 71.3003 66.4753C71.2348 66.5401 71.1828 66.6169 71.1474 66.7016C71.1119 66.7862 71.0937 66.8769 71.0938 66.9685V73.4953C71.0935 73.8385 70.9554 74.1676 70.7099 74.4103C70.4643 74.653 70.1314 74.7895 69.7842 74.7898H38.6382C38.2909 74.7895 37.958 74.653 37.7125 74.4103C37.4669 74.1676 37.3289 73.8385 37.3285 73.4953V42.4737C37.3285 42.2888 37.2542 42.1114 37.1219 41.9807C36.9896 41.8499 36.8102 41.7764 36.6231 41.7764C36.436 41.7764 36.2566 41.8499 36.1243 41.9807C35.992 42.1114 35.9177 42.2888 35.9177 42.4737V73.4953C35.9185 74.2082 36.2053 74.8918 36.7154 75.3959C37.2254 75.9 37.9169 76.1836 38.6382 76.1843H69.7842C70.5054 76.1835 71.1969 75.8999 71.7069 75.3958C72.2169 74.8917 72.5038 74.2082 72.5046 73.4953V66.9685C72.5047 66.8769 72.4865 66.7862 72.451 66.7016C72.4156 66.6169 72.3636 66.5401 72.2981 66.4753C72.2326 66.4105 72.1548 66.3592 72.0692 66.3242C71.9836 66.2891 71.8919 66.2711 71.7992 66.2712ZM71.7992 60.7979C71.7066 60.7978 71.6148 60.8158 71.5292 60.8508C71.4436 60.8858 71.3658 60.9372 71.3003 61.002C71.2348 61.0667 71.1828 61.1436 71.1474 61.2282C71.1119 61.3128 71.0937 61.4035 71.0938 61.4951V63.2881C71.0938 63.473 71.1681 63.6504 71.3004 63.7811C71.4327 63.9119 71.6121 63.9854 71.7992 63.9854C71.9863 63.9854 72.1657 63.9119 72.298 63.7811C72.4303 63.6504 72.5046 63.473 72.5046 63.2881V61.4951C72.5047 61.4035 72.4865 61.3128 72.451 61.2282C72.4156 61.1436 72.3636 61.0667 72.2981 61.002C72.2326 60.9372 72.1548 60.8858 72.0692 60.8508C71.9836 60.8158 71.8919 60.7978 71.7992 60.7979ZM39.425 33.312H68.9973C69.1844 33.312 69.3638 33.3855 69.4961 33.5163C69.6284 33.647 69.7027 33.8244 69.7027 34.0093V70.9907C69.7027 71.1756 69.6284 71.353 69.4961 71.4837C69.3638 71.6145 69.1844 71.688 68.9973 71.688H39.425C39.2379 71.688 39.0585 71.6145 38.9262 71.4837C38.7939 71.353 38.7196 71.1756 38.7196 70.9907V34.0093C38.7196 33.8244 38.7939 33.647 38.9262 33.5163C39.0585 33.3855 39.2379 33.312 39.425 33.312ZM40.1304 70.2934H68.2919V34.7066H40.1304V70.2934ZM52.6859 72.5414C52.4988 72.5414 52.3194 72.6149 52.1871 72.7456C52.0548 72.8764 51.9805 73.0537 51.9805 73.2387C51.9805 73.4236 52.0548 73.6009 52.1871 73.7317C52.3194 73.8625 52.4988 73.9359 52.6859 73.9359H55.7365C55.9235 73.9359 56.103 73.8625 56.2353 73.7317C56.3675 73.6009 56.4419 73.4236 56.4419 73.2387C56.4419 73.0537 56.3675 72.8764 56.2353 72.7456C56.103 72.6149 55.9235 72.5414 55.7365 72.5414H52.6859ZM54.9158 31.7613C54.9156 31.6236 54.8742 31.489 54.7966 31.3746C54.7191 31.2602 54.609 31.171 54.4802 31.1184C54.3515 31.0658 54.2098 31.0522 54.0732 31.0791C53.9366 31.1061 53.8111 31.1725 53.7127 31.2699C53.6142 31.3674 53.5472 31.4915 53.52 31.6265C53.4929 31.7616 53.5069 31.9016 53.5603 32.0288C53.6136 32.156 53.7039 32.2648 53.8198 32.3413C53.9356 32.4178 54.0718 32.4586 54.2112 32.4586C54.3037 32.4585 54.3954 32.4405 54.4809 32.4054C54.5664 32.3703 54.6441 32.3189 54.7096 32.2542C54.775 32.1895 54.8269 32.1126 54.8623 32.028C54.8976 31.9435 54.9158 31.8528 54.9158 31.7613Z" fill="#F58220"/>
<path d="M55.617 62.2659C53.0553 62.0516 50.9338 61.3809 49.1462 59.855C48.5539 59.349 47.8852 58.715 48.3045 57.8895C48.7139 57.0838 49.5784 57.3547 50.2829 57.5362C51.7367 57.9113 53.1666 58.3866 54.6313 58.706C56.4268 59.0969 57.187 58.1524 56.563 56.4171C56.2837 55.6412 55.8207 54.9794 55.3208 54.3355C54.7723 53.6291 54.2119 52.9316 53.7002 52.1994C51.221 48.6563 51.9891 45.4129 55.4669 42.734C54.2924 44.9852 54.1414 47.9141 55.7154 49.8955C56.7269 51.1675 57.8309 52.367 58.8216 53.6549C59.387 54.3891 59.8748 55.2027 60.2793 56.038C61.4459 58.4471 60.6261 59.9373 57.9998 60.3868C56.7786 60.5951 55.5633 60.4602 54.3451 60.493C54.0897 60.4999 53.6932 60.3967 53.6535 60.7796C53.6366 60.9424 53.8999 61.1765 54.0867 61.3085C54.5081 61.6061 54.9621 61.8612 55.617 62.2659Z" fill="#F58220"/>
<path d="M48.8575 51.9574C48.6786 53.4748 48.8273 54.6156 50.0181 55.7169C50.2563 55.9368 50.5434 56.3262 50.2337 56.6674C49.8628 57.0755 49.5173 56.6614 49.234 56.4475C47.9961 55.5108 47.8041 53.532 48.8575 51.9574Z" fill="#F58220"/>
<path d="M55.0092 55.9595C54.6953 55.2527 54.179 54.6548 53.5995 54.161C51.5877 52.4449 50.3133 50.5825 51.5078 46.5319C50.5957 47.1985 49.8869 49.7539 49.8277 51.1068C49.7092 53.8419 50.9629 55.987 53.1415 57.5941C53.6854 57.9957 54.3676 58.0683 54.946 57.6108C55.5719 57.116 55.2481 56.4975 55.0092 55.9595Z" fill="#F58220"/>
</svg>
