<svg width="152" height="151" viewBox="0 0 152 151" fill="none" xmlns="http://www.w3.org/2000/svg">
<g clip-path="url(#clip0_783_2524)">
<path d="M138.463 34.8194C138.187 34.8194 137.872 34.6628 137.715 34.4279C137.085 33.4491 136.377 32.5095 135.669 31.5699C135.393 31.1784 135.472 30.6302 135.866 30.317C136.259 30.043 136.81 30.1213 137.125 30.5128C137.833 31.4916 138.541 32.4704 139.21 33.4491C139.486 33.8406 139.368 34.4279 138.974 34.6628C138.817 34.7803 138.62 34.8194 138.463 34.8194Z" fill="#F58220"/>
<path d="M75.9796 151C74.6418 151 73.2647 150.961 71.9269 150.883C71.4154 150.844 71.0613 150.453 71.1006 149.945C71.14 149.437 71.5728 149.086 72.045 149.125C74.3664 149.242 76.7272 149.242 79.0093 149.164C79.5208 149.164 79.9142 149.515 79.9536 150.023C79.9929 150.531 79.5995 150.922 79.088 150.961C78.065 150.961 77.042 151 75.9796 151ZM90.4198 149.593C89.9869 149.593 89.6328 149.281 89.5541 148.89C89.4754 148.421 89.7902 147.953 90.2624 147.835C92.4658 147.406 94.6692 146.859 96.8332 146.234L97.03 146.194C97.5021 146.038 98.0136 146.312 98.1317 146.781C98.2891 147.249 98.0136 147.757 97.5415 147.874L97.3447 147.914C95.102 148.539 92.8592 149.086 90.6165 149.554C90.5378 149.593 90.4591 149.593 90.4198 149.593ZM107.929 143.929C107.575 143.929 107.26 143.733 107.103 143.421C106.906 142.991 107.103 142.444 107.535 142.249C109.621 141.272 111.706 140.178 113.674 139.045C114.106 138.811 114.657 138.928 114.893 139.357C115.129 139.787 115.011 140.334 114.578 140.569C112.532 141.741 110.408 142.874 108.283 143.85C108.204 143.889 108.086 143.929 107.929 143.929ZM123.549 134.161C123.274 134.161 123.038 134.044 122.841 133.849C122.526 133.458 122.605 132.911 122.959 132.599C124.73 131.153 126.5 129.59 128.114 127.988C128.468 127.637 129.019 127.637 129.373 127.988C129.727 128.34 129.727 128.887 129.373 129.239C127.681 130.88 125.91 132.481 124.061 133.966C123.943 134.122 123.746 134.161 123.549 134.161ZM136.298 120.917C136.101 120.917 135.944 120.878 135.747 120.761C135.353 120.487 135.275 119.901 135.55 119.511C136.927 117.674 138.226 115.76 139.445 113.767C139.721 113.338 140.232 113.221 140.665 113.455C141.098 113.728 141.216 114.236 140.98 114.666C139.76 116.659 138.422 118.651 137.006 120.526C136.849 120.8 136.573 120.917 136.298 120.917ZM145.426 105.016C145.308 105.016 145.19 104.977 145.072 104.938C144.6 104.743 144.403 104.235 144.6 103.766C145.505 101.656 146.292 99.4684 146.961 97.2805C147.118 96.8117 147.59 96.5382 148.062 96.6945C148.535 96.8508 148.81 97.3196 148.653 97.7884C147.944 100.015 147.118 102.281 146.213 104.43C146.095 104.782 145.741 105.016 145.426 105.016ZM150.384 87.3571C150.344 87.3571 150.305 87.3571 150.266 87.3571C149.794 87.2789 149.439 86.8492 149.518 86.3413C149.872 84.0753 150.108 81.7703 150.226 79.4652C150.266 78.9964 150.699 78.6057 151.171 78.6448C151.682 78.6839 152.036 79.0745 151.997 79.5824C151.879 81.9265 151.643 84.3097 151.289 86.6148C151.171 87.0445 150.817 87.3571 150.384 87.3571ZM150.817 69.0339C150.344 69.0339 149.99 68.6822 149.912 68.2525C149.676 65.9865 149.321 63.6815 148.889 61.4155C148.81 60.9466 149.125 60.4778 149.597 60.3606C150.069 60.2825 150.541 60.5951 150.659 61.0639C151.131 63.3689 151.446 65.713 151.682 68.0571C151.722 68.526 151.367 68.9948 150.895 69.0339C150.856 69.0339 150.856 69.0339 150.817 69.0339ZM146.764 51.1795C146.41 51.1795 146.056 50.9451 145.938 50.5935C145.151 48.4447 144.285 46.2959 143.301 44.1862C143.105 43.7564 143.301 43.2095 143.734 43.0141C144.167 42.8188 144.718 43.0141 144.915 43.4439C145.898 45.5536 146.843 47.7805 147.63 50.0074C147.787 50.4763 147.551 50.9842 147.079 51.1404C146.961 51.1404 146.843 51.1795 146.764 51.1795Z" fill="#F58220"/>
<path d="M60.6337 149.403C60.555 149.403 60.5156 149.403 60.4369 149.403C59.2565 149.168 58.0762 148.894 56.9351 148.581C56.463 148.464 56.1875 147.955 56.3056 147.485C56.4236 147.015 56.9351 146.741 57.4073 146.858C58.5483 147.172 59.6894 147.407 60.8304 147.681C61.3026 147.798 61.6173 148.268 61.5386 148.738C61.4206 149.129 61.0271 149.403 60.6337 149.403Z" fill="#F58220"/>
<path d="M12.1186 115.615C11.8038 115.615 11.5284 115.458 11.371 115.184C10.7415 114.166 10.1119 113.109 9.56108 112.091C9.325 111.66 9.48238 111.112 9.91519 110.877C10.348 110.642 10.8989 110.799 11.1349 111.23C11.6858 112.247 12.3153 113.265 12.9055 114.244C13.181 114.675 13.0236 115.223 12.6301 115.458C12.4334 115.575 12.276 115.615 12.1186 115.615Z" fill="#F58220"/>
<path d="M5.5872 102.36C5.23308 102.36 4.87896 102.125 4.76092 101.774C4.13138 100.094 3.54118 98.3358 3.02968 96.5777C2.87229 96.1089 2.75425 95.601 2.63621 95.1322C2.51818 94.6634 2.7936 94.1554 3.26576 94.0382C3.73792 93.921 4.24942 94.1946 4.36746 94.6634C4.4855 95.1322 4.64288 95.601 4.76092 96.0698C5.27243 97.7889 5.82328 99.4688 6.45283 101.149C6.61021 101.618 6.37413 102.125 5.94132 102.282C5.82328 102.36 5.70524 102.36 5.5872 102.36ZM1.37713 84.8571C0.944316 84.8571 0.55085 84.5055 0.472157 84.0757C0.196731 81.7707 0.0393465 79.4266 0 77.1215C0 76.6137 0.393464 76.2229 0.865622 76.2229C1.33778 76.2229 1.77059 76.6137 1.77059 77.0825C1.80994 79.3485 1.96732 81.6144 2.24275 83.8804C2.2821 84.3492 1.96732 84.818 1.45582 84.8571C1.45582 84.8571 1.41647 84.8571 1.37713 84.8571ZM1.49517 66.8074C1.45582 66.8074 1.41647 66.8074 1.37713 66.8074C0.90497 66.7293 0.550851 66.2995 0.590198 65.8307C0.90497 63.5256 1.29843 61.2206 1.80994 58.9546C1.92798 58.4858 2.40014 58.1732 2.8723 58.2904C3.34445 58.4076 3.65923 58.8765 3.54119 59.3453C3.02968 61.5331 2.63622 63.7991 2.36079 66.026C2.32144 66.4949 1.92798 66.8074 1.49517 66.8074ZM5.98067 49.3437C5.86263 49.3437 5.74459 49.3437 5.66589 49.2656C5.19374 49.0702 4.997 48.5623 5.15439 48.1326C5.98067 45.9838 6.96433 43.835 7.98734 41.7644C8.22342 41.3347 8.73493 41.1393 9.16774 41.3737C9.60055 41.6081 9.79728 42.116 9.5612 42.5458C8.53819 44.5774 7.59388 46.648 6.80695 48.7577C6.68891 49.1484 6.33479 49.3437 5.98067 49.3437ZM14.5582 33.4818C14.4008 33.4818 14.2041 33.4428 14.0467 33.3256C13.6532 33.0521 13.5352 32.5051 13.8106 32.0754C15.1484 30.2001 16.6042 28.3248 18.0994 26.5667C18.4142 26.176 18.965 26.1369 19.3585 26.4495C19.7519 26.762 19.7913 27.309 19.4765 27.6997C18.0207 29.4187 16.6042 31.2158 15.3058 33.0911C15.1091 33.3255 14.8336 33.4818 14.5582 33.4818ZM26.6769 20.0813C26.4409 20.0813 26.1654 19.9641 26.008 19.7687C25.6933 19.4171 25.7326 18.8311 26.0867 18.5186C27.8573 16.9949 29.7066 15.5493 31.5952 14.1819C31.9887 13.9084 32.5396 13.9866 32.8543 14.3773C33.1298 14.7679 33.0511 15.3149 32.6576 15.6275C30.8083 16.9558 28.9984 18.3623 27.3065 19.8469C27.1097 20.0032 26.913 20.0813 26.6769 20.0813ZM41.7073 9.96251C41.3925 9.96251 41.0778 9.76716 40.9204 9.49368C40.6843 9.06392 40.881 8.51697 41.3138 8.28256C43.3992 7.22771 45.5239 6.25098 47.688 5.39147C48.1601 5.19613 48.6716 5.43053 48.829 5.89936C49.0257 6.36818 48.7897 6.87608 48.3175 7.03236C46.1928 7.89187 44.1074 8.82952 42.1008 9.84531C41.9827 9.96251 41.8647 9.96251 41.7073 9.96251ZM58.7443 3.75058C58.3509 3.75058 57.9574 3.47712 57.8787 3.08643C57.7607 2.61761 58.0755 2.14878 58.5476 2.03158C60.8297 1.48461 63.1511 1.05486 65.4333 0.742314C65.9054 0.664177 66.3776 1.01578 66.4563 1.4846C66.535 1.95343 66.1808 2.42227 65.7087 2.5004C63.4659 2.81295 61.1838 3.24269 58.9804 3.75058C58.9017 3.75058 58.823 3.75058 58.7443 3.75058ZM83.7294 2.14878C83.69 2.14878 83.6507 2.14878 83.6507 2.14878C81.3686 1.91436 79.0865 1.79716 76.8044 1.75809C76.2929 1.75809 75.8994 1.36741 75.9388 0.859515C75.9388 0.390691 76.3322 0 76.8437 0C79.1652 0.0390687 81.526 0.156275 83.8474 0.390687C84.3196 0.429755 84.713 0.859511 84.6343 1.3674C84.5556 1.79716 84.1622 2.14878 83.7294 2.14878Z" fill="#F58220"/>
<path d="M98.2486 5.08516C98.17 5.08516 98.0519 5.08517 97.9732 5.04602C96.8715 4.69365 95.7305 4.38043 94.5894 4.06721C94.1173 3.94976 93.8418 3.44076 93.9599 2.97094C94.0779 2.50111 94.5894 2.22706 95.0616 2.34451C96.242 2.65773 97.383 2.97095 98.5241 3.32331C98.9962 3.47992 99.2717 3.94974 99.1143 4.41957C98.9962 4.85024 98.6421 5.08516 98.2486 5.08516Z" fill="#F58220"/>
<path d="M82.141 127.369C68.5288 126.229 57.2557 122.66 47.7568 114.539C44.6098 111.846 41.0562 108.472 43.2845 104.079C45.4599 99.7912 50.0536 101.233 53.7972 102.199C61.5221 104.195 69.1203 106.724 76.9032 108.424C86.4443 110.505 90.4836 105.478 87.1679 96.2431C85.6841 92.1139 83.2235 88.592 80.5675 85.1651C77.6529 81.4057 74.675 77.6939 71.9557 73.7971C58.7817 54.9416 62.8632 37.6808 81.3438 23.4243C75.1026 35.405 74.3001 50.992 82.6639 61.5366C88.039 68.3056 93.9053 74.6893 99.1694 81.5431C102.174 85.4503 104.766 89.7801 106.916 94.2259C113.114 107.046 108.758 114.977 94.8028 117.369C88.3136 118.478 81.8559 117.76 75.3824 117.934C74.0255 117.971 71.9187 117.422 71.7075 119.46C71.6177 120.326 73.0169 121.572 74.0096 122.274C76.2485 123.858 78.6613 125.215 82.141 127.369Z" fill="#F58120"/>
<path d="M46.8376 72.8411C45.8344 80.9675 46.6686 87.0764 53.348 92.9745C54.6839 94.1519 56.2943 96.2375 54.5572 98.0646C52.4768 100.25 50.539 98.0328 48.9497 96.887C42.0063 91.8708 40.9291 81.2737 46.8376 72.8411Z" fill="#FFC233"/>
<path d="M78.7246 93.8085C77.0456 90.0066 74.2841 86.791 71.1847 84.1353C60.4237 74.9054 53.6071 64.889 59.996 43.103C55.1172 46.6883 51.3261 60.4326 51.0092 67.7087C50.3756 82.4191 57.0814 93.9563 68.7346 102.6C71.6442 104.759 75.2927 105.15 78.3869 102.69C81.7344 100.028 80.0024 96.702 78.7246 93.8085Z" fill="#FFC233"/>
</g>
<defs>
<clipPath id="clip0_783_2524">
<rect width="152" height="151" fill="white"/>
</clipPath>
</defs>
</svg>
