<svg width="226" height="233" viewBox="0 0 226 233" fill="none" xmlns="http://www.w3.org/2000/svg">
<path d="M220.379 172.439L219.315 173.16C219.134 173.277 219.085 173.529 219.202 173.71C219.32 173.891 219.572 173.94 219.753 173.823L220.817 173.102C220.998 172.985 221.048 172.733 220.93 172.552C220.813 172.371 220.561 172.322 220.379 172.439Z" fill="#A3BDCB"/>
<path d="M216.799 174.815L215.732 175.515C215.55 175.632 215.501 175.883 215.619 176.064C215.736 176.246 215.988 176.295 216.17 176.178L217.237 175.478C217.418 175.361 217.468 175.109 217.35 174.928C217.233 174.747 217.002 174.695 216.799 174.815Z" fill="#A3BDCB"/>
<path d="M213.215 177.169L212.127 177.872C211.945 177.989 211.896 178.241 212.014 178.422C212.131 178.603 212.383 178.652 212.565 178.535L213.653 177.833C213.835 177.715 213.884 177.464 213.767 177.283C213.649 177.101 213.397 177.052 213.215 177.169Z" fill="#A3BDCB"/>
<path d="M209.63 179.502L208.541 180.205C208.36 180.322 208.311 180.574 208.428 180.755C208.545 180.936 208.798 180.985 208.979 180.868L210.068 180.166C210.249 180.048 210.299 179.797 210.181 179.616C210.064 179.434 209.811 179.385 209.63 179.502Z" fill="#A3BDCB"/>
<path d="M206.019 181.838L204.931 182.541C204.749 182.658 204.678 182.913 204.796 183.094C204.913 183.276 205.169 183.346 205.35 183.229L206.439 182.526C206.62 182.409 206.67 182.158 206.552 181.976C206.453 181.77 206.201 181.721 206.019 181.838Z" fill="#A3BDCB"/>
<path d="M202.385 184.135L201.293 184.816C201.112 184.933 201.041 185.188 201.158 185.369C201.276 185.55 201.531 185.621 201.713 185.504L202.805 184.823C202.986 184.706 203.057 184.451 202.94 184.269C202.819 184.067 202.567 184.017 202.385 184.135Z" fill="#A3BDCB"/>
<path d="M198.744 186.41L197.652 187.091C197.47 187.208 197.399 187.463 197.517 187.644C197.634 187.826 197.89 187.896 198.071 187.779L199.163 187.098C199.345 186.981 199.416 186.726 199.298 186.545C199.177 186.342 198.925 186.293 198.744 186.41Z" fill="#A3BDCB"/>
<path d="M195.076 188.645L193.981 189.304C193.777 189.425 193.728 189.677 193.846 189.858C193.967 190.061 194.219 190.11 194.4 189.993L195.496 189.333C195.699 189.212 195.748 188.961 195.631 188.78C195.535 188.595 195.279 188.524 195.076 188.645Z" fill="#A3BDCB"/>
<path d="M191.401 190.837L190.283 191.5C190.08 191.621 190.031 191.872 190.127 192.057C190.248 192.26 190.5 192.309 190.685 192.213L191.802 191.55C192.005 191.43 192.054 191.178 191.959 190.994C191.838 190.791 191.582 190.72 191.401 190.837Z" fill="#A3BDCB"/>
<path d="M187.674 192.992L186.553 193.633C186.35 193.754 186.28 194.009 186.397 194.19C186.518 194.393 186.773 194.464 186.955 194.347L188.076 193.705C188.279 193.585 188.35 193.33 188.232 193.149C188.133 192.942 187.877 192.872 187.674 192.992Z" fill="#A3BDCB"/>
<path d="M183.942 195.104L182.818 195.724C182.615 195.845 182.54 196.078 182.661 196.281C182.782 196.484 183.016 196.558 183.219 196.437L184.343 195.818C184.546 195.697 184.621 195.464 184.5 195.261C184.4 195.055 184.145 194.984 183.942 195.104Z" fill="#A3BDCB"/>
<path d="M180.178 197.155L179.05 197.753C178.843 197.852 178.773 198.107 178.872 198.313C178.971 198.519 179.227 198.59 179.433 198.491L180.582 197.89C180.789 197.791 180.86 197.536 180.761 197.33C180.64 197.127 180.384 197.056 180.178 197.155Z" fill="#A3BDCB"/>
<path d="M176.385 199.166L175.233 199.746C175.026 199.845 174.933 200.103 175.054 200.306C175.154 200.512 175.413 200.605 175.616 200.484L176.765 199.883C176.971 199.784 177.042 199.529 176.943 199.323C176.847 199.138 176.588 199.046 176.385 199.166Z" fill="#A3BDCB"/>
<path d="M172.557 201.094L171.401 201.652C171.194 201.751 171.102 202.009 171.201 202.216C171.3 202.422 171.559 202.514 171.766 202.415L172.919 201.835C173.125 201.737 173.218 201.478 173.118 201.272C173.019 201.066 172.764 200.995 172.557 201.094Z" fill="#A3BDCB"/>
<path d="M168.696 202.961L167.537 203.497C167.33 203.596 167.238 203.854 167.337 204.061C167.436 204.267 167.695 204.359 167.902 204.26L169.079 203.699C169.286 203.6 169.378 203.342 169.279 203.135C169.162 202.954 168.903 202.862 168.696 202.961Z" fill="#A3BDCB"/>
<path d="M164.784 204.769L163.6 205.288C163.393 205.386 163.279 205.648 163.378 205.854C163.477 206.061 163.74 206.175 163.946 206.076L165.131 205.558C165.337 205.459 165.43 205.2 165.352 204.991C165.271 204.759 165.012 204.667 164.784 204.769Z" fill="#A3BDCB"/>
<path d="M160.856 206.491L159.668 206.988C159.461 207.087 159.344 207.327 159.446 207.555C159.545 207.761 159.786 207.879 160.014 207.776L161.202 207.28C161.409 207.181 161.527 206.941 161.424 206.713C161.343 206.481 161.084 206.389 160.856 206.491Z" fill="#A3BDCB"/>
<path d="M156.891 208.109L155.699 208.584C155.467 208.664 155.375 208.923 155.456 209.154C155.537 209.385 155.796 209.478 156.027 209.397L157.219 208.922C157.45 208.841 157.543 208.583 157.462 208.352C157.385 208.142 157.122 208.028 156.891 208.109Z" fill="#A3BDCB"/>
<path d="M152.892 209.666L151.697 210.119C151.465 210.2 151.351 210.461 151.45 210.668C151.531 210.899 151.793 211.013 152 210.914L153.216 210.457C153.448 210.377 153.562 210.115 153.463 209.909C153.386 209.699 153.123 209.585 152.892 209.666Z" fill="#A3BDCB"/>
<path d="M148.858 211.139L147.635 211.552C147.403 211.633 147.285 211.873 147.366 212.104C147.447 212.335 147.688 212.453 147.92 212.372L149.143 211.959C149.375 211.878 149.492 211.638 149.411 211.407C149.352 211.172 149.09 211.058 148.858 211.139Z" fill="#A3BDCB"/>
<path d="M144.808 212.504L143.581 212.896C143.35 212.977 143.232 213.217 143.291 213.451C143.372 213.683 143.613 213.8 143.848 213.741L145.075 213.349C145.306 213.269 145.424 213.028 145.365 212.794C145.284 212.563 145.04 212.423 144.808 212.504Z" fill="#A3BDCB"/>
<path d="M140.698 213.768L139.464 214.117C139.229 214.176 139.09 214.419 139.171 214.651C139.23 214.885 139.474 215.024 139.706 214.944L140.961 214.592C141.196 214.533 141.335 214.289 141.255 214.058C141.195 213.823 140.951 213.684 140.698 213.768Z" fill="#A3BDCB"/>
<path d="M136.568 214.902L135.331 215.229C135.096 215.288 134.956 215.532 135.016 215.767C135.075 216.001 135.319 216.14 135.554 216.081L136.813 215.751C137.048 215.692 137.187 215.448 137.128 215.214C137.047 214.983 136.803 214.843 136.568 214.902Z" fill="#A3BDCB"/>
<path d="M132.414 215.907L131.17 216.191C130.935 216.25 130.771 216.475 130.834 216.732C130.893 216.966 131.119 217.13 131.375 217.068L132.641 216.781C132.876 216.722 133.04 216.497 132.978 216.24C132.897 216.009 132.653 215.87 132.414 215.907Z" fill="#A3BDCB"/>
<path d="M128.228 216.829L126.955 217.073C126.717 217.111 126.556 217.358 126.593 217.596C126.631 217.834 126.878 217.994 127.117 217.957L128.389 217.713C128.628 217.676 128.789 217.429 128.751 217.191C128.688 216.935 128.463 216.77 128.228 216.829Z" fill="#A3BDCB"/>
<path d="M123.995 217.604L122.72 217.826C122.481 217.863 122.317 218.089 122.358 218.348C122.395 218.586 122.621 218.751 122.881 218.71L124.157 218.488C124.396 218.45 124.56 218.225 124.519 217.965C124.481 217.727 124.256 217.563 123.995 217.604Z" fill="#A3BDCB"/>
<path d="M119.768 218.266L118.485 218.445C118.247 218.483 118.061 218.711 118.098 218.949C118.136 219.187 118.365 219.373 118.603 219.336L119.886 219.157C120.124 219.119 120.31 218.891 120.273 218.653C120.235 218.415 120.006 218.229 119.768 218.266Z" fill="#A3BDCB"/>
<path d="M115.519 218.8L114.23 218.935C113.988 218.951 113.802 219.18 113.821 219.443C113.837 219.684 114.066 219.87 114.33 219.851L115.619 219.715C115.861 219.7 116.047 219.471 116.028 219.208C115.987 218.948 115.761 218.784 115.519 218.8Z" fill="#A3BDCB"/>
<path d="M111.254 219.225L109.98 219.314C109.738 219.329 109.552 219.558 109.568 219.799C109.583 220.041 109.813 220.227 110.055 220.211L111.351 220.119C111.593 220.103 111.779 219.874 111.763 219.633C111.722 219.373 111.493 219.187 111.254 219.225Z" fill="#A3BDCB"/>
<path d="M106.966 219.499L105.684 219.545C105.443 219.56 105.231 219.771 105.247 220.012C105.263 220.254 105.474 220.465 105.716 220.449L107.019 220.4C107.261 220.384 107.472 220.174 107.456 219.932C107.437 219.669 107.229 219.48 106.966 219.499Z" fill="#A3BDCB"/>
<path d="M102.677 219.64L101.392 219.664C101.147 219.658 100.936 219.869 100.933 220.135C100.927 220.38 101.138 220.591 101.405 220.593L102.69 220.569C102.936 220.575 103.147 220.365 103.149 220.098C103.151 219.832 102.94 219.621 102.677 219.64Z" fill="#A3BDCB"/>
<path d="M98.3864 219.627L97.0948 219.608C96.8495 219.602 96.6383 219.812 96.6108 220.06C96.605 220.305 96.8161 220.516 97.0648 220.544L98.3564 220.563C98.6017 220.569 98.8129 220.358 98.8187 220.113C98.8644 219.84 98.6534 219.629 98.3864 219.627Z" fill="#A3BDCB"/>
<path d="M94.1196 219.477L92.8394 219.39C92.5907 219.362 92.3579 219.576 92.3521 219.821C92.3246 220.069 92.539 220.301 92.7843 220.307L94.0861 220.391C94.3315 220.397 94.5677 220.205 94.5735 219.96C94.5793 219.716 94.3683 219.505 94.1196 219.477Z" fill="#A3BDCB"/>
<path d="M89.8495 219.172L88.5625 219.041C88.3138 219.014 88.0775 219.206 88.0501 219.454C88.0226 219.702 88.2153 219.938 88.464 219.966L89.751 220.096C89.9997 220.124 90.236 219.932 90.2635 219.683C90.2876 219.414 90.0982 219.199 89.8495 219.172Z" fill="#A3BDCB"/>
<path d="M85.5753 218.692L84.3032 218.514C84.0544 218.487 83.8147 218.658 83.7656 218.909C83.7381 219.157 83.9092 219.397 84.1613 219.446L85.4552 219.62C85.7039 219.647 85.9436 219.477 85.9927 219.225C86.0202 218.977 85.8492 218.738 85.5753 218.692Z" fill="#A3BDCB"/>
<path d="M81.3409 218.05L80.0835 217.825C79.8314 217.776 79.5917 217.947 79.5425 218.198C79.4934 218.45 79.6644 218.689 79.9166 218.739L81.1956 218.959C81.4478 219.008 81.6874 218.838 81.7366 218.586C81.7858 218.335 81.6147 218.095 81.3409 218.05Z" fill="#A3BDCB"/>
<path d="M77.1455 217.225L75.8997 216.932C75.6476 216.883 75.3828 217.036 75.3337 217.287C75.2845 217.539 75.4373 217.803 75.6894 217.852L76.9569 218.141C77.209 218.19 77.4738 218.038 77.523 217.786C77.5721 217.535 77.4227 217.292 77.1455 217.225Z" fill="#A3BDCB"/>
<path d="M73.0082 216.213L71.7772 215.874C71.5216 215.803 71.2568 215.956 71.186 216.211C71.1151 216.466 71.2679 216.73 71.5235 216.801L72.7796 217.158C73.0352 217.229 73.3 217.077 73.3708 216.822C73.4166 216.548 73.2638 216.284 73.0082 216.213Z" fill="#A3BDCB"/>
<path d="M68.907 214.998L67.6874 214.59C67.4284 214.498 67.1637 214.65 67.0894 214.883C66.9969 215.142 67.1497 215.406 67.3836 215.48L68.6032 215.888C68.8621 215.98 69.1269 215.828 69.2012 215.594C69.2937 215.336 69.1626 215.068 68.907 214.998Z" fill="#A3BDCB"/>
<path d="M64.8827 213.57L63.6962 213.091C63.4589 212.995 63.1656 213.108 63.0731 213.366C62.9772 213.603 63.09 213.896 63.349 213.988L64.5572 214.464C64.7945 214.56 65.0878 214.447 65.1803 214.189C65.2511 213.934 65.12 213.666 64.8827 213.57Z" fill="#A3BDCB"/>
<path d="M60.9325 211.91L59.7791 211.359C59.5384 211.242 59.2451 211.354 59.1275 211.594C59.0098 211.835 59.1227 212.127 59.3634 212.245L60.5385 212.792C60.7792 212.91 61.0725 212.797 61.1684 212.56C61.286 212.32 61.1949 212.024 60.9325 211.91Z" fill="#A3BDCB"/>
<path d="M57.1022 210.032L55.9853 209.431C55.7446 209.313 55.4444 209.383 55.3268 209.623C55.2092 209.863 55.2787 210.162 55.5194 210.28L56.6614 210.899C56.9021 211.017 57.2022 210.947 57.3199 210.707C57.4375 210.467 57.3463 210.171 57.1022 210.032Z" fill="#A3BDCB"/>
<path d="M53.3919 207.913L52.3082 207.241C52.0858 207.098 51.7857 207.167 51.643 207.389C51.5003 207.611 51.5698 207.911 51.7922 208.053L52.901 208.744C53.1234 208.887 53.4235 208.817 53.5662 208.595C53.7089 208.373 53.6394 208.074 53.3919 207.913Z" fill="#A3BDCB"/>
<path d="M49.8438 205.57L48.8149 204.823C48.5891 204.658 48.2855 204.706 48.1211 204.931C47.9567 205.157 48.0046 205.46 48.2304 205.624L49.2844 206.39C49.5103 206.554 49.8138 206.506 49.9565 206.284C50.1175 206.037 50.0697 205.735 49.8438 205.57Z" fill="#A3BDCB"/>
<path d="M46.4592 202.981L45.485 202.158C45.2808 201.991 44.9739 202.017 44.7844 202.224C44.6166 202.427 44.6427 202.734 44.8503 202.923L45.8495 203.764C46.0537 203.932 46.3607 203.906 46.5502 203.699C46.6929 203.477 46.6668 203.17 46.4592 202.981Z" fill="#A3BDCB"/>
<path d="M43.2412 200.188L42.3253 199.311C42.1177 199.122 41.8073 199.126 41.6178 199.333C41.4283 199.541 41.4328 199.85 41.6404 200.039L42.5814 200.934C42.789 201.123 43.0994 201.119 43.2672 200.915C43.4532 200.687 43.4488 200.377 43.2412 200.188Z" fill="#A3BDCB"/>
<path d="M40.2347 197.185L39.3736 196.233C39.1876 196.041 38.8739 196.023 38.681 196.209C38.4881 196.394 38.4708 196.707 38.6567 196.9L39.5395 197.848C39.7254 198.041 40.0392 198.058 40.2321 197.873C40.4033 197.69 40.4206 197.377 40.2347 197.185Z" fill="#A3BDCB"/>
<path d="M37.4384 193.971L36.6355 192.966C36.4678 192.748 36.1507 192.709 35.9361 192.898C35.7181 193.065 35.6792 193.382 35.8685 193.596L36.6714 194.601C36.839 194.819 37.1562 194.858 37.3708 194.669C37.5671 194.505 37.606 194.188 37.4384 193.971Z" fill="#A3BDCB"/>
<path d="M34.8612 190.591L34.1199 189.554C33.9523 189.336 33.6533 189.272 33.4319 189.418C33.2139 189.585 33.1499 189.883 33.2959 190.104L34.0405 191.163C34.2082 191.38 34.5071 191.444 34.7251 191.277C34.9682 191.128 35.0071 190.812 34.8612 190.591Z" fill="#A3BDCB"/>
<path d="M32.4799 187.047L31.8185 185.953C31.6691 185.711 31.3702 185.647 31.1271 185.796C30.884 185.945 30.82 186.243 30.9693 186.485L31.6558 187.597C31.8052 187.84 32.1041 187.904 32.3472 187.755C32.5652 187.588 32.6292 187.29 32.4799 187.047Z" fill="#A3BDCB"/>
<path d="M30.342 183.354L29.7423 182.229C29.6146 181.983 29.3122 181.897 29.0657 182.024C28.8192 182.152 28.7336 182.453 28.8613 182.699L29.4644 183.846C29.5921 184.092 29.8944 184.178 30.1409 184.051C30.3874 183.923 30.4731 183.622 30.342 183.354Z" fill="#A3BDCB"/>
<path d="M28.4327 179.559L27.8946 178.402C27.7885 178.152 27.4827 178.045 27.2328 178.151C26.9829 178.256 26.8755 178.562 26.9815 178.811L27.5231 179.99C27.6291 180.239 27.9349 180.347 28.1848 180.241C28.4313 180.114 28.5638 179.827 28.4327 179.559Z" fill="#A3BDCB"/>
<path d="M26.7465 175.64L26.2917 174.448C26.1822 174.177 25.8982 174.066 25.6231 174.153C25.3515 174.263 25.2408 174.546 25.3285 174.82L25.8084 176.031C25.9144 176.281 26.2019 176.413 26.4769 176.326C26.7269 176.22 26.8559 175.911 26.7465 175.64Z" fill="#A3BDCB"/>
<path d="M25.273 171.645L24.8798 170.421C24.792 170.146 24.5045 170.014 24.2295 170.101C23.9544 170.189 23.8219 170.476 23.9097 170.75L24.3029 171.974C24.3907 172.249 24.6782 172.381 24.9532 172.294C25.2282 172.206 25.3641 171.941 25.273 171.645Z" fill="#A3BDCB"/>
<path d="M24.0335 167.59L23.7054 166.355C23.6393 166.077 23.3484 165.923 23.07 165.989C22.7915 166.055 22.6374 166.345 22.7035 166.623L23.035 167.879C23.1011 168.157 23.392 168.311 23.6704 168.245C23.942 168.136 24.0996 167.868 24.0335 167.59Z" fill="#A3BDCB"/>
<path d="M23.0034 163.458L22.7402 162.213C22.6742 161.935 22.4016 161.756 22.1231 161.822C21.8447 161.888 21.6655 162.16 21.7315 162.438L21.9981 163.704C22.0641 163.982 22.3368 164.161 22.6152 164.095C22.8902 164.008 23.0694 163.736 23.0034 163.458Z" fill="#A3BDCB"/>
<path d="M22.1872 159.27L21.9892 158.015C21.9448 157.733 21.6687 157.533 21.3869 157.577C21.1051 157.621 20.9041 157.896 20.9485 158.178L21.15 159.454C21.1944 159.736 21.4704 159.936 21.7489 159.87C22.0524 159.823 22.2316 159.551 22.1872 159.27Z" fill="#A3BDCB"/>
<path d="M21.5868 155.048L21.4538 153.783C21.4311 153.498 21.1551 153.297 20.8698 153.32C20.5846 153.343 20.3836 153.618 20.4064 153.903L20.5428 155.189C20.5655 155.474 20.8415 155.675 21.1268 155.652C21.4086 155.608 21.613 155.354 21.5868 155.048Z" fill="#A3BDCB"/>
<path d="M21.1853 150.817L21.0957 149.545C21.073 149.261 20.8369 149.032 20.5516 149.054C20.2664 149.077 20.0369 149.312 20.0597 149.597L20.1527 150.891C20.1754 151.175 20.4115 151.404 20.6968 151.382C20.982 151.359 21.2081 151.102 21.1853 150.817Z" fill="#A3BDCB"/>
<path d="M20.9799 146.556L20.9553 145.274C20.9542 144.986 20.7182 144.757 20.4295 144.758C20.1408 144.758 19.9114 144.994 19.9124 145.282L19.9405 146.586C19.9415 146.874 20.1776 147.103 20.4663 147.102C20.7549 147.101 20.9809 146.844 20.9799 146.556Z" fill="#A3BDCB"/>
<path d="M20.9764 142.307L21.0202 141.036C21.0192 140.748 20.8013 140.494 20.5126 140.495C20.224 140.496 19.9694 140.713 19.9705 141.001L19.93 142.294C19.931 142.582 20.1489 142.836 20.4376 142.835C20.7263 142.834 20.9774 142.595 20.9764 142.307Z" fill="#A3BDCB"/>
<path d="M21.1922 138.046L21.2794 136.769C21.3001 136.477 21.0822 136.223 20.7902 136.202C20.4981 136.182 20.2435 136.399 20.2229 136.69L20.1174 137.993C20.0968 138.284 20.3146 138.539 20.6067 138.559C20.8954 138.558 21.1499 138.341 21.1922 138.046Z" fill="#A3BDCB"/>
<path d="M21.568 133.805L21.7237 132.539C21.766 132.244 21.5482 131.99 21.2526 131.947C20.9571 131.905 20.7026 132.122 20.6602 132.417L20.508 133.705C20.4657 134 20.6835 134.254 20.979 134.296C21.2677 134.295 21.5473 134.096 21.568 133.805Z" fill="#A3BDCB"/>
<path d="M22.165 129.572L22.3674 128.321C22.4098 128.026 22.2136 127.768 21.9364 127.701C21.6409 127.659 21.383 127.854 21.3155 128.131L21.0948 129.407C21.0525 129.702 21.2487 129.96 21.5259 130.027C21.8214 130.069 22.101 129.87 22.165 129.572Z" fill="#A3BDCB"/>
<path d="M22.9259 125.381L23.1934 124.119C23.2575 123.821 23.0795 123.539 22.784 123.496C22.4851 123.432 22.202 123.61 22.1597 123.904L21.8922 125.166C21.8282 125.464 22.0278 125.743 22.3016 125.789C22.5788 125.856 22.8619 125.679 22.9259 125.381Z" fill="#A3BDCB"/>
<path d="M23.87 121.227L24.1843 119.98C24.2517 119.704 24.0921 119.396 23.7932 119.332C23.5159 119.265 23.2078 119.424 23.1438 119.722L22.8295 120.969C22.7621 121.245 22.9217 121.553 23.2206 121.617C23.5013 121.706 23.806 121.525 23.87 121.227Z" fill="#A3BDCB"/>
<path d="M25.0011 117.133L25.3621 115.901C25.4512 115.621 25.2916 115.313 25.011 115.224C24.7303 115.135 24.4221 115.294 24.333 115.575L23.9503 116.81C23.8612 117.09 24.0208 117.397 24.3015 117.486C24.6038 117.572 24.912 117.413 25.0011 117.133Z" fill="#A3BDCB"/>
<path d="M26.291 113.057L26.7205 111.837C26.8096 111.557 26.6717 111.246 26.391 111.157C26.1104 111.068 25.7988 111.205 25.7097 111.485L25.2802 112.705C25.1911 112.985 25.329 113.296 25.6097 113.385C25.8938 113.496 26.2019 113.337 26.291 113.057Z" fill="#A3BDCB"/>
<path d="M27.7702 109.062L28.25 107.879C28.3608 107.595 28.2228 107.284 27.9387 107.173C27.6546 107.063 27.3431 107.2 27.2323 107.484L26.756 108.689C26.6452 108.973 26.7831 109.284 27.0672 109.394C27.3479 109.483 27.6595 109.346 27.7702 109.062Z" fill="#A3BDCB"/>
<path d="M29.3924 105.112L29.9189 103.943C30.0297 103.66 29.9134 103.345 29.651 103.231C29.3669 103.121 29.052 103.237 28.9378 103.498L28.4147 104.689C28.3039 104.972 28.4202 105.287 28.6826 105.401C28.945 105.515 29.2599 105.399 29.3924 105.112Z" fill="#A3BDCB"/>
<path d="M31.1815 101.246L31.7547 100.092C31.8906 99.8269 31.7709 99.4909 31.5051 99.3552C31.2393 99.2195 30.9027 99.3388 30.7668 99.604L30.1935 100.758C30.0577 101.023 30.1773 101.359 30.4431 101.495C30.7089 101.631 31.0456 101.511 31.1815 101.246Z" fill="#A3BDCB"/>
<path d="M33.1149 97.4467L33.7132 96.3108C33.8491 96.0456 33.7511 95.7062 33.4853 95.5705C33.2195 95.4347 32.8794 95.5324 32.7435 95.7976L32.1235 96.9369C31.9876 97.2021 32.0856 97.5415 32.3514 97.6772C32.6389 97.8095 32.979 97.7119 33.1149 97.4467Z" fill="#A3BDCB"/>
<path d="M35.1907 93.7126L35.8393 92.6132C35.9968 92.3446 35.8989 92.0052 35.6547 91.8661C35.4106 91.727 35.0454 91.8064 34.9061 92.0499L34.2393 93.1744C34.0817 93.443 34.1797 93.7824 34.4239 93.9215C34.7148 94.0755 35.0332 93.9812 35.1907 93.7126Z" fill="#A3BDCB"/>
<path d="M37.4395 90.0845L38.1347 88.9999C38.2957 88.753 38.2194 88.4102 37.9685 88.2278C37.7209 88.067 37.3775 88.143 37.1948 88.3934L36.4996 89.478C36.3387 89.7249 36.415 90.0677 36.6659 90.2501C36.9134 90.4109 37.2569 90.3349 37.4395 90.0845Z" fill="#A3BDCB"/>
<path d="M39.7887 86.5291L40.5343 85.481C40.7169 85.2307 40.6406 84.8879 40.3896 84.7055C40.1387 84.5231 39.7952 84.5991 39.6125 84.8495L38.8704 85.9192C38.6877 86.1696 38.7641 86.5124 39.015 86.6948C39.2592 86.8339 39.6061 86.7795 39.7887 86.5291Z" fill="#A3BDCB"/>
<path d="M42.2857 83.0616L43.0563 82.0317C43.239 81.7814 43.1843 81.4352 42.955 81.2494C42.7041 81.067 42.3572 81.1214 42.1711 81.3501L41.4005 82.38C41.2178 82.6304 41.2724 82.9765 41.5017 83.1623C41.7561 83.3663 42.103 83.312 42.2857 83.0616Z" fill="#A3BDCB"/>
<path d="M44.9078 79.6849L45.7286 78.6915C45.9363 78.4594 45.8782 78.0916 45.649 77.9058C45.4163 77.6984 45.0477 77.7562 44.8617 77.9849L44.0409 78.9783C43.8549 79.207 43.8913 79.5782 44.1205 79.764C44.3532 79.9714 44.7252 79.9353 44.9078 79.6849Z" fill="#A3BDCB"/>
<path d="M47.6591 76.4205L48.505 75.4453C48.7128 75.2132 48.6798 74.8636 48.4471 74.6562C48.2144 74.4488 47.8641 74.4815 47.6564 74.7137L46.8105 75.6888C46.6027 75.9209 46.6357 76.2705 46.8684 76.4779C47.1011 76.6854 47.4514 76.6526 47.6591 76.4205Z" fill="#A3BDCB"/>
<path d="M50.5128 73.2507L51.3872 72.3154C51.595 72.0833 51.5837 71.7303 51.351 71.5229C51.1183 71.3155 50.7646 71.3266 50.5569 71.5587L49.6608 72.4974C49.453 72.7295 49.4643 73.0825 49.697 73.2899C49.9479 73.4723 50.3017 73.4612 50.5128 73.2507Z" fill="#A3BDCB"/>
<path d="M53.4925 70.1721L54.3954 69.2767C54.6282 69.0629 54.6135 68.6882 54.4025 68.4774C54.1881 68.245 53.8127 68.2595 53.6016 68.4699L52.6805 69.3904C52.4476 69.6043 52.4623 69.9789 52.6733 70.1897C52.906 70.3971 53.2597 70.386 53.4925 70.1721Z" fill="#A3BDCB"/>
<path d="M56.5549 67.1913L57.4828 66.3141C57.7157 66.1003 57.7261 65.7439 57.5117 65.5114C57.2973 65.279 56.9401 65.2684 56.7073 65.4823L55.7576 66.3629C55.5248 66.5768 55.5143 66.9331 55.7288 67.1656C55.9432 67.3981 56.322 67.4052 56.5549 67.1913Z" fill="#A3BDCB"/>
<path d="M59.7006 64.3074L60.6571 63.4702C60.89 63.2563 60.9221 62.8965 60.7076 62.664C60.4932 62.4316 60.1326 62.3994 59.8998 62.6133L58.925 63.4756C58.6922 63.6895 58.6601 64.0493 58.8745 64.2817C59.1072 64.4892 59.4677 64.5213 59.7006 64.3074Z" fill="#A3BDCB"/>
<path d="M62.9479 61.5192L63.9295 60.7001C64.1657 60.5079 64.2195 60.1447 64.0017 59.8906C63.8089 59.6548 63.445 59.6009 63.1904 59.8182L62.1872 60.6407C61.9509 60.8329 61.8971 61.1961 62.115 61.4502C62.3545 61.7009 62.715 61.7331 62.9479 61.5192Z" fill="#A3BDCB"/>
<path d="M66.2815 58.8497L67.2916 58.0706C67.5495 57.8749 67.5816 57.5151 67.3855 57.2576C67.1893 57.0001 66.8288 56.968 66.5708 57.1636L65.5425 57.9678C65.2846 58.1635 65.2525 58.5233 65.4486 58.7807C65.6596 58.9916 66.0236 59.0454 66.2815 58.8497Z" fill="#A3BDCB"/>
<path d="M69.6946 56.2569L70.7298 55.496C70.9878 55.3004 71.0415 54.9372 70.8454 54.6797C70.6492 54.4222 70.2852 54.3684 70.0273 54.564L68.9921 55.325C68.7341 55.5206 68.6804 55.8838 68.8731 56.1197C69.0727 56.3988 69.4367 56.4526 69.6946 56.2569Z" fill="#A3BDCB"/>
<path d="M73.1907 53.783L74.2543 53.0619C74.5157 52.8879 74.5912 52.5213 74.395 52.2639C74.2205 52.003 73.8532 51.9275 73.5918 52.1015L72.5281 52.8226C72.2667 52.9966 72.1913 53.3632 72.3875 53.6207C72.5654 53.9032 72.9076 53.9604 73.1907 53.783Z" fill="#A3BDCB"/>
<path d="M76.7488 51.41L77.8376 50.7071C78.0989 50.5331 78.1744 50.1666 78.0216 49.9023C77.8471 49.6414 77.4797 49.5659 77.215 49.7183L76.1261 50.4211C75.8648 50.5951 75.7893 50.9617 75.9421 51.226C76.12 51.5085 76.4657 51.5874 76.7488 51.41Z" fill="#A3BDCB"/>
<path d="M80.3641 49.117L81.4597 48.4574C81.7427 48.28 81.8216 47.9351 81.6654 47.6492C81.4875 47.3666 81.1418 47.2878 80.8554 47.4436L79.7381 48.1065C79.4551 48.2839 79.3762 48.6289 79.5325 48.9148C79.7354 49.2155 80.0811 49.2944 80.3641 49.117Z" fill="#A3BDCB"/>
<path d="M84.0424 46.9469L85.1631 46.3056C85.4495 46.1499 85.5466 45.7799 85.3904 45.4939C85.2342 45.208 84.8634 45.1109 84.577 45.2667L83.4563 45.908C83.1698 46.0638 83.0727 46.4338 83.2255 46.6981C83.4102 47.0239 83.7559 47.1027 84.0424 46.9469Z" fill="#A3BDCB"/>
<path d="M87.8042 44.8743L88.9317 44.2763C89.2181 44.1205 89.3187 43.7721 89.1841 43.4828C89.0279 43.1969 88.6788 43.0964 88.389 43.2305L87.2398 43.832C86.9533 43.9877 86.8528 44.3361 86.9873 44.6254C87.1469 44.933 87.5177 45.03 87.8042 44.8743Z" fill="#A3BDCB"/>
<path d="M91.6036 42.9066L92.7563 42.3268C93.0462 42.1927 93.165 41.8193 93.0304 41.53C92.8959 41.2407 92.5217 41.122 92.2318 41.2561L91.0792 41.8359C90.7893 41.97 90.6705 42.3434 90.805 42.6327C90.9429 42.9437 91.2955 43.0658 91.6036 42.9066Z" fill="#A3BDCB"/>
<path d="M95.4637 41.0398L96.6232 40.5033C96.9131 40.3691 97.057 40.014 96.9224 39.7247C96.7879 39.4354 96.432 39.2916 96.1421 39.4257L94.9609 39.9657C94.671 40.0998 94.5271 40.4549 94.6617 40.7443C94.7996 41.0552 95.1521 41.1773 95.4637 41.0398Z" fill="#A3BDCB"/>
<path d="M99.362 39.2772L100.547 38.7589C100.858 38.6214 100.98 38.2697 100.867 37.9769C100.729 37.666 100.377 37.5439 100.084 37.6563L98.8991 38.1746C98.5876 38.3122 98.4654 38.6639 98.5782 38.9566C98.6945 39.271 99.0504 39.4147 99.362 39.2772Z" fill="#A3BDCB"/>
<path d="M103.301 37.6202L104.492 37.1452C104.807 37.0293 104.951 36.6741 104.835 36.3598C104.718 36.0454 104.362 35.9016 104.047 36.0175L102.834 36.496C102.519 36.6119 102.375 36.967 102.513 37.278C102.655 37.6106 102.989 37.7577 103.301 37.6202Z" fill="#A3BDCB"/>
<path d="M107.302 36.0857L108.496 35.6323C108.811 35.5164 108.959 35.1829 108.842 34.8686C108.726 34.5542 108.392 34.407 108.077 34.5229L106.86 34.9797C106.545 35.0956 106.398 35.4291 106.514 35.7435C106.649 36.0328 106.987 36.2016 107.302 36.0857Z" fill="#A3BDCB"/>
<path d="M111.338 34.6339L112.561 34.2204C112.876 34.1045 113.045 33.7676 112.929 33.4532C112.812 33.1388 112.475 32.9701 112.16 33.086L110.936 33.4995C110.621 33.6153 110.452 33.9523 110.569 34.2666C110.663 34.5844 111.023 34.7498 111.338 34.6339Z" fill="#A3BDCB"/>
<path d="M115.395 33.3117L116.625 32.9415C116.943 32.8472 117.134 32.5069 117.018 32.1925C116.923 31.8748 116.582 31.6844 116.267 31.8003L115.04 32.1921C114.722 32.2864 114.553 32.6233 114.648 32.941C114.735 33.2155 115.076 33.4059 115.395 33.3117Z" fill="#A3BDCB"/>
<path d="M119.509 32.0689L120.638 31.7589C120.956 31.6647 121.147 31.3244 121.052 31.0066C120.958 30.6889 120.617 30.4984 120.298 30.5927L119.17 30.9027C118.851 30.9969 118.661 31.3372 118.755 31.655C118.85 31.9727 119.191 32.1632 119.509 32.0689Z" fill="#A3BDCB"/>
<path d="M125.413 22.0423L126.031 30.0263L131.198 26.1847L125.413 22.0423Z" fill="#A3BDCB"/>
<path d="M161.128 14.6997L140.927 35.289C140.545 35.681 140.002 35.8989 139.447 35.8972C138.891 35.8956 138.366 35.6677 137.991 35.2614L117.99 14.2539C117.754 14.0251 117.696 13.6578 117.846 13.3463C117.975 13.0382 118.302 12.8543 118.615 12.8716L161.128 14.6997Z" fill="#98B4C5"/>
<path d="M125.416 22.0388L161.132 14.696L128.618 25.4365L128.703 27.6609L125.416 22.0388Z" fill="#A3BDCB"/>
<path d="M130.553 27.4395L126.03 30.0318L128.614 25.437L130.553 27.4395Z" fill="#A3BDCB"/>
</svg>
