<svg width="119" height="160" viewBox="0 0 119 160" fill="none" xmlns="http://www.w3.org/2000/svg">
<path d="M0.369934 149.421C-2.09942 150.48 24.6873 120.085 35.097 70.8014C40.0076 47.574 41.5467 18.2499 55.4659 7.60815C67.0522 -1.25339 104.531 6.53294 116.776 9.39407C118.307 9.75036 118.726 11.7301 117.475 12.6756C111.29 17.3632 98.0072 28.4799 94.1089 40.1421C88.9595 55.5209 73.6199 64.7076 60.2045 66.7469C46.789 68.7861 39.2663 71.0269 31.7232 91.9282C24.1579 112.839 7.36887 146.408 0.369934 149.421Z" fill="#AEC8D7"/>
<path opacity="0.5" d="M99.0586 15.1393C83.2504 15.0266 65.9528 21.3902 56.6752 34.4569L55.7993 35.7022C53.7759 38.6342 42.0612 59.5598 35.2542 77.0664C35.167 77.2895 35.2737 77.5329 35.4973 77.6088C35.8688 77.7568 36.074 77.3447 36.0394 77.3863C40.6573 67.5449 47.2066 55.0917 52.3924 45.7977C57.9577 35.6454 61.8499 28.7778 73.6897 22.602C86.853 15.9605 99.1109 15.813 99.078 15.8222C99.2627 15.8096 99.4115 15.6545 99.3992 15.4699C99.387 15.2853 99.2321 15.137 99.0586 15.1393Z" fill="white"/>
<path d="M10.9404 154.1C9.47558 154.786 19.7712 138.965 21.2266 124.66C22.682 110.356 27.1721 86.0345 40.2904 71.997C53.4088 57.9596 67.0371 57.2837 83.4296 71.4328C97.0938 83.2184 105.69 89.2571 110.834 90.5478C112.106 90.8699 112.691 92.3599 112.006 93.4738C108.354 99.4548 98.1906 113.106 82.3907 111.338C62.2393 109.086 38.4043 94.7459 30.3792 105.341C22.354 115.936 23.0027 122.117 22.5007 127.288C22.0191 132.482 20.6371 149.594 10.9404 154.1Z" fill="#A3BDCC"/>
<path opacity="0.5" d="M76.7917 88.7354C70.9031 82.4932 61.1082 76.1682 52.2353 76.8276C40.6656 78.1131 32.6356 85.396 27.8944 96.5855C26.016 101.344 25.2144 103.892 23.9498 109.784C23.8499 110.256 24.5451 110.43 24.6768 109.971C25.5213 107.22 26.3616 104.338 27.5526 101.376C34.5968 82.2008 47.6318 80.2184 48.1493 79.8431C49.1168 79.9879 55.2641 75.8499 68.9154 84.0848C71.4684 85.6387 73.9354 87.3941 76.2319 89.3035L76.2422 89.3148C76.4085 89.4529 76.6587 89.4326 76.7972 89.2662C76.9459 89.1111 76.9358 88.8832 76.7917 88.7354Z" fill="white"/>
</svg>
