<svg width="162" height="114" viewBox="0 0 162 114" fill="none" xmlns="http://www.w3.org/2000/svg">
<g clip-path="url(#clip0_708_559)">
<path d="M160.357 114.031C162.91 114.096 128.552 96.6982 101.998 56.8538C89.4787 38.0768 77.7885 12.7293 61.7502 8.23779C48.3987 4.49613 18.0522 24.5751 8.24947 31.4152C7.0236 32.2691 7.35123 34.1645 8.78839 34.5588C15.9009 36.5182 31.5446 41.6532 39.0951 50.5761C49.0596 62.3396 65.8394 65.046 78.4022 62.12C90.9649 59.1939 98.3961 58.5219 112.42 74.3178C126.466 90.1144 153.116 113.836 160.357 114.031Z" fill="#AEC8D7"/>
<path opacity="0.5" d="M25.9164 30.2454C39.8335 24.5763 57.3473 24.1004 70.142 32.3681L71.354 33.159C74.1735 35.0348 91.8887 49.3823 104.066 62.4405C104.222 62.6067 104.213 62.8592 104.043 63.0049C103.767 63.2666 103.441 62.975 103.486 62.9995C95.9414 55.9377 85.7717 47.2503 77.9188 40.8718C69.4284 33.8693 63.5725 29.1773 50.9435 27.8961C36.9819 26.6701 26.1076 30.8586 26.1399 30.8551C25.9723 30.9091 25.7864 30.8245 25.7321 30.6572C25.6779 30.4899 25.7624 30.3044 25.9164 30.2454Z" fill="white"/>
<path d="M152.672 121.886C154.207 121.976 139.543 111.635 133.219 99.5183C126.894 87.4017 114.361 67.5109 97.8332 59.7392C81.3056 51.9676 69.0352 56.1724 59.5475 74.4397C51.6359 89.6593 46.1744 98.0191 42.0874 100.971C41.0773 101.704 41.086 103.225 42.0833 103.967C47.4149 107.961 61.1975 116.433 74.524 109.305C91.5219 100.217 107.513 79.1594 118.331 85.6863C129.15 92.2131 130.754 97.8983 133.02 102.287C135.275 106.704 142.524 121.325 152.672 121.886Z" fill="#A3BDCC"/>
<path opacity="0.5" d="M71.5044 87.3773C74.5041 79.7914 80.9235 70.7562 88.9896 68.2124C99.6572 65.2711 109.313 68.872 117.441 77.0806C120.776 80.6197 122.381 82.5871 125.574 87.3439C125.828 87.7249 125.276 88.1241 124.998 87.7652C123.283 85.6332 121.525 83.3849 119.43 81.1892C106.455 66.7419 94.2485 69.5842 93.6595 69.4352C92.8563 69.9038 85.9711 68.4162 76.8198 80.4963C75.1132 82.7677 73.5537 85.1867 72.1988 87.6816L72.1937 87.6952C72.0955 87.8757 71.8675 87.9459 71.6866 87.8478C71.5006 87.7632 71.4292 87.5585 71.5044 87.3773Z" fill="white"/>
</g>
<defs>
<clipPath id="clip0_708_559">
<rect width="162" height="114" fill="white" transform="translate(0 -0.000244141)"/>
</clipPath>
</defs>
</svg>
