<svg width="90" height="89" viewBox="0 0 90 89" fill="none" xmlns="http://www.w3.org/2000/svg">
<path d="M81.074 20.4515C80.9127 20.4515 80.7284 20.3595 80.6363 20.2215C80.2676 19.6466 79.8529 19.0947 79.4382 18.5428C79.277 18.3129 79.3231 17.9909 79.5534 17.807C79.7838 17.646 80.1064 17.692 80.2907 17.9219C80.7054 18.4968 81.1201 19.0717 81.5117 19.6466C81.673 19.8766 81.6039 20.2215 81.3735 20.3595C81.2813 20.4285 81.1661 20.4515 81.074 20.4515Z" fill="#A2BCCB"/>
<path d="M44.4894 88.6911C43.7061 88.6911 42.8997 88.6681 42.1164 88.6222C41.8169 88.5993 41.6096 88.3699 41.6326 88.0715C41.6556 87.7732 41.9091 87.5667 42.1855 87.5896C43.5448 87.6585 44.9271 87.6585 46.2633 87.6126C46.5628 87.6126 46.7932 87.8191 46.8162 88.1174C46.8393 88.4157 46.6089 88.6452 46.3094 88.6682C45.7104 88.6682 45.1114 88.6911 44.4894 88.6911ZM52.9445 87.865C52.691 87.865 52.4837 87.6814 52.4376 87.4519C52.3915 87.1766 52.5758 86.9012 52.8523 86.8324C54.1424 86.58 55.4326 86.2587 56.6997 85.8915L56.8149 85.8686C57.0914 85.7768 57.3909 85.9374 57.46 86.2128C57.5521 86.4881 57.3909 86.7865 57.1144 86.8553L56.9992 86.8783C55.686 87.2454 54.3728 87.5667 53.0596 87.8421C53.0136 87.865 52.9675 87.865 52.9445 87.865ZM63.1965 84.5376C62.9892 84.5376 62.8049 84.4229 62.7127 84.2393C62.5975 83.9869 62.7127 83.6656 62.9661 83.5509C64.1872 82.9772 65.4082 82.3347 66.5601 81.6692C66.8136 81.5316 67.1361 81.6004 67.2743 81.8528C67.4125 82.1052 67.3434 82.4265 67.09 82.5642C65.892 83.2526 64.6479 83.9181 63.4039 84.4917C63.3578 84.5147 63.2887 84.5376 63.1965 84.5376ZM72.3428 78.8008C72.1815 78.8008 72.0433 78.732 71.9281 78.6172C71.7438 78.3878 71.7898 78.0665 71.9972 77.8829C73.0339 77.0339 74.0706 76.116 75.0152 75.1751C75.2226 74.9686 75.5451 74.9686 75.7524 75.1751C75.9598 75.3817 75.9598 75.7029 75.7524 75.9095C74.7618 76.8733 73.7251 77.8141 72.6423 78.6861C72.5732 78.7779 72.458 78.8008 72.3428 78.8008ZM79.8072 71.0217C79.692 71.0217 79.5999 70.9987 79.4847 70.9299C79.2543 70.7693 79.2082 70.4251 79.3695 70.1956C80.1758 69.1171 80.9361 67.9926 81.6503 66.8223C81.8115 66.5699 82.111 66.5011 82.3645 66.6388C82.6179 66.7994 82.687 67.0977 82.5488 67.3501C81.8346 68.5204 81.0513 69.6907 80.2219 70.7922C80.1297 70.9528 79.9685 71.0217 79.8072 71.0217ZM85.1521 61.6822C85.083 61.6822 85.0139 61.6592 84.9448 61.6362C84.6683 61.5215 84.5531 61.2232 84.6683 60.9478C85.1982 59.7087 85.659 58.4236 86.0506 57.1386C86.1428 56.8632 86.4192 56.7026 86.6957 56.7944C86.9721 56.8862 87.1334 57.1615 87.0413 57.4369C86.6266 58.7449 86.1428 60.0758 85.6129 61.3379C85.5438 61.5445 85.3364 61.6822 85.1521 61.6822ZM88.0549 51.31C88.0319 51.31 88.0089 51.31 87.9858 51.31C87.7094 51.2641 87.502 51.0117 87.5481 50.7133C87.7554 49.3824 87.8937 48.0285 87.9628 46.6746C87.9858 46.3993 88.2393 46.1698 88.5157 46.1927C88.8152 46.2157 89.0226 46.4451 88.9995 46.7435C88.9304 48.1203 88.7922 49.5201 88.5848 50.874C88.5157 51.1264 88.3084 51.31 88.0549 51.31ZM88.3084 40.5477C88.0319 40.5477 87.8246 40.3412 87.7785 40.0887C87.6403 38.7578 87.4329 37.4039 87.1795 36.073C87.1334 35.7976 87.3177 35.5222 87.5942 35.4534C87.8706 35.4075 88.1471 35.5911 88.2162 35.8665C88.4927 37.2203 88.677 38.5972 88.8152 39.974C88.8382 40.2494 88.6309 40.5247 88.3544 40.5477C88.3314 40.5477 88.3314 40.5477 88.3084 40.5477ZM85.9354 30.0608C85.7281 30.0608 85.5207 29.9231 85.4516 29.7166C84.9908 28.4545 84.484 27.1924 83.908 25.9532C83.7928 25.7008 83.908 25.3795 84.1615 25.2648C84.4149 25.1501 84.7374 25.2648 84.8526 25.5172C85.4286 26.7564 85.9815 28.0644 86.4423 29.3724C86.5344 29.6477 86.3962 29.9461 86.1197 30.0378C86.0506 30.0378 85.9815 30.0608 85.9354 30.0608Z" fill="#A2BCCB"/>
<path d="M35.5033 87.7533C35.4572 87.7533 35.4342 87.7533 35.3881 87.7533C34.697 87.6154 34.0058 87.4544 33.3377 87.2704C33.0612 87.2014 32.9 86.9025 32.9691 86.6265C33.0382 86.3506 33.3377 86.1896 33.6142 86.2586C34.2823 86.4426 34.9504 86.5805 35.6185 86.7415C35.8949 86.8105 36.0793 87.0864 36.0332 87.3624C35.9641 87.5923 35.7337 87.7533 35.5033 87.7533Z" fill="#A2BCCB"/>
<path d="M7.09589 67.9067C6.91158 67.9067 6.75031 67.8147 6.65816 67.6537C6.28954 67.0558 5.92093 66.4349 5.59839 65.837C5.46016 65.5841 5.55231 65.2621 5.80573 65.1242C6.05916 64.9862 6.3817 65.0781 6.51993 65.3311C6.84246 65.929 7.21108 66.5269 7.55666 67.1018C7.71793 67.3548 7.62577 67.6767 7.39539 67.8147C7.28019 67.8837 7.18804 67.9067 7.09589 67.9067Z" fill="#A2BCCB"/>
<path d="M3.27145 60.1215C3.06411 60.1215 2.85676 59.9839 2.78765 59.7773C2.41903 58.7906 2.07346 57.758 1.77396 56.7253C1.6818 56.45 1.61269 56.1517 1.54357 55.8763C1.47446 55.6009 1.63573 55.3026 1.91219 55.2338C2.18865 55.1649 2.48815 55.3256 2.55726 55.6009C2.62638 55.8763 2.71853 56.1517 2.78765 56.427C3.08714 57.4367 3.40968 58.4234 3.7783 59.4102C3.87045 59.6855 3.73222 59.9839 3.4788 60.0757C3.40968 60.1215 3.34057 60.1215 3.27145 60.1215ZM0.806344 49.8412C0.552922 49.8412 0.322537 49.6346 0.27646 49.3822C0.115191 48.0283 0.0230384 46.6515 0 45.2976C0 44.9993 0.230383 44.7698 0.506844 44.7698C0.783305 44.7698 1.03673 44.9993 1.03673 45.2747C1.05977 46.6056 1.15192 47.9365 1.31319 49.2675C1.33623 49.5428 1.15192 49.8182 0.85242 49.8412C0.85242 49.8412 0.829383 49.8412 0.806344 49.8412ZM0.87546 39.2395C0.852422 39.2395 0.829383 39.2395 0.806344 39.2395C0.529883 39.1936 0.322538 38.9412 0.345576 38.6659C0.529883 37.312 0.760265 35.9581 1.05976 34.6272C1.12888 34.3518 1.40534 34.1682 1.6818 34.237C1.95827 34.3059 2.14257 34.5813 2.07346 34.8566C1.77396 36.1417 1.54357 37.4726 1.3823 38.7806C1.35927 39.056 1.12888 39.2395 0.87546 39.2395ZM3.50184 28.9821C3.43272 28.9821 3.36361 28.9821 3.31753 28.9362C3.04107 28.8215 2.92588 28.5232 3.01803 28.2708C3.50184 27.0087 4.0778 25.7466 4.6768 24.5304C4.81503 24.2779 5.11453 24.1632 5.36795 24.3009C5.62137 24.4386 5.73656 24.7369 5.59833 24.9893C4.99934 26.1826 4.44641 27.3988 3.98565 28.6379C3.91653 28.8674 3.70918 28.9821 3.50184 28.9821ZM8.52421 19.6655C8.43206 19.6655 8.31686 19.6426 8.22471 19.5738C7.99433 19.4131 7.92521 19.0919 8.08648 18.8394C8.86979 17.738 9.72221 16.6365 10.5977 15.6039C10.782 15.3744 11.1045 15.3515 11.3349 15.535C11.5653 15.7186 11.5883 16.0399 11.404 16.2694C10.5516 17.279 9.72221 18.3346 8.96194 19.4361C8.84675 19.5737 8.68548 19.6655 8.52421 19.6655ZM15.62 11.7946C15.4818 11.7946 15.3205 11.7258 15.2284 11.6111C15.0441 11.4045 15.0671 11.0603 15.2745 10.8768C16.3112 9.98181 17.394 9.13276 18.4998 8.3296C18.7302 8.16897 19.0528 8.21487 19.2371 8.44434C19.3983 8.67381 19.3523 8.99508 19.1219 9.17865C18.0391 9.95886 16.9793 10.785 15.9887 11.657C15.8735 11.7488 15.7583 11.7946 15.62 11.7946ZM24.4207 5.8513C24.2364 5.8513 24.0521 5.73656 23.9599 5.57593C23.8217 5.32351 23.9369 5.00226 24.1903 4.86457C25.4114 4.245 26.6554 3.67131 27.9226 3.16647C28.199 3.05174 28.4985 3.18942 28.5907 3.46478C28.7059 3.74015 28.5676 4.03847 28.2912 4.13026C27.0471 4.6351 25.8261 5.18584 24.6511 5.78246C24.582 5.85131 24.5129 5.8513 24.4207 5.8513ZM34.3963 2.20269C34.166 2.20269 33.9356 2.04207 33.8895 1.81259C33.8204 1.53723 34.0047 1.26186 34.2812 1.19302C35.6174 0.871754 36.9766 0.619337 38.3129 0.435759C38.5893 0.389865 38.8658 0.596381 38.9119 0.871748C38.958 1.14712 38.7506 1.42249 38.4741 1.46839C37.1609 1.65196 35.8247 1.90437 34.5346 2.20269C34.4885 2.20269 34.4424 2.20269 34.3963 2.20269ZM49.0257 1.26185C49.0027 1.26185 48.9797 1.26185 48.9797 1.26185C47.6434 1.12417 46.3072 1.05533 44.971 1.03238C44.6715 1.03238 44.4411 0.802912 44.4641 0.504598C44.4641 0.229231 44.6945 -0.000244141 44.994 -0.000244141C46.3533 0.0227031 47.7356 0.0915448 49.0948 0.229228C49.3713 0.252176 49.6017 0.504595 49.5556 0.802909C49.5095 1.05533 49.2792 1.26185 49.0257 1.26185Z" fill="#A2BCCB"/>
<path d="M57.5271 2.9892C57.4811 2.9892 57.412 2.9892 57.3659 2.96621C56.7208 2.75924 56.0527 2.57527 55.3846 2.3913C55.1081 2.32231 54.9468 2.02335 55.016 1.74739C55.0851 1.47144 55.3846 1.31047 55.661 1.37946C56.3522 1.56343 57.0203 1.7474 57.6884 1.95437C57.9649 2.04635 58.1261 2.3223 58.034 2.59826C57.9649 2.85122 57.7575 2.9892 57.5271 2.9892Z" fill="#A2BCCB"/>
<path d="M19.553 22.9791C19.9187 22.6365 20.4123 22.4696 20.9147 22.5135C26.2561 22.9922 36.2204 20.4273 42.7296 13.7865C43.1835 13.3253 44.0076 13.5845 44.5232 13.971C51.764 19.3644 63.7687 20.48 67.9378 20.7084C68.8016 20.7567 69.4979 21.4199 69.586 22.2763C73.3761 58.7523 49.5428 71.9723 44.6025 74.3045C44.0605 74.5593 43.4259 74.5241 42.9191 74.2079C18.2837 58.9148 19.337 39.0276 18.9977 24.2923C18.9845 23.8004 19.1872 23.3173 19.553 22.9791Z" fill="#7FB5CE"/>
<path opacity="0.61" d="M43.9374 71.6602C43.8273 71.6602 43.7171 71.6294 43.6201 71.5679C34.1759 65.5508 28.0193 58.3567 24.8021 49.577C21.9288 41.7372 21.7877 33.748 21.6643 26.7032L21.6467 25.7633C21.6423 25.6052 21.704 25.4602 21.8142 25.346C21.9243 25.2318 22.0742 25.1704 22.2328 25.1704C28.081 25.1704 36.8598 22.5966 43.2984 16.8474C43.4967 16.6717 43.7876 16.6498 44.0124 16.7947C51.0856 21.4723 61.1777 22.8338 66.5631 23.2291C66.8496 23.251 67.0743 23.4706 67.1008 23.7605C68.3524 37.9951 65.382 50.0293 58.2735 59.5337C52.963 66.6313 46.6654 70.3294 44.2063 71.5899C44.1181 71.6382 44.03 71.6602 43.9374 71.6602ZM44.0917 71.3835L44.1446 71.4889L44.0917 71.3835C46.5376 70.1317 52.7956 66.4556 58.0796 59.3976C65.1529 49.9415 68.11 37.96 66.8628 23.7869C66.8496 23.62 66.713 23.4882 66.5455 23.475C61.1381 23.0797 50.9975 21.7094 43.8802 17.0012C43.7479 16.9133 43.5761 16.9265 43.4615 17.0319C36.9743 22.825 28.1294 25.4163 22.2417 25.4163C22.1403 25.4163 22.0521 25.4514 21.9905 25.5217C21.9243 25.5876 21.8891 25.6754 21.8935 25.7677L21.9111 26.7076C22.0345 33.7348 22.1755 41.6976 25.0357 49.5023C28.2352 58.2293 34.361 65.3839 43.7568 71.3747C43.8537 71.4318 43.9859 71.4406 44.0917 71.3835Z" fill="white"/>
<path opacity="0.61" d="M52.7872 36.7483H51.6722C51.1169 36.7483 50.6718 36.3003 50.6718 35.7513V31.9566C50.6718 30.5994 49.5656 29.497 48.2039 29.497H41.3025C39.9407 29.497 38.8345 30.5994 38.8345 31.9566V35.7513C38.8345 36.3047 38.385 36.7483 37.8341 36.7483H36.7191C36.1639 36.7483 35.7188 36.3003 35.7188 35.7513V31.9566C35.7188 28.8821 38.2175 26.3918 41.3025 26.3918H48.2039C51.2888 26.3918 53.7876 28.8821 53.7876 31.9566V35.7513C53.7876 36.3003 53.338 36.7483 52.7872 36.7483Z" fill="white"/>
<path opacity="0.61" d="M54.1662 37.6443H35.335C34.1804 37.6443 33.2461 38.5754 33.2461 39.7261V54.1276C33.2461 55.2784 34.1804 56.2095 35.335 56.2095H54.1662C55.3209 56.2095 56.2552 55.2784 56.2552 54.1276V39.7261C56.2552 38.5754 55.3209 37.6443 54.1662 37.6443ZM47.4455 51.5627C47.5645 52.0458 47.1943 52.5158 46.6919 52.5158H42.8093C42.3069 52.5158 41.9412 52.0502 42.0557 51.5627L42.9636 47.8031C41.8927 47.1662 41.1964 45.976 41.2669 44.6276C41.3594 42.884 42.7785 41.4522 44.5281 41.3468C46.5553 41.2194 48.2432 42.8225 48.2432 44.8165C48.2432 46.0858 47.5601 47.197 46.5421 47.8031L47.4455 51.5627Z" fill="white"/>
</svg>
