<svg width="386" height="481" viewBox="0 0 386 481" fill="none" xmlns="http://www.w3.org/2000/svg">
<path d="M327.284 100H4.68741C2.09863 100 0 102.099 0 104.689V325.311C0 327.901 2.09863 330 4.68741 330H327.284C329.873 330 331.972 327.901 331.972 325.311V104.689C331.972 102.099 329.873 100 327.284 100Z" fill="#E8EEF3"/>
<path opacity="0.26" d="M12.7279 139.714H316.159C317.402 139.714 318.594 140.208 319.474 141.088C320.353 141.967 320.846 143.16 320.846 144.403V315.684C320.846 316.928 320.353 318.12 319.474 318.999C318.594 319.879 317.402 320.373 316.159 320.373H12.7279C11.4848 320.373 10.2925 319.879 9.41344 318.999C8.53438 318.12 8.04053 316.928 8.04053 315.684V144.403C8.04053 143.16 8.53438 141.967 9.41344 141.088C10.2925 140.208 11.4848 139.714 12.7279 139.714Z" fill="white"/>
<path d="M331.972 129.417V115.561C331.972 106.967 324.861 100.004 316.269 100.004H16.5618C7.97032 100.004 0.852051 106.967 0.852051 115.561V129.417H331.972Z" fill="#E8EEF3"/>
<path opacity="0.56" d="M21.1299 123.397C22.714 121.812 22.714 119.243 21.1299 117.658C19.5458 116.074 16.9774 116.074 15.3932 117.658C13.8091 119.243 13.8091 121.812 15.3932 123.397C16.9774 124.981 19.5458 124.981 21.1299 123.397Z" fill="white"/>
<path opacity="0.56" d="M31.0447 124.763C33.285 124.763 35.1011 122.947 35.1011 120.706C35.1011 118.465 33.285 116.648 31.0447 116.648C28.8044 116.648 26.9883 118.465 26.9883 120.706C26.9883 122.947 28.8044 124.763 31.0447 124.763Z" fill="white"/>
<path opacity="0.56" d="M43.3035 125.329C45.5438 125.329 47.3599 123.512 47.3599 121.271C47.3599 119.03 45.5438 117.214 43.3035 117.214C41.0632 117.214 39.2471 119.03 39.2471 121.271C39.2471 123.512 41.0632 125.329 43.3035 125.329Z" fill="white"/>
<path opacity="0.56" d="M122.444 150.484H20.8753C20.0243 150.484 19.3345 151.174 19.3345 152.025V308.165C19.3345 309.016 20.0243 309.706 20.8753 309.706H122.444C123.295 309.706 123.985 309.016 123.985 308.165V152.025C123.985 151.174 123.295 150.484 122.444 150.484Z" fill="white"/>
<path opacity="0.56" d="M307.985 150.432H132.58C131.729 150.432 131.04 151.122 131.04 151.974V224.873C131.04 225.724 131.729 226.414 132.58 226.414H307.985C308.836 226.414 309.526 225.724 309.526 224.873V151.974C309.526 151.122 308.836 150.432 307.985 150.432Z" fill="white"/>
<path opacity="0.56" d="M307.211 235.474H131.806C130.955 235.474 130.265 236.164 130.265 237.015V305.562C130.265 306.413 130.955 307.103 131.806 307.103H307.211C308.062 307.103 308.751 306.413 308.751 305.562V237.015C308.751 236.164 308.062 235.474 307.211 235.474Z" fill="white"/>
<path d="M231.413 406.402C234.437 405.982 190.53 392.141 151.464 350.308C133.048 330.594 114.332 302.97 94.5415 300.79C78.0663 298.973 46.1766 328.555 35.9442 338.528C34.6643 339.774 35.4193 341.946 37.191 342.131C45.961 343.06 65.4107 346.075 76.0512 355.132C90.091 367.069 110.409 366.999 124.657 361.106C138.906 355.212 147.54 352.975 167.152 368.88C186.79 384.781 222.835 407.58 231.413 406.402Z" fill="#AEC8D7"/>
<path opacity="0.5" d="M56.5543 333.714C71.8673 324.322 92.4319 320.355 109.13 327.62L110.714 328.317C114.404 329.981 138.088 343.46 154.99 356.494C155.206 356.66 155.245 356.96 155.072 357.165C154.797 357.527 154.356 357.247 154.414 357.267C144.142 350.404 130.458 342.135 119.956 336.138C108.58 329.529 100.761 325.133 85.6166 326.077C68.9109 327.346 56.899 334.4 56.9365 334.39C56.7493 334.486 56.5136 334.422 56.4171 334.235C56.3206 334.049 56.3842 333.813 56.5543 333.714Z" fill="white"/>
<path d="M223.877 417.16C225.705 416.967 206.399 407.621 196.583 394.56C186.768 381.498 168.118 360.474 147.113 354.52C126.108 348.567 112.453 355.912 104.814 379.302C98.4411 398.791 93.6246 409.713 89.3779 413.99C88.329 415.05 88.635 416.843 89.9556 417.525C97.0205 421.199 114.924 428.512 129.257 417.514C147.539 403.49 162.306 375.544 176.335 381.139C190.364 386.734 193.362 393.128 196.887 397.864C200.405 402.635 211.798 418.471 223.877 417.16Z" fill="#A3BDCC"/>
<path opacity="0.5" d="M121.432 392.237C123.495 382.707 129.31 370.802 138.329 366.233C150.34 360.69 162.428 363.06 173.611 371.162C178.232 374.688 180.508 376.696 185.199 381.686C185.573 382.086 184.999 382.664 184.601 382.295C182.164 380.114 179.654 377.804 176.756 375.621C158.644 361.103 144.799 366.829 144.075 366.768C143.219 367.477 134.809 367.06 126.363 383.088C124.792 386.099 123.423 389.255 122.31 392.461L122.306 392.478C122.226 392.71 121.97 392.837 121.738 392.757C121.502 392.693 121.378 392.465 121.432 392.237Z" fill="white"/>
<path d="M381.967 272.388L380.186 273.342C379.883 273.496 379.765 273.881 379.919 274.184C380.073 274.486 380.459 274.604 380.762 274.451L382.543 273.497C382.846 273.343 382.964 272.958 382.81 272.655C382.656 272.353 382.27 272.235 381.967 272.388Z" fill="#1D87B7"/>
<path d="M375.98 275.518L374.197 276.438C373.894 276.591 373.776 276.977 373.93 277.279C374.084 277.582 374.47 277.7 374.773 277.546L376.557 276.627C376.86 276.474 376.978 276.088 376.823 275.786C376.669 275.483 376.318 275.363 375.98 275.518Z" fill="#1D87B7"/>
<path d="M369.992 278.614L368.174 279.535C367.871 279.689 367.753 280.074 367.907 280.376C368.061 280.679 368.448 280.797 368.751 280.644L370.568 279.722C370.871 279.569 370.989 279.184 370.835 278.881C370.681 278.579 370.295 278.46 369.992 278.614Z" fill="#1D87B7"/>
<path d="M364.003 281.675L362.185 282.597C361.882 282.75 361.764 283.135 361.918 283.438C362.073 283.74 362.459 283.859 362.762 283.705L364.58 282.784C364.882 282.63 365.001 282.245 364.846 281.943C364.692 281.64 364.306 281.522 364.003 281.675Z" fill="#1D87B7"/>
<path d="M357.977 284.738L356.159 285.659C355.856 285.812 355.704 286.2 355.858 286.502C356.012 286.805 356.4 286.957 356.703 286.804L358.521 285.882C358.824 285.729 358.942 285.344 358.788 285.041C358.666 284.702 358.28 284.584 357.977 284.738Z" fill="#1D87B7"/>
<path d="M351.918 287.734L350.099 288.621C349.796 288.774 349.643 289.162 349.797 289.464C349.951 289.767 350.339 289.919 350.642 289.766L352.462 288.879C352.765 288.725 352.917 288.338 352.763 288.036C352.607 287.699 352.221 287.581 351.918 287.734Z" fill="#1D87B7"/>
<path d="M345.852 290.697L344.033 291.583C343.73 291.737 343.577 292.124 343.731 292.427C343.885 292.729 344.274 292.882 344.576 292.728L346.396 291.841C346.699 291.688 346.851 291.301 346.697 290.998C346.541 290.661 346.155 290.543 345.852 290.697Z" fill="#1D87B7"/>
<path d="M339.751 293.591L337.93 294.444C337.593 294.599 337.475 294.985 337.629 295.287C337.785 295.624 338.171 295.742 338.474 295.589L340.295 294.736C340.633 294.581 340.751 294.195 340.597 293.893C340.477 293.589 340.089 293.436 339.751 293.591Z" fill="#1D87B7"/>
<path d="M333.646 296.418L331.79 297.272C331.453 297.428 331.335 297.813 331.454 298.117C331.61 298.454 331.996 298.572 332.301 298.453L334.157 297.599C334.494 297.444 334.612 297.059 334.493 296.754C334.337 296.417 333.949 296.265 333.646 296.418Z" fill="#1D87B7"/>
<path d="M327.467 299.179L325.61 299.999C325.272 300.154 325.12 300.541 325.274 300.844C325.43 301.181 325.818 301.333 326.121 301.18L327.978 300.36C328.316 300.205 328.468 299.817 328.314 299.515C328.193 299.176 327.805 299.024 327.467 299.179Z" fill="#1D87B7"/>
<path d="M321.286 301.872L319.426 302.657C319.089 302.812 318.935 303.165 319.09 303.502C319.246 303.839 319.6 303.993 319.937 303.838L321.797 303.053C322.134 302.897 322.288 302.545 322.132 302.208C322.011 301.869 321.623 301.716 321.286 301.872Z" fill="#1D87B7"/>
<path d="M315.064 304.462L313.203 305.213C312.864 305.334 312.711 305.721 312.833 306.06C312.954 306.399 313.342 306.551 313.682 306.43L315.577 305.678C315.916 305.557 316.069 305.17 315.947 304.831C315.792 304.494 315.404 304.342 315.064 304.462Z" fill="#1D87B7"/>
<path d="M308.806 306.987L306.908 307.706C306.569 307.827 306.382 308.215 306.538 308.552C306.659 308.891 307.049 309.078 307.387 308.923L309.282 308.17C309.621 308.049 309.774 307.662 309.652 307.323C309.533 307.019 309.143 306.832 308.806 306.987Z" fill="#1D87B7"/>
<path d="M302.504 309.376L300.605 310.06C300.266 310.181 300.079 310.57 300.2 310.908C300.321 311.247 300.711 311.434 301.051 311.313L302.948 310.595C303.287 310.474 303.474 310.085 303.353 309.746C303.232 309.407 302.843 309.255 302.504 309.376Z" fill="#1D87B7"/>
<path d="M296.162 311.664L294.261 312.313C293.922 312.434 293.735 312.823 293.857 313.162C293.978 313.5 294.368 313.687 294.707 313.566L296.641 312.881C296.98 312.76 297.167 312.371 297.046 312.032C296.892 311.73 296.502 311.543 296.162 311.664Z" fill="#1D87B7"/>
<path d="M289.749 313.852L287.812 314.469C287.473 314.59 287.251 314.981 287.373 315.319C287.494 315.658 287.886 315.879 288.225 315.758L290.162 315.141C290.501 315.021 290.688 314.632 290.601 314.291C290.513 313.916 290.123 313.729 289.749 313.852Z" fill="#1D87B7"/>
<path d="M283.325 315.903L281.386 316.485C281.047 316.606 280.824 316.962 280.947 317.335C281.069 317.674 281.426 317.897 281.799 317.775L283.739 317.192C284.078 317.071 284.301 316.715 284.178 316.342C284.089 315.967 283.699 315.78 283.325 315.903Z" fill="#1D87B7"/>
<path d="M276.86 317.783L274.919 318.331C274.544 318.42 274.357 318.809 274.445 319.184C274.534 319.558 274.924 319.745 275.3 319.657L277.241 319.109C277.616 319.021 277.803 318.632 277.714 318.257C277.627 317.916 277.236 317.695 276.86 317.783Z" fill="#1D87B7"/>
<path d="M270.353 319.564L268.41 320.077C268.034 320.165 267.813 320.556 267.934 320.895C268.023 321.27 268.415 321.491 268.754 321.37L270.731 320.855C271.107 320.766 271.328 320.376 271.207 320.037C271.12 319.697 270.728 319.475 270.353 319.564Z" fill="#1D87B7"/>
<path d="M263.805 321.208L261.824 321.654C261.449 321.742 261.225 322.099 261.314 322.474C261.403 322.848 261.76 323.071 262.135 322.983L264.116 322.537C264.492 322.448 264.715 322.092 264.626 321.717C264.572 321.341 264.18 321.119 263.805 321.208Z" fill="#1D87B7"/>
<path d="M257.249 322.681L255.266 323.093C254.89 323.181 254.667 323.537 254.722 323.914C254.81 324.289 255.168 324.512 255.545 324.458L257.527 324.046C257.903 323.958 258.126 323.601 258.072 323.225C257.983 322.85 257.624 322.592 257.249 322.681Z" fill="#1D87B7"/>
<path d="M250.615 323.985L248.629 324.328C248.252 324.382 247.994 324.74 248.083 325.115C248.137 325.492 248.496 325.749 248.872 325.661L250.892 325.316C251.27 325.262 251.527 324.904 251.439 324.529C251.384 324.152 251.025 323.895 250.615 323.985Z" fill="#1D87B7"/>
<path d="M243.971 325.083L241.983 325.392C241.606 325.446 241.348 325.804 241.403 326.181C241.457 326.557 241.816 326.815 242.193 326.761L244.216 326.45C244.593 326.396 244.851 326.038 244.796 325.662C244.708 325.287 244.348 325.029 243.971 325.083Z" fill="#1D87B7"/>
<path d="M237.313 325.976L235.321 326.216C234.944 326.27 234.65 326.595 234.706 327.006C234.76 327.383 235.086 327.677 235.498 327.621L237.524 327.379C237.902 327.325 238.196 327 238.14 326.589C238.051 326.214 237.692 325.956 237.313 325.976Z" fill="#1D87B7"/>
<path d="M230.615 326.733L228.586 326.906C228.206 326.926 227.914 327.285 227.934 327.664C227.954 328.042 228.315 328.334 228.694 328.315L230.724 328.141C231.103 328.122 231.395 327.762 231.375 327.384C231.319 326.973 230.993 326.679 230.615 326.733Z" fill="#1D87B7"/>
<path d="M223.871 327.252L221.839 327.391C221.46 327.41 221.166 327.736 221.188 328.148C221.208 328.527 221.534 328.82 221.948 328.799L223.979 328.66C224.358 328.641 224.652 328.315 224.631 327.903C224.611 327.524 224.285 327.231 223.871 327.252Z" fill="#1D87B7"/>
<path d="M217.152 327.597L215.117 327.667C214.738 327.686 214.41 328.013 214.43 328.392C214.45 328.77 214.778 329.098 215.157 329.079L217.192 329.009C217.571 328.989 217.899 328.662 217.879 328.284C217.86 327.905 217.532 327.577 217.152 327.597Z" fill="#1D87B7"/>
<path d="M210.422 327.736L208.383 327.738C208.003 327.723 207.674 328.05 207.661 328.465C207.647 328.845 207.975 329.173 208.39 329.186L210.429 329.185C210.81 329.199 211.138 328.872 211.151 328.458C211.13 328.045 210.803 327.751 210.422 327.736Z" fill="#1D87B7"/>
<path d="M203.683 327.703L201.675 327.634C201.295 327.619 200.966 327.946 200.952 328.327C200.937 328.707 201.265 329.035 201.646 329.05L203.688 329.117C204.069 329.132 204.397 328.805 204.412 328.425C204.39 328.012 204.062 327.684 203.683 327.703Z" fill="#1D87B7"/>
<path d="M196.933 327.431L194.921 327.293C194.54 327.278 194.176 327.573 194.161 327.953C194.146 328.333 194.442 328.697 194.823 328.712L196.869 328.849C197.25 328.864 197.614 328.569 197.629 328.189C197.642 327.774 197.348 327.444 196.933 327.431Z" fill="#1D87B7"/>
<path d="M190.204 326.951L188.191 326.778C187.808 326.729 187.443 327.023 187.396 327.44C187.347 327.822 187.643 328.186 188.06 328.233L190.073 328.406C190.456 328.455 190.82 328.161 190.867 327.744C190.915 327.328 190.619 326.964 190.204 326.951Z" fill="#1D87B7"/>
<path d="M183.497 326.228L181.48 325.987C181.097 325.938 180.733 326.232 180.649 326.616C180.6 326.998 180.895 327.362 181.28 327.446L183.297 327.687C183.679 327.737 184.044 327.442 184.093 327.06C184.209 326.64 183.914 326.276 183.497 326.228Z" fill="#1D87B7"/>
<path d="M176.85 325.297L174.862 324.95C174.477 324.867 174.078 325.163 174.029 325.545C173.946 325.929 174.243 326.327 174.626 326.376L176.648 326.721C177.03 326.77 177.431 326.508 177.48 326.126C177.53 325.744 177.234 325.38 176.85 325.297Z" fill="#1D87B7"/>
<path d="M170.222 324.121L168.231 323.706C167.846 323.623 167.446 323.885 167.362 324.268C167.278 324.652 167.541 325.052 167.926 325.136L169.917 325.551C170.301 325.635 170.702 325.373 170.786 324.989C170.868 324.571 170.607 324.205 170.222 324.121Z" fill="#1D87B7"/>
<path d="M163.618 322.672L161.657 322.186C161.273 322.103 160.87 322.33 160.752 322.716C160.668 323.099 160.897 323.502 161.283 323.62L163.278 324.104C163.662 324.187 164.065 323.96 164.183 323.574C164.267 323.191 164.038 322.788 163.618 322.672Z" fill="#1D87B7"/>
<path d="M157.101 320.975L155.172 320.419C154.785 320.301 154.383 320.529 154.265 320.914C154.147 321.299 154.375 321.702 154.761 321.82L156.725 322.374C157.112 322.492 157.514 322.265 157.632 321.879C157.75 321.494 157.522 321.092 157.101 320.975Z" fill="#1D87B7"/>
<path d="M150.676 319L148.775 318.338C148.389 318.22 147.95 318.415 147.832 318.801C147.714 319.186 147.91 319.625 148.296 319.743L150.231 320.402C150.617 320.52 151.056 320.325 151.174 319.94C151.292 319.554 151.098 319.15 150.676 319Z" fill="#1D87B7"/>
<path d="M144.372 316.742L142.502 316.01C142.114 315.857 141.675 316.052 141.523 316.44C141.37 316.827 141.566 317.265 141.954 317.418L143.86 318.182C144.248 318.335 144.687 318.14 144.84 317.752C144.956 317.333 144.76 316.894 144.372 316.742Z" fill="#1D87B7"/>
<path d="M138.158 314.17L136.317 313.333C135.927 313.146 135.488 313.342 135.334 313.694C135.147 314.083 135.343 314.522 135.696 314.676L137.537 315.513C137.927 315.7 138.366 315.505 138.52 315.152C138.707 314.763 138.546 314.323 138.158 314.17Z" fill="#1D87B7"/>
<path d="M132.099 311.281L130.321 310.337C129.966 310.149 129.489 310.277 129.302 310.666C129.113 311.02 129.242 311.496 129.632 311.683L131.443 312.625C131.799 312.813 132.276 312.685 132.463 312.297C132.615 311.909 132.454 311.469 132.099 311.281Z" fill="#1D87B7"/>
<path d="M126.193 308.038L124.48 306.988C124.123 306.765 123.645 306.893 123.422 307.249C123.199 307.606 123.328 308.082 123.685 308.305L125.433 309.353C125.79 309.577 126.267 309.449 126.456 309.094C126.679 308.738 126.585 308.26 126.193 308.038Z" fill="#1D87B7"/>
<path d="M120.511 304.475L118.863 303.353C118.506 303.13 118.025 303.189 117.802 303.545C117.579 303.902 117.638 304.381 117.996 304.604L119.68 305.76C120.038 305.983 120.518 305.923 120.741 305.567C120.965 305.211 120.87 304.733 120.511 304.475Z" fill="#1D87B7"/>
<path d="M115.056 300.556L113.471 299.327C113.147 299.068 112.666 299.127 112.407 299.45C112.147 299.774 112.207 300.254 112.532 300.513L114.153 301.775C114.477 302.034 114.958 301.975 115.217 301.651C115.477 301.328 115.417 300.848 115.056 300.556Z" fill="#1D87B7"/>
<path d="M109.892 296.313L108.405 294.975C108.078 294.681 107.596 294.706 107.302 295.032C107.008 295.357 107.033 295.839 107.36 296.132L108.883 297.503C109.209 297.796 109.692 297.771 109.951 297.448C110.243 297.088 110.218 296.606 109.892 296.313Z" fill="#1D87B7"/>
<path d="M105.022 291.711L103.633 290.264C103.341 289.969 102.857 289.959 102.527 290.252C102.231 290.543 102.222 291.027 102.515 291.356L103.941 292.835C104.232 293.131 104.717 293.14 105.047 292.847C105.306 292.524 105.316 292.04 105.022 291.711Z" fill="#1D87B7"/>
<path d="M100.447 286.816L99.1578 285.296C98.8641 284.966 98.378 284.922 98.0478 285.215C97.7176 285.507 97.6739 285.993 97.9676 286.322L99.293 287.875C99.5867 288.205 100.073 288.249 100.369 287.958C100.697 287.631 100.741 287.146 100.447 286.816Z" fill="#1D87B7"/>
<path d="M96.2364 281.629L95.0453 280C94.7861 279.669 94.2982 279.59 93.9662 279.849C93.6342 280.107 93.556 280.594 93.8153 280.926L95.0408 282.553C95.3001 282.884 95.7879 282.963 96.1199 282.704C96.4175 282.448 96.4956 281.961 96.2364 281.629Z" fill="#1D87B7"/>
<path d="M92.3905 276.147L91.2992 274.444C91.0726 274.076 90.5829 273.963 90.2165 274.224C89.8482 274.449 89.7356 274.938 89.9966 275.304L91.0879 277.007C91.3145 277.375 91.8042 277.487 92.1706 277.227C92.5044 277.003 92.617 276.515 92.3905 276.147Z" fill="#1D87B7"/>
<path d="M88.9122 270.44L87.9224 268.697C87.6958 268.329 87.2388 268.18 86.8687 268.372C86.5005 268.598 86.3516 269.054 86.5437 269.423L87.5352 271.2C87.7618 271.568 88.2189 271.717 88.5871 271.491C88.9917 271.298 89.1043 270.809 88.9122 270.44Z" fill="#1D87B7"/>
<path d="M85.7679 264.509L84.9123 262.691C84.7184 262.287 84.2614 262.138 83.8569 262.331C83.4523 262.524 83.3035 262.98 83.4974 263.384L84.3892 265.235C84.5831 265.639 85.0401 265.788 85.4446 265.595C85.8129 265.369 85.9618 264.913 85.7679 264.509Z" fill="#1D87B7"/>
<path d="M83.0294 258.385L82.2755 256.527C82.116 256.121 81.6572 255.938 81.2509 256.097C80.8446 256.256 80.6613 256.713 80.8207 257.119L81.5764 259.012C81.7359 259.417 82.1947 259.601 82.601 259.442C83.0073 259.283 83.1906 258.825 83.0294 258.385Z" fill="#1D87B7"/>
<path d="M80.6645 252.139L80.0121 250.241C79.8871 249.834 79.4264 249.616 79.0183 249.74C78.6101 249.865 78.3923 250.324 78.5173 250.732L79.1715 252.664C79.2965 253.071 79.7571 253.289 80.1653 253.165C80.5717 253.006 80.8258 252.579 80.6645 252.139Z" fill="#1D87B7"/>
<path d="M78.6687 245.736L78.1524 243.796C78.0256 243.355 77.5994 243.135 77.155 243.227C76.7124 243.353 76.4929 243.778 76.5852 244.222L77.1377 246.194C77.2627 246.601 77.6907 246.855 78.1351 246.763C78.5432 246.639 78.7955 246.178 78.6687 245.736Z" fill="#1D87B7"/>
<path d="M77.0175 239.247L76.6027 237.268C76.5104 236.825 76.0824 236.571 75.638 236.662C75.1935 236.754 74.9394 237.181 75.0318 237.625L75.4465 239.604C75.5389 240.047 75.9668 240.301 76.4113 240.21C76.8557 240.118 77.1116 239.725 77.0175 239.247Z" fill="#1D87B7"/>
<path d="M75.7424 232.704L75.4311 230.72C75.3733 230.274 74.9435 229.986 74.4973 230.044C74.0511 230.101 73.7625 230.53 73.8204 230.975L74.1335 232.994C74.1914 233.439 74.6212 233.727 75.0674 233.67C75.51 233.544 75.8003 233.15 75.7424 232.704Z" fill="#1D87B7"/>
<path d="M74.807 226.075L74.599 224.085C74.5411 223.639 74.1441 223.315 73.6979 223.372C73.2517 223.43 72.9269 223.826 72.9848 224.271L73.1945 226.295C73.2524 226.741 73.6495 227.065 74.0957 227.008C74.5401 226.916 74.8648 226.52 74.807 226.075Z" fill="#1D87B7"/>
<path d="M74.2156 219.392L74.1111 217.397C74.0877 216.95 73.6888 216.591 73.2408 216.614C72.7928 216.637 72.4336 217.035 72.457 217.482L72.5633 219.512C72.5868 219.959 72.9856 220.318 73.4318 220.26C73.9143 220.235 74.2391 219.839 74.2156 219.392Z" fill="#1D87B7"/>
<path d="M73.967 212.693L73.9658 210.693C73.9769 210.244 73.578 209.885 73.1282 209.873C72.6784 209.862 72.3191 210.26 72.3081 210.709L72.3111 212.743C72.3 213.192 72.6989 213.551 73.1487 213.563C73.5967 213.54 73.9577 213.176 73.967 212.693Z" fill="#1D87B7"/>
<path d="M74.0308 206.012L74.0986 204.008C74.1096 203.559 73.7778 203.162 73.328 203.151C72.8782 203.14 72.4809 203.47 72.4699 203.919L72.4039 205.958C72.3929 206.407 72.7247 206.803 73.1744 206.815C73.6242 206.826 74.0198 206.461 74.0308 206.012Z" fill="#1D87B7"/>
<path d="M74.4065 199.315L74.5777 197.306C74.6232 196.855 74.2914 196.458 73.8398 196.413C73.3882 196.367 72.9909 196.698 72.9454 197.148L72.7761 199.192C72.7306 199.643 73.0623 200.039 73.5139 200.085C73.9655 200.131 74.361 199.766 74.4065 199.315Z" fill="#1D87B7"/>
<path d="M75.0957 192.671L75.372 190.691C75.4175 190.24 75.1184 189.807 74.6668 189.761C74.2152 189.716 73.7816 190.014 73.7361 190.465L73.4615 192.479C73.416 192.93 73.7151 193.363 74.1667 193.409C74.6184 193.454 75.0502 193.122 75.0957 192.671Z" fill="#1D87B7"/>
<path d="M76.1298 186.043L76.4751 184.06C76.555 183.607 76.2559 183.174 75.8025 183.094C75.3491 183.014 74.9155 183.312 74.8356 183.764L74.4576 185.784C74.3777 186.237 74.6768 186.67 75.1302 186.75C75.5818 186.796 76.0154 186.497 76.1298 186.043Z" fill="#1D87B7"/>
<path d="M77.4101 179.473L77.8606 177.518C77.975 177.064 77.6759 176.631 77.2207 176.516C76.7654 176.402 76.3318 176.7 76.2174 177.154L75.7687 179.143C75.6543 179.597 75.9534 180.03 76.4086 180.145C76.8603 180.191 77.3301 179.925 77.4101 179.473Z" fill="#1D87B7"/>
<path d="M79.0369 172.952L79.558 171.028C79.6724 170.574 79.4078 170.139 78.9853 169.988C78.5301 169.874 78.0947 170.138 77.944 170.559L77.3902 172.519C77.2758 172.973 77.5404 173.408 77.963 173.559C78.4181 173.673 78.888 173.408 79.0369 172.952Z" fill="#1D87B7"/>
<path d="M80.9115 166.522L81.5362 164.593C81.685 164.137 81.453 163.666 80.9978 163.552C80.5408 163.403 80.0691 163.634 79.9547 164.088L79.33 166.017C79.1811 166.473 79.4476 166.942 79.8684 167.059C80.2909 167.21 80.7626 166.978 80.9115 166.522Z" fill="#1D87B7"/>
<path d="M83.0667 160.182L83.762 158.283C83.9127 157.862 83.7133 157.355 83.2563 157.206C82.8338 157.055 82.3258 157.254 82.177 157.71L81.4817 159.608C81.331 160.029 81.5303 160.536 81.9873 160.685C82.4117 160.871 82.9178 160.638 83.0667 160.182Z" fill="#1D87B7"/>
<path d="M85.5043 153.964L86.2704 152.097C86.4555 151.674 86.2562 151.167 85.8318 150.982C85.4075 150.796 84.8995 150.995 84.7144 151.418L83.9139 153.287C83.7287 153.711 83.9281 154.218 84.3524 154.403C84.8112 154.586 85.3192 154.388 85.5043 153.964Z" fill="#1D87B7"/>
<path d="M88.1885 147.802L89.0598 145.964C89.2449 145.541 89.08 145.032 88.6557 144.847C88.2313 144.662 87.7216 144.826 87.5364 145.249L86.6652 147.087C86.48 147.511 86.6449 148.02 87.0693 148.205C87.4954 148.424 88.0033 148.226 88.1885 147.802Z" fill="#1D87B7"/>
<path d="M91.1544 141.798L92.0982 140.025C92.3178 139.6 92.1529 139.091 91.7267 138.872C91.3006 138.652 90.7908 138.816 90.5712 139.241L89.6292 141.049C89.4096 141.474 89.5745 141.983 90.0006 142.202C90.425 142.388 90.9348 142.223 91.1544 141.798Z" fill="#1D87B7"/>
<path d="M94.3364 135.887L95.3509 134.145C95.5705 133.72 95.4401 133.209 95.0484 132.988C94.6222 132.768 94.1107 132.898 93.8893 133.289L92.8765 135.065C92.6569 135.49 92.7874 136.001 93.1791 136.222C93.5708 136.444 94.0823 136.314 94.3364 135.887Z" fill="#1D87B7"/>
<path d="M97.7663 130.134L98.8515 128.423C99.1074 128.03 98.9752 127.485 98.5816 127.23C98.1881 126.974 97.6422 127.105 97.3863 127.498L96.3011 129.209C96.0452 129.602 96.1774 130.147 96.5709 130.402C96.9644 130.658 97.5104 130.527 97.7663 130.134Z" fill="#1D87B7"/>
<path d="M101.411 124.509L102.533 122.83C102.788 122.438 102.691 121.891 102.297 121.635C101.904 121.38 101.356 121.477 101.1 121.869L99.944 123.55C99.6882 123.942 99.7859 124.489 100.179 124.745C100.607 124.999 101.155 124.901 101.411 124.509Z" fill="#1D87B7"/>
<path d="M105.267 119.01L106.462 117.397C106.752 117.002 106.654 116.455 106.295 116.198C105.936 115.94 105.352 116.005 105.094 116.363L103.868 118.013C103.577 118.407 103.675 118.954 104.034 119.211C104.464 119.5 104.977 119.404 105.267 119.01Z" fill="#1D87B7"/>
<path d="M109.376 113.704L110.641 112.122C110.933 111.762 110.87 111.213 110.507 110.887C110.146 110.595 109.597 110.658 109.27 111.019L108.005 112.602C107.713 112.962 107.777 113.51 108.139 113.837C108.5 114.128 109.05 114.066 109.376 113.704Z" fill="#1D87B7"/>
<path d="M113.631 108.529L114.968 107.012C115.295 106.65 115.231 106.101 114.869 105.775C114.506 105.449 113.956 105.512 113.63 105.873L112.294 107.425C111.968 107.787 112.031 108.335 112.394 108.661C112.753 108.919 113.304 108.891 113.631 108.529Z" fill="#1D87B7"/>
<path d="M118.103 103.515L119.476 102.031C119.803 101.669 119.774 101.119 119.446 100.791C119.083 100.464 118.532 100.493 118.203 100.82L116.83 102.304C116.503 102.666 116.532 103.216 116.86 103.545C117.225 103.905 117.776 103.877 118.103 103.515Z" fill="#1D87B7"/>
<path d="M122.754 98.6635L124.2 97.2441C124.563 96.9151 124.532 96.3303 124.204 96.0023C123.874 95.6399 123.288 95.67 122.96 95.9972L121.514 97.4166C121.186 97.7438 121.182 98.3303 121.51 98.6584C121.84 99.0208 122.428 99.0251 122.754 98.6635Z" fill="#1D87B7"/>
<path d="M127.59 94.0091L129.073 92.6224C129.436 92.2934 129.441 91.7412 129.111 91.3788C128.781 91.0164 128.228 91.0103 127.865 91.3393L126.383 92.726C126.02 93.0551 126.014 93.6072 126.344 93.9696C126.674 94.3321 127.228 94.3381 127.59 94.0091Z" fill="#1D87B7"/>
<path d="M132.57 89.5194L134.091 88.1997C134.454 87.8707 134.494 87.3168 134.164 86.9544C133.834 86.592 133.279 86.5515 132.916 86.8805L131.361 88.202C130.998 88.531 130.958 89.0849 131.288 89.4473C131.651 89.7736 132.206 89.8141 132.57 89.5194Z" fill="#1D87B7"/>
<path d="M137.734 85.1926L139.292 83.9399C139.691 83.6435 139.73 83.0552 139.434 82.691C139.137 82.2924 138.547 82.2537 138.183 82.5484L136.592 83.8372C136.193 84.1336 136.154 84.7219 136.45 85.0861C136.78 85.4485 137.335 85.489 137.734 85.1926Z" fill="#1D87B7"/>
<path d="M143.009 81.0321L144.604 79.8121C145.003 79.5157 145.078 78.96 144.78 78.5614C144.483 78.1628 143.926 78.088 143.527 78.3844L141.898 79.6062C141.499 79.9026 141.424 80.4583 141.722 80.8569C142.019 81.2555 142.61 81.3286 143.009 81.0321Z" fill="#1D87B7"/>
<path d="M148.399 77.0372L150.032 75.8842C150.431 75.5878 150.54 75.0304 150.243 74.6318C149.945 74.2332 149.387 74.1239 148.988 74.4203L147.322 75.6095C146.923 75.9059 146.814 76.4633 147.111 76.8619C147.441 77.2244 148 77.3336 148.399 77.0372Z" fill="#1D87B7"/>
<path d="M153.933 73.2081L155.602 72.0877C156.003 71.8257 156.146 71.2665 155.847 70.8335C155.584 70.4331 155.024 70.2895 154.59 70.5877L152.887 71.7098C152.486 71.9718 152.342 72.531 152.642 72.964C152.975 73.3953 153.534 73.5045 153.933 73.2081Z" fill="#1D87B7"/>
<path d="M159.583 69.5791L161.29 68.5257C161.725 68.2619 161.834 67.7045 161.569 67.2697C161.305 66.835 160.746 66.7257 160.311 66.9895L158.571 68.079C158.136 68.3428 158.027 68.9002 158.291 69.335C158.587 69.6992 159.147 69.8429 159.583 69.5791Z" fill="#1D87B7"/>
<path d="M165.343 66.0825L167.086 65.0618C167.521 64.798 167.665 64.2388 167.4 63.804C167.136 63.3693 166.575 63.2256 166.14 63.4894L164.396 64.5101C163.961 64.7739 163.817 65.3331 164.08 65.7335C164.347 66.2027 164.907 66.3463 165.343 66.0825Z" fill="#1D87B7"/>
<path d="M171.215 62.7863L172.996 61.8325C173.433 61.6031 173.611 61.0422 173.347 60.6074C173.116 60.1709 172.554 59.9928 172.117 60.2222L170.336 61.1759C169.898 61.4053 169.721 61.9663 169.985 62.401C170.217 62.872 170.743 63.0174 171.215 62.7863Z" fill="#1D87B7"/>
<path d="M177.166 59.6576L178.984 58.7366C179.421 58.5072 179.599 57.9462 179.403 57.5079C179.173 57.0714 178.611 56.8933 178.172 57.0883L176.354 58.0094C175.917 58.2388 175.739 58.7997 175.935 59.238C176.167 59.709 176.695 59.8888 177.166 59.6576Z" fill="#1D87B7"/>
<path d="M183.194 56.6629L185.015 55.8106C185.487 55.5794 185.667 55.0529 185.469 54.5802C185.237 54.1092 184.709 53.9294 184.236 54.1262L182.38 54.9802C181.909 55.2114 181.729 55.738 181.927 56.2107C182.195 56.7142 182.722 56.8941 183.194 56.6629Z" fill="#1D87B7"/>
<path d="M189.301 53.8709L191.158 53.0513C191.632 52.8545 191.844 52.2918 191.647 51.8191C191.449 51.3464 190.885 51.1339 190.412 51.3307L188.554 52.1503C188.081 52.3471 187.868 52.9098 188.064 53.3481C188.3 53.8879 188.827 54.0677 189.301 53.8709Z" fill="#1D87B7"/>
<path d="M195.521 51.2452L197.382 50.4944C197.856 50.2976 198.07 49.7693 197.907 49.2948C197.709 48.8221 197.18 48.6079 196.704 48.7702L194.809 49.5229C194.335 49.7196 194.121 50.248 194.284 50.7224C194.484 51.2295 195.048 51.442 195.521 51.2452Z" fill="#1D87B7"/>
<path d="M201.784 48.7898L203.682 48.0716C204.157 47.9092 204.404 47.3447 204.241 46.8702C204.078 46.3958 203.512 46.1489 203.037 46.3113L201.139 47.0295C200.664 47.1919 200.417 47.7564 200.58 48.2309C200.745 48.7397 201.277 48.9884 201.784 48.7898Z" fill="#1D87B7"/>
<path d="M208.125 46.5016L210.026 45.8521C210.501 45.6898 210.784 45.1579 210.621 44.6834C210.458 44.2089 209.925 43.9259 209.45 44.0883L207.514 44.7395C207.039 44.9019 206.756 45.4338 206.919 45.9082C207.084 46.4171 207.615 46.6657 208.125 46.5016Z" fill="#1D87B7"/>
<path d="M214.509 44.3833L216.446 43.7665C216.956 43.6023 217.204 43.0722 217.076 42.596C216.911 42.0871 216.38 41.8385 215.902 41.9665L213.965 42.5833C213.455 42.7474 213.207 43.2776 213.335 43.7538C213.466 44.2644 213.999 44.5475 214.509 44.3833Z" fill="#1D87B7"/>
<path d="M220.938 42.4356L222.879 41.8875C223.391 41.7578 223.674 41.2259 223.543 40.7153C223.413 40.2046 222.88 39.9216 222.368 40.0514L220.393 40.6012C219.881 40.7309 219.598 41.2628 219.763 41.7717C219.93 42.3149 220.429 42.5997 220.938 42.4356Z" fill="#1D87B7"/>
<path d="M227.446 40.6905L229.389 40.1769C229.9 40.0471 230.185 39.5497 230.055 39.039C229.924 38.5284 229.426 38.2436 228.914 38.3733L226.937 38.8887C226.425 39.0185 226.14 39.516 226.271 40.0266C226.434 40.5011 226.934 40.8203 227.446 40.6905Z" fill="#1D87B7"/>
<path d="M233.994 39.0805L235.975 38.6339C236.486 38.5041 236.806 38.0049 236.675 37.4942C236.545 36.9836 236.044 36.6644 235.533 36.7941L233.552 37.2408C233.04 37.3705 232.721 37.8698 232.851 38.3804C232.947 38.8928 233.482 39.2102 233.994 39.0805Z" fill="#1D87B7"/>
<path d="M240.554 37.6762L242.538 37.2984C243.051 37.203 243.405 36.702 243.275 36.1914C243.179 35.6789 242.677 35.3254 242.165 35.4551L240.182 35.8673C239.669 35.9627 239.35 36.4619 239.446 36.9743C239.538 37.4179 240.04 37.7715 240.554 37.6762Z" fill="#1D87B7"/>
<path d="M247.19 36.4056L249.006 36.1054C249.519 36.01 249.873 35.509 249.777 34.9966C249.681 34.4842 249.179 34.1306 248.666 34.226L246.85 34.5262C246.337 34.6215 245.983 35.1225 246.079 35.6349C246.175 36.1473 246.677 36.5009 247.19 36.4056Z" fill="#1D87B7"/>
<path d="M258.062 21.6929L257.723 34.2782L266.43 29.116L258.062 21.6929Z" fill="#1D87B7"/>
<path d="M315.108 16.0508L280.155 44.9427C279.493 45.4932 278.609 45.7451 277.74 45.6517C276.872 45.5583 276.089 45.1161 275.568 44.4194L247.728 8.30073C247.396 7.90439 247.365 7.32045 247.652 6.85806C247.904 6.39744 248.444 6.16317 248.932 6.24157L315.108 16.0508Z" fill="#79BCD9"/>
<path d="M258.067 21.6875L315.116 16.0457L262.519 27.5241L262.288 31.0161L258.067 21.6875Z" fill="#1D87B7"/>
<path d="M265.216 30.9732L257.719 34.2878L262.512 27.5245L265.216 30.9732Z" fill="#1D779F"/>
</svg>
