<svg width="99" height="84" viewBox="0 0 99 84" fill="none" xmlns="http://www.w3.org/2000/svg">
<path d="M69.6192 24.4846C69.4807 24.4846 69.3224 24.4056 69.2433 24.2871C68.9268 23.7934 68.5707 23.3195 68.2146 22.8456C68.0761 22.6481 68.1156 22.3716 68.3135 22.2137C68.5113 22.0754 68.7883 22.1149 68.9466 22.3124C69.3027 22.8061 69.6588 23.2998 69.9951 23.7934C70.1336 23.9909 70.0742 24.2871 69.8764 24.4056C69.7973 24.4648 69.6983 24.4846 69.6192 24.4846Z" fill="#7FB5CE"/>
<path d="M38.2025 83.0837C37.5298 83.0837 36.8374 83.064 36.1648 83.0246C35.9076 83.0048 35.7295 82.8078 35.7493 82.5516C35.7691 82.2955 35.9867 82.1181 36.2241 82.1378C37.3913 82.1969 38.5784 82.1969 39.7258 82.1575C39.983 82.1575 40.1808 82.3349 40.2006 82.591C40.2204 82.8472 40.0226 83.0443 39.7654 83.064C39.251 83.064 38.7366 83.0837 38.2025 83.0837ZM45.4631 82.3743C45.2455 82.3743 45.0674 82.2166 45.0278 82.0196C44.9883 81.7831 45.1465 81.5467 45.3839 81.4875C46.4918 81.2708 47.5997 80.9949 48.6878 80.6796L48.7867 80.6599C49.0241 80.5811 49.2813 80.719 49.3407 80.9555C49.4198 81.192 49.2813 81.4481 49.0439 81.5072L48.945 81.5269C47.8173 81.8422 46.6897 82.1181 45.562 82.3546C45.5224 82.3743 45.4829 82.3743 45.4631 82.3743ZM54.2668 79.517C54.0887 79.517 53.9305 79.4185 53.8513 79.2608C53.7524 79.0441 53.8513 78.7682 54.069 78.6697C55.1175 78.177 56.166 77.6253 57.1552 77.0538C57.3728 76.9356 57.6498 76.9947 57.7685 77.2115C57.8872 77.4282 57.8279 77.7041 57.6102 77.8223C56.5815 78.4135 55.5132 78.9849 54.4448 79.4776C54.4053 79.4973 54.3459 79.517 54.2668 79.517ZM62.1209 74.5906C61.9824 74.5906 61.8637 74.5315 61.7648 74.433C61.6065 74.2359 61.6461 73.9601 61.8241 73.8024C62.7144 73.0733 63.6047 72.2851 64.4158 71.4772C64.5939 71.2998 64.8708 71.2998 65.0489 71.4772C65.2269 71.6545 65.2269 71.9304 65.0489 72.1078C64.1982 72.9354 63.3079 73.7433 62.3781 74.4921C62.3187 74.5709 62.2198 74.5906 62.1209 74.5906ZM68.5308 67.9105C68.4319 67.9105 68.3528 67.8908 68.2538 67.8317C68.056 67.6937 68.0164 67.3982 68.1549 67.2011C68.8473 66.275 69.5002 65.3094 70.1135 64.3044C70.252 64.0876 70.5092 64.0285 70.7268 64.1468C70.9444 64.2847 71.0038 64.5409 70.8851 64.7576C70.2718 65.7626 69.5991 66.7676 68.8869 67.7134C68.8078 67.8514 68.6693 67.9105 68.5308 67.9105ZM73.1206 59.8904C73.0613 59.8904 73.0019 59.8707 72.9426 59.851C72.7052 59.7524 72.6062 59.4963 72.7052 59.2598C73.1602 58.1957 73.5559 57.0922 73.8922 55.9887C73.9713 55.7523 74.2087 55.6143 74.4461 55.6931C74.6835 55.772 74.822 56.0084 74.7429 56.2449C74.3868 57.3681 73.9713 58.511 73.5163 59.5948C73.4569 59.7722 73.2789 59.8904 73.1206 59.8904ZM75.6134 50.9835C75.5936 50.9835 75.5738 50.9835 75.554 50.9835C75.3166 50.9441 75.1385 50.7274 75.1781 50.4712C75.3562 49.3283 75.4749 48.1657 75.5342 47.003C75.554 46.7666 75.7716 46.5695 76.009 46.5892C76.2662 46.6089 76.4443 46.806 76.4245 47.0621C76.3651 48.2445 76.2464 49.4465 76.0684 50.6091C76.009 50.8259 75.831 50.9835 75.6134 50.9835ZM75.831 41.7417C75.5936 41.7417 75.4155 41.5643 75.3759 41.3476C75.2572 40.2047 75.0792 39.042 74.8616 37.8991C74.822 37.6627 74.9803 37.4262 75.2177 37.3671C75.4551 37.3277 75.6925 37.4853 75.7518 37.7218C75.9892 38.8844 76.1475 40.0667 76.2662 41.249C76.286 41.4855 76.1079 41.722 75.8705 41.7417C75.8508 41.7417 75.8507 41.7417 75.831 41.7417ZM73.7933 32.7363C73.6152 32.7363 73.4372 32.6181 73.3778 32.4407C72.9821 31.3569 72.5469 30.2731 72.0523 29.209C71.9534 28.9923 72.0523 28.7164 72.2699 28.6179C72.4875 28.5193 72.7645 28.6179 72.8634 28.8346C73.358 29.8987 73.8328 31.0219 74.2285 32.1451C74.3076 32.3816 74.1889 32.6378 73.9515 32.7166C73.8922 32.7166 73.8328 32.7363 73.7933 32.7363Z" fill="#7FB5CE"/>
<path d="M30.4875 82.2779C30.4479 82.2779 30.4282 82.2779 30.3886 82.2779C29.7951 82.1595 29.2016 82.0212 28.6279 81.8633C28.3905 81.804 28.252 81.5473 28.3113 81.3103C28.3707 81.0734 28.6279 80.9352 28.8653 80.9944C29.439 81.1524 30.0127 81.2708 30.5864 81.4091C30.8238 81.4683 30.9821 81.7053 30.9425 81.9422C30.8832 82.1397 30.6853 82.2779 30.4875 82.2779Z" fill="#7FB5CE"/>
<path d="M6.09425 65.2355C5.93598 65.2355 5.7975 65.1565 5.71836 65.0183C5.40182 64.5048 5.08528 63.9716 4.80831 63.4582C4.68961 63.241 4.76874 62.9645 4.98636 62.8461C5.20398 62.7276 5.48096 62.8065 5.59966 63.0238C5.87663 63.5372 6.19317 64.0506 6.48993 64.5443C6.62841 64.7615 6.54928 65.038 6.35144 65.1565C6.25252 65.2157 6.17339 65.2355 6.09425 65.2355Z" fill="#7FB5CE"/>
<path d="M2.80928 58.55C2.63123 58.55 2.45317 58.4318 2.39382 58.2544C2.07728 57.4071 1.78053 56.5203 1.52334 55.6336C1.44421 55.3971 1.38486 55.141 1.32551 54.9045C1.26615 54.668 1.40464 54.4119 1.64205 54.3527C1.87945 54.2936 2.13663 54.4316 2.19599 54.668C2.25534 54.9045 2.33447 55.141 2.39382 55.3774C2.65101 56.2445 2.92798 57.0918 3.24452 57.9391C3.32366 58.1756 3.20495 58.4318 2.98733 58.5106C2.92798 58.55 2.86863 58.55 2.80928 58.55ZM0.692428 49.722C0.474808 49.722 0.276971 49.5446 0.237403 49.3279C0.0989178 48.1652 0.0197837 46.9829 0 45.8203C0 45.5642 0.197836 45.3671 0.43524 45.3671C0.672644 45.3671 0.890265 45.5642 0.890265 45.8006C0.910049 46.9435 0.989183 48.0864 1.12767 49.2293C1.14745 49.4658 0.989183 49.7023 0.731995 49.722C0.731995 49.722 0.712212 49.722 0.692428 49.722ZM0.75178 40.6181C0.731996 40.6181 0.712212 40.6181 0.692428 40.6181C0.455024 40.5787 0.276971 40.3619 0.296755 40.1255C0.455024 38.9628 0.652859 37.8002 0.910047 36.6573C0.969398 36.4209 1.2068 36.2632 1.44421 36.3223C1.68161 36.3814 1.83988 36.6179 1.78053 36.8544C1.52334 37.9579 1.32551 39.1008 1.18702 40.224C1.16724 40.4604 0.969401 40.6181 0.75178 40.6181ZM3.00712 31.8098C2.94777 31.8098 2.88841 31.8098 2.84885 31.7704C2.61144 31.6718 2.51252 31.4157 2.59166 31.1989C3.00712 30.1151 3.50171 29.0313 4.01609 27.9869C4.13479 27.7702 4.39198 27.6717 4.6096 27.7899C4.82722 27.9081 4.92613 28.1643 4.80743 28.3811C4.29306 29.4057 3.81825 30.4501 3.42258 31.5142C3.36322 31.7113 3.18517 31.8098 3.00712 31.8098ZM7.31996 23.8094C7.24082 23.8094 7.1419 23.7897 7.06277 23.7306C6.86493 23.5926 6.80558 23.3168 6.94407 23.1C7.61671 22.1541 8.34871 21.2083 9.10049 20.3215C9.25876 20.1245 9.53573 20.1048 9.73357 20.2624C9.9314 20.4201 9.95119 20.6959 9.79292 20.893C9.06092 21.76 8.34871 22.6665 7.69585 23.6123C7.59693 23.7306 7.45844 23.8094 7.31996 23.8094ZM13.4133 17.0505C13.2946 17.0505 13.1561 16.9913 13.077 16.8928C12.9187 16.7154 12.9385 16.4199 13.1166 16.2622C14.0068 15.4937 14.9367 14.7646 15.8863 14.0749C16.0841 13.937 16.3611 13.9764 16.5194 14.1735C16.6579 14.3705 16.6183 14.6464 16.4204 14.804C15.4906 15.474 14.5806 16.1834 13.7299 16.9322C13.6309 17.011 13.532 17.0505 13.4133 17.0505ZM20.9707 11.9467C20.8124 11.9467 20.6542 11.8482 20.575 11.7103C20.4563 11.4935 20.5552 11.2177 20.7729 11.0994C21.8214 10.5674 22.8897 10.0747 23.9778 9.64122C24.2152 9.54269 24.4724 9.66092 24.5515 9.89738C24.6505 10.1338 24.5318 10.39 24.2943 10.4688C23.226 10.9024 22.1775 11.3753 21.1685 11.8876C21.1092 11.9468 21.0498 11.9467 20.9707 11.9467ZM29.537 8.81359C29.3392 8.81359 29.1413 8.67566 29.1018 8.47861C29.0424 8.24214 29.2007 8.00567 29.4381 7.94656C30.5856 7.67068 31.7528 7.45393 32.9002 7.29628C33.1376 7.25687 33.3751 7.43421 33.4146 7.67068C33.4542 7.90714 33.2761 8.14361 33.0387 8.18302C31.9111 8.34067 30.7636 8.55742 29.6557 8.81359C29.6162 8.81359 29.5766 8.81359 29.537 8.81359ZM42.0997 8.00567C42.0799 8.00567 42.0601 8.00567 42.0601 8.00567C40.9126 7.88744 39.7652 7.82832 38.6177 7.80862C38.3605 7.80862 38.1627 7.61157 38.1825 7.3554C38.1825 7.11893 38.3803 6.92188 38.6375 6.92188C39.8047 6.94158 40.9918 7.0007 42.159 7.11893C42.3964 7.13863 42.5942 7.35539 42.5547 7.61156C42.5151 7.82832 42.3173 8.00567 42.0997 8.00567Z" fill="#7FB5CE"/>
<path d="M49.3996 9.48927C49.3601 9.48927 49.3007 9.48927 49.2611 9.46953C48.7072 9.2918 48.1335 9.13382 47.5597 8.97584C47.3223 8.9166 47.1838 8.65987 47.2432 8.4229C47.3026 8.18593 47.5597 8.0477 47.7971 8.10695C48.3907 8.26493 48.9644 8.4229 49.5381 8.60063C49.7755 8.67962 49.914 8.91659 49.8349 9.15356C49.7755 9.37078 49.5975 9.48927 49.3996 9.48927Z" fill="#7FB5CE"/>
<path d="M50.2506 18.6858C50.0923 18.5873 49.8747 18.607 49.7164 18.7252L45.5223 22.2919C43.0691 21.5234 40.4577 21.149 37.8067 21.2081L34.76 16.6168C34.661 16.4591 34.4632 16.3803 34.2654 16.4197L27.8555 18.0553C27.6774 18.0947 27.5389 18.272 27.5191 18.4494L27.0839 23.9275C24.7297 25.1492 22.6326 26.7454 20.8521 28.5977L15.4511 27.4942C15.2533 27.4548 15.0752 27.5336 14.9763 27.7109L11.6131 33.3861C11.5142 33.5437 11.5339 33.7605 11.6527 33.9181L15.2335 38.0957C14.4619 40.5392 14.086 43.1403 14.1454 45.7808L9.5358 48.8154C9.37753 48.914 9.2984 49.111 9.33796 49.3081L10.98 55.6926C11.0196 55.87 11.1976 56.0079 11.3757 56.0276L16.8755 56.4612C18.1021 58.8061 19.7046 60.8949 21.5643 62.6684L20.4564 68.0479C20.4168 68.245 20.4959 68.4224 20.674 68.5209L26.3717 71.8708C26.53 71.9693 26.7476 71.9496 26.9059 71.8314L31.1 68.2647C33.5532 69.0332 36.1646 69.4076 38.8156 69.3485L41.8623 73.9399C41.9612 74.0975 42.1591 74.1763 42.3569 74.1369L48.7668 72.5014C48.9449 72.462 49.0833 72.2846 49.1031 72.1073L49.5384 66.6292C51.8926 65.4074 53.9897 63.8113 55.7702 61.959L61.1712 63.0625C61.369 63.1019 61.547 63.0231 61.646 62.8457L65.0092 57.1706C65.1081 57.0129 65.0883 56.7962 64.9696 56.6385L61.3888 52.4609C62.1603 50.0175 62.5362 47.4164 62.4769 44.7758L67.0865 41.7412C67.2447 41.6427 67.3239 41.4456 67.2843 41.2486L65.6423 34.864C65.6027 34.6867 65.4246 34.5487 65.2466 34.529L59.7467 34.0955C58.5201 31.7505 56.9177 29.6618 55.058 27.8883L56.1659 22.5087C56.2055 22.3116 56.1263 22.1343 55.9483 22.0357L50.2506 18.6858Z" fill="#7FB5CE"/>
<path d="M38.3214 51.8104C37.7081 51.8104 37.075 51.7119 36.4617 51.5345C34.7801 51.0419 33.3952 49.9187 32.5643 48.4014C31.7334 46.8643 31.5356 45.1106 32.0302 43.4356C32.5248 41.7606 33.6524 40.3812 35.1758 39.5536C36.7189 38.726 38.4797 38.5289 40.1613 39.0216C41.8429 39.5142 43.2277 40.6374 44.0587 42.1547C44.8896 43.6918 45.0874 45.4455 44.5928 47.1205C44.0982 48.7955 42.9705 50.1748 41.4472 51.0025C40.458 51.5345 39.3897 51.8104 38.3214 51.8104ZM38.3016 40.0857C37.4509 40.0857 36.6002 40.3024 35.8089 40.7162C34.5823 41.3862 33.692 42.47 33.3161 43.81C32.9204 45.1302 33.0787 46.549 33.7316 47.7511C34.4042 48.9728 35.4923 49.8596 36.8376 50.234C38.1631 50.6281 39.5875 50.4704 40.7943 49.8202C42.0209 49.1502 42.9112 48.0664 43.2871 46.7264C43.6828 45.4061 43.5245 44.007 42.8716 42.7853C42.199 41.5636 41.1109 40.6768 39.7656 40.3024C39.2908 40.1645 38.7962 40.0857 38.3016 40.0857Z" fill="url(#paint0_linear_783_2366)"/>
<path d="M38.2426 61.9787C30.8237 61.9787 24.0577 56.9933 22.1189 49.5249C21.7628 48.1455 21.5847 46.7465 21.5847 45.3671C21.5847 42.431 22.3761 39.554 23.8994 36.9726C26.1547 33.1694 29.7752 30.4501 34.088 29.3466C35.2354 29.051 36.4225 28.8736 37.5897 28.8342L37.649 30.1742C36.5609 30.2136 35.4926 30.3713 34.4243 30.6471C34.2858 30.6866 34.1473 30.726 34.0286 30.7654C26.4317 32.933 21.7628 40.5195 23.207 48.2047C23.2663 48.5396 23.3455 48.8746 23.4246 49.2096C25.5217 57.348 33.8902 62.2743 42.0608 60.1658C48.9653 58.3923 53.5551 52.1852 53.5551 45.4065C53.5551 44.1454 53.3968 42.8842 53.0803 41.623C52.3879 38.9431 50.9832 36.5194 49.0247 34.5882L49.9743 33.6424C52.1109 35.7508 53.6342 38.3914 54.386 41.3078C54.7421 42.6871 54.9202 44.0665 54.9202 45.4262C54.9202 52.8157 49.9149 59.5747 42.4169 61.4861C41.0123 61.8211 39.6274 61.9787 38.2426 61.9787Z" fill="url(#paint1_linear_783_2366)"/>
<path d="M95.7529 10.5719C95.5947 10.5719 95.4562 10.4929 95.3771 10.3547C95.0803 9.86104 94.744 9.36736 94.4077 8.89343C94.2692 8.69596 94.3088 8.4195 94.5066 8.26152C94.7044 8.12329 94.9814 8.16279 95.1397 8.36026C95.4958 8.85393 95.8519 9.36736 96.1684 9.88078C96.3069 10.098 96.2277 10.3745 96.0101 10.4929C95.9112 10.5522 95.8321 10.5719 95.7529 10.5719Z" fill="#7FB5CE"/>
<path d="M81.9447 39.7314C81.727 39.7314 81.5292 39.5738 81.5094 39.357C81.4699 39.1206 81.6479 38.8841 81.8853 38.8447C82.7558 38.7265 83.6065 38.5294 84.4572 38.2929C84.754 38.2141 85.0507 38.1156 85.3475 38.0171C85.5849 37.9383 85.8421 38.0565 85.9212 38.2929C86.0003 38.5294 85.8816 38.7856 85.6442 38.8644C85.3475 38.9629 85.0309 39.0615 84.7144 39.16C83.8241 39.4161 82.9339 39.6132 82.0238 39.7511C81.9842 39.7314 81.9645 39.7314 81.9447 39.7314ZM90.7088 36.1451C90.5704 36.1451 90.4319 36.0859 90.3527 35.9677C90.2143 35.7707 90.2538 35.4948 90.4517 35.3371C91.4013 34.6277 92.2915 33.8395 93.1027 32.9725C93.2609 32.7951 93.5577 32.7754 93.7357 32.9528C93.9138 33.1104 93.9336 33.406 93.7555 33.5834C92.9048 34.4898 91.975 35.3174 90.9858 36.0662C90.8869 36.1056 90.8078 36.1451 90.7088 36.1451ZM96.7033 28.8541C96.6439 28.8541 96.5648 28.8343 96.5055 28.8146C96.2878 28.7161 96.1889 28.4402 96.2878 28.2235C96.8022 27.1594 97.1979 26.0362 97.4946 24.8932C97.554 24.6568 97.8112 24.5188 98.0486 24.578C98.286 24.6371 98.4245 24.8933 98.3651 25.1297C98.0486 26.3318 97.6331 27.4944 97.099 28.6176C97.0396 28.7555 96.8813 28.8541 96.7033 28.8541ZM98.5432 19.5925C98.3058 19.5925 98.1079 19.4151 98.0882 19.1787C98.0288 17.9963 97.8508 16.8337 97.5738 15.6711C97.5144 15.4347 97.6529 15.1982 97.9101 15.1391C98.1475 15.08 98.3849 15.2179 98.4443 15.4741C98.741 16.6761 98.9191 17.9175 98.9982 19.1393C99.018 19.3954 98.8202 19.5925 98.5827 19.6122C98.5432 19.5925 98.5432 19.5925 98.5432 19.5925Z" fill="#7FB5CE"/>
<path d="M76.0283 39.6941C76.0085 39.6941 75.9887 39.6941 75.9492 39.6941C75.3557 39.5954 74.7424 39.4769 74.1489 39.3189C73.9114 39.2596 73.773 39.0029 73.8323 38.7659C73.8917 38.529 74.1291 38.3907 74.3863 38.45C74.96 38.5882 75.5337 38.7264 76.1074 38.8054C76.3448 38.8449 76.5229 39.0819 76.4833 39.3189C76.4438 39.5361 76.2459 39.6941 76.0283 39.6941Z" fill="#7FB5CE"/>
<path d="M62.6338 30.7704C62.4756 30.7704 62.3371 30.6914 62.2579 30.5531C61.9414 30.0397 61.6446 29.4868 61.3677 28.9536C61.249 28.7364 61.3479 28.46 61.5655 28.3612C61.7831 28.2428 62.0601 28.3415 62.159 28.5587C62.4162 29.0721 62.713 29.6053 63.0097 30.099C63.1482 30.3162 63.0691 30.5926 62.8712 30.7111C62.7921 30.7506 62.713 30.7704 62.6338 30.7704Z" fill="#7FB5CE"/>
<path d="M59.9827 23.7107C59.7651 23.7107 59.5673 23.5531 59.5475 23.3364C59.3694 22.292 59.2903 21.2279 59.2903 20.1638C59.2903 20.0061 59.2903 19.8485 59.2903 19.6909C59.2903 19.4347 59.5079 19.2376 59.7453 19.2573C60.0025 19.2573 60.1805 19.4741 60.1805 19.7106C60.1805 19.8485 60.1805 20.0061 60.1805 20.1441C60.1805 21.149 60.2597 22.1737 60.4377 23.1787C60.4773 23.4152 60.319 23.6516 60.0618 23.691C60.0421 23.7107 60.0223 23.7107 59.9827 23.7107ZM60.7543 14.4492C60.7147 14.4492 60.6554 14.4492 60.6158 14.4295C60.3784 14.3507 60.2597 14.0945 60.3388 13.858C60.7345 12.7151 61.2291 11.5919 61.8226 10.5278C61.9413 10.3111 62.2183 10.2322 62.4359 10.3505C62.6535 10.4687 62.7326 10.7446 62.6139 10.9613C62.0402 11.9663 61.5654 13.0501 61.1895 14.1536C61.1104 14.331 60.9323 14.4492 60.7543 14.4492ZM65.7398 6.62615C65.6211 6.62615 65.5023 6.58674 65.4232 6.48821C65.2452 6.31086 65.2649 6.03498 65.443 5.85763C66.3333 5.0103 67.2829 4.2615 68.3116 3.59151C68.5095 3.45357 68.8062 3.51269 68.9249 3.72945C69.0634 3.94621 69.0041 4.22209 68.7864 4.34033C67.817 4.9709 66.8872 5.7 66.0563 6.50792C65.9772 6.58674 65.8585 6.62615 65.7398 6.62615ZM73.8313 2.01508C73.6334 2.01508 73.4554 1.87715 73.396 1.6998C73.3367 1.46333 73.4752 1.20716 73.7126 1.14805C74.8996 0.813055 76.1064 0.596291 77.3132 0.478058C77.5704 0.458353 77.788 0.635701 77.8078 0.872166C77.8276 1.10863 77.6495 1.3451 77.4121 1.3648C76.2647 1.48303 75.0974 1.69979 73.9698 2.01508C73.9104 2.01508 73.8708 2.01508 73.8313 2.01508Z" fill="#7FB5CE"/>
<path d="M84.8908 2.13694C84.8512 2.13694 84.7919 2.13693 84.7523 2.11719C84.1984 1.93946 83.6246 1.80124 83.0509 1.68276C82.8135 1.62352 82.6552 1.38655 82.6948 1.14958C82.7541 0.912615 82.9915 0.75464 83.229 0.794134C83.8225 0.912617 84.416 1.07059 85.0095 1.24832C85.2469 1.32731 85.3854 1.56427 85.3063 1.80124C85.2667 2.01846 85.0887 2.13694 84.8908 2.13694Z" fill="#7FB5CE"/>
<path d="M85.3265 6.64573C85.2474 6.58662 85.1287 6.60633 85.0496 6.66545L82.8932 8.49804C81.627 8.10394 80.3015 7.90689 78.9364 7.9463L77.3735 5.60135C77.3142 5.52253 77.2152 5.48312 77.1163 5.50282L73.8322 6.35015C73.7333 6.36986 73.674 6.44868 73.6542 6.54721L73.4366 9.36509C72.2298 9.99566 71.1614 10.8036 70.2316 11.7691L67.4619 11.1977C67.363 11.178 67.2641 11.2174 67.2245 11.3159L65.5033 14.2323C65.444 14.3111 65.4638 14.4294 65.5231 14.5082L67.363 16.6561C66.9673 17.9172 66.7695 19.2375 66.809 20.5972L64.4548 22.1539C64.3757 22.213 64.3361 22.3115 64.3559 22.41L65.2066 25.6811C65.2264 25.7797 65.3055 25.8388 65.4044 25.8585L68.2335 26.0752C68.8665 27.2773 69.6777 28.3414 70.6471 29.2675L70.0733 32.0263C70.0536 32.1248 70.0931 32.2233 70.1921 32.2627L73.12 33.9771C73.1992 34.0362 73.3179 34.0165 73.397 33.9574L75.5534 32.1248C76.8196 32.5189 78.1451 32.7159 79.5102 32.6765L81.0731 35.0215C81.1324 35.1003 81.2313 35.1397 81.3303 35.12L84.6143 34.2727C84.7133 34.253 84.7726 34.1742 84.7924 34.0756L85.01 31.2578C86.2168 30.6272 87.2851 29.8193 88.215 28.8537L90.9847 29.4251C91.0836 29.4449 91.1825 29.4054 91.2221 29.3069L92.9433 26.3905C93.0026 26.3117 92.9828 26.1935 92.9235 26.1147L91.0836 23.9668C91.4793 22.7056 91.6771 21.3854 91.6375 20.0257L93.9918 18.469C94.0709 18.4098 94.1105 18.3113 94.0907 18.2128L93.24 14.9417C93.2202 14.8432 93.1411 14.7841 93.0422 14.7644L90.2131 14.5476C89.58 13.3456 88.7689 12.2815 87.7995 11.3553L88.3732 8.59657C88.393 8.49804 88.3535 8.39952 88.2545 8.3601L85.3265 6.64573Z" fill="#7FB5CE"/>
<path d="M79.1937 23.9866C78.8376 23.9866 78.4815 23.9275 78.1452 23.829C77.1956 23.5531 76.4241 22.9225 75.9493 22.0555C74.9799 20.282 75.6327 18.0356 77.433 17.07C79.2135 16.1045 81.4689 16.7548 82.4383 18.5479C82.9131 19.415 83.012 20.4002 82.735 21.3461C82.458 22.2919 81.825 23.0605 80.9545 23.5334C80.4006 23.829 79.807 23.9866 79.1937 23.9866ZM79.1937 17.9765C78.8179 17.9765 78.4222 18.075 78.0661 18.2524C76.9384 18.8632 76.5032 20.282 77.1363 21.4249C77.7496 22.5481 79.174 22.9816 80.3214 22.3511C80.8754 22.0555 81.271 21.5628 81.4491 20.952C81.6271 20.3608 81.5678 19.7302 81.2512 19.1785C80.8358 18.41 80.0247 17.9765 79.1937 17.9765Z" fill="url(#paint2_linear_783_2366)"/>
<path d="M79.1553 29.2281C77.5924 29.2281 76.0493 28.8143 74.6446 27.9867C72.6069 26.7846 71.1627 24.8732 70.5692 22.5677C70.3714 21.8386 70.2922 21.0898 70.2922 20.3607C70.2922 16.4196 72.963 12.8135 76.9593 11.7888C76.9791 11.7888 76.9989 11.7888 77.0187 11.7691C77.5726 11.6312 78.1464 11.5524 78.7201 11.5129C78.7597 11.5129 78.7992 11.5129 78.8388 11.5129L78.8981 12.8529C78.364 12.8726 77.8298 12.9514 77.3154 13.0894C73.2994 14.1141 70.866 18.2128 71.8947 22.2327C72.3893 24.1638 73.6159 25.7994 75.3569 26.824C77.0978 27.8487 79.1158 28.1246 81.0546 27.6319C84.4574 26.7649 86.7127 23.7106 86.7127 20.3607C86.7127 19.7498 86.6336 19.1192 86.4753 18.4886C86.139 17.1684 85.4465 15.9664 84.4771 15.0205L85.4267 14.0746C86.5742 15.1978 87.3853 16.6166 87.781 18.1537C87.9788 18.8828 88.058 19.6316 88.058 20.3607C88.058 24.3017 85.3872 27.9078 81.3909 28.9325C80.6391 29.1296 79.8873 29.2281 79.1553 29.2281Z" fill="url(#paint3_linear_783_2366)"/>
<defs>
<linearGradient id="paint0_linear_783_2366" x1="31.7534" y1="45.2792" x2="44.8617" y2="45.2792" gradientUnits="userSpaceOnUse">
<stop stop-color="#DAE3FE"/>
<stop offset="1" stop-color="#E9EFFD"/>
</linearGradient>
<linearGradient id="paint1_linear_783_2366" x1="21.5938" y1="45.4112" x2="54.8944" y2="45.4112" gradientUnits="userSpaceOnUse">
<stop stop-color="#DAE3FE"/>
<stop offset="1" stop-color="#E9EFFD"/>
</linearGradient>
<linearGradient id="paint2_linear_783_2366" x1="75.5" y1="20.3094" x2="82.8864" y2="20.3094" gradientUnits="userSpaceOnUse">
<stop stop-color="#DAE3FE"/>
<stop offset="1" stop-color="#E9EFFD"/>
</linearGradient>
<linearGradient id="paint3_linear_783_2366" x1="70.2823" y1="20.3773" x2="88.0408" y2="20.3773" gradientUnits="userSpaceOnUse">
<stop stop-color="#DAE3FE"/>
<stop offset="1" stop-color="#E9EFFD"/>
</linearGradient>
</defs>
</svg>
