<svg width="203" height="216" viewBox="0 0 203 216" fill="none" xmlns="http://www.w3.org/2000/svg">
<path d="M199.413 141.402C202.437 140.982 158.53 127.141 119.464 85.3076C101.048 65.5942 82.3316 37.9698 62.5415 35.7902C46.0663 33.9726 14.1766 63.555 3.94423 73.5285C2.66432 74.7739 3.41926 76.9458 5.191 77.1314C13.961 78.0598 33.4107 81.0752 44.0512 90.1318C58.091 102.069 78.4086 101.999 92.6573 96.106C106.906 90.2125 115.54 87.9752 135.152 103.88C154.79 119.781 190.835 142.58 199.413 141.402Z" fill="#AEC8D7"/>
<path opacity="0.5" d="M24.5543 68.7138C39.8673 59.3217 60.4319 55.3555 77.1303 62.6198L78.7136 63.317C82.4038 64.9813 106.088 78.46 122.99 91.4945C123.206 91.6603 123.245 91.9597 123.072 92.1648C122.797 92.527 122.356 92.2465 122.414 92.2667C112.142 85.4041 98.4585 77.1346 87.9561 71.1379C76.5805 64.5291 68.7614 60.1334 53.6166 61.0775C36.9108 62.3456 24.899 69.3999 24.9365 69.3895C24.7493 69.4858 24.5136 69.4222 24.4171 69.2354C24.3206 69.0486 24.3842 68.8134 24.5543 68.7138Z" fill="white"/>
<path d="M191.877 152.16C193.705 151.967 174.399 142.621 164.583 129.56C154.768 116.498 136.118 95.4735 115.113 89.5201C94.1085 83.5667 80.4532 90.9116 72.814 114.302C66.4411 133.791 61.6246 144.713 57.3779 148.99C56.329 150.05 56.635 151.843 57.9556 152.525C65.0205 156.199 82.924 163.512 97.2565 152.514C115.539 138.49 130.306 110.544 144.335 116.139C158.364 121.734 161.362 128.128 164.887 132.864C168.405 137.635 179.798 153.471 191.877 152.16Z" fill="#A3BDCC"/>
<path opacity="0.5" d="M89.4316 127.237C91.4949 117.707 97.31 105.802 106.329 101.233C118.34 95.6901 130.428 98.0602 141.611 106.162C146.232 109.688 148.508 111.696 153.199 116.686C153.573 117.086 152.999 117.664 152.601 117.295C150.164 115.114 147.654 112.804 144.756 110.621C126.644 96.1033 112.799 101.829 112.075 101.768C111.219 102.477 102.809 102.06 94.3633 118.088C92.792 121.099 91.4228 124.255 90.3097 127.461L90.3064 127.478C90.2257 127.71 89.9704 127.837 89.7379 127.757C89.5021 127.693 89.3781 127.465 89.4316 127.237Z" fill="white"/>
</svg>
