<svg width="84" height="88" viewBox="0 0 84 88" fill="none" xmlns="http://www.w3.org/2000/svg">
<path d="M1.18922 79.0103C1.18922 79.0103 1.16255 78.7853 1.12714 78.3699C1.1202 78.2888 1.13648 78.2074 1.1741 78.1352C1.21172 78.063 1.2691 78.0031 1.33954 77.9623C1.40998 77.9216 1.49057 77.9017 1.57187 77.9051C1.65317 77.9085 1.73182 77.935 1.79862 77.9814C1.91379 77.83 2.04612 77.6595 2.19437 77.4749C2.22959 77.4309 2.27313 77.3943 2.3225 77.3672C2.37187 77.3401 2.4261 77.323 2.48208 77.3169C2.53807 77.3107 2.59471 77.3157 2.64877 77.3315C2.70283 77.3473 2.75325 77.3736 2.79713 77.4089C2.84102 77.4442 2.87752 77.4878 2.90454 77.5372C2.93156 77.5867 2.94857 77.6409 2.9546 77.6969C2.96063 77.753 2.95557 77.8096 2.93969 77.8637C2.92381 77.9177 2.89744 77.9681 2.86207 78.0119C2.44439 78.5316 2.16732 78.9225 2.03427 79.1101C1.99584 79.1639 1.96954 79.2011 1.9553 79.2195L1.3142 80.0597L1.18922 79.0103ZM0.995843 76.2089C0.967733 75.5001 0.952684 74.7733 0.951122 74.0485C0.950962 73.9922 0.9619 73.9364 0.983308 73.8843C1.00472 73.8322 1.03618 73.7849 1.07589 73.745C1.1156 73.7051 1.16279 73.6734 1.21476 73.6517C1.26672 73.63 1.32244 73.6188 1.37874 73.6187C1.43503 73.6186 1.4908 73.6296 1.54284 73.6511C1.59489 73.6725 1.6422 73.704 1.68206 73.7438C1.72192 73.7836 1.75356 73.8308 1.77516 73.8828C1.79677 73.9348 1.80791 73.9905 1.80796 74.0468C1.80969 74.7604 1.82449 75.4768 1.85186 76.1751C1.85411 76.2314 1.84526 76.2875 1.82582 76.3403C1.80637 76.3931 1.77671 76.4416 1.73853 76.483C1.70035 76.5243 1.6544 76.5578 1.6033 76.5813C1.5522 76.6049 1.49696 76.6182 1.44072 76.6204C1.38449 76.6226 1.32838 76.6138 1.27558 76.5943C1.22279 76.5748 1.17435 76.5451 1.13303 76.5069C1.09172 76.4687 1.05834 76.4227 1.0348 76.3715C1.01126 76.3204 0.998021 76.2651 0.995843 76.2089ZM3.64895 76.4418C3.60855 76.4027 3.57627 76.3559 3.55394 76.3042C3.53161 76.2526 3.51967 76.197 3.5188 76.1408C3.51793 76.0845 3.52815 76.0286 3.54888 75.9763C3.56961 75.924 3.60044 75.8762 3.63961 75.8358C4.14669 75.3112 4.68023 74.8128 5.23815 74.3426C5.2812 74.3064 5.33096 74.279 5.38459 74.262C5.43822 74.2451 5.49467 74.2388 5.55071 74.2437C5.60675 74.2485 5.66129 74.2643 5.71121 74.2903C5.76113 74.3162 5.80545 74.3517 5.84164 74.3948C5.87784 74.4379 5.90519 74.4876 5.92215 74.5413C5.9391 74.5949 5.94533 74.6514 5.94046 74.7075C5.9356 74.7635 5.91974 74.8181 5.89379 74.868C5.86785 74.9179 5.83233 74.9622 5.78925 74.9984C5.25373 75.45 4.74158 75.9286 4.2548 76.4324C4.17569 76.514 4.06742 76.5608 3.95381 76.5626C3.8402 76.5644 3.73054 76.5209 3.64895 76.4418ZM6.87447 73.6266C6.81277 73.5311 6.7915 73.415 6.81536 73.3038C6.83921 73.1927 6.90623 73.0955 7.00168 73.0338C7.61942 72.6322 8.26724 72.279 8.93935 71.9772C8.99073 71.9543 9.04612 71.9418 9.10235 71.9403C9.15858 71.9388 9.21455 71.9484 9.26707 71.9686C9.31958 71.9887 9.36761 72.019 9.40841 72.0577C9.44922 72.0965 9.482 72.1429 9.50488 72.1943C9.52776 72.2457 9.5403 72.3011 9.54178 72.3573C9.54325 72.4136 9.53364 72.4695 9.51349 72.5221C9.49333 72.5746 9.46303 72.6226 9.42431 72.6635C9.3856 72.7043 9.33922 72.7371 9.28784 72.76C8.65608 73.0437 8.04726 73.376 7.46683 73.7538C7.37138 73.8155 7.25538 73.8367 7.14431 73.8128C7.03325 73.7889 6.93619 73.7219 6.87447 73.6266ZM0.984732 71.8897C1.00894 71.1652 1.04667 70.4393 1.09682 69.7329C1.10078 69.6767 1.11576 69.6219 1.14091 69.5716C1.16605 69.5212 1.20087 69.4763 1.24336 69.4394C1.28586 69.4025 1.3352 69.3744 1.38857 69.3566C1.44195 69.3388 1.49831 69.3317 1.55443 69.3356C1.61055 69.3396 1.66534 69.3546 1.71566 69.3798C1.76598 69.405 1.81085 69.4398 1.8477 69.4823C1.88456 69.5249 1.91268 69.5742 1.93045 69.6276C1.94823 69.681 1.95531 69.7374 1.9513 69.7935C1.90215 70.4895 1.86501 71.2043 1.84107 71.9181C1.8392 71.9743 1.82627 72.0297 1.80301 72.0809C1.77975 72.1322 1.74662 72.1784 1.70552 72.2168C1.66442 72.2553 1.61614 72.2853 1.56345 72.305C1.51076 72.3248 1.45469 72.334 1.39845 72.3321C1.36874 72.3311 1.33921 72.327 1.31033 72.32C1.21499 72.2964 1.13062 72.2408 1.07135 72.1625C1.01208 72.0842 0.981504 71.9879 0.984732 71.8897ZM10.7216 71.7795C10.7088 71.7247 10.707 71.668 10.7162 71.6125C10.7254 71.5569 10.7454 71.5038 10.7752 71.456C10.8049 71.4083 10.8438 71.3668 10.8895 71.3341C10.9353 71.3014 10.9871 71.278 11.0418 71.2653C11.5586 71.1445 12.084 71.064 12.6132 71.0245C12.819 71.0095 13.0183 70.9912 13.2113 70.9697C13.3242 70.9574 13.4373 70.9904 13.5259 71.0614C13.6145 71.1325 13.6712 71.2358 13.6837 71.3487C13.6962 71.4616 13.6634 71.5749 13.5924 71.6636C13.5215 71.7523 13.4183 71.8092 13.3054 71.8219C13.1019 71.8443 12.892 71.8635 12.6757 71.8793C12.1908 71.9156 11.7095 71.9893 11.2359 72.0998C11.1705 72.1152 11.1024 72.1149 11.0371 72.0988C10.9602 72.08 10.8899 72.0402 10.8342 71.9839C10.7785 71.9275 10.7395 71.8568 10.7216 71.7795ZM19.0435 73.0332C19.0539 72.9514 19.0878 72.8742 19.141 72.8112C19.1942 72.7481 19.2646 72.7018 19.3435 72.6777C19.5708 72.359 19.8857 72.0835 20.3109 71.8246C20.3589 71.7953 20.4122 71.7757 20.4678 71.767C20.5234 71.7583 20.5802 71.7607 20.6349 71.7739C20.6895 71.7872 20.7411 71.8111 20.7865 71.8443C20.832 71.8775 20.8704 71.9193 20.8997 71.9674C20.9289 72.0154 20.9485 72.0688 20.9571 72.1244C20.9657 72.18 20.9633 72.2368 20.95 72.2915C20.9367 72.3462 20.9128 72.3977 20.8796 72.4431C20.8463 72.4885 20.8045 72.527 20.7564 72.5562C20.2409 72.8705 19.9626 73.1857 19.8257 73.6101L18.9932 73.4225L19.0435 73.0332ZM14.9465 71.1165C14.9157 71.0071 14.9296 70.8899 14.9851 70.7907C15.0406 70.6916 15.1332 70.6185 15.2425 70.5876C15.9474 70.3888 16.5748 70.1265 17.1073 69.8082C17.2049 69.75 17.3216 69.7329 17.4318 69.7607C17.542 69.7885 17.6366 69.859 17.6949 69.9566C17.7531 70.0542 17.7702 70.171 17.7424 70.2812C17.7146 70.3914 17.6441 70.4861 17.5465 70.5444C16.9495 70.9011 16.2525 71.1932 15.4751 71.4126C15.3658 71.4434 15.2486 71.4295 15.1495 71.374C15.0504 71.3185 14.9773 71.2258 14.9465 71.1165ZM1.29006 67.5809C1.36871 66.862 1.46301 66.141 1.56958 65.4381C1.57793 65.3824 1.59719 65.3288 1.62625 65.2805C1.65532 65.2322 1.69361 65.1902 1.73895 65.1567C1.78429 65.1232 1.83578 65.0991 1.89048 65.0855C1.94517 65.072 2.002 65.0694 2.0577 65.0779C2.1134 65.0863 2.16689 65.1057 2.2151 65.1348C2.26331 65.164 2.3053 65.2024 2.33865 65.2478C2.37201 65.2932 2.39609 65.3448 2.40951 65.3995C2.42292 65.4543 2.42542 65.5111 2.41684 65.5668C2.31175 66.258 2.21915 66.967 2.14159 67.6745C2.13547 67.7304 2.1184 67.7846 2.09135 67.8339C2.06429 67.8832 2.02779 67.9267 1.98393 67.9619C1.94007 67.9971 1.8897 68.0234 1.8357 68.0391C1.78171 68.0549 1.72514 68.0598 1.66924 68.0537C1.65031 68.0516 1.63154 68.0482 1.61304 68.0437C1.5123 68.0188 1.42403 67.9581 1.36463 67.873C1.30523 67.7879 1.27873 67.6841 1.29006 67.5809ZM19.2994 70.9054C19.392 70.0834 19.4646 69.3683 19.5149 68.7795C19.5196 68.7234 19.5354 68.6688 19.5612 68.6188C19.5871 68.5688 19.6225 68.5243 19.6655 68.488C19.7085 68.4517 19.7583 68.4243 19.8119 68.4072C19.8655 68.3901 19.922 68.3838 19.9781 68.3886C20.0342 68.3933 20.0888 68.4091 20.1388 68.435C20.1887 68.4609 20.2331 68.4964 20.2694 68.5394C20.3057 68.5825 20.3331 68.6322 20.3501 68.6859C20.3671 68.7396 20.3734 68.7961 20.3686 68.8521C20.3176 69.4488 20.2444 70.1717 20.1509 71.0015C20.1381 71.1144 20.081 71.2177 19.9922 71.2886C19.9033 71.3594 19.79 71.3921 19.677 71.3794C19.6587 71.3771 19.6404 71.3738 19.6224 71.3695C19.5214 71.3445 19.4329 71.2837 19.3735 71.1983C19.314 71.1129 19.2877 71.0088 19.2994 70.9054ZM22.0724 71.4426C22.0262 71.3388 22.0231 71.2209 22.0638 71.1148C22.1045 71.0087 22.1856 70.923 22.2893 70.8767C22.8623 70.6209 23.4881 70.332 24.1812 69.9523C24.2306 69.9253 24.2848 69.9083 24.3407 69.9022C24.3966 69.8961 24.4532 69.901 24.5072 69.9168C24.5612 69.9326 24.6116 69.9589 24.6555 69.9941C24.6993 70.0294 24.7358 70.0729 24.7628 70.1223C24.7899 70.1716 24.8069 70.2258 24.813 70.2818C24.8191 70.3377 24.8141 70.3943 24.7983 70.4484C24.7825 70.5024 24.7563 70.5528 24.721 70.5967C24.6858 70.6405 24.6423 70.677 24.5929 70.7041C23.8729 71.0987 23.228 71.3963 22.6383 71.6596C22.5345 71.7058 22.4165 71.709 22.3104 71.6683C22.2043 71.6276 22.1187 71.5464 22.0724 71.4426ZM18.6614 69.109C18.6163 69.0754 18.5783 69.0333 18.5494 68.985C18.5206 68.9367 18.5016 68.8832 18.4934 68.8275C18.4853 68.7719 18.4882 68.7152 18.502 68.6606C18.5158 68.6061 18.5401 68.5548 18.5738 68.5097C18.9847 67.9578 19.1795 67.4307 19.3085 67.0819C19.3629 66.9345 19.4085 66.8156 19.4506 66.7315C19.4701 66.6924 19.4918 66.6544 19.5156 66.6178C19.5467 66.5717 19.5868 66.5323 19.6333 66.5019C19.6799 66.4715 19.732 66.4507 19.7867 66.4407C19.8414 66.4307 19.8975 66.4317 19.9518 66.4436C20.0061 66.4556 20.0575 66.4783 20.1029 66.5104C20.1971 66.5766 20.2617 66.677 20.2829 66.7903C20.304 66.9035 20.28 67.0206 20.216 67.1164C20.1847 67.179 20.153 67.269 20.1121 67.3792C19.975 67.7501 19.7456 68.3708 19.2611 69.0214C19.2275 69.0666 19.1853 69.1047 19.137 69.1336C19.0887 69.1625 19.0351 69.1815 18.9794 69.1896C18.9237 69.1978 18.867 69.1948 18.8124 69.181C18.7578 69.1672 18.7065 69.1427 18.6614 69.109ZM1.9431 63.3071C2.06934 62.6736 2.20918 62.0431 2.35872 61.4338L2.41793 61.1954C2.44553 61.0855 2.51556 60.9909 2.6127 60.9324C2.70983 60.874 2.82615 60.8564 2.93621 60.8836L2.93783 60.884C3.04799 60.9116 3.14266 60.9819 3.20101 61.0794C3.25937 61.1769 3.27663 61.2936 3.249 61.4038L3.19081 61.6381C3.04433 62.2351 2.90731 62.8531 2.78337 63.4746C2.77238 63.5298 2.75063 63.5823 2.71937 63.6291C2.6881 63.6758 2.64792 63.716 2.60114 63.7473C2.55435 63.7785 2.50186 63.8002 2.44668 63.8112C2.39149 63.8222 2.33469 63.8221 2.27952 63.8111C2.2731 63.81 2.26694 63.8085 2.2607 63.8069C2.15359 63.7806 2.06079 63.7139 2.00162 63.6208C1.94245 63.5277 1.92149 63.4153 1.9431 63.3071ZM25.8532 69.4446C25.788 69.3515 25.7624 69.2363 25.782 69.1244C25.8017 69.0125 25.8649 68.9129 25.9579 68.8476C26.5296 68.4453 27.0802 68.0139 27.6077 67.5553C27.6935 67.4808 27.8054 67.4434 27.9187 67.4515C28.0321 67.4595 28.1375 67.5122 28.212 67.598C28.2865 67.6838 28.3238 67.7957 28.3158 67.9091C28.3077 68.0224 28.255 68.128 28.1692 68.2024C27.6195 68.6804 27.0457 69.13 26.45 69.5493C26.357 69.6145 26.2418 69.6401 26.1299 69.6205C26.018 69.6008 25.9185 69.5376 25.8532 69.4446ZM29.1422 66.7129C29.0604 66.634 29.0133 66.5258 29.0112 66.4122C29.0091 66.2985 29.0523 66.1887 29.1311 66.1069C29.2351 65.9993 29.3395 65.8893 29.4443 65.777C29.816 65.3797 30.1647 64.9615 30.4886 64.5243C30.5563 64.4331 30.6574 64.3725 30.7697 64.3559C30.8821 64.3392 30.9964 64.3678 31.0877 64.4354C31.1789 64.5031 31.2396 64.6042 31.2564 64.7165C31.2732 64.8289 31.2446 64.9433 31.1771 65.0347C30.8338 65.4979 30.4643 65.9411 30.0705 66.3621C29.9624 66.4778 29.8549 66.5911 29.7479 66.7022C29.7089 66.7427 29.6622 66.7751 29.6106 66.7975C29.559 66.82 29.5035 66.8321 29.4473 66.8331C29.391 66.8341 29.3351 66.824 29.2828 66.8033C29.2304 66.7827 29.1827 66.752 29.1422 66.7129ZM3.28535 59.6468C3.17691 59.6129 3.08635 59.5374 3.03358 59.4367C2.98081 59.3361 2.97014 59.2186 3.00394 59.1102C3.22211 58.4101 3.46052 57.7205 3.71216 57.0601C3.73218 57.0075 3.76236 56.9594 3.80098 56.9185C3.8396 56.8775 3.88589 56.8446 3.93723 56.8216C3.98857 56.7986 4.04393 56.7859 4.10017 56.7843C4.1564 56.7827 4.2124 56.7922 4.26497 56.8122C4.31754 56.8322 4.36564 56.8624 4.40654 56.9011C4.44743 56.9397 4.48032 56.986 4.50332 57.0374C4.52631 57.0888 4.53897 57.1441 4.54056 57.2004C4.54215 57.2566 4.53265 57.3126 4.5126 57.3652C4.26735 58.0091 4.0348 58.682 3.82187 59.3653C3.78944 59.4694 3.71856 59.5572 3.62367 59.6108C3.52878 59.6645 3.41702 59.6799 3.31115 59.654C3.30266 59.6519 3.29398 59.6494 3.28535 59.6468ZM31.7733 63.347C31.6728 63.2939 31.5976 63.2031 31.5641 63.0945C31.5306 62.9859 31.5416 62.8685 31.5947 62.768C31.9182 62.1553 32.1948 61.5189 32.4222 60.8645C32.4596 60.7571 32.538 60.669 32.6402 60.6194C32.7425 60.5699 32.8603 60.5631 32.9676 60.6004C33.0749 60.6377 33.163 60.7161 33.2125 60.8184C33.262 60.9207 33.2689 61.0385 33.2316 61.1459C32.9898 61.8413 32.6959 62.5175 32.3524 63.1686C32.3261 63.2184 32.2903 63.2625 32.2469 63.2984C32.2036 63.3344 32.1536 63.3614 32.0998 63.378C32.046 63.3945 31.9895 63.4003 31.9335 63.395C31.8774 63.3897 31.823 63.3734 31.7733 63.347ZM4.76333 55.6268C4.66025 55.579 4.58038 55.4921 4.54127 55.3854C4.50217 55.2787 4.50702 55.1608 4.55476 55.0576C4.86314 54.3918 5.19586 53.74 5.54336 53.1199C5.59905 53.0209 5.69177 52.948 5.80115 52.9173C5.91052 52.8867 6.0276 52.9007 6.12665 52.9563C6.22571 53.0119 6.29863 53.1046 6.3294 53.2139C6.36017 53.3233 6.34626 53.4404 6.29074 53.5396C5.9539 54.1399 5.63137 54.7721 5.33212 55.4183C5.28423 55.5213 5.19745 55.6011 5.09082 55.6402C4.98419 55.6793 4.86641 55.6745 4.76333 55.6268ZM32.9586 58.8562C33.0886 58.1737 33.1712 57.4829 33.2058 56.789C33.2115 56.6755 33.2621 56.5689 33.3463 56.4926C33.4306 56.4164 33.5417 56.3767 33.6552 56.3824C33.7687 56.3881 33.8753 56.4387 33.9515 56.523C34.0277 56.6073 34.0673 56.7184 34.0616 56.8319C34.025 57.5655 33.9376 58.2956 33.8001 59.0171C33.7788 59.1287 33.714 59.2273 33.62 59.2912C33.526 59.355 33.4105 59.379 33.2989 59.3577C33.2915 59.3563 33.2842 59.3545 33.2769 59.3527C33.1703 59.3265 33.0779 59.2604 33.0187 59.168C32.9595 59.0756 32.938 58.964 32.9586 58.8562ZM6.80223 51.863C6.75571 51.8314 6.71588 51.7909 6.68501 51.7439C6.65415 51.6968 6.63286 51.6441 6.62236 51.5889C6.61186 51.5336 6.61236 51.4768 6.62382 51.4217C6.63529 51.3666 6.65749 51.3143 6.68917 51.2678C7.10235 50.6612 7.54327 50.0748 7.99992 49.5246C8.03583 49.4813 8.07991 49.4455 8.12966 49.4193C8.1794 49.393 8.23383 49.3768 8.28984 49.3715C8.34585 49.3663 8.40234 49.3722 8.45608 49.3888C8.50982 49.4054 8.55976 49.4325 8.60305 49.4684C8.64634 49.5043 8.68213 49.5484 8.70838 49.5982C8.73463 49.6479 8.75082 49.7024 8.75603 49.7584C8.76124 49.8144 8.75536 49.8709 8.73874 49.9247C8.72211 49.9784 8.69506 50.0284 8.65914 50.0717C8.21986 50.6012 7.7952 51.1662 7.39745 51.7502C7.36581 51.7967 7.32531 51.8366 7.27826 51.8675C7.2312 51.8983 7.17852 51.9196 7.12323 51.9301C7.06795 51.9406 7.01113 51.9401 6.95605 51.9286C6.90097 51.917 6.8487 51.8948 6.80223 51.863ZM33.168 54.707C33.0759 53.6649 32.898 52.9657 32.8347 52.7985L32.371 51.9716C32.3434 51.9225 32.3258 51.8684 32.3192 51.8126C32.3125 51.7567 32.3169 51.7 32.3322 51.6458C32.3474 51.5916 32.3732 51.541 32.408 51.4968C32.4428 51.4525 32.486 51.4156 32.5351 51.3881C32.5842 51.3606 32.6382 51.343 32.6941 51.3364C32.75 51.3297 32.8066 51.3342 32.8608 51.3495C32.9149 51.3647 32.9656 51.3905 33.0097 51.4254C33.0539 51.4602 33.0908 51.5034 33.1183 51.5526L33.5712 52.3601L33.5646 52.3637C33.8657 52.906 34.0198 54.6123 34.0214 54.6313C34.0264 54.6874 34.0203 54.7439 34.0034 54.7975C33.9866 54.8512 33.9593 54.9011 33.9232 54.9442C33.8871 54.9874 33.8428 55.023 33.793 55.049C33.7431 55.0751 33.6886 55.091 33.6325 55.096C33.5765 55.101 33.52 55.0949 33.4664 55.078C33.4127 55.0611 33.3629 55.0339 33.3197 54.9978C33.2766 54.9616 33.241 54.9174 33.215 54.8675C33.1889 54.8176 33.173 54.7631 33.168 54.707ZM9.47255 48.5223C9.43316 48.4821 9.40208 48.4346 9.38107 48.3823C9.36007 48.3301 9.34956 48.2743 9.35013 48.218C9.35071 48.1617 9.36236 48.1061 9.38443 48.0544C9.4065 48.0026 9.43855 47.9557 9.47875 47.9163C9.99972 47.4059 10.5477 46.9239 11.1203 46.4724C11.2097 46.4024 11.3232 46.3707 11.4359 46.3843C11.5485 46.3979 11.6512 46.4557 11.7214 46.5449C11.7915 46.6342 11.8235 46.7476 11.8101 46.8604C11.7968 46.9731 11.7392 47.076 11.6502 47.1464C11.1017 47.5784 10.577 48.0399 10.0784 48.5288C10.0382 48.5682 9.99062 48.5993 9.93841 48.6203C9.8862 48.6412 9.83037 48.6517 9.77411 48.6511C9.71785 48.6505 9.66226 48.6388 9.61052 48.6167C9.55878 48.5946 9.51189 48.5625 9.47255 48.5223ZM12.7726 45.8064C12.7428 45.7586 12.7228 45.7054 12.7136 45.6499C12.7045 45.5944 12.7063 45.5376 12.7191 45.4828C12.7319 45.428 12.7553 45.3762 12.7881 45.3305C12.8209 45.2847 12.8624 45.2459 12.9101 45.2162C13.5293 44.8311 14.169 44.4799 14.8262 44.1642C14.9286 44.115 15.0464 44.1085 15.1536 44.1461C15.2608 44.1838 15.3487 44.2625 15.3979 44.365C15.447 44.4675 15.4535 44.5853 15.4158 44.6925C15.3782 44.7998 15.2995 44.8877 15.197 44.9369C14.5679 45.239 13.9556 45.5751 13.3628 45.9435C13.2663 46.0036 13.1499 46.0229 13.0393 45.9972C12.9286 45.9715 12.8326 45.9028 12.7726 45.8064ZM31.3226 50.1034L30.2745 48.2349C30.247 48.1858 30.2293 48.1317 30.2227 48.0758C30.216 48.0199 30.2204 47.9632 30.2356 47.909C30.2509 47.8548 30.2766 47.8042 30.3114 47.7599C30.3462 47.7157 30.3894 47.6787 30.4385 47.6512C30.4875 47.6236 30.5416 47.606 30.5974 47.5993C30.6533 47.5926 30.71 47.597 30.7642 47.6122C30.8184 47.6275 30.869 47.6532 30.9132 47.688C30.9575 47.7228 30.9944 47.766 31.022 47.8151L32.0701 49.6836C32.1257 49.7827 32.1397 49.8999 32.109 50.0094C32.0782 50.1189 32.0053 50.2117 31.9061 50.2673C31.807 50.323 31.6898 50.337 31.5804 50.3062C31.471 50.2755 31.3782 50.2025 31.3226 50.1034ZM16.5826 43.8719C16.5443 43.7649 16.5501 43.647 16.5986 43.5443C16.6472 43.4415 16.7345 43.3623 16.8415 43.324C17.5107 43.0845 18.2128 42.8711 18.9275 42.6907C18.9821 42.6769 19.0388 42.6739 19.0945 42.682C19.1502 42.6901 19.2037 42.7091 19.2521 42.7379C19.3004 42.7667 19.3426 42.8047 19.3763 42.8499C19.4099 42.895 19.4343 42.9463 19.4481 43.0009C19.4619 43.0554 19.4649 43.1122 19.4567 43.1679C19.4486 43.2236 19.4296 43.2771 19.4007 43.3255C19.3719 43.3738 19.3338 43.416 19.2887 43.4496C19.2436 43.4832 19.1922 43.5076 19.1377 43.5214C18.4492 43.6954 17.7737 43.9006 17.1303 44.1309C17.0774 44.1498 17.0212 44.1582 16.965 44.1555C16.9088 44.1527 16.8537 44.1389 16.8028 44.1149C16.7519 44.0908 16.7063 44.057 16.6685 44.0153C16.6307 43.9736 16.6015 43.9248 16.5826 43.8719ZM29.2262 46.3663L28.1781 44.4977C28.1506 44.4486 28.1329 44.3946 28.1263 44.3387C28.1196 44.2828 28.124 44.2261 28.1392 44.1719C28.1545 44.1177 28.1802 44.0671 28.215 44.0228C28.2498 43.9786 28.293 43.9416 28.3421 43.914C28.3912 43.8865 28.4452 43.8689 28.5011 43.8622C28.557 43.8555 28.6136 43.8599 28.6678 43.8752C28.722 43.8904 28.7726 43.9161 28.8169 43.9509C28.8611 43.9858 28.8981 44.0289 28.9256 44.078L29.9737 45.9466C30.0293 46.0457 30.0433 46.1629 30.0126 46.2724C29.9818 46.3818 29.9089 46.4746 29.8097 46.5303C29.7106 46.5859 29.5934 46.5999 29.484 46.5692C29.3746 46.5384 29.2818 46.4654 29.2262 46.3663ZM20.7051 42.7445C20.6962 42.689 20.6984 42.6322 20.7114 42.5775C20.7245 42.5227 20.7482 42.4711 20.7812 42.4256C20.8142 42.38 20.8558 42.3414 20.9038 42.3119C20.9517 42.2825 21.005 42.2628 21.0605 42.2539C21.7578 42.1424 22.4837 42.0557 23.2181 41.9963C23.3313 41.9873 23.4434 42.0237 23.5299 42.0974C23.6163 42.1711 23.6699 42.2761 23.679 42.3893C23.6881 42.5025 23.6519 42.6148 23.5783 42.7013C23.5047 42.7878 23.3998 42.8416 23.2866 42.8508C22.5746 42.9083 21.8711 42.992 21.1959 43.0998C21.1403 43.1088 21.0835 43.1067 21.0288 43.0937C20.974 43.0807 20.9224 43.057 20.8768 43.024C20.8312 42.991 20.7926 42.9493 20.7631 42.9014C20.7337 42.8534 20.714 42.8001 20.7051 42.7445ZM24.9616 42.3339C24.9605 42.2202 25.0046 42.1108 25.0841 42.0296C25.1637 41.9484 25.2723 41.9022 25.3859 41.9011C26.0738 41.8946 26.785 41.9093 27.5001 41.9458L27.7361 41.958L27.8774 42.2099C27.9229 42.2913 27.9406 42.3853 27.9279 42.4776C27.9152 42.57 27.8727 42.6557 27.8069 42.7217C27.7411 42.7878 27.6556 42.8306 27.5633 42.8436C27.471 42.8566 27.377 42.8392 27.2955 42.794C26.6522 42.764 26.0133 42.7519 25.394 42.758C25.3581 42.7585 25.3224 42.7543 25.2876 42.7457C25.1953 42.7229 25.1132 42.6701 25.0541 42.5956C24.9951 42.521 24.9625 42.429 24.9616 42.3339Z" fill="#A3BDCB"/>
<path d="M30.4284 48.7033C30.4284 48.7033 32.0876 58.0519 25.3581 60.0109C18.6286 61.97 11.353 62.2758 9.75085 65.1599C9.75085 65.1599 10.0355 46.5954 28.4784 45.9803L30.4284 48.7033Z" fill="#A3BDCB"/>
<path d="M50.2713 46.2804C50.2713 46.2804 55.0104 54.3069 53.378 57.012C51.8253 59.585 34.0127 70.8991 32.2782 71.9971C32.2408 72.0206 32.1958 72.029 32.1525 72.0207C32.1091 72.0123 32.0705 71.9877 32.0446 71.952C31.819 71.651 31.6677 71.301 31.6029 70.9305C31.5382 70.5599 31.5619 70.1793 31.6721 69.8197C32.7526 66.2928 36.0687 55.7897 38.0897 52.9355C40.5302 49.4887 50.2713 46.2804 50.2713 46.2804Z" fill="white"/>
<path d="M37.91 66.9252C37.9386 66.9323 37.9684 66.9333 37.9975 66.9283C38.0265 66.9233 38.0543 66.9124 38.0789 66.8961C38.176 66.832 47.8241 60.4669 51.8706 57.5654C52.2231 57.3129 52.4948 56.9635 52.6526 56.5595C52.8103 56.1555 52.8474 55.7145 52.7594 55.2898C52.4745 53.9245 51.8334 51.2692 50.74 48.8271C50.7168 48.7752 50.6738 48.7347 50.6207 48.7145C50.5676 48.6943 50.5086 48.696 50.4567 48.7193C50.4049 48.7425 50.3644 48.7855 50.3441 48.8386C50.3239 48.8917 50.3256 48.9507 50.3489 49.0026C51.4259 51.4078 52.0586 54.0289 52.3398 55.3772C52.411 55.7206 52.381 56.0773 52.2534 56.4039C52.1258 56.7305 51.906 57.013 51.6209 57.217C47.5813 60.1138 37.94 66.4745 37.8432 66.5382C37.8083 66.5611 37.7809 66.5937 37.7643 66.632C37.7477 66.6703 37.7427 66.7125 37.7498 66.7536C37.7569 66.7947 37.7758 66.8329 37.8043 66.8634C37.8327 66.8938 37.8695 66.9153 37.91 66.9252Z" fill="#DDDDDD"/>
<path d="M37.2975 28.9425C37.2975 28.9425 30.9347 22.1317 27.88 22.9358C24.9743 23.7007 9.10102 37.6065 7.55888 38.9617C7.52575 38.991 7.50498 39.0318 7.50079 39.0758C7.4966 39.1198 7.5093 39.1637 7.53632 39.1987C7.76137 39.5 8.05442 39.7439 8.39158 39.9105C8.72874 40.077 9.10048 40.1615 9.4765 40.1571C13.164 40.1145 24.173 39.8926 27.4803 38.7576C31.4743 37.387 37.2975 28.9425 37.2975 28.9425Z" fill="white"/>
<path d="M14.1745 35.2039C14.2074 35.212 14.2417 35.2122 14.2747 35.2045C14.3077 35.1968 14.3383 35.1814 14.3642 35.1595C14.4529 35.0843 23.2714 27.6244 27.1888 24.564C27.465 24.348 27.7979 24.2168 28.1471 24.1864C28.4963 24.156 28.8469 24.2276 29.1562 24.3925C30.3704 25.0427 32.7065 26.3893 34.7093 28.1005C34.7306 28.1188 34.7554 28.1327 34.7821 28.1414C34.8089 28.1501 34.8371 28.1535 34.8651 28.1513C34.8932 28.1491 34.9205 28.1414 34.9456 28.1287C34.9707 28.1159 34.993 28.0983 35.0113 28.0769C35.0295 28.0555 35.0434 28.0307 35.0521 28.004C35.0608 27.9772 35.0641 27.949 35.0619 27.9209C35.0597 27.8929 35.0519 27.8655 35.0391 27.8405C35.0263 27.8154 35.0087 27.7931 34.9873 27.7749C33.056 26.1243 30.8604 24.8191 29.3583 24.0146C28.9759 23.8105 28.5424 23.7218 28.1104 23.7593C27.6785 23.7969 27.2668 23.959 26.9252 24.2261C23.0011 27.2918 14.1762 34.7574 14.0875 34.8322C14.0573 34.8577 14.0349 34.891 14.0225 34.9285C14.0101 34.966 14.0083 35.0062 14.0173 35.0447C14.0263 35.0831 14.0458 35.1183 14.0735 35.1464C14.1013 35.1745 14.1362 35.1944 14.1745 35.2039Z" fill="#DDDDDD"/>
<path d="M75.2592 27.4226C72.3645 31.5503 68.8396 35.1978 64.8135 38.2316C51.0428 48.6039 39.1278 53.8453 35.7002 55.245C35.3956 55.3679 35.0635 55.4064 34.7389 55.3564C34.4142 55.3065 34.1091 55.1701 33.8554 54.9614C29.7619 51.6301 26.6595 47.5503 24.5482 42.7219C24.3544 42.2753 24.2871 41.784 24.3536 41.3017C24.4201 40.8194 24.6178 40.3646 24.9252 39.9871C27.6346 36.6462 35.8837 27.104 49.1183 17.2555C53.1353 14.2672 57.5938 11.924 62.3328 10.3103C69.3636 15.7207 73.2809 23.1095 75.2592 27.4226Z" fill="white"/>
<path d="M62.3321 10.3099C71.7475 7.09177 79.8509 7.4934 82.5523 7.7565C82.6768 7.76839 82.7975 7.80618 82.9066 7.86746C83.0157 7.92874 83.1107 8.01214 83.1857 8.11233C83.2607 8.21252 83.3139 8.32728 83.3419 8.44924C83.37 8.57121 83.3722 8.69769 83.3485 8.82057C82.841 11.478 80.953 19.323 75.2585 27.4222C73.2802 23.1092 69.3629 15.7203 62.3321 10.3099Z" fill="#A3BDCB"/>
<path d="M52.6837 20.1284C49.1091 22.8047 48.5389 28.0851 51.4103 31.9227C54.2816 35.7602 59.5072 36.7015 63.0819 34.0252C66.6565 31.3489 67.2267 26.0685 64.3553 22.2309C61.4839 18.3934 56.2584 17.4521 52.6837 20.1284Z" fill="#A3BDCB"/>
<path d="M53.7757 21.2099C50.9273 23.3424 50.4729 27.5499 52.7609 30.6077C55.0488 33.6655 59.2127 34.4155 62.0611 32.283C64.9094 30.1505 65.3637 25.943 63.0758 22.8852C60.7878 19.8274 56.624 19.0774 53.7757 21.2099Z" fill="#F3F3F3"/>
<path d="M61.7791 29.9063C61.8204 29.9164 61.8637 29.9141 61.9036 29.8995C61.9434 29.885 61.9781 29.8589 62.0032 29.8247C63.3536 27.9767 63.2985 25.3523 61.8694 23.4418C61.5128 22.9644 61.0826 22.5466 60.5949 22.2042C60.5484 22.1716 60.4909 22.1588 60.4349 22.1686C60.379 22.1784 60.3292 22.2101 60.2966 22.2566C60.264 22.3031 60.2512 22.3607 60.261 22.4166C60.2709 22.4726 60.3025 22.5223 60.349 22.5549C60.7996 22.8714 61.1969 23.2576 61.5262 23.6989C62.8438 25.4595 62.8976 27.8746 61.6573 29.5717C61.6407 29.5944 61.6287 29.6202 61.622 29.6475C61.6154 29.6748 61.6142 29.7032 61.6185 29.731C61.6228 29.7588 61.6326 29.7855 61.6472 29.8095C61.6618 29.8335 61.6811 29.8544 61.7038 29.871C61.7263 29.8877 61.7519 29.8997 61.7791 29.9063Z" fill="#DDDDDD"/>
<path d="M41.4405 32.2249C39.0789 33.9929 38.7023 37.4813 40.5992 40.0165C42.4962 42.5517 45.9483 43.1736 48.3099 41.4055C50.6715 39.6375 51.0481 36.149 49.1512 33.6138C47.2542 31.0787 43.8021 30.4568 41.4405 32.2249Z" fill="#A3BDCB"/>
<path d="M42.1612 32.9399C40.2795 34.3487 39.9794 37.1283 41.4908 39.1485C43.0024 41.1685 45.7531 41.664 47.6348 40.2552C49.5165 38.8464 49.8167 36.0667 48.3051 34.0467C46.7937 32.0266 44.043 31.531 42.1612 32.9399Z" fill="#F3F3F3"/>
<path d="M47.4311 38.7548C47.4723 38.7649 47.5156 38.7626 47.5555 38.7481C47.5954 38.7335 47.63 38.7075 47.6551 38.6732C48.5661 37.427 48.5297 35.6573 47.5664 34.3702C47.3264 34.0483 47.0365 33.7668 46.7076 33.5364C46.6846 33.5202 46.6586 33.5088 46.6312 33.5027C46.6037 33.4966 46.5754 33.496 46.5477 33.5009C46.52 33.5058 46.4936 33.5161 46.4699 33.5312C46.4462 33.5463 46.4257 33.5659 46.4096 33.589C46.3934 33.612 46.382 33.638 46.3759 33.6654C46.3699 33.6929 46.3692 33.7212 46.3741 33.7489C46.379 33.7766 46.3893 33.8031 46.4044 33.8268C46.4195 33.8505 46.4391 33.871 46.4621 33.8871C46.7536 34.0917 47.0105 34.3414 47.2234 34.6269C48.0749 35.765 48.1102 37.3246 47.3093 38.4202C47.2926 38.4429 47.2807 38.4687 47.274 38.496C47.2673 38.5233 47.2661 38.5517 47.2705 38.5795C47.2748 38.6073 47.2845 38.6339 47.2992 38.658C47.3138 38.682 47.333 38.7029 47.3558 38.7194C47.3782 38.7362 47.4039 38.7482 47.4311 38.7548Z" fill="#DDDDDD"/>
</svg>
