<svg width="249" height="263" viewBox="0 0 249 263" fill="none" xmlns="http://www.w3.org/2000/svg">
<path d="M0.00459191 190.039C0.00459191 190.039 91.1778 83.4747 184.927 47.8101C191.244 45.4049 197.71 50.8924 196.308 57.468C187.089 101.493 147.275 228.987 0.00459191 190.039Z" fill="#AEC8D7"/>
<path d="M16.1807 188.4C15.7354 188.524 15.9004 189.199 16.3624 189.117C33.3477 186.284 103.858 165.803 167.241 85.569C167.461 85.3112 167.066 84.9968 166.859 85.2249C150.254 102.852 86.6851 166.642 16.1807 188.4Z" fill="#DCE5FE"/>
<path d="M197.429 185.822C179.466 177.142 97.0848 141.956 45.4375 197.851C44.4284 198.933 44.9257 200.71 46.358 201.089C61.5484 205.331 131.274 221.796 197.432 189.367C198.912 188.669 198.922 186.547 197.429 185.822Z" fill="#A3BDCC"/>
<path d="M174.411 186.193C174.749 186.235 174.855 185.75 174.501 185.666C159.129 182.159 110.935 174.342 53.6952 197.249C53.725 197.262 111.409 177.384 174.411 186.193Z" fill="#DCE5FE"/>
</svg>
