<svg width="126" height="201" viewBox="0 0 126 201" fill="none" xmlns="http://www.w3.org/2000/svg">
<path d="M64.3998 192.275C68.2278 192.606 74.8715 193.144 80.1091 193.374C83.2575 193.513 85.0701 193.204 86.114 192.786C86.1122 192.904 86.1089 193.015 86.1043 193.119C86.0897 193.386 85.9764 193.639 85.7863 193.828C85.5962 194.017 85.3428 194.129 85.075 194.142C78.2243 194.533 71.3571 194.539 64.5055 194.163C64.3732 194.156 64.2449 194.116 64.1328 194.045C64.0207 193.974 63.9286 193.876 63.8655 193.76C63.8023 193.643 63.7703 193.513 63.7723 193.38C63.7744 193.248 63.8105 193.118 63.8771 193.003C64.0339 192.748 64.2085 192.505 64.3998 192.275Z" fill="#445A6E"/>
<path d="M80.1077 193.374C74.8701 193.143 68.2264 192.606 64.3984 192.275C68.162 187.656 80.1077 184.543 80.1077 184.543H83.4815C85.802 187.889 86.138 191.074 86.1126 192.786C85.0687 193.204 83.2561 193.512 80.1077 193.374Z" fill="#445A6E"/>
<path d="M84.0502 179.033L83.7345 185.283C83.7184 185.613 83.5881 185.927 83.3659 186.172C83.1437 186.417 82.8434 186.577 82.5163 186.625C81.6667 186.752 80.7991 186.68 79.9819 186.415C79.6936 186.321 79.4361 186.15 79.2364 185.922C79.0366 185.693 78.9022 185.415 78.8471 185.117L77.7561 179.033H84.0502Z" fill="url(#paint0_linear_783_2503)"/>
<path d="M123.208 199.484C124.868 199.185 125.619 198.07 125.934 196.878L125.94 196.91C126.065 197.526 125.992 198.165 125.731 198.737C125.469 199.308 125.034 199.782 124.486 200.09C123.118 200.839 121.622 200.967 120.461 200.905C119.849 200.877 119.253 200.698 118.726 200.384C118.2 200.07 117.759 199.631 117.443 199.105L117.433 199.089C118.684 199.889 120.44 199.983 123.208 199.484Z" fill="#445A6E"/>
<path d="M115.381 180.959H118.163C122.401 180.847 125.062 192.403 125.934 196.878C125.619 198.07 124.868 199.185 123.208 199.484C120.439 199.983 118.684 199.889 117.433 199.089C115.143 195.194 114.008 189.489 113.462 186.16C112.842 182.373 115.381 180.959 115.381 180.959Z" fill="#445A6E"/>
<path d="M117.806 175.158L119.351 181.305C119.442 181.672 119.405 182.059 119.248 182.402C119.09 182.746 118.821 183.025 118.483 183.196C117.619 183.639 116.402 184.105 115.284 183.971C115.027 183.937 114.784 183.832 114.583 183.668C114.382 183.503 114.231 183.287 114.147 183.041L111.879 176.574L117.806 175.158Z" fill="url(#paint1_linear_783_2503)"/>
<path d="M63.4568 94.203C63.4568 94.203 77.2636 180.532 77.0362 181.006C77.0362 181.006 80.8495 182.74 85.0067 181.227C85.0067 181.227 83.7582 135.078 80.8326 117.384C80.8326 117.384 104.396 158.632 111.879 179.185C111.879 179.185 115.782 178.719 119.012 176.593C119.012 176.593 93.6411 102.348 86.8723 92.459L63.4568 94.203Z" fill="#445A6E"/>
<path d="M0.0981613 9.66846C0.0981613 9.66846 9.41476 11.7239 15.0814 14.3409C16.2035 14.8603 17.1026 15.7645 17.6158 16.8897C19.3105 20.6032 24.381 29.9152 34.2144 34.359C32.7983 36.2392 30.5182 40.1499 29.5249 46.7232C23.6188 42.3261 18.5201 34.9829 16.0722 22.9398C16.0722 22.9398 14.2081 23.9534 11.8828 22.8238C10.6542 22.2269 9.23571 21.3804 8.17086 20.7146C7.10608 20.0612 6.33336 19.0232 6.01275 17.8156C5.60745 16.2252 5.84617 14.8267 5.84617 13.3265L1.05727 11.8424C1.05727 11.8424 -0.382323 11.2988 0.0981613 9.66846Z" fill="url(#paint2_linear_783_2503)"/>
<path d="M29.5247 46.7232C30.5179 40.15 32.7981 36.2392 34.2142 34.3591C40.3229 37.1197 48.269 38.0023 58.3877 34.495C59.321 34.1729 60.2942 33.981 61.2799 33.9245C66.6666 33.6086 84.4175 33.0321 99.1059 37.8863C100.63 38.3886 102.03 39.2065 103.217 40.2868C104.403 41.3671 105.349 42.6853 105.991 44.1557C109.965 53.2766 116.397 74.0483 98.5392 84.5349C97.3904 81.6728 95.946 78.9384 94.2294 76.3764C97.1053 71.5241 97.9571 64.8967 92.8536 56.2664C89.1323 66.3176 87.3866 80.9835 87.0217 87.4739C86.9024 89.611 87.2763 91.7471 88.1146 93.7165L88.206 93.9317C88.2482 94.0313 88.2679 94.1391 88.2639 94.2472C88.2598 94.3553 88.2321 94.4612 88.1826 94.5574C88.1331 94.6537 88.0631 94.7378 87.9775 94.804C87.892 94.8702 87.7929 94.9167 87.6873 94.9404C77.6338 97.1994 67.1774 96.5856 64.0534 96.3275C63.7826 96.3054 63.5257 96.1984 63.3194 96.0216C63.113 95.8448 62.9678 95.6073 62.9044 95.3431C58.0157 74.7381 58.0045 60.6827 59.2014 51.7976C54.6284 52.8203 40.6442 55.0016 29.5247 46.7232Z" fill="#FFC233"/>
<path d="M83.9921 21.9211C83.9921 21.9211 85.0091 32.6777 85.9046 35.8595C85.9707 36.094 85.9561 36.344 85.8632 36.5692C85.7703 36.7945 85.6045 36.9821 85.3924 37.1018C83.8725 37.9705 80.2273 39.3873 75.2412 36.943C74.8479 36.7481 74.5198 36.443 74.2968 36.0649C74.0739 35.6868 73.9657 35.2519 73.9855 34.8134L74.4248 24.4191L83.9921 21.9211Z" fill="url(#paint3_linear_783_2503)"/>
<path d="M74.2061 8.15991C74.2061 8.15991 70.9532 15.6347 70.7347 19.5579C70.5163 23.4812 69.6711 26.0269 74.2061 26.8169C78.7412 27.607 82.5616 25.3471 84.6312 21.4391C84.6312 21.4391 87.8741 15.4173 87.1466 12.9512C86.4192 10.4851 74.2061 8.15991 74.2061 8.15991Z" fill="url(#paint4_linear_783_2503)"/>
<path d="M83.0807 18.6296L82.8226 18.5158C82.7447 18.4817 82.6746 18.432 82.6166 18.3697C82.5586 18.3075 82.514 18.234 82.4855 18.1539C82.457 18.0738 82.4452 17.9886 82.4509 17.9038C82.4565 17.8189 82.4795 17.7361 82.5184 17.6604C83.1579 16.4245 84.4046 13.5922 82.7941 12.9315C80.7185 12.08 72.4968 10.4029 70.723 7.48481C69.0181 4.68025 70.5287 1.06 72.7989 0.0302811C72.8712 -0.00407814 72.9539 -0.00941611 73.0299 0.0153859C73.106 0.0401879 73.1697 0.0932335 73.2079 0.163591L73.397 0.521681C73.4257 0.575989 73.47 0.620482 73.5241 0.649455C73.5783 0.678428 73.6399 0.690548 73.701 0.684278C73.7621 0.678007 73.8199 0.653627 73.867 0.614258C73.9141 0.57489 73.9485 0.522328 73.9655 0.463322C73.9817 0.406206 74.014 0.355005 74.0587 0.315922C74.1034 0.276839 74.1584 0.251562 74.2171 0.243142C74.2759 0.234723 74.3358 0.243525 74.3896 0.26849C74.4435 0.293455 74.4889 0.333503 74.5204 0.383785C75.0657 1.25682 76.5378 2.67216 80.4744 3.39892C86.0692 4.43178 89.7681 6.69651 89.8602 10.5636C89.861 10.6189 89.8765 10.6728 89.9053 10.72C89.934 10.7671 89.9748 10.8057 90.0236 10.8317C90.0723 10.8577 90.127 10.8701 90.1822 10.8677C90.2373 10.8653 90.2908 10.8481 90.3371 10.818C90.7502 10.5662 91.4113 10.448 92.2948 11.1912C93.8312 12.4835 93.2025 15.8358 89.8342 18.5934C89.7963 18.6229 89.7658 18.661 89.7454 18.7046C89.7249 18.7481 89.715 18.7958 89.7164 18.8439C89.7178 18.892 89.7306 18.9391 89.7536 18.9813C89.7766 19.0236 89.8092 19.0598 89.8488 19.0871C90.4594 19.4847 91.3697 20.4308 89.0111 21.692C86.5714 22.9965 84.7496 22.8895 84.0481 22.7736C84.0069 22.7668 83.9675 22.7516 83.9323 22.7289C83.8972 22.7063 83.867 22.6767 83.8437 22.642C83.8204 22.6073 83.8044 22.5682 83.7968 22.5271C83.7891 22.486 83.7899 22.4438 83.7992 22.403L84.5479 19.0042C84.5578 18.9591 84.5575 18.9124 84.547 18.8675C84.5365 18.8226 84.516 18.7807 84.4872 18.7447C84.4583 18.7088 84.4217 18.6798 84.3801 18.6599C84.3386 18.6399 84.2931 18.6296 84.247 18.6296H83.0807Z" fill="#CA7934"/>
<path d="M82.9404 19.3469C82.9404 19.3469 84.1814 14.5721 86.3216 15.9109C88.4617 17.2496 85.211 21.2608 83.4904 21.4394L82.9404 19.3469Z" fill="url(#paint5_linear_783_2503)"/>
<path d="M13.5872 21.8289C13.6643 21.8289 13.7397 21.807 13.8049 21.7658C13.87 21.7246 13.9221 21.6658 13.9552 21.5962C13.9883 21.5266 14.001 21.449 13.9918 21.3725C13.9827 21.2959 13.952 21.2236 13.9034 21.1638C13.5509 20.73 10.4246 16.9064 9.22022 16.2257C8.78179 15.9779 8.5206 15.7223 8.4649 15.4863C8.44038 15.3558 8.45958 15.2209 8.51952 15.1024L12.1932 15.8389L14.2744 17.6256C14.3151 17.6606 14.3622 17.6872 14.4131 17.7039C14.464 17.7207 14.5177 17.7272 14.5712 17.7232C14.6246 17.7191 14.6768 17.7046 14.7246 17.6804C14.7724 17.6561 14.815 17.6227 14.8499 17.5821C14.8848 17.5414 14.9113 17.4942 14.928 17.4432C14.9447 17.3923 14.9511 17.3385 14.947 17.2851C14.9429 17.2316 14.9283 17.1795 14.904 17.1317C14.8798 17.0839 14.8463 17.0414 14.8056 17.0065L12.6434 15.1503C12.5904 15.1049 12.5265 15.0738 12.458 15.06L8.39116 14.2448C8.31225 14.229 8.23042 14.2369 8.15598 14.2675C8.08155 14.2981 8.01783 14.35 7.97284 14.4168C7.67467 14.8594 7.57606 15.2705 7.67116 15.6737C7.78362 16.1501 8.15903 16.563 8.81897 16.936C9.72537 17.4482 12.3397 20.5329 13.2706 21.6783C13.3088 21.7254 13.357 21.7634 13.4118 21.7895C13.4666 21.8156 13.5265 21.829 13.5872 21.8289Z" fill="#F8A570"/>
<path d="M83.0983 89.7043L68.7195 89.8823L73.7518 85.144C74.3611 84.5686 75.1452 84.2136 75.9795 84.1353C76.8137 84.0571 77.6501 84.2601 78.3557 84.7122C79.3228 85.3321 80.1857 86.1012 80.9122 86.9911C80.9122 86.9911 89.8817 83.7122 94.2298 76.3762C95.9464 78.9382 97.3908 81.6726 98.5396 84.5347C94.6417 86.8236 89.5889 88.6235 83.0983 89.7043Z" fill="url(#paint6_linear_783_2503)"/>
<path d="M81.5492 91.5594C81.5213 91.5607 81.4934 91.5615 81.4652 91.5613L44.9663 91.5219C44.7525 91.5239 44.5405 91.4836 44.3425 91.4031C44.1444 91.3227 43.9643 91.2037 43.8126 91.0532C43.6608 90.9027 43.5403 90.7235 43.4582 90.5261C43.3761 90.3287 43.334 90.117 43.3342 89.9032C43.3345 89.6894 43.3771 89.4778 43.4597 89.2806C43.5422 89.0834 43.663 88.9045 43.8151 88.7543C43.9673 88.6041 44.1476 88.4856 44.3458 88.4056C44.5441 88.3256 44.7561 88.2857 44.9699 88.2882L81.4689 88.3276C81.8932 88.3234 82.3022 88.4864 82.6075 88.7814C82.9128 89.0763 83.0898 89.4795 83.1003 89.9039C83.1109 90.3283 82.9541 90.7399 82.6639 91.0496C82.3736 91.3593 81.9733 91.5425 81.5492 91.5594Z" fill="#7BBCDB"/>
<path d="M12.1548 58.7613H42.5514C43.646 58.7587 44.719 59.0662 45.6463 59.648C46.5735 60.2299 47.3172 61.0624 47.7913 62.0493L61.8435 91.5401H24.0687C23.3652 91.542 22.6773 91.3331 22.0937 90.9402C21.51 90.5474 21.0574 89.9887 20.7942 89.3361L9.89725 62.0468C9.75328 61.6806 9.70135 61.2846 9.74601 60.8936C9.79068 60.5026 9.93056 60.1285 10.1534 59.8042C10.3763 59.4798 10.6753 59.2151 11.0242 59.0333C11.3732 58.8515 11.7614 58.7581 12.1548 58.7613Z" fill="url(#paint7_linear_783_2503)"/>
<path d="M32.4967 78.2713C33.7515 77.8576 34.2284 75.8823 33.5619 73.8594C32.8953 71.8365 31.3377 70.532 30.0829 70.9457C28.828 71.3594 28.3511 73.3347 29.0177 75.3576C29.6843 77.3805 31.2419 78.685 32.4967 78.2713Z" fill="#D7D7D7"/>
<defs>
<linearGradient id="paint0_linear_783_2503" x1="78.2496" y1="189.488" x2="82.693" y2="188.889" gradientUnits="userSpaceOnUse">
<stop stop-color="#FF928E"/>
<stop offset="1" stop-color="#FEB3B1"/>
</linearGradient>
<linearGradient id="paint1_linear_783_2503" x1="112.469" y1="187.229" x2="117.771" y2="186.49" gradientUnits="userSpaceOnUse">
<stop stop-color="#FF928E"/>
<stop offset="1" stop-color="#FEB3B1"/>
</linearGradient>
<linearGradient id="paint2_linear_783_2503" x1="15.9373" y1="21.085" x2="45.7399" y2="59.8464" gradientUnits="userSpaceOnUse">
<stop stop-color="#FEBBBA"/>
<stop offset="1" stop-color="#FF928E"/>
</linearGradient>
<linearGradient id="paint3_linear_783_2503" x1="82.3427" y1="46.1421" x2="79.0817" y2="29.0263" gradientUnits="userSpaceOnUse">
<stop stop-color="#FEBBBA"/>
<stop offset="1" stop-color="#FF928E"/>
</linearGradient>
<linearGradient id="paint4_linear_783_2503" x1="73.5242" y1="14.7393" x2="92.1244" y2="28.9672" gradientUnits="userSpaceOnUse">
<stop stop-color="#FEBBBA"/>
<stop offset="1" stop-color="#FF928E"/>
</linearGradient>
<linearGradient id="paint5_linear_783_2503" x1="75.8307" y1="11.7242" x2="94.4307" y2="25.952" gradientUnits="userSpaceOnUse">
<stop stop-color="#FEBBBA"/>
<stop offset="1" stop-color="#FF928E"/>
</linearGradient>
<linearGradient id="paint6_linear_783_2503" x1="64.9276" y1="58.3013" x2="77.9487" y2="77.8274" gradientUnits="userSpaceOnUse">
<stop stop-color="#FEBBBA"/>
<stop offset="1" stop-color="#FF928E"/>
</linearGradient>
<linearGradient id="paint7_linear_783_2503" x1="47.8633" y1="63.108" x2="27.1156" y2="85.0307" gradientUnits="userSpaceOnUse">
<stop stop-color="#7DBBDE"/>
<stop offset="1" stop-color="#79BCD9"/>
</linearGradient>
</defs>
</svg>
