<svg width="142" height="142" viewBox="0 0 142 142" fill="none" xmlns="http://www.w3.org/2000/svg">
<path d="M129.353 32.6304C129.096 32.6304 128.802 32.4837 128.655 32.2635C128.067 31.3463 127.405 30.4657 126.743 29.5852C126.486 29.2183 126.56 28.7046 126.927 28.4111C127.295 28.1543 127.809 28.2276 128.103 28.5945C128.765 29.5118 129.427 30.429 130.052 31.3463C130.309 31.7132 130.199 32.2635 129.831 32.4837C129.684 32.5937 129.5 32.6304 129.353 32.6304Z" fill="#F58220"/>
<path d="M70.981 141.507C69.7312 141.507 68.4447 141.47 67.1949 141.397C66.717 141.361 66.3862 140.994 66.423 140.519C66.4597 140.043 66.8641 139.713 67.3052 139.75C69.4739 139.859 71.6794 139.859 73.8113 139.786C74.2892 139.786 74.6567 140.116 74.6935 140.592C74.7303 141.068 74.3627 141.434 73.8848 141.47C72.9291 141.47 71.9734 141.507 70.981 141.507ZM84.4711 140.189C84.0668 140.189 83.7359 139.896 83.6624 139.53C83.5889 139.091 83.883 138.651 84.3241 138.541C86.3825 138.139 88.441 137.626 90.4626 137.04L90.6464 137.004C91.0875 136.857 91.5654 137.114 91.6757 137.553C91.8227 137.992 91.5654 138.468 91.1243 138.578L90.9405 138.615C88.8453 139.2 86.7501 139.713 84.6549 140.152C84.5814 140.189 84.5079 140.189 84.4711 140.189ZM100.828 134.88C100.498 134.88 100.203 134.697 100.056 134.404C99.8727 134.001 100.056 133.489 100.461 133.306C102.409 132.391 104.357 131.365 106.195 130.304C106.599 130.084 107.114 130.194 107.335 130.596C107.555 130.999 107.445 131.512 107.04 131.732C105.129 132.83 103.144 133.892 101.159 134.807C101.086 134.844 100.975 134.88 100.828 134.88ZM115.421 125.727C115.164 125.727 114.943 125.617 114.76 125.434C114.466 125.068 114.539 124.555 114.87 124.263C116.524 122.908 118.178 121.443 119.685 119.942C120.016 119.613 120.531 119.613 120.861 119.942C121.192 120.272 121.192 120.784 120.861 121.114C119.281 122.652 117.627 124.153 115.899 125.544C115.789 125.69 115.605 125.727 115.421 125.727ZM127.331 113.315C127.147 113.315 127 113.279 126.816 113.169C126.449 112.913 126.375 112.363 126.632 111.997C127.919 110.277 129.132 108.483 130.271 106.615C130.529 106.213 131.007 106.103 131.411 106.322C131.815 106.579 131.926 107.055 131.705 107.457C130.565 109.325 129.316 111.192 127.992 112.949C127.845 113.206 127.588 113.315 127.331 113.315ZM135.859 98.4141C135.748 98.4141 135.638 98.3775 135.528 98.3409C135.087 98.1578 134.903 97.6818 135.087 97.2425C135.932 95.2654 136.667 93.2151 137.292 91.1648C137.439 90.7255 137.88 90.4692 138.321 90.6156C138.763 90.7621 139.02 91.2015 138.873 91.6408C138.211 93.7277 137.439 95.8512 136.594 97.8649C136.484 98.1944 136.153 98.4141 135.859 98.4141ZM140.49 81.8652C140.453 81.8652 140.417 81.8652 140.38 81.8652C139.939 81.792 139.608 81.3893 139.681 80.9133C140.012 78.7898 140.233 76.6297 140.343 74.4695C140.38 74.0302 140.784 73.6641 141.225 73.7007C141.703 73.7373 142.034 74.1034 141.997 74.5793C141.887 76.7761 141.666 79.0094 141.336 81.1696C141.225 81.5723 140.894 81.8652 140.49 81.8652ZM140.894 64.6939C140.453 64.6939 140.123 64.3644 140.049 63.9617C139.828 61.8382 139.498 59.678 139.093 57.5545C139.02 57.1152 139.314 56.6758 139.755 56.566C140.196 56.4928 140.637 56.7857 140.747 57.225C141.189 59.3852 141.483 61.5819 141.703 63.7786C141.74 64.218 141.409 64.6573 140.968 64.6939C140.931 64.6939 140.931 64.6939 140.894 64.6939ZM137.108 47.962C136.778 47.962 136.447 47.7424 136.336 47.4129C135.601 45.3992 134.793 43.3855 133.874 41.4084C133.69 41.0057 133.874 40.4931 134.278 40.31C134.682 40.127 135.197 40.31 135.381 40.7127C136.3 42.6898 137.182 44.7768 137.917 46.8637C138.064 47.303 137.844 47.779 137.402 47.9254C137.292 47.9254 137.182 47.962 137.108 47.962Z" fill="#F58220"/>
<path d="M56.6446 140.011C56.5711 140.011 56.5343 140.011 56.4608 140.011C55.3581 139.791 54.2553 139.534 53.1894 139.24C52.7483 139.13 52.491 138.653 52.6012 138.213C52.7115 137.773 53.1894 137.516 53.6305 137.626C54.6964 137.919 55.7624 138.14 56.8284 138.396C57.2695 138.506 57.5635 138.947 57.49 139.387C57.3797 139.754 57.0122 140.011 56.6446 140.011Z" fill="#F58220"/>
<path d="M11.3213 108.346C11.0272 108.346 10.7699 108.199 10.6229 107.942C10.0348 106.988 9.44666 105.998 8.93204 105.044C8.7115 104.64 8.85852 104.127 9.26286 103.906C9.6672 103.686 10.1818 103.833 10.4024 104.237C10.917 105.191 11.5051 106.145 12.0565 107.062C12.3138 107.465 12.1667 107.979 11.7992 108.199C11.6154 108.309 11.4683 108.346 11.3213 108.346Z" fill="#F58220"/>
<path d="M5.21962 95.9248C4.8888 95.9248 4.55798 95.7051 4.44771 95.3756C3.85958 93.8013 3.30821 92.1537 2.83036 90.5061C2.68333 90.0668 2.57305 89.5908 2.46278 89.1515C2.35251 88.7121 2.60981 88.2361 3.05091 88.1263C3.492 88.0165 3.96985 88.2728 4.08013 88.7121C4.1904 89.1515 4.33743 89.5908 4.44771 90.0302C4.92556 91.6411 5.44017 93.2155 6.0283 94.7898C6.17533 95.2291 5.95478 95.7051 5.55044 95.8516C5.44017 95.9248 5.3299 95.9248 5.21962 95.9248ZM1.28653 79.5224C0.88219 79.5224 0.51461 79.1928 0.441094 78.7901C0.183788 76.63 0.0367579 74.4332 0 72.2731C0 71.7971 0.367578 71.431 0.808673 71.431C1.24977 71.431 1.65411 71.7971 1.65411 72.2365C1.69086 74.36 1.8379 76.4835 2.0952 78.607C2.13196 79.0464 1.83789 79.4857 1.36004 79.5224C1.36004 79.5224 1.32329 79.5224 1.28653 79.5224ZM1.3968 62.6074C1.36004 62.6074 1.32329 62.6074 1.28653 62.6074C0.845432 62.5342 0.514611 62.1314 0.551369 61.6921C0.845432 59.5319 1.21301 57.3718 1.69086 55.2483C1.80113 54.8089 2.24223 54.516 2.68333 54.6258C3.12442 54.7357 3.41849 55.1751 3.30821 55.6144C2.83036 57.6647 2.46278 59.7882 2.20548 61.8751C2.16872 62.3145 1.80114 62.6074 1.3968 62.6074ZM5.5872 46.2416C5.47693 46.2416 5.36665 46.2416 5.29314 46.1684C4.85204 45.9853 4.66825 45.5093 4.81528 45.1066C5.5872 43.0929 6.50615 41.0792 7.46186 39.1388C7.68241 38.736 8.16026 38.553 8.5646 38.7727C8.96893 38.9923 9.15272 39.4683 8.93218 39.871C7.97647 41.7749 7.09428 43.7154 6.35912 45.6924C6.24885 46.0586 5.91802 46.2416 5.5872 46.2416ZM13.6004 31.3769C13.4534 31.3769 13.2696 31.3403 13.1226 31.2305C12.755 30.9742 12.6447 30.4616 12.902 30.0589C14.1518 28.3015 15.5118 26.5441 16.9086 24.8965C17.2027 24.5304 17.7173 24.4938 18.0849 24.7867C18.4525 25.0796 18.4892 25.5922 18.1952 25.9583C16.8351 27.5692 15.5118 29.2534 14.2988 31.0108C14.115 31.2305 13.8577 31.3769 13.6004 31.3769ZM24.9219 18.8188C24.7013 18.8188 24.444 18.709 24.297 18.5259C24.0029 18.1964 24.0397 17.6472 24.3705 17.3543C26.0246 15.9265 27.7522 14.5718 29.5166 13.2903C29.8842 13.034 30.3988 13.1073 30.6929 13.4734C30.9502 13.8395 30.8767 14.3521 30.5091 14.645C28.7815 15.8898 27.0906 17.2079 25.51 18.5992C25.3262 18.7456 25.1424 18.8188 24.9219 18.8188ZM38.9634 9.33619C38.6693 9.33619 38.3753 9.15312 38.2282 8.89684C38.0077 8.4941 38.1915 7.98153 38.5958 7.76186C40.544 6.77332 42.5289 5.858 44.5506 5.05252C44.9917 4.86946 45.4695 5.08913 45.6166 5.52848C45.8004 5.96783 45.5798 6.4438 45.1387 6.59025C43.1538 7.39573 41.2056 8.27443 39.331 9.22636C39.2207 9.33619 39.1104 9.33619 38.9634 9.33619ZM54.8796 3.51479C54.512 3.51479 54.1444 3.25852 54.0709 2.8924C53.9606 2.45305 54.2547 2.01369 54.6958 1.90385C56.8277 1.39128 58.9965 0.988547 61.1284 0.695647C61.5695 0.622422 62.0106 0.951921 62.0841 1.39127C62.1576 1.83062 61.8268 2.26998 61.3857 2.34321C59.2905 2.63611 57.1586 3.03883 55.1001 3.51479C55.0266 3.51479 54.9531 3.51479 54.8796 3.51479ZM78.2209 2.01369C78.1841 2.01369 78.1473 2.01369 78.1473 2.01369C76.0154 1.79401 73.8834 1.68418 71.7515 1.64756C71.2736 1.64756 70.906 1.28144 70.9428 0.80548C70.9428 0.36613 71.3104 0 71.7882 0C73.9569 0.0366125 76.1624 0.14645 78.3311 0.366125C78.7722 0.402738 79.1398 0.805475 79.0663 1.28144C78.9928 1.68418 78.6252 2.01369 78.2209 2.01369Z" fill="#F58220"/>
<path d="M91.785 4.76546C91.7115 4.76546 91.6012 4.76547 91.5277 4.72878C90.4984 4.39857 89.4325 4.10504 88.3665 3.81152C87.9254 3.70144 87.6681 3.22445 87.7784 2.78416C87.8886 2.34387 88.3665 2.08704 88.8076 2.19712C89.9103 2.49064 90.9763 2.78417 92.0423 3.11438C92.4834 3.26115 92.7407 3.70143 92.5937 4.14172C92.4834 4.54532 92.1526 4.76546 91.785 4.76546Z" fill="#F58220"/>
<g clip-path="url(#clip0_700_2364)">
<path d="M52.1007 84.0473L52.0635 84.0258C50.8017 83.2973 50.3694 81.6838 51.0979 80.4219L53.7791 75.778C54.5076 74.5161 56.1211 74.0838 57.3829 74.8123L57.4201 74.8338C58.682 75.5623 59.1143 77.1758 58.3858 78.4377L55.7046 83.0816C54.9761 84.3435 53.3626 84.7759 52.1007 84.0473Z" stroke="#F58220" stroke-width="1.81641" stroke-miterlimit="10" stroke-linecap="round" stroke-linejoin="round"/>
<path d="M56.7076 86.707L56.6704 86.6855C55.4086 85.957 54.9763 84.3435 55.7047 83.0816L58.386 78.4377C59.1144 77.1759 60.728 76.7436 61.9898 77.472L62.027 77.4935C63.2889 78.222 63.7212 79.8356 62.9927 81.0974L60.3115 85.7413C59.583 87.0032 57.9695 87.4356 56.7076 86.707Z" stroke="#F58220" stroke-width="1.81641" stroke-miterlimit="10" stroke-linecap="round" stroke-linejoin="round"/>
<path d="M61.3143 89.3667L61.2771 89.3452C60.0152 88.6167 59.5829 87.0032 60.3114 85.7413L62.9926 81.0974C63.7211 79.8355 65.3347 79.4032 66.5965 80.1317L66.6337 80.1532C67.8955 80.8817 68.3279 82.4952 67.5994 83.7571L64.9182 88.401C64.1897 89.6629 62.5761 90.0952 61.3143 89.3667Z" stroke="#F58220" stroke-width="1.81641" stroke-miterlimit="10" stroke-linecap="round" stroke-linejoin="round"/>
<path d="M65.8652 86.7819L67.1423 84.5699C67.8768 83.2978 69.5034 82.8619 70.7755 83.5964C72.0476 84.3308 72.4835 85.9575 71.749 87.2296L70.4719 89.4416C69.7375 90.7137 68.1108 91.1496 66.8387 90.4151C65.5666 89.6807 65.1307 88.054 65.8652 86.7819Z" stroke="#F58220" stroke-width="1.81641" stroke-miterlimit="10" stroke-linecap="round" stroke-linejoin="round"/>
<path d="M102.295 64.9479L104.004 71.3256L96.2119 73.4094L90.4651 51.9655L98.2585 49.8817L101.171 60.755" stroke="#F58220" stroke-width="1.81641" stroke-miterlimit="10" stroke-linecap="round" stroke-linejoin="round"/>
<path d="M76.7171 86.593C78.1333 87.4106 78.6184 89.2214 77.8009 90.6376C76.9833 92.0537 75.1725 92.5389 73.7563 91.7213L70.4717 89.4416" stroke="#F58220" stroke-width="1.81641" stroke-miterlimit="10" stroke-linecap="round" stroke-linejoin="round"/>
<path d="M82.2422 82.9451C83.6584 83.7627 84.1436 85.5734 83.326 86.9896C82.5084 88.4058 80.6976 88.891 79.2814 88.0734L74.9945 85.6005" stroke="#F58220" stroke-width="1.81641" stroke-miterlimit="10" stroke-linecap="round" stroke-linejoin="round"/>
<path d="M85.6463 78.0727C87.0625 78.8903 87.5477 80.7011 86.7301 82.1172C85.9125 83.5334 84.1017 84.0186 82.6856 83.201L77.5573 80.2402" stroke="#F58220" stroke-width="1.81641" stroke-miterlimit="10" stroke-linecap="round" stroke-linejoin="round"/>
<path d="M82.3422 69.3282L89.2852 73.3367C90.7014 74.1543 91.1865 75.9651 90.3689 77.3813C89.5513 78.7975 87.7406 79.2826 86.3244 78.465L81.186 75.4984" stroke="#F58220" stroke-width="1.81641" stroke-miterlimit="10" stroke-linecap="round" stroke-linejoin="round"/>
<path d="M46.4767 56.0942L45.8911 58.2793" stroke="#F58220" stroke-width="1.81641" stroke-miterlimit="10" stroke-linecap="round" stroke-linejoin="round"/>
<path d="M41.4227 58.7602L43.7416 50.1048L51.535 52.1873L45.7882 73.6312L37.9961 71.5487L40.2991 62.9544" stroke="#F58220" stroke-width="1.81641" stroke-miterlimit="10" stroke-linecap="round" stroke-linejoin="round"/>
<path d="M51.9986 78.8623C50.9815 78.0729 50.4382 74.8612 49.8076 73.4501C49.2106 72.127 46.5721 70.7071 46.5721 70.7071L50.8817 54.6232L54.4982 55.7932C58.0508 57.0019 63.4961 54.0666 66.8746 57.4849" stroke="#F58220" stroke-width="1.81641" stroke-miterlimit="10" stroke-linecap="round" stroke-linejoin="round"/>
<path d="M77.9635 69.2271C79.2703 69.425 80.714 69.4635 82.3423 69.3281C84.1791 70.3893 89.2857 73.3364 89.2857 73.3364C92.8889 72.9061 92.8066 72.7918 95.4841 70.7067L91.1013 54.3495C91.1013 54.3495 83.8431 57.4746 74.1531 55.5382C72.0892 55.0853 69.7822 55.8064 68.7436 56.4054L59.5065 61.7392C57.8689 62.6848 57.3071 64.7793 58.2528 66.4182C58.8876 67.5178 60.0391 68.1314 61.2224 68.1314C61.8028 68.1314 62.3925 67.9827 62.9317 67.6719L69.162 64.0753C70.6495 65.6877 72.1383 66.9707 73.833 67.8738" stroke="#F58220" stroke-width="1.81641" stroke-miterlimit="10" stroke-linecap="round" stroke-linejoin="round"/>
<path d="M95.6696 55.8412L96.2915 58.1625" stroke="#F58220" stroke-width="1.81641" stroke-miterlimit="10" stroke-linecap="round" stroke-linejoin="round"/>
</g>
<defs>
<clipPath id="clip0_700_2364">
<rect width="68" height="68" fill="white" transform="translate(37 37)"/>
</clipPath>
</defs>
</svg>
