<svg width="101" height="101" viewBox="0 0 101 101" fill="none" xmlns="http://www.w3.org/2000/svg">
<path d="M47.0001 5C22.6996 4.99999 3.00013 24.6995 3.00013 49C3.00013 56.2789 4.76763 63.1451 7.89687 69.1926C8.275 69.9234 8.02725 70.8302 7.31388 71.2402C6.59036 71.6561 5.6643 71.403 5.27912 70.6626C1.90637 64.1801 0.000125496 56.8127 0.000126179 49C0.000128448 23.0426 21.0427 1.99999 47.0001 2C58.0878 2 68.2787 5.83934 76.3159 12.2611C76.9742 12.787 77.0379 13.756 76.4764 14.3842C75.9334 14.9916 75.0065 15.0528 74.3688 14.5456C66.8564 8.57016 57.3452 5 47.0001 5Z" fill="#F58220"/>
<path d="M47.0001 93C71.3007 93 91.0001 73.3005 91.0001 49C91.0001 41.3218 89.0334 34.1029 85.5762 27.8196C85.1729 27.0867 85.4129 26.1578 86.1374 25.7397C86.848 25.3296 87.7584 25.5654 88.1555 26.2833C91.88 33.0165 94.0001 40.7607 94.0001 49C94.0001 74.9574 72.9575 96 47.0001 96C32.491 96 19.5175 89.4256 10.896 79.0932C10.3895 78.4862 10.4709 77.5902 11.0612 77.0643C11.7076 76.4883 12.7048 76.581 13.2609 77.2446C21.3322 86.8758 33.451 93 47.0001 93Z" fill="#F58220"/>
<path d="M81.2227 21.2822C80.7935 20.7031 80.3416 20.0995 79.8939 19.5427C79.4153 18.9477 79.4369 18.074 79.9836 17.5409C80.5432 16.9953 81.4423 17.0099 81.9648 17.5912C82.5219 18.211 83.0628 18.8457 83.5868 19.4946C84.1029 20.1338 83.9773 21.0676 83.3278 21.5707C82.6675 22.0821 81.7199 21.9532 81.2227 21.2822Z" fill="#F58220"/>
<path d="M50.4312 74.027C43.7661 73.4982 38.2563 71.7356 33.5463 67.6816C32.0355 66.3597 30.2581 64.6852 31.3246 62.5701C32.391 60.455 34.6127 61.1601 36.4789 61.6888C40.3002 62.6583 44.0327 63.8921 47.7652 64.7734C52.4752 65.8309 54.4303 63.3633 52.8306 58.7806C52.1197 56.7536 50.8756 54.991 49.6314 53.3165C48.2095 51.4658 46.6988 49.6151 45.4546 47.7644C38.9672 38.5108 41.0112 29.9622 50.0757 23C47.0542 28.9047 46.6099 36.5719 50.6978 41.7716C53.3639 45.1205 56.2076 48.205 58.7848 51.6421C60.2956 53.5809 61.5397 55.696 62.6061 57.8993C65.6277 64.2446 63.4948 68.1223 56.652 69.268C53.4527 69.7968 50.3423 69.4442 47.1431 69.5324C46.521 69.5324 45.4546 69.268 45.3657 70.3255C45.3657 70.7662 45.9878 71.3831 46.521 71.7356C47.4986 72.2644 48.7427 72.9694 50.4312 74.027Z" fill="#F58220"/>
<path d="M32.6575 46.7068C32.2131 50.8489 32.5686 53.9334 35.5013 56.8417C36.1233 57.4586 36.7454 58.5161 36.0345 59.3974C35.1458 60.5431 34.2571 59.3974 33.635 58.7805C30.6135 56.3129 30.1692 50.937 32.6575 46.7068Z" fill="#F58220"/>
<path d="M48.9205 57.3706C48.1207 55.5199 46.7876 53.9335 45.2769 52.6116C40.0337 48.117 36.7456 43.1817 39.8559 32.5181C37.4565 34.2807 35.6791 40.9785 35.5014 44.5918C35.2348 51.8184 38.434 57.4587 44.1216 61.6889C45.5435 62.7465 47.3209 62.9227 48.8316 61.6889C50.3424 60.4551 49.5426 58.7807 48.9205 57.3706Z" fill="#F58220"/>
</svg>
