<svg width="101" height="101" viewBox="0 0 101 101" fill="none" xmlns="http://www.w3.org/2000/svg">
<path d="M5.48754 67.5144C5.59891 67.8465 5.57591 68.2089 5.42346 68.5242C5.27101 68.8395 5.00121 69.0827 4.67179 69.2016C4.34238 69.3205 3.97949 69.3059 3.66077 69.1607C3.34204 69.0155 3.0928 68.7513 2.96634 68.4247C1.2843 63.6126 0.670339 58.4919 1.16712 53.4185C2.9916 32.0667 4.54659 15.7681 4.5619 15.6058C4.58655 15.3487 4.68502 15.1042 4.84545 14.9018C5.00588 14.6994 5.22143 14.5477 5.4661 14.465L37.6438 3.5602C37.9225 3.46529 38.2248 3.46529 38.5036 3.5602L70.6821 14.4642C70.9266 14.547 71.1421 14.6987 71.3024 14.9011C71.4627 15.1035 71.561 15.348 71.5855 15.605C71.5855 15.605 71.9959 19.8925 72.6451 26.9967C72.6611 27.172 72.6424 27.3487 72.5901 27.5167C72.5378 27.6847 72.4529 27.8408 72.3403 27.976C72.2277 28.1112 72.0896 28.223 71.9338 28.3048C71.778 28.3866 71.6076 28.437 71.4324 28.453C71.2571 28.469 71.0804 28.4503 70.9124 28.398C70.7444 28.3457 70.5883 28.2608 70.4531 28.1482C70.3179 28.0356 70.2061 27.8974 70.1243 27.7416C70.0425 27.5858 69.9921 27.4155 69.9761 27.2402C69.4984 22.011 69.1508 18.3092 69.0007 16.7236L38.0741 6.24371L7.14742 16.7228C6.80365 20.3603 5.4217 35.0978 3.83609 53.6466C3.37393 58.3343 3.93745 63.0664 5.48754 67.5144ZM74.9818 53.4185C74.7276 50.4478 74.4796 47.5783 74.2399 44.8435C74.2291 44.665 74.1826 44.4905 74.1033 44.3303C74.024 44.17 73.9134 44.0273 73.7781 43.9104C73.6428 43.7936 73.4854 43.705 73.3153 43.6499C73.1452 43.5949 72.9658 43.5744 72.7876 43.5897C72.6095 43.605 72.4362 43.6559 72.2781 43.7392C72.1199 43.8225 71.9799 43.9367 71.8666 44.0749C71.7532 44.2132 71.6686 44.3727 71.6178 44.5442C71.5671 44.7156 71.5511 44.8955 71.5709 45.0732C71.8098 47.8103 72.0586 50.6775 72.3121 53.6482C73.4207 66.6209 68.0192 76.9737 56.2569 84.4194C50.6501 87.8776 44.5044 90.3738 38.0741 91.8046C35.7565 91.3223 17.4022 87.1205 8.54392 73.6172C8.44853 73.4676 8.32438 73.3384 8.17867 73.2371C8.03296 73.1359 7.86859 73.0646 7.6951 73.0274C7.52161 72.9902 7.34245 72.9878 7.16804 73.0204C6.99362 73.053 6.82741 73.1199 6.67906 73.2172C6.53071 73.3146 6.40318 73.4404 6.30386 73.5874C6.20454 73.7345 6.13541 73.8998 6.10049 74.0737C6.06557 74.2477 6.06555 74.4269 6.10043 74.6009C6.13532 74.7748 6.20441 74.9401 6.3037 75.0872C16.3587 90.4165 36.9609 94.3304 37.8321 94.4897C37.9914 94.5182 38.1545 94.5182 38.3137 94.4897C45.15 93.0375 51.6825 90.4102 57.6205 86.7247C70.1653 78.8135 76.1685 67.2985 74.9818 53.4185ZM70.643 34.6009L70.9493 38.0309C70.9791 38.3642 71.1324 38.6743 71.3792 38.9002C71.626 39.1262 71.9484 39.2517 72.283 39.2521C72.322 39.2521 72.3595 39.2521 72.4039 39.2467C72.7579 39.2149 73.0848 39.0437 73.3126 38.7709C73.5405 38.4982 73.6507 38.1461 73.619 37.7921L73.3127 34.3621C73.2987 34.1856 73.2498 34.0137 73.1689 33.8563C73.088 33.6988 72.9767 33.559 72.8414 33.4448C72.7062 33.3306 72.5496 33.2443 72.3809 33.191C72.2121 33.1377 72.0344 33.1183 71.8581 33.134C71.6818 33.1498 71.5103 33.2003 71.3536 33.2826C71.197 33.365 71.0582 33.4776 70.9453 33.6139C70.8324 33.7503 70.7476 33.9076 70.6958 34.0769C70.6441 34.2462 70.6264 34.424 70.6438 34.6002L70.643 34.6009ZM62.9952 22.3984C63.6682 29.6558 64.7048 41.0651 65.828 54.2009C66.7153 64.5782 62.5588 72.5913 53.1224 78.7009C48.5755 81.5611 43.6135 83.7008 38.4125 85.0441C38.1918 85.1013 37.9602 85.1013 37.7395 85.0441C32.5376 83.7013 27.5748 81.5615 23.0272 78.7009C13.5902 72.5943 9.43434 64.5813 10.3179 54.2009C11.5214 40.1341 12.6094 28.2378 13.1507 22.3984C13.1742 22.14 13.2721 21.894 13.4326 21.6902C13.5931 21.4864 13.8093 21.3334 14.0549 21.25L37.6438 13.2607C37.9225 13.1658 38.2248 13.1658 38.5036 13.2607L62.091 21.253C62.3362 21.3363 62.552 21.4888 62.7125 21.692C62.8729 21.8952 62.9711 22.1406 62.9952 22.3984ZM63.1583 54.4291C62.0787 41.8124 61.0803 30.7897 60.4074 23.5116L38.0741 15.9442L15.7408 23.5116C15.1773 29.6083 14.133 41.0345 12.9891 54.4291C12.1959 63.7268 15.9544 70.9298 24.4827 76.4485C28.689 79.0931 33.2714 81.0859 38.0741 82.3591C42.8762 81.0856 47.458 79.0929 51.6639 76.4485C60.1938 70.9298 63.9522 63.7268 63.1583 54.4291ZM59.0178 49C59.0178 53.1425 57.7894 57.1919 55.4879 60.6362C53.1865 64.0805 49.9154 66.765 46.0882 68.3503C42.2611 69.9355 38.0498 70.3502 33.987 69.542C29.9241 68.7338 26.1922 66.7389 23.2631 63.8097C20.334 60.8805 18.3393 57.1485 17.5312 53.0856C16.7232 49.0228 17.138 44.8115 18.7234 40.9844C20.3087 37.1573 22.9934 33.8863 26.4378 31.585C29.8822 29.2837 33.9316 28.0555 38.0741 28.0556C43.6269 28.0619 48.9505 30.2706 52.8768 34.1971C56.8032 38.1236 59.0117 43.4472 59.0178 49ZM56.3381 49C56.3381 45.3876 55.2668 41.8563 53.2598 38.8526C51.2529 35.849 48.4002 33.5079 45.0628 32.1255C41.7253 30.7431 38.0528 30.3815 34.5098 31.0863C30.9667 31.7911 27.7122 33.5307 25.1579 36.0852C22.6036 38.6396 20.8641 41.8942 20.1594 45.4372C19.4548 48.9803 19.8166 52.6528 21.1991 55.9902C22.5816 59.3276 24.9228 62.1801 27.9265 64.187C30.9302 66.1939 34.4616 67.265 38.0741 67.2648C42.9164 67.2593 47.5589 65.3332 50.9829 61.9091C54.4069 58.4849 56.3328 53.8424 56.3381 49ZM47.6505 38.5255L51.6256 42.4984C51.7501 42.6227 51.8489 42.7703 51.9163 42.9328C51.9837 43.0953 52.0184 43.2695 52.0184 43.4454C52.0184 43.6214 51.9837 43.7956 51.9163 43.9581C51.8489 44.1206 51.7501 44.2682 51.6256 44.3925L36.5428 59.4746C36.4185 59.5991 36.2708 59.6979 36.1082 59.7653C35.9456 59.8327 35.7714 59.8674 35.5954 59.8674C35.4194 59.8674 35.2451 59.8327 35.0825 59.7653C34.92 59.6979 34.7723 59.5991 34.6479 59.4746L24.5225 49.353C24.398 49.2286 24.2992 49.0809 24.2318 48.9184C24.1644 48.7558 24.1297 48.5815 24.1297 48.4055C24.1297 48.2295 24.1644 48.0553 24.2318 47.8927C24.2992 47.7301 24.398 47.5824 24.5225 47.4581L28.4976 43.4875C28.622 43.363 28.7697 43.2642 28.9323 43.1968C29.0948 43.1294 29.2691 43.0947 29.4451 43.0947C29.6211 43.0947 29.7954 43.1294 29.9579 43.1968C30.1205 43.2642 30.2682 43.363 30.3926 43.4875L35.5942 48.6884L45.7556 38.5255C46.0115 38.2832 46.3506 38.1482 46.7031 38.1482C47.0555 38.1482 47.3946 38.2832 47.6505 38.5255ZM48.7806 43.4454L46.7027 41.3675L36.5428 51.5266C36.2869 51.7689 35.9478 51.904 35.5954 51.904C35.2429 51.904 34.9039 51.7689 34.6479 51.5266L29.4447 46.328L27.3676 48.4059L35.5942 56.6326L48.7806 43.4454Z" fill="#F58220"/>
</svg>
