<svg width="101" height="101" viewBox="0 0 101 101" fill="none" xmlns="http://www.w3.org/2000/svg">
<path fill-rule="evenodd" clip-rule="evenodd" d="M38.3242 9.62659H92.8484C95.5312 9.62659 97.7406 11.836 97.8195 14.5977V74.4086C97.8195 77.0914 95.6102 79.3008 92.9273 79.3008H82.5906C81.8016 79.3008 81.1703 78.6695 81.1703 77.8805C81.1703 77.0914 81.8016 76.4602 82.5906 76.4602H92.9273C94.1109 76.4602 95.0578 75.5133 95.0578 74.3297V64.4664H6.76172V74.4086C6.76172 75.5922 7.70859 76.5391 8.89219 76.5391H75.1734C75.8836 76.5391 76.5148 77.0125 76.5148 77.8016C76.5148 78.5906 75.8836 79.2219 75.0945 79.2219H61.5227V88.5328H67.125C67.9141 88.5328 68.5453 89.1641 68.5453 89.9531C68.5453 90.7422 67.9141 91.3735 67.125 91.3735H34.5367C33.7477 91.3735 33.1164 90.7422 33.1164 89.9531C33.1164 89.1641 33.7477 88.5328 34.5367 88.5328H40.1391V79.2219H8.89219C6.20938 79.2219 4 77.0125 4 74.3297V14.5188C4 11.836 6.20938 9.62659 8.89219 9.62659H19.8602C20.6492 9.62659 21.2805 10.2578 21.2805 11.0469C21.2805 11.836 20.6492 12.4672 19.8602 12.4672H8.89219C7.70859 12.4672 6.76172 13.4141 6.76172 14.5977V61.7836H94.9789V14.5977C94.9789 13.4141 94.032 12.4672 92.8484 12.4672H38.3242C37.5352 12.4672 36.9039 11.836 36.9039 11.0469C36.9039 10.2578 37.5352 9.62659 38.3242 9.62659ZM42.9008 79.3008V88.6117H58.8398V79.3008H42.9008ZM27.5141 9.62659C26.8039 9.70549 26.1727 10.2578 26.1727 11.0469C26.1727 11.7571 26.725 12.3883 27.5141 12.4672H31.0648C31.8539 12.4672 32.4852 11.836 32.4852 11.0469C32.4852 10.2578 31.8539 9.62659 31.0648 9.62659H27.5141ZM50.8703 75.1977C48.2664 75.1977 46.2148 73.0672 46.2148 70.5422C46.2148 67.9383 48.3453 65.8867 50.8703 65.8867C53.4742 65.8867 55.5258 68.0172 55.5258 70.5422C55.5258 73.1461 53.3953 75.1977 50.8703 75.1977ZM50.8703 72.436C51.8961 72.436 52.7641 71.568 52.7641 70.5422C52.7641 69.5164 51.8961 68.6485 50.8703 68.6485C49.8445 68.6485 48.9766 69.5164 48.9766 70.5422C48.9766 71.568 49.8445 72.436 50.8703 72.436Z" fill="#F58220"/>
<path fill-rule="evenodd" clip-rule="evenodd" d="M52.9674 25.0446C59.0606 25.0446 64 29.9841 64 36.0772C64 42.1703 59.0606 47.1098 52.9674 47.1098C46.8743 47.1098 41.9348 42.1703 41.9348 36.0772C41.9348 29.9841 46.8743 25.0446 52.9674 25.0446ZM38.4547 50.481C39.0686 51.1057 40.0784 51.1145 40.7031 50.5007L45.1131 46.1673C44.2742 45.5133 43.5191 44.7569 42.8662 43.917L38.4744 48.2326C37.8497 48.8464 37.8408 49.8562 38.4547 50.481ZM52.9674 28.1164C48.5708 28.1164 45.0066 31.6806 45.0066 36.0771C45.0066 40.4737 48.5708 44.0379 52.9674 44.0379C57.3641 44.0379 60.9282 40.4737 60.9282 36.0771C60.9282 31.6806 57.364 28.1164 52.9674 28.1164Z" fill="#F58220"/>
</svg>
