<svg width="101" height="101" viewBox="0 0 101 101" fill="none" xmlns="http://www.w3.org/2000/svg">
<g clip-path="url(#clip0_68_3088)">
<path d="M22.1767 36.5809C22.1767 34.7331 20.673 33.23 18.8247 33.23H16.1925C15.297 33.23 14.5686 33.9584 14.5686 34.8536V39.1542V43.455C14.5686 44.3501 15.297 45.0786 16.1925 45.0786H20.0255C21.8738 45.0786 23.3775 43.5753 23.3775 41.7275V41.3334C23.3775 40.14 22.7483 39.0933 21.8061 38.4994C22.0413 38.0415 22.1767 37.5242 22.1767 36.9751V36.5809ZM16.9124 35.5736H18.8247C19.3806 35.5736 19.833 36.0254 19.833 36.5808V36.975C19.833 37.5209 19.3713 37.9822 18.8247 37.9822H16.9124V35.5736ZM21.0338 41.7275C21.0338 42.283 20.5814 42.7348 20.0255 42.7348H16.9124V40.3261H18.8247H20.0256C20.5816 40.3261 21.0339 40.778 21.0339 41.3334V41.7275H21.0338Z" fill="#F58220"/>
<path d="M40.3783 45.0786C42.6591 45.0786 44.5147 43.2236 44.5147 40.9436V37.3649C44.5147 35.0849 42.6591 33.2299 40.3783 33.2299H39.8422C37.5614 33.2299 35.7058 35.0849 35.7058 37.3649V40.9436C35.7058 43.2236 37.5614 45.0786 39.8422 45.0786H40.3783ZM38.0496 40.9436V37.3649C38.0496 36.3772 38.8538 35.5736 39.8422 35.5736H40.3783C41.3667 35.5736 42.171 36.3772 42.171 37.3649V40.9436C42.171 41.9313 41.3667 42.7349 40.3783 42.7349H39.8422C38.8538 42.7349 38.0496 41.9313 38.0496 40.9436Z" fill="#F58220"/>
<path d="M27.1067 33.2299C26.4595 33.2299 25.9348 33.7545 25.9348 34.4017V43.9067C25.9348 44.5539 26.4595 45.0786 27.1067 45.0786H32.7787C33.4259 45.0786 33.9506 44.5539 33.9506 43.9067C33.9506 43.2595 33.4259 42.7349 32.7787 42.7349H28.2786V34.4017C28.2786 33.7545 27.754 33.2299 27.1067 33.2299Z" fill="#F58220"/>
<path d="M51.9131 17.3337C51.2659 17.3337 50.7412 17.8584 50.7412 18.5056V18.5189C50.7412 19.1661 51.2659 19.6842 51.9131 19.6842C52.5603 19.6842 53.085 19.153 53.085 18.5058C53.085 17.8586 52.5603 17.3337 51.9131 17.3337Z" fill="#F58220"/>
<path d="M45.8909 17.3159C45.2437 17.3159 44.719 17.8406 44.719 18.4878V18.5054C44.719 19.1526 45.2437 19.6773 45.8909 19.6773C46.5381 19.6773 47.0627 19.1526 47.0627 18.5054V18.4878C47.0627 17.8406 46.5381 17.3159 45.8909 17.3159Z" fill="#F58220"/>
<path d="M57.9351 17.3647C57.2879 17.3647 56.7632 17.8894 56.7632 18.5366V18.5543C56.7632 19.2015 57.2879 19.7262 57.9351 19.7262C58.5822 19.7262 59.1069 19.2015 59.1069 18.5543V18.5366C59.1069 17.8894 58.5822 17.3647 57.9351 17.3647Z" fill="#F58220"/>
<path d="M38.6899 17.347H13.0728C12.4256 17.347 11.9009 17.8717 11.9009 18.5189C11.9009 19.1661 12.4256 19.6908 13.0728 19.6908H38.6899C39.3371 19.6908 39.8618 19.1661 39.8618 18.5189C39.8618 17.8717 39.3371 17.347 38.6899 17.347Z" fill="#F58220"/>
<path d="M49.9234 35.5736H53.7254C54.3726 35.5736 54.8973 35.0489 54.8973 34.4017C54.8973 33.7545 54.3726 33.2299 53.7254 33.2299H49.9234C48.0378 33.2299 46.6157 34.7333 46.6157 36.727V41.9489C46.6157 43.2111 47.6063 45.0785 49.7329 45.0785H52.1968C54.3157 45.0785 55.7393 43.6819 55.7393 41.6035V40.7974C55.7393 38.986 54.441 37.721 52.5823 37.721H51.9309C51.2837 37.721 50.759 38.2456 50.759 38.8928C50.759 39.54 51.2837 40.0647 51.9309 40.0647H52.5823C53.0048 40.0647 53.3956 40.1535 53.3956 40.7974V41.6035C53.3956 41.9128 53.3956 42.7347 52.1968 42.7347H49.7329C49.0049 42.7347 48.9595 41.9567 48.9595 41.9489V36.727C48.9593 36.0156 49.3287 35.5736 49.9234 35.5736Z" fill="#F58220"/>
<path d="M76.6846 34.6697C76.2192 33.5466 75.3381 32.6317 74.2056 32.0948L71.323 30.7206C70.1128 30.147 68.7986 30.0892 67.6592 30.4578V13.8905C67.6592 12.2967 66.3622 11 64.768 11H5.85878C4.26456 11 2.96753 12.2966 2.96753 13.8905V50.1784C2.96753 50.8256 3.49222 51.3503 4.1394 51.3503C4.78659 51.3503 5.31128 50.8256 5.31128 50.1784V25.4795H65.3155V32.2536C65.231 32.3884 65.1531 32.5291 65.0835 32.6758L60.178 42.9869C59.8999 43.5714 60.1483 44.2705 60.7327 44.5486C61.3172 44.8267 62.0163 44.5781 62.2944 43.9939L64.5686 39.2137L71.8817 42.6898L58.9441 69.8863L51.6314 66.4137L59.9947 48.8303C60.2727 48.2459 60.0242 47.5467 59.4399 47.2687C58.8552 46.9906 58.1563 47.2394 57.8782 47.8236L55.1394 53.5817H20.6192C19.9721 53.5817 19.4474 54.1064 19.4474 54.7536C19.4474 55.4008 19.9721 55.9255 20.6192 55.9255H54.0246L51.1746 61.9175H12.6208C11.9736 61.9175 11.4489 62.4422 11.4489 63.0894C11.4489 63.7366 11.9736 64.2613 12.6208 64.2613H50.0599L49.0113 66.4659C48.9475 66.6 48.9097 66.7452 48.9002 66.8934L48.6825 70.253H12.8911C12.2439 70.253 11.7192 70.7777 11.7192 71.4248C11.7192 72.072 12.2439 72.5967 12.8911 72.5967H48.5305L48.0713 79.6847C48.0692 79.7166 48.0685 79.7484 48.0689 79.7803C48.0808 80.4833 48.4344 81.0675 49.015 81.3433C49.2342 81.4475 49.4672 81.4987 49.7021 81.4987C50.0891 81.4987 50.481 81.3597 50.8252 81.0889C50.8502 81.0692 50.8742 81.0486 50.8975 81.027L60.2963 72.3059C60.405 72.205 60.4936 72.0844 60.5574 71.9503L65.3155 61.9484V88.1094C65.3155 88.4056 65.0649 88.6561 64.768 88.6561H5.85878C5.56206 88.6561 5.31128 88.4058 5.31128 88.1094V55.5906C5.31128 54.9434 4.78659 54.4188 4.1394 54.4188C3.49222 54.4188 2.96753 54.9434 2.96753 55.5906V88.1094C2.96753 89.7031 4.26456 90.9998 5.85878 90.9998H64.768C66.3622 90.9998 67.6592 89.7033 67.6592 88.1094V57.0219L76.6303 38.1639C77.1472 37.0741 77.1664 35.8333 76.6846 34.6697ZM50.5174 78.1827L50.7128 75.1647L52.7339 76.1259L50.5174 78.1827ZM54.5831 74.4102L50.8761 72.6469L51.1274 68.7689L57.4349 71.7641L54.5831 74.4102ZM65.3155 23.1358H5.31128V13.8905C5.31128 13.5891 5.5569 13.3438 5.85878 13.3438H64.768C65.0699 13.3438 65.3155 13.5889 65.3155 13.8905V23.1358ZM74.5131 37.1583L72.8886 40.5733L65.5755 37.0972L67.2005 33.6816C67.6961 32.6366 69.095 32.2586 70.3169 32.8375L73.1996 34.2117C73.8083 34.5002 74.2769 34.9814 74.5192 35.5666C74.7444 36.1102 74.7421 36.6758 74.5131 37.1583Z" fill="#F58220"/>
</g>
<defs>
<clipPath id="clip0_68_3088">
<rect width="80" height="80" fill="white" transform="translate(0 11)"/>
</clipPath>
</defs>
</svg>
