<svg width="101" height="101" viewBox="0 0 101 101" fill="none" xmlns="http://www.w3.org/2000/svg">
<path d="M68.3281 12.3029V60.4881C68.3281 60.829 68.1927 61.1559 67.9517 61.3969C67.7107 61.6379 67.3838 61.7733 67.043 61.7733C66.7021 61.7733 66.3753 61.6379 66.1342 61.3969C65.8932 61.1559 65.7578 60.829 65.7578 60.4881V12.3029C65.7573 11.6702 65.5057 11.0637 65.0583 10.6164C64.611 10.169 64.0045 9.91745 63.3718 9.91687H6.62817C5.99555 9.91745 5.389 10.169 4.94167 10.6164C4.49434 11.0637 4.24277 11.6702 4.24219 12.3029V25.645C4.24219 25.9858 4.10679 26.3127 3.86577 26.5537C3.62476 26.7947 3.29788 26.9301 2.95703 26.9301C2.61619 26.9301 2.2893 26.7947 2.04829 26.5537C1.80727 26.3127 1.67188 25.9858 1.67188 25.645V12.3029C1.67324 10.9888 2.19585 9.72892 3.12504 8.79973C4.05423 7.87054 5.3141 7.34792 6.62817 7.34656H63.3718C64.6859 7.34811 65.9456 7.87079 66.8748 8.79994C67.8039 9.72909 68.3266 10.9888 68.3281 12.3029ZM67.043 76.3822C66.8742 76.3821 66.707 76.4153 66.5511 76.4799C66.3951 76.5444 66.2534 76.6391 66.134 76.7584C66.0147 76.8778 65.92 77.0195 65.8555 77.1755C65.7909 77.3314 65.7577 77.4986 65.7578 77.6674V89.6972C65.7573 90.3298 65.5057 90.9363 65.0583 91.3837C64.611 91.831 64.0045 92.0826 63.3718 92.0832H6.62817C5.99555 92.0826 5.389 91.831 4.94167 91.3837C4.49434 90.9363 4.24277 90.3298 4.24219 89.6972V32.5202C4.24219 32.1794 4.10679 31.8525 3.86577 31.6115C3.62476 31.3704 3.29788 31.235 2.95703 31.235C2.61619 31.235 2.2893 31.3704 2.04829 31.6115C1.80727 31.8525 1.67188 32.1794 1.67188 32.5202V89.6972C1.67324 91.0112 2.19585 92.2711 3.12504 93.2003C4.05423 94.1295 5.3141 94.6521 6.62817 94.6535H63.3718C64.6859 94.6519 65.9456 94.1292 66.8748 93.2001C67.8039 92.2709 68.3266 91.0112 68.3281 89.6972V77.6674C68.3282 77.4986 68.2951 77.3314 68.2305 77.1755C68.166 77.0195 68.0713 76.8778 67.9519 76.7584C67.8326 76.6391 67.6909 76.5444 67.5349 76.4799C67.3789 76.4153 67.2118 76.3821 67.043 76.3822ZM67.043 66.2941C66.8742 66.294 66.707 66.3272 66.5511 66.3917C66.3951 66.4563 66.2534 66.551 66.134 66.6703C66.0147 66.7897 65.92 66.9314 65.8555 67.0873C65.7909 67.2433 65.7577 67.4105 65.7578 67.5793V70.884C65.7578 71.2248 65.8932 71.5517 66.1342 71.7927C66.3753 72.0337 66.7021 72.1691 67.043 72.1691C67.3838 72.1691 67.7107 72.0337 67.9517 71.7927C68.1927 71.5517 68.3281 71.2248 68.3281 70.884V67.5793C68.3282 67.4105 68.2951 67.2433 68.2305 67.0873C68.166 66.9314 68.0713 66.7897 67.9519 66.6703C67.8326 66.551 67.6909 66.4563 67.5349 66.3917C67.3789 66.3272 67.2118 66.294 67.043 66.2941ZM8.06167 15.634H61.9384C62.2792 15.634 62.6061 15.7694 62.8471 16.0104C63.0881 16.2514 63.2235 16.5783 63.2235 16.9191V85.0809C63.2235 85.4217 63.0881 85.7486 62.8471 85.9896C62.6061 86.2307 62.2792 86.366 61.9384 86.366H8.06167C7.72083 86.366 7.39394 86.2307 7.15293 85.9896C6.91191 85.7486 6.77652 85.4217 6.77652 85.0809V16.9191C6.77652 16.5783 6.91191 16.2514 7.15293 16.0104C7.39394 15.7694 7.72083 15.634 8.06167 15.634ZM9.34683 83.7957H60.6532V18.2043H9.34683V83.7957ZM32.2211 87.9391C31.8803 87.9391 31.5534 88.0745 31.3124 88.3155C31.0714 88.5565 30.936 88.8834 30.936 89.2242C30.936 89.5651 31.0714 89.892 31.3124 90.133C31.5534 90.374 31.8803 90.5094 32.2211 90.5094H37.7789C38.1197 90.5094 38.4466 90.374 38.6876 90.133C38.9286 89.892 39.064 89.5651 39.064 89.2242C39.064 88.8834 38.9286 88.5565 38.6876 88.3155C38.4466 88.0745 38.1197 87.9391 37.7789 87.9391H32.2211ZM36.2837 12.7758C36.2834 12.522 36.2079 12.2739 36.0666 12.063C35.9254 11.8521 35.7248 11.6878 35.4902 11.5909C35.2557 11.4939 34.9976 11.4687 34.7487 11.5184C34.4998 11.5681 34.2712 11.6905 34.0918 11.8701C33.9124 12.0497 33.7903 12.2784 33.7409 12.5274C33.6915 12.7763 33.717 13.0344 33.8142 13.2688C33.9114 13.5033 34.0759 13.7037 34.287 13.8447C34.4981 13.9857 34.7462 14.0609 35 14.0609C35.1687 14.0609 35.3357 14.0275 35.4915 13.9629C35.6473 13.8983 35.7888 13.8036 35.908 13.6842C36.0272 13.5649 36.1217 13.4232 36.1862 13.2674C36.2507 13.1115 36.2838 12.9445 36.2837 12.7758Z" fill="#F58220"/>
<path d="M37.5612 69C32.8942 68.605 29.0291 67.3688 25.7724 64.5563C24.6934 63.6236 23.475 62.4551 24.239 60.9336C24.9849 59.4487 26.5598 59.9479 27.8434 60.2826C30.4919 60.9738 33.097 61.8498 35.7654 62.4386C39.0367 63.1591 40.4216 61.4182 39.2847 58.2198C38.776 56.7897 37.9324 55.57 37.0217 54.3831C36.0225 53.0811 35.0015 51.7955 34.0692 50.4459C29.5523 43.9156 30.9517 37.9375 37.2879 33C35.1481 37.1493 34.8729 42.5477 37.7405 46.1997C39.5834 48.544 41.5947 50.7549 43.3996 53.1287C44.4297 54.4819 45.3185 55.9814 46.0554 57.5212C48.1807 61.9613 46.6872 64.7081 41.9024 65.5365C39.6776 65.9205 37.4635 65.6718 35.244 65.7322C34.7788 65.745 34.0564 65.5547 33.984 66.2606C33.9533 66.5606 34.433 66.9921 34.7733 67.2353C35.541 67.7839 36.3682 68.254 37.5612 69Z" fill="#F58220"/>
<path d="M25.2464 50C24.9205 52.7968 25.1915 54.8993 27.3609 56.9293C27.7948 57.3345 28.3179 58.0523 27.7537 58.6811C27.078 59.4334 26.4486 58.6702 25.9324 58.2758C23.6772 56.5494 23.3273 52.9022 25.2464 50Z" fill="#F58220"/>
<path d="M36.454 57.3765C35.8822 56.0736 34.9416 54.9717 33.8859 54.0615C30.2207 50.8985 27.8989 47.466 30.075 40C28.4132 41.2286 27.122 45.9387 27.014 48.4322C26.7982 53.4734 29.0822 57.4272 33.0514 60.3893C34.0424 61.1294 35.2851 61.2633 36.339 60.42C37.4792 59.5081 36.8893 58.3681 36.454 57.3765Z" fill="#F58220"/>
</svg>
