<svg width="47" height="47" viewBox="0 0 47 47" fill="none" xmlns="http://www.w3.org/2000/svg">
<path d="M23.5 0C10.5426 0 0 10.5426 0 23.5C0 36.4574 10.5426 47 23.5 47C36.4574 47 47 36.4574 47 23.5C47 10.5426 36.4574 0 23.5 0ZM36.6341 17.3158L21.6153 32.2168C20.7318 33.1003 19.3183 33.1591 18.3759 32.2757L10.4248 25.0313C9.48246 24.1479 9.42356 22.6754 10.2481 21.7331C11.1316 20.7907 12.604 20.7318 13.5464 21.6153L19.8484 27.3872L33.2769 13.9586C34.2193 13.0163 35.6917 13.0163 36.6341 13.9586C37.5764 14.901 37.5764 16.3734 36.6341 17.3158Z" fill="#F58220"/>
</svg>
