<svg width="467" height="467" viewBox="0 0 467 467" fill="none" xmlns="http://www.w3.org/2000/svg">
<path d="M425.406 107.631C424.559 107.631 423.592 107.148 423.109 106.423C421.174 103.403 418.998 100.504 416.822 97.6049C415.976 96.3969 416.218 94.7056 417.427 93.7392C418.636 92.8936 420.328 93.1352 421.295 94.3432C423.471 97.3632 425.647 100.383 427.702 103.403C428.549 104.611 428.186 106.423 426.977 107.148C426.494 107.51 425.889 107.631 425.406 107.631Z" fill="#E7EBF0"/>
<path d="M233.435 466.885C229.325 466.885 225.094 466.764 220.984 466.523C219.412 466.402 218.324 465.194 218.445 463.624C218.566 462.053 219.896 460.966 221.347 461.087C228.479 461.449 235.732 461.449 242.744 461.208C244.315 461.208 245.524 462.295 245.645 463.865C245.766 465.436 244.557 466.644 242.985 466.765C239.842 466.765 236.699 466.885 233.435 466.885ZM277.801 462.537C276.471 462.537 275.383 461.57 275.142 460.362C274.9 458.913 275.867 457.463 277.318 457.101C284.087 455.772 290.857 454.081 297.506 452.148L298.11 452.027C299.561 451.544 301.133 452.389 301.495 453.839C301.979 455.289 301.133 456.859 299.682 457.221L299.078 457.342C292.187 459.275 285.296 460.966 278.406 462.416C278.164 462.537 277.922 462.537 277.801 462.537ZM331.596 445.021C330.508 445.021 329.541 444.417 329.058 443.45C328.453 442.122 329.058 440.43 330.388 439.826C336.795 436.807 343.202 433.424 349.246 429.921C350.576 429.196 352.268 429.559 352.994 430.887C353.719 432.216 353.356 433.907 352.026 434.632C345.74 438.256 339.212 441.759 332.684 444.779C332.443 444.9 332.08 445.021 331.596 445.021ZM379.589 414.821C378.743 414.821 378.017 414.459 377.413 413.855C376.446 412.647 376.688 410.956 377.776 409.989C383.216 405.52 388.656 400.688 393.612 395.735C394.7 394.648 396.392 394.648 397.48 395.735C398.568 396.822 398.568 398.514 397.48 399.601C392.282 404.674 386.842 409.627 381.161 414.217C380.798 414.7 380.193 414.821 379.589 414.821ZM418.757 373.871C418.152 373.871 417.669 373.75 417.064 373.387C415.855 372.542 415.614 370.73 416.46 369.522C420.691 363.844 424.68 357.925 428.428 351.764C429.274 350.436 430.846 350.073 432.175 350.798C433.505 351.644 433.868 353.214 433.142 354.543C429.395 360.704 425.285 366.864 420.933 372.663C420.449 373.508 419.603 373.871 418.757 373.871ZM446.803 324.706C446.44 324.706 446.077 324.585 445.715 324.464C444.264 323.86 443.66 322.29 444.264 320.84C447.044 314.317 449.462 307.552 451.517 300.788C452.001 299.338 453.452 298.492 454.902 298.976C456.353 299.459 457.199 300.908 456.716 302.358C454.54 309.244 452.001 316.25 449.22 322.894C448.858 323.981 447.77 324.706 446.803 324.706ZM462.035 270.105C461.914 270.105 461.793 270.105 461.672 270.105C460.221 269.863 459.133 268.534 459.375 266.964C460.463 259.958 461.188 252.831 461.551 245.704C461.672 244.254 463.002 243.046 464.452 243.167C466.024 243.288 467.112 244.496 466.991 246.066C466.628 253.314 465.903 260.682 464.815 267.81C464.452 269.138 463.364 270.105 462.035 270.105ZM463.364 213.45C461.914 213.45 460.826 212.363 460.584 211.034C459.859 204.028 458.771 196.901 457.441 189.895C457.199 188.445 458.166 186.996 459.617 186.633C461.068 186.392 462.518 187.358 462.881 188.808C464.332 195.935 465.299 203.182 466.024 210.43C466.145 211.88 465.057 213.33 463.606 213.45C463.485 213.45 463.485 213.45 463.364 213.45ZM450.913 158.246C449.825 158.246 448.737 157.521 448.374 156.434C445.957 149.79 443.297 143.146 440.275 136.623C439.67 135.294 440.275 133.603 441.605 132.999C442.934 132.395 444.627 132.999 445.231 134.327C448.253 140.851 451.155 147.736 453.572 154.622C454.056 156.071 453.331 157.642 451.88 158.125C451.517 158.125 451.155 158.246 450.913 158.246Z" fill="#E7EBF0"/>
<path d="M186.289 461.932C186.047 461.932 185.926 461.932 185.684 461.932C182.058 461.208 178.431 460.362 174.925 459.396C173.475 459.033 172.628 457.463 172.991 456.013C173.354 454.564 174.925 453.718 176.376 454.08C179.882 455.047 183.387 455.772 186.893 456.617C188.344 456.98 189.311 458.429 189.069 459.879C188.707 461.087 187.498 461.932 186.289 461.932Z" fill="#E7EBF0"/>
<path d="M37.2338 357.442C36.2667 357.442 35.4205 356.959 34.9369 356.113C33.0027 352.973 31.0685 349.711 29.376 346.57C28.6507 345.241 29.1343 343.55 30.464 342.825C31.7938 342.101 33.4863 342.584 34.2116 343.913C35.904 347.053 37.8382 350.194 39.6516 353.214C40.4978 354.543 40.0142 356.234 38.8053 356.959C38.2009 357.321 37.7174 357.442 37.2338 357.442Z" fill="#E7EBF0"/>
<path d="M17.1661 316.491C16.0781 316.491 14.9901 315.767 14.6275 314.679C12.6932 309.485 10.8799 304.049 9.30839 298.613C8.82483 297.164 8.46217 295.593 8.09951 294.144C7.73684 292.694 8.58307 291.124 10.0337 290.761C11.4844 290.399 13.0559 291.245 13.4186 292.694C13.7812 294.144 14.2648 295.593 14.6275 297.043C16.199 302.358 17.8914 307.552 19.8257 312.747C20.3092 314.196 19.5839 315.767 18.2541 316.25C17.8914 316.491 17.5288 316.491 17.1661 316.491ZM4.23109 262.374C2.90132 262.374 1.69243 261.286 1.45065 259.958C0.604437 252.831 0.120888 245.583 0 238.456C0 236.885 1.20888 235.677 2.65954 235.677C4.1102 235.677 5.43997 236.885 5.43997 238.335C5.56086 245.341 6.04441 252.347 6.89062 259.354C7.01151 260.803 6.04441 262.253 4.47286 262.374C4.47286 262.374 4.35197 262.374 4.23109 262.374ZM4.59376 206.565C4.47287 206.565 4.35197 206.565 4.23109 206.565C2.78043 206.323 1.69243 204.995 1.81332 203.545C2.78043 196.418 3.9893 189.291 5.56085 182.285C5.92351 180.835 7.37418 179.868 8.82484 180.231C10.2755 180.593 11.2426 182.043 10.8799 183.493C9.30839 190.257 8.09951 197.264 7.25329 204.149C7.1324 205.599 5.92353 206.565 4.59376 206.565ZM18.375 152.568C18.0123 152.568 17.6497 152.568 17.4079 152.327C15.9572 151.723 15.3528 150.152 15.8363 148.823C18.375 142.179 21.3972 135.536 24.5403 129.133C25.2656 127.805 26.8372 127.201 28.167 127.925C29.4967 128.65 30.1012 130.221 29.3758 131.549C26.2327 137.831 23.3314 144.233 20.9137 150.756C20.551 151.964 19.463 152.568 18.375 152.568ZM44.7286 103.524C44.2451 103.524 43.6406 103.403 43.1571 103.041C41.9482 102.195 41.5855 100.504 42.4317 99.1753C46.5419 93.377 51.0148 87.5787 55.6086 82.1428C56.5757 80.9348 58.2681 80.814 59.477 81.7803C60.6859 82.7467 60.8068 84.438 59.8397 85.646C55.3668 90.9611 51.0148 96.5177 47.0255 102.316C46.4211 103.041 45.5749 103.524 44.7286 103.524ZM81.9622 62.0903C81.2369 62.0903 80.3906 61.7279 79.9071 61.1239C78.94 60.0367 79.0609 58.2248 80.1489 57.2584C85.5888 52.5473 91.2706 48.0777 97.0732 43.8497C98.2821 43.0042 99.9745 43.2458 100.942 44.4537C101.788 45.6617 101.546 47.3529 100.337 48.3193C94.6555 52.4264 89.0946 56.7752 83.8964 61.3656C83.292 61.8488 82.6875 62.0903 81.9622 62.0903ZM128.141 30.8035C127.174 30.8035 126.207 30.1995 125.724 29.354C124.998 28.0252 125.603 26.334 126.933 25.6092C133.34 22.3477 139.868 19.3277 146.516 16.6701C147.967 16.0662 149.539 16.7909 150.022 18.2405C150.627 19.6901 149.901 21.2605 148.451 21.7437C141.923 24.4012 135.516 27.3004 129.35 30.4412C128.988 30.8036 128.625 30.8035 128.141 30.8035ZM180.486 11.5966C179.277 11.5966 178.068 10.7511 177.827 9.54309C177.464 8.09351 178.431 6.64392 179.882 6.28152C186.893 4.59035 194.026 3.26158 201.037 2.2952C202.488 2.0536 203.938 3.14074 204.18 4.59032C204.422 6.0399 203.334 7.48952 201.883 7.73112C194.993 8.6975 187.981 10.0262 181.211 11.5966C180.97 11.5966 180.728 11.5966 180.486 11.5966ZM257.25 6.6439C257.129 6.6439 257.008 6.6439 257.008 6.6439C249.997 5.91911 242.985 5.55672 235.974 5.43592C234.402 5.43592 233.193 4.22795 233.314 2.65758C233.314 1.208 234.523 0 236.095 0C243.227 0.120798 250.48 0.483193 257.613 1.20798C259.063 1.32878 260.272 2.65756 260.03 4.22794C259.789 5.55672 258.58 6.6439 257.25 6.6439Z" fill="#E7EBF0"/>
<path d="M301.858 15.7038C301.616 15.7038 301.254 15.7038 301.012 15.583C297.627 14.4958 294.121 13.5294 290.616 12.563C289.165 12.2006 288.319 10.6301 288.681 9.18048C289.044 7.73087 290.615 6.88529 292.066 7.24769C295.693 8.2141 299.199 9.18051 302.704 10.2677C304.155 10.7509 305.001 12.2005 304.518 13.6501C304.155 14.9789 303.067 15.7038 301.858 15.7038Z" fill="#E7EBF0"/>
<path d="M307.056 72.1163C306.089 71.5123 304.759 71.6332 303.792 72.358L278.164 94.2225C263.174 89.5113 247.216 87.2162 231.017 87.5786L212.401 59.4325C211.796 58.4661 210.587 57.9829 209.378 58.2245L170.211 68.2508C169.123 68.4924 168.276 69.5796 168.155 70.6668L165.496 104.249C151.11 111.738 138.296 121.523 127.416 132.878L94.4137 126.113C93.2048 125.872 92.1168 126.355 91.5124 127.442L70.9614 162.232C70.357 163.198 70.4778 164.527 71.2032 165.494L93.0839 191.103C88.3693 206.082 86.0724 222.027 86.4351 238.214L58.2681 256.817C57.301 257.421 56.8175 258.629 57.0593 259.837L67.093 298.976C67.3348 300.063 68.4228 300.909 69.5107 301.029L103.118 303.687C110.613 318.062 120.405 330.867 131.768 341.739L124.998 374.716C124.757 375.924 125.24 377.012 126.328 377.616L161.144 398.151C162.111 398.755 163.441 398.635 164.408 397.91L190.036 376.045C205.026 380.756 220.984 383.052 237.183 382.689L255.799 410.835C256.404 411.802 257.613 412.285 258.822 412.043L297.989 402.017C299.077 401.775 299.924 400.688 300.044 399.601L302.704 366.019C317.09 358.529 329.904 348.745 340.784 337.39L373.786 344.154C374.995 344.396 376.083 343.913 376.688 342.826L397.238 308.036C397.843 307.069 397.722 305.741 396.997 304.774L375.116 279.165C379.831 264.186 382.128 248.24 381.765 232.053L409.932 213.45C410.899 212.846 411.382 211.638 411.141 210.431L401.107 171.292C400.865 170.205 399.777 169.359 398.689 169.238L365.082 166.581C357.587 152.206 347.795 139.401 336.432 128.529L343.202 95.5512C343.443 94.3432 342.96 93.256 341.872 92.652L307.056 72.1163Z" fill="#E7EBF0"/>
<path d="M234.161 275.179C230.413 275.179 226.545 274.575 222.797 273.487C212.522 270.467 204.059 263.582 198.982 254.28C193.905 244.858 192.696 234.107 195.718 223.839C198.74 213.571 205.631 205.115 214.939 200.042C224.369 194.968 235.128 193.76 245.403 196.78C255.679 199.8 264.141 206.686 269.218 215.987C274.296 225.409 275.504 236.161 272.482 246.428C269.46 256.696 262.569 265.152 253.261 270.226C247.217 273.487 240.689 275.179 234.161 275.179ZM234.04 203.303C228.842 203.303 223.643 204.632 218.808 207.169C211.313 211.276 205.873 217.92 203.576 226.134C201.158 234.228 202.125 242.925 206.115 250.294C210.225 257.783 216.874 263.22 225.094 265.515C233.194 267.931 241.897 266.964 249.272 262.978C256.767 258.871 262.207 252.227 264.504 244.012C266.921 235.919 265.954 227.342 261.965 219.853C257.855 212.363 251.206 206.927 242.985 204.632C240.084 203.786 237.062 203.303 234.04 203.303Z" fill="white"/>
<path d="M233.677 337.51C188.344 337.51 147 306.948 135.153 261.166C132.977 252.71 131.889 244.133 131.889 235.677C131.889 217.678 136.725 200.042 146.033 184.217C159.814 160.903 181.937 144.233 208.291 137.468C215.302 135.656 222.555 134.569 229.688 134.327L230.05 142.542C223.402 142.783 216.874 143.75 210.346 145.441C209.499 145.683 208.653 145.924 207.928 146.166C161.507 159.454 132.977 205.961 141.802 253.072C142.165 255.126 142.648 257.179 143.132 259.233C155.946 309.123 207.082 339.322 257.008 326.397C299.198 315.525 327.244 277.474 327.244 235.919C327.244 228.188 326.277 220.457 324.343 212.726C320.112 196.297 311.529 181.439 299.561 169.601L305.364 163.802C318.42 176.728 327.728 192.915 332.322 210.793C334.498 219.249 335.586 227.705 335.586 236.04C335.586 281.339 305.001 322.773 259.184 334.49C250.601 336.544 242.139 337.51 233.677 337.51Z" fill="white"/>
</svg>
