<svg width="749" height="442" viewBox="0 0 749 442" fill="none" xmlns="http://www.w3.org/2000/svg">
<g clip-path="url(#clip0_68_2437)">
<path d="M735.948 208.638C716.061 182.258 673.944 168.126 672.837 128.588C672.121 102.89 684.392 88.9848 664.765 67.0554C617.342 14.0349 544.207 7.82967 481.779 29.954C419.352 52.0784 369.488 96.4571 300.095 93.7931C262.306 92.3311 227.187 75.2749 189.789 72.091C178.267 71.1164 167.493 71.9611 157.436 74.3977C119.68 83.5918 86.3505 118.094 73.8195 156.463C63.6319 187.554 76.6512 218.222 60.67 248.664C43.6147 281.119 10.09 303.666 1.62748 341.125C-8.52757 386.088 30.2374 425.171 71.834 426.406C98.3283 427.185 147.411 423.157 169.934 407.628C197.34 388.72 224.257 387.453 256.187 388.2C316.987 389.564 377.755 402.592 437.774 411.851C489.2 419.778 539.878 431.539 591.987 433.033C630.264 434.138 662.715 434.625 683.448 395.12C708.152 347.85 777.643 263.998 735.948 208.638Z" fill="#DADFE5"/>
<path opacity="0.57" d="M583.069 316.694C639.675 316.694 685.564 270.89 685.564 214.389C685.564 157.887 639.675 112.084 583.069 112.084C526.463 112.084 480.575 157.887 480.575 214.389C480.575 270.89 526.463 316.694 583.069 316.694Z" fill="white"/>
<path opacity="0.48" d="M583.069 301.717C631.388 301.717 670.559 262.619 670.559 214.389C670.559 166.159 631.388 127.061 583.069 127.061C534.75 127.061 495.58 166.159 495.58 214.389C495.58 262.619 534.75 301.717 583.069 301.717Z" fill="#006C9E"/>
<path d="M583.069 305.778C532.587 305.778 491.543 264.778 491.543 214.421C491.543 164.065 532.619 123.065 583.069 123.065C633.551 123.065 674.595 164.065 674.595 214.421C674.595 264.778 633.551 305.778 583.069 305.778ZM583.069 131.122C537.078 131.122 499.648 168.483 499.648 214.389C499.648 260.294 537.078 297.656 583.069 297.656C629.06 297.656 666.49 260.294 666.49 214.389C666.49 168.483 629.06 131.122 583.069 131.122Z" fill="white"/>
<path opacity="0.24" d="M583.069 267.637C612.532 267.637 636.416 243.797 636.416 214.389C636.416 184.981 612.532 161.141 583.069 161.141C553.607 161.141 529.723 184.981 529.723 214.389C529.723 243.797 553.607 267.637 583.069 267.637Z" fill="#006C9E"/>
<path d="M583.069 271.698C551.432 271.698 525.687 246 525.687 214.421C525.687 182.843 551.432 157.145 583.069 157.145C614.706 157.145 640.452 182.843 640.452 214.421C640.484 245.967 614.738 271.698 583.069 271.698ZM583.069 165.202C555.891 165.202 533.791 187.261 533.791 214.389C533.791 241.516 555.891 263.576 583.069 263.576C610.247 263.576 632.347 241.516 632.347 214.389C632.347 187.261 610.247 165.202 583.069 165.202Z" fill="white"/>
<path d="M583.069 235.019C594.484 235.019 603.737 225.782 603.737 214.389C603.737 202.995 594.484 193.759 583.069 193.759C571.655 193.759 562.401 202.995 562.401 214.389C562.401 225.782 571.655 235.019 583.069 235.019Z" fill="#F58220"/>
<path d="M583.069 239.08C569.431 239.08 558.333 228.001 558.333 214.389C558.333 200.776 569.431 189.698 583.069 189.698C596.707 189.698 607.806 200.776 607.806 214.389C607.806 228.001 596.707 239.08 583.069 239.08ZM583.069 197.82C573.923 197.82 566.47 205.26 566.47 214.389C566.47 223.518 573.923 230.958 583.069 230.958C592.215 230.958 599.669 223.518 599.669 214.389C599.669 205.26 592.215 197.82 583.069 197.82Z" fill="white"/>
<path d="M707.338 90.0569L710.105 92.8184L605.495 197.202L602.728 194.473L707.338 90.0569Z" fill="#79BCD9"/>
<path d="M604.681 187.813C606.276 186.221 613.73 193.694 612.167 195.286L584.469 217.02C583.46 217.832 582.125 216.5 582.939 215.493L604.681 187.813Z" fill="#1D87B7"/>
<path d="M710.04 92.8509L724.101 94.2479L704.767 113.546C698.453 119.848 689.599 123 680.681 122.123L710.04 92.8509Z" fill="#1D87B7"/>
<path d="M707.273 90.1219L705.873 76.087L686.54 95.3849C680.226 101.688 677.068 110.524 677.947 119.426L707.273 90.1219Z" fill="#1D87B7"/>
<path d="M217.455 267.377C217.455 267.377 258.01 133.006 329.518 62.637C334.336 57.8937 342.473 60.3303 343.84 66.9254C353.148 111.044 368.055 243.953 217.455 267.377Z" fill="#AEC8D7"/>
<path d="M231.613 259.417C231.255 259.71 231.679 260.262 232.069 260.002C246.488 250.58 302.829 203.473 328.542 104.417C328.64 104.092 328.151 103.962 328.054 104.254C319.949 127.093 287.401 211.14 231.613 259.417Z" fill="#DCE5FE"/>
<path d="M514.36 437.127C514.36 437.127 554.915 302.756 626.424 232.387C631.241 227.644 639.378 230.08 640.745 236.675C650.054 280.762 664.993 413.703 514.36 437.127Z" fill="#AEC8D7"/>
<path d="M528.519 429.135C528.16 429.427 528.584 429.979 528.974 429.719C543.393 420.298 599.734 373.19 625.447 274.134C625.545 273.809 625.057 273.679 624.959 273.972C616.854 296.811 584.339 380.857 528.519 429.135Z" fill="#DCE5FE"/>
<path opacity="0.2" d="M243.819 358.311C243.819 358.311 189.333 227.449 110.306 164.065C105.001 159.809 97.0588 163.058 96.3428 169.815C91.5256 215.071 90.126 350.124 243.819 358.311Z" fill="#006C9E"/>
<path d="M228.814 351.748C229.205 352.008 228.847 352.593 228.423 352.398C212.996 344.406 151.545 302.821 115.579 205.909C115.449 205.584 115.904 205.39 116.067 205.714C126.515 227.806 167.786 308.929 228.814 351.748Z" fill="#DCE5FE"/>
<path d="M275.488 298.825C275.488 298.825 256.903 151.134 194.606 64.9436C190.407 59.1607 181.489 60.2328 178.853 66.8929C161.342 111.369 122.154 247.721 275.488 298.825Z" fill="#AEC8D7"/>
<path opacity="0.5" d="M262.111 288.007C262.436 288.396 261.916 288.884 261.525 288.559C248.148 276.148 197.568 216.923 188.259 108.77C188.226 108.413 188.747 108.348 188.812 108.705C193.206 134.013 212.312 227.644 262.111 288.007Z" fill="white"/>
<path d="M196.266 258.735C196.266 258.735 237.895 368.35 251.077 391.156C266.342 417.634 310.933 400.773 308.72 378.616C306.507 356.459 254.397 264.908 254.397 264.908L196.266 258.735Z" fill="url(#paint0_linear_68_2437)"/>
<path d="M252.542 178.879L511.333 89.3097L508.631 331.703L245.479 273.095L252.542 178.879Z" fill="#79BCD9"/>
<path d="M511.593 335.764C525.632 335.764 537.013 279.997 537.013 211.205C537.013 142.413 525.632 86.6457 511.593 86.6457C497.554 86.6457 486.173 142.413 486.173 211.205C486.173 279.997 497.554 335.764 511.593 335.764Z" fill="url(#paint1_linear_68_2437)"/>
<path d="M513.513 327.252C511.202 324.913 506.223 315.914 501.926 292.652C497.793 270.171 495.482 240.996 495.482 210.523C495.482 180.049 497.76 150.875 501.926 128.393C506.223 105.131 511.235 96.1322 513.513 93.793C515.824 96.1322 520.804 105.131 525.101 128.393C529.234 150.875 531.545 180.049 531.545 210.523C531.545 240.996 529.267 270.171 525.101 292.652C520.837 315.914 515.824 324.913 513.513 327.252Z" fill="url(#paint2_linear_68_2437)"/>
<path d="M546.127 209.58C546.127 230.73 534.702 247.916 512.081 247.916C489.46 247.916 471.136 230.763 471.136 209.58C471.136 188.398 489.46 171.245 512.081 171.245C534.702 171.245 546.127 188.398 546.127 209.58Z" fill="#006C9E"/>
<path d="M210.815 173.681C222.988 172.284 240.434 171.764 259.312 176.085C253.095 208.508 254.039 242.296 261.232 277.318H207.983C199.488 277.318 192.262 271.178 190.928 262.796C188.259 246.032 185.037 217.832 188.487 195.188C190.212 183.785 199.358 174.981 210.815 173.681Z" fill="url(#paint3_linear_68_2437)"/>
<path d="M283.69 392.358C281.737 392.358 279.752 392.131 277.799 391.709C269.174 389.824 262.143 384.139 258.531 376.147L225.364 302.659C224.973 301.814 225.364 300.807 226.21 300.45C227.056 300.06 228.065 300.45 228.423 301.294L261.558 374.782C264.747 381.832 270.899 386.803 278.483 388.46C285.936 390.084 293.455 388.167 299.151 383.197C299.476 382.937 299.769 382.644 300.095 382.352C300.778 381.735 301.852 381.767 302.471 382.449C303.089 383.132 303.057 384.204 302.373 384.821C302.048 385.113 301.722 385.406 301.397 385.698C296.384 390.084 290.167 392.358 283.69 392.358Z" fill="#91B3FA"/>
<path d="M222.012 292.782C221.361 292.782 220.742 292.425 220.482 291.775L216.771 283.588C216.381 282.744 216.771 281.736 217.618 281.379C218.464 280.989 219.473 281.379 219.831 282.224L223.541 290.411C223.932 291.255 223.541 292.263 222.695 292.62C222.467 292.75 222.239 292.782 222.012 292.782Z" fill="#C3E3F1"/>
<path d="M540.04 209.093C539.162 209.093 538.413 208.411 538.348 207.534C537.632 197.365 534.117 189.795 527.9 185.019C517.126 176.768 501.666 179.594 501.503 179.626C500.592 179.789 499.713 179.204 499.518 178.294C499.355 177.385 499.941 176.508 500.852 176.313C501.536 176.183 517.94 173.161 529.918 182.323C536.948 187.684 540.887 196.098 541.7 207.274C541.765 208.216 541.082 208.996 540.138 209.061C540.138 209.093 540.105 209.093 540.04 209.093Z" fill="#BDD0FB"/>
<path d="M245.153 197.235H202.059C200.595 197.235 199.293 196.455 198.609 195.188C197.926 193.921 197.958 192.394 198.772 191.192C199.097 190.672 199.781 190.542 200.302 190.867C200.822 191.192 200.953 191.874 200.627 192.394C200.269 192.914 200.269 193.596 200.562 194.149C200.855 194.701 201.441 195.026 202.059 195.026H245.153C246.097 195.026 246.878 194.246 246.878 193.304V190.25C246.878 189.308 246.097 188.528 245.153 188.528H201.734C201.115 188.528 200.627 188.041 200.627 187.424C200.627 186.806 201.115 186.319 201.734 186.319H245.121C247.301 186.319 249.059 188.073 249.059 190.25V193.304C249.059 195.448 247.301 197.235 245.153 197.235Z" fill="#91B3FA"/>
<path d="M241.313 216.273H198.219C196.754 216.273 195.452 215.493 194.769 214.226C194.085 212.959 194.118 211.432 194.931 210.23C195.257 209.71 195.94 209.58 196.461 209.905C196.982 210.23 197.112 210.912 196.787 211.432C196.429 211.952 196.429 212.634 196.722 213.187C197.014 213.739 197.6 214.064 198.219 214.064H241.313C242.257 214.064 243.038 213.284 243.038 212.342V209.288C243.038 208.346 242.257 207.566 241.313 207.566H197.893C197.275 207.566 196.787 207.079 196.787 206.462C196.787 205.844 197.275 205.357 197.893 205.357H241.28C243.461 205.357 245.218 207.111 245.218 209.288V212.342C245.218 214.519 243.461 216.273 241.313 216.273Z" fill="#C3E3F1"/>
<path d="M245.153 238.56H202.059C200.595 238.56 199.293 237.78 198.609 236.513C197.926 235.246 197.958 233.719 198.772 232.517C199.097 231.997 199.781 231.867 200.302 232.192C200.822 232.517 200.953 233.199 200.627 233.719C200.269 234.239 200.269 234.921 200.562 235.473C200.855 236.026 201.441 236.351 202.059 236.351H245.153C246.097 236.351 246.878 235.571 246.878 234.629V231.575C246.878 230.633 246.097 229.853 245.153 229.853H201.734C201.115 229.853 200.627 229.366 200.627 228.748C200.627 228.131 201.115 227.644 201.734 227.644H245.121C247.301 227.644 249.059 229.398 249.059 231.575V234.629C249.059 236.805 247.301 238.56 245.153 238.56Z" fill="#C3E3F1"/>
<path d="M249.189 263.316H206.095C204.631 263.316 203.329 262.536 202.645 261.269C201.962 260.002 201.994 258.475 202.808 257.273C203.134 256.753 203.817 256.623 204.338 256.948C204.859 257.273 204.989 257.955 204.663 258.475C204.305 258.995 204.305 259.677 204.598 260.229C204.891 260.782 205.477 261.107 206.095 261.107H249.189C250.133 261.107 250.914 260.327 250.914 259.385V256.331C250.914 255.389 250.133 254.609 249.189 254.609H205.77C205.152 254.609 204.663 254.122 204.663 253.504C204.663 252.887 205.152 252.4 205.77 252.4H249.157C251.337 252.4 253.095 254.154 253.095 256.331V259.385C253.095 261.561 251.337 263.316 249.189 263.316Z" fill="#C3E3F1"/>
<path d="M291.307 173.844C290.851 173.844 290.428 173.551 290.298 173.096C290.102 172.544 290.428 171.927 290.981 171.732L488.744 108.932C489.298 108.738 489.916 109.062 490.111 109.615C490.307 110.167 489.981 110.784 489.428 110.979L291.665 173.811C291.535 173.844 291.437 173.844 291.307 173.844Z" fill="#C3E3F1"/>
<path d="M264.585 184.76C264.161 184.76 263.771 184.5 263.576 184.077C263.348 183.525 263.608 182.908 264.161 182.68L274.349 178.522C274.902 178.294 275.521 178.554 275.749 179.107C275.976 179.659 275.716 180.276 275.163 180.504L264.975 184.662C264.845 184.727 264.715 184.76 264.585 184.76Z" fill="#C3E3F1"/>
<path d="M351.293 226.019C330.853 245.09 243.005 334.887 290.265 430.694C291.177 432.546 293.748 432.806 294.985 431.117C308.199 413.411 365.061 330.663 355.948 227.806C355.752 225.5 352.986 224.427 351.293 226.019Z" fill="#AEC8D7"/>
<path d="M340.162 256.266C340.39 255.843 339.804 255.454 339.511 255.876C327.142 274.167 292.511 333.198 293.683 419.583C293.683 419.551 296.742 334.107 340.162 256.266Z" fill="#DCE5FE"/>
<path d="M387.064 308.766C368.511 316.076 286.685 352.658 292.902 428.55C293.032 430.012 294.659 430.857 295.929 430.077C309.339 421.792 368.739 381.767 389.668 311.171C390.156 309.579 388.626 308.149 387.064 308.766Z" fill="#A3BDCC"/>
<path d="M371.766 325.92C372.026 325.693 371.733 325.303 371.44 325.498C358.421 334.4 319.982 364.483 298.109 422.085C298.109 422.052 322.553 366.173 371.766 325.92Z" fill="#DCE5FE"/>
<path opacity="0.2" d="M52.598 287.617C72.5175 288.591 161.765 297.071 180.252 370.916C180.61 372.346 179.341 373.678 177.876 373.32C162.513 369.779 93.381 350.871 50.873 290.736C49.9291 289.404 50.9706 287.552 52.598 287.617Z" fill="#006C9E"/>
<path d="M72.6152 298.955C72.2897 298.825 72.4524 298.338 72.7779 298.435C87.9454 302.691 134.034 318.903 173.287 366.433C173.287 366.433 132.178 321.339 72.6152 298.955Z" fill="#DCE5FE"/>
<path d="M693.473 353.99C673.521 353.243 583.883 354.055 559.113 426.048C558.625 427.445 559.797 428.875 561.262 428.647C576.885 426.438 647.384 413.54 694.905 357.239C695.979 356.004 695.133 354.055 693.473 353.99Z" fill="#A3BDCC"/>
<path d="M672.544 363.574C672.869 363.476 672.772 362.989 672.414 363.054C656.921 366.01 609.628 378.193 566.437 422.182C566.469 422.182 611.288 380.792 672.544 363.574Z" fill="#DCE5FE"/>
<path d="M402.394 173.876C402.329 173.064 401.515 172.382 400.116 171.829C401.645 170.985 402.459 170.107 402.394 169.23C402.166 166.566 393.769 165.104 383.581 165.917C373.394 166.729 365.322 169.555 365.549 172.219C365.614 173.031 366.428 173.714 367.828 174.266C366.298 175.111 365.484 175.988 365.549 176.865C365.614 177.677 366.428 178.359 367.828 178.912C366.298 179.756 365.484 180.634 365.549 181.511C365.614 182.323 366.428 183.005 367.828 183.558C366.298 184.402 365.484 185.279 365.549 186.157C365.647 187.326 367.34 188.268 370.106 188.886C370.074 189.763 370.106 190.705 370.171 191.745C370.562 196.65 376.095 200.484 383.386 200.484C390.677 200.484 396.991 195.253 397.056 190.348C397.089 189.145 397.024 188.073 396.926 187.131C400.409 185.962 402.524 184.565 402.427 183.168C402.361 182.355 401.548 181.673 400.148 181.121C401.678 180.276 402.492 179.399 402.427 178.522C402.361 177.71 401.548 177.027 400.148 176.475C401.613 175.663 402.459 174.753 402.394 173.876Z" fill="url(#paint4_linear_68_2437)"/>
<path d="M378.894 189.99C375.867 189.99 373.101 189.763 370.822 189.34C370.692 189.308 370.594 189.178 370.627 189.048C370.659 188.918 370.79 188.821 370.92 188.853C374.5 189.535 379.252 189.698 384.362 189.275C388.528 188.951 392.434 188.268 395.624 187.326C395.754 187.294 395.884 187.359 395.917 187.489C395.949 187.619 395.884 187.749 395.754 187.781C392.532 188.723 388.594 189.405 384.395 189.73C382.474 189.893 380.652 189.99 378.894 189.99Z" fill="url(#paint5_linear_68_2437)"/>
<path d="M378.927 185.312C374.988 185.312 371.506 184.955 369.032 184.24C368.902 184.207 368.837 184.077 368.869 183.947C368.902 183.817 369.032 183.752 369.162 183.785C372.677 184.792 378.373 185.084 384.362 184.63C390.286 184.142 395.787 182.94 399.139 181.413C399.269 181.348 399.4 181.413 399.465 181.543C399.53 181.673 399.465 181.803 399.335 181.868C395.95 183.428 390.384 184.63 384.395 185.117C382.507 185.247 380.684 185.312 378.927 185.312Z" fill="url(#paint6_linear_68_2437)"/>
<path d="M378.894 180.634C374.663 180.634 370.952 180.211 368.446 179.367C368.316 179.334 368.251 179.172 368.283 179.074C368.316 178.944 368.479 178.879 368.576 178.912C372.059 180.049 377.95 180.439 384.33 179.919C390.254 179.432 395.754 178.23 399.107 176.703C399.237 176.638 399.367 176.703 399.432 176.833C399.497 176.963 399.432 177.092 399.302 177.157C395.917 178.717 390.351 179.919 384.362 180.406C382.475 180.569 380.652 180.634 378.894 180.634Z" fill="url(#paint7_linear_68_2437)"/>
<path d="M378.927 175.988C375.574 175.988 372.515 175.728 370.139 175.176C370.008 175.143 369.911 175.013 369.943 174.883C369.976 174.753 370.106 174.656 370.236 174.688C373.817 175.468 378.959 175.695 384.362 175.241C390.221 174.753 395.721 173.584 399.041 172.057C399.172 171.992 399.302 172.057 399.367 172.187C399.432 172.317 399.367 172.447 399.237 172.512C395.852 174.039 390.286 175.241 384.395 175.728C382.507 175.89 380.684 175.988 378.927 175.988Z" fill="url(#paint8_linear_68_2437)"/>
<path d="M358.714 150.322C357.477 145.969 355.394 141.875 352.563 138.302C346.509 130.667 336.614 115.203 335.41 94.053C333.652 63.2868 360.96 47.8874 385.925 49.9991C410.857 52.0784 435.463 70.6291 432.794 99.251C431.134 116.86 421.272 130.212 413.916 137.879C409.262 142.753 405.909 148.73 404.119 155.195C401.906 163.155 396.666 173.064 384.2 173.649C367.991 174.428 361.286 159.419 358.714 150.322Z" fill="#FEC223"/>
<path d="M385.938 110.015C380.453 109.555 375.911 108.112 372.083 104.829C370.815 103.741 369.383 102.377 370.281 100.601C371.157 98.8682 373.008 99.4508 374.517 99.8414C377.63 100.648 380.691 101.671 383.828 102.358C387.672 103.199 389.3 101.167 387.964 97.434C387.366 95.7649 386.374 94.3414 385.304 92.9562C384.13 91.4366 382.93 89.9362 381.834 88.3611C376.525 80.7396 378.17 73.7626 385.617 68C383.102 72.8427 382.779 79.1431 386.149 83.4053C388.315 86.1414 390.678 88.7217 392.8 91.4921C394.01 93.0714 395.055 94.8216 395.921 96.6186C398.419 101.801 396.663 105.006 391.04 105.973C388.425 106.421 385.823 106.131 383.215 106.202C382.668 106.217 381.819 105.995 381.734 106.818C381.698 107.168 382.261 107.672 382.662 107.956C383.564 108.596 384.536 109.145 385.938 110.015Z" fill="#F58220"/>
<path d="M371.713 87.9745C371.308 91.2593 371.644 93.7286 374.336 96.1127C374.874 96.5886 375.523 97.4316 374.823 98.1701C373.985 99.0536 373.204 98.1573 372.564 97.6941C369.766 95.6665 369.332 91.3831 371.713 87.9745Z" fill="#F58220"/>
<path d="M384.561 96.4499C383.885 94.9132 382.772 93.6134 381.523 92.5399C377.187 88.8091 374.44 84.7604 377.015 75.9543C375.049 77.4035 373.521 82.9591 373.394 85.9002C373.138 91.8462 375.84 96.5097 380.536 100.003C381.708 100.876 383.179 101.034 384.425 100.04C385.774 98.9641 385.076 97.6195 384.561 96.4499Z" fill="#F58220"/>
<path d="M387.015 166.319L393.512 123.353C393.657 122.466 394.07 121.875 394.482 122.023C394.87 122.17 395.088 123.008 394.966 123.895C394.966 123.92 394.967 123.944 394.942 123.969L387.548 166.541C387.5 166.861 387.33 167.058 387.185 166.984C387.039 166.911 386.966 166.615 387.015 166.319Z" fill="#E7B01F"/>
<path d="M379.985 166.295L373.488 123.352C373.343 122.466 372.93 121.875 372.518 122.023C372.13 122.17 371.912 123.008 372.034 123.894C372.034 123.919 372.033 123.943 372.058 123.968L379.476 166.541C379.524 166.861 379.694 167.058 379.839 166.984C379.961 166.911 380.033 166.615 379.985 166.295Z" fill="#E7B01F"/>
<path d="M414.079 130.57C413.851 130.57 413.623 130.505 413.428 130.342C412.94 129.985 412.842 129.27 413.2 128.783C414.697 126.801 416.032 124.722 417.236 122.642C417.529 122.123 418.212 121.928 418.733 122.253C419.254 122.545 419.449 123.227 419.124 123.747C417.887 125.891 416.455 128.035 414.925 130.082C414.762 130.407 414.404 130.57 414.079 130.57Z" fill="#FBD46F"/>
<path d="M421.239 118.257C421.077 118.257 420.947 118.224 420.784 118.159C420.23 117.932 419.97 117.249 420.198 116.697C429.409 95.5149 421.467 77.7115 421.37 77.5166C421.109 76.9643 421.37 76.3145 421.923 76.0546C422.476 75.7947 423.127 76.0546 423.388 76.6069C423.746 77.3541 431.818 95.4824 422.216 117.574C422.086 118.029 421.695 118.257 421.239 118.257Z" fill="#FBD46F"/>
<path d="M141.65 260.099L140.739 258.377C140.641 258.183 140.706 257.89 140.934 257.793C141.129 257.695 141.422 257.76 141.52 257.988V258.02L142.398 259.677V259.71C142.496 259.904 142.431 260.197 142.203 260.294C142.04 260.392 141.78 260.327 141.65 260.099Z" fill="#1D87B7"/>
<path d="M138.981 254.251L138.395 252.4C138.33 252.172 138.46 251.912 138.688 251.847C138.916 251.782 139.176 251.912 139.241 252.14V252.172L139.827 253.959V253.992C139.892 254.219 139.762 254.479 139.534 254.544C139.307 254.609 139.046 254.479 138.981 254.251Z" fill="#1D87B7"/>
<path d="M137.419 248.014C137.321 247.364 137.256 246.714 137.223 246.097C137.223 245.87 137.386 245.642 137.647 245.642C137.874 245.642 138.102 245.805 138.102 246.065C138.135 246.682 138.2 247.299 138.297 247.949C138.33 248.176 138.167 248.404 137.907 248.436C137.679 248.404 137.451 248.241 137.419 248.014Z" fill="#1D87B7"/>
<path d="M137.354 241.549C137.419 240.899 137.516 240.249 137.647 239.632C137.679 239.404 137.94 239.242 138.167 239.275C138.395 239.307 138.558 239.567 138.525 239.794C138.395 240.412 138.298 241.029 138.232 241.646C138.2 241.874 137.972 242.069 137.744 242.036C137.516 242.004 137.321 241.776 137.354 241.549Z" fill="#1D87B7"/>
<path d="M138.948 235.279C139.176 234.661 139.437 234.076 139.73 233.492C139.827 233.264 140.12 233.167 140.316 233.297C140.543 233.394 140.641 233.687 140.511 233.882C140.25 234.434 139.99 235.019 139.762 235.603C139.665 235.831 139.404 235.928 139.176 235.863C138.981 235.766 138.851 235.506 138.948 235.279Z" fill="#1D87B7"/>
<path d="M142.041 229.626L143.212 228.066C143.375 227.871 143.635 227.839 143.831 227.969C144.026 228.131 144.059 228.391 143.928 228.586L143.896 228.618L142.757 230.113L142.724 230.145C142.561 230.34 142.301 230.373 142.106 230.243C141.943 230.08 141.878 229.821 142.041 229.626Z" fill="#1D87B7"/>
<path d="M146.239 224.72L147.639 223.388C147.834 223.225 148.127 223.225 148.29 223.42C148.452 223.615 148.452 223.908 148.257 224.07L146.858 225.37C146.662 225.532 146.369 225.532 146.207 225.337C146.044 225.175 146.044 224.882 146.239 224.72Z" fill="#1D87B7"/>
<path d="M151.154 220.594L152.749 219.489C152.944 219.359 153.237 219.392 153.4 219.619C153.53 219.814 153.497 220.107 153.27 220.269L151.707 221.341C151.512 221.471 151.219 221.439 151.056 221.211C150.894 221.016 150.959 220.724 151.154 220.594Z" fill="#1D87B7"/>
<path d="M156.59 217.15L158.282 216.241C158.51 216.111 158.803 216.208 158.9 216.435C159.031 216.663 158.933 216.955 158.705 217.053L157.045 217.962C156.817 218.092 156.524 217.995 156.427 217.767C156.264 217.54 156.362 217.248 156.59 217.15Z" fill="#1D87B7"/>
<path d="M162.351 214.291L164.108 213.544C164.336 213.447 164.629 213.544 164.727 213.804C164.824 214.031 164.727 214.324 164.466 214.421L162.709 215.168C162.481 215.266 162.188 215.168 162.09 214.909C161.992 214.649 162.09 214.389 162.351 214.291Z" fill="#1D87B7"/>
<path d="M168.307 211.952L170.13 211.335C170.39 211.237 170.651 211.4 170.716 211.627C170.813 211.887 170.651 212.147 170.423 212.212L168.633 212.829C168.372 212.927 168.112 212.764 168.047 212.537C167.916 212.277 168.047 212.017 168.307 211.952Z" fill="#1D87B7"/>
<path d="M174.426 210.068L176.281 209.58C176.542 209.515 176.802 209.678 176.867 209.905C176.932 210.165 176.77 210.425 176.542 210.49L174.686 210.977C174.426 211.042 174.166 210.88 174.101 210.653C174.035 210.393 174.166 210.133 174.426 210.068Z" fill="#1D87B7"/>
<path d="M180.675 208.573L182.563 208.216C182.824 208.151 183.084 208.346 183.116 208.606C183.182 208.866 182.986 209.126 182.726 209.158L180.871 209.515C180.61 209.58 180.35 209.386 180.317 209.126C180.252 208.898 180.415 208.638 180.675 208.573Z" fill="#1D87B7"/>
<path d="M186.99 207.469L188.878 207.209C189.138 207.176 189.398 207.371 189.431 207.631C189.463 207.891 189.268 208.151 189.008 208.183L187.12 208.443C186.86 208.476 186.599 208.281 186.567 208.021C186.534 207.761 186.697 207.534 186.99 207.469Z" fill="#1D87B7"/>
<path d="M193.337 206.722L195.257 206.559C195.517 206.527 195.778 206.722 195.778 207.014C195.81 207.274 195.615 207.534 195.322 207.534L193.434 207.696C193.174 207.729 192.946 207.534 192.913 207.241C192.881 206.981 193.076 206.754 193.337 206.722Z" fill="#1D87B7"/>
<path d="M199.716 206.332L201.636 206.267C201.897 206.267 202.125 206.462 202.157 206.754C202.157 207.014 201.962 207.241 201.669 207.274L199.749 207.339C199.488 207.339 199.26 207.144 199.228 206.851C199.228 206.559 199.456 206.332 199.716 206.332Z" fill="#1D87B7"/>
<path d="M206.128 206.234L208.048 206.267C208.309 206.267 208.537 206.494 208.537 206.786C208.537 207.046 208.309 207.274 208.016 207.274L206.095 207.241C205.835 207.241 205.607 207.014 205.607 206.721C205.64 206.429 205.868 206.234 206.128 206.234Z" fill="#1D87B7"/>
<path d="M212.54 206.462L214.46 206.592C214.721 206.624 214.948 206.852 214.916 207.111C214.883 207.371 214.656 207.599 214.395 207.566L212.507 207.436C212.247 207.404 212.019 207.176 212.052 206.916C212.019 206.624 212.247 206.429 212.54 206.462Z" fill="#1D87B7"/>
<path d="M218.887 206.981L220.807 207.176C221.1 207.209 221.296 207.436 221.263 207.729C221.23 208.021 221.003 208.216 220.71 208.183L218.822 207.989C218.561 207.956 218.334 207.729 218.366 207.436C218.366 207.144 218.627 206.949 218.887 206.981Z" fill="#1D87B7"/>
<path d="M225.266 207.696L227.154 207.956C227.447 207.988 227.642 208.248 227.577 208.508C227.545 208.801 227.284 208.996 227.024 208.931L225.136 208.671C224.843 208.638 224.648 208.378 224.713 208.118C224.713 207.858 224.973 207.664 225.266 207.696Z" fill="#1D87B7"/>
<path d="M231.581 208.573L233.468 208.866C233.761 208.898 233.924 209.158 233.892 209.451C233.859 209.743 233.599 209.905 233.306 209.873L231.418 209.58C231.125 209.548 230.962 209.288 230.995 208.996C231.06 208.703 231.32 208.541 231.581 208.573Z" fill="#1D87B7"/>
<path d="M237.895 209.613L239.783 209.938C240.076 210.003 240.239 210.263 240.206 210.523C240.141 210.815 239.881 210.978 239.62 210.945L237.732 210.588C237.439 210.523 237.277 210.263 237.309 210.003C237.342 209.743 237.602 209.548 237.895 209.613Z" fill="#1D87B7"/>
<path d="M244.177 210.783L246.065 211.172C246.358 211.237 246.52 211.497 246.455 211.79C246.39 212.082 246.13 212.244 245.837 212.18L243.981 211.79C243.689 211.725 243.526 211.465 243.591 211.172C243.623 210.912 243.884 210.75 244.177 210.783Z" fill="#1D87B7"/>
<path d="M250.426 212.115L252.281 212.537C252.574 212.602 252.737 212.894 252.672 213.154C252.607 213.447 252.314 213.609 252.054 213.544L250.198 213.122C249.905 213.057 249.743 212.764 249.808 212.504C249.873 212.244 250.133 212.05 250.426 212.115Z" fill="#1D87B7"/>
<path d="M256.643 213.609L258.498 214.064C258.791 214.129 258.954 214.421 258.889 214.714C258.823 215.006 258.531 215.168 258.238 215.103L256.382 214.649C256.089 214.584 255.927 214.291 255.992 214.031C256.057 213.706 256.35 213.512 256.643 213.609Z" fill="#1D87B7"/>
<path d="M262.827 215.201L264.682 215.688C264.975 215.753 265.138 216.046 265.04 216.338C264.943 216.63 264.682 216.793 264.389 216.695L262.534 216.208C262.241 216.143 262.078 215.851 262.176 215.558C262.241 215.298 262.534 215.103 262.827 215.201Z" fill="#1D87B7"/>
<path d="M268.979 216.923L270.801 217.475C271.094 217.573 271.257 217.865 271.159 218.125C271.062 218.417 270.769 218.58 270.508 218.482L268.686 217.93C268.393 217.865 268.23 217.54 268.328 217.28C268.393 216.988 268.686 216.825 268.979 216.923Z" fill="#1D87B7"/>
<path d="M275.098 218.742L276.92 219.327C277.213 219.424 277.344 219.717 277.278 220.009C277.181 220.302 276.888 220.431 276.595 220.366L274.772 219.782C274.479 219.684 274.349 219.392 274.414 219.132C274.512 218.807 274.805 218.677 275.098 218.742Z" fill="#1D87B7"/>
<path d="M281.184 220.691L283.007 221.309C283.3 221.406 283.43 221.698 283.332 221.991C283.235 222.283 282.942 222.413 282.649 222.316L280.826 221.698C280.533 221.601 280.403 221.309 280.468 221.016C280.598 220.756 280.891 220.594 281.184 220.691Z" fill="#1D87B7"/>
<path d="M287.238 222.738L289.061 223.355C289.354 223.453 289.484 223.745 289.386 224.038C289.289 224.33 288.996 224.46 288.703 224.362L286.913 223.745C286.62 223.648 286.49 223.355 286.587 223.063C286.652 222.771 286.945 222.641 287.238 222.738Z" fill="#1D87B7"/>
<path d="M293.26 224.85L295.05 225.5C295.343 225.597 295.473 225.922 295.375 226.182C295.277 226.474 294.952 226.604 294.692 226.507L292.901 225.857C292.609 225.76 292.478 225.435 292.576 225.175C292.641 224.915 292.967 224.752 293.26 224.85Z" fill="#1D87B7"/>
<path d="M299.249 227.059L301.039 227.741C301.332 227.839 301.462 228.164 301.364 228.456C301.267 228.748 300.941 228.878 300.648 228.781L298.858 228.099C298.565 228.001 298.435 227.676 298.533 227.384C298.63 227.124 298.956 226.962 299.249 227.059Z" fill="#1D87B7"/>
<path d="M305.205 229.366L306.995 230.08C307.288 230.178 307.418 230.503 307.321 230.795C307.223 231.088 306.897 231.218 306.604 231.12L304.814 230.405C304.521 230.308 304.391 229.983 304.489 229.691C304.586 229.398 304.912 229.268 305.205 229.366Z" fill="#1D87B7"/>
<path d="M311.129 231.737L312.886 232.452C313.179 232.582 313.309 232.874 313.179 233.167C313.049 233.459 312.756 233.589 312.463 233.459L310.705 232.744C310.413 232.614 310.282 232.322 310.413 232.03C310.51 231.737 310.836 231.607 311.129 231.737Z" fill="#1D87B7"/>
<path d="M317.02 234.141L318.778 234.889C319.07 235.019 319.201 235.343 319.07 235.603C318.94 235.896 318.615 236.026 318.354 235.896L316.597 235.149C316.304 235.019 316.174 234.694 316.304 234.434C316.402 234.174 316.727 234.044 317.02 234.141Z" fill="#1D87B7"/>
<path d="M322.911 236.643L324.669 237.39C324.962 237.52 325.092 237.845 324.962 238.137C324.831 238.43 324.506 238.56 324.213 238.43L322.455 237.683C322.163 237.553 322.032 237.228 322.163 236.935C322.293 236.643 322.618 236.513 322.911 236.643Z" fill="#1D87B7"/>
<path d="M328.77 239.145L330.527 239.924C330.82 240.054 330.951 240.379 330.82 240.672C330.69 240.964 330.365 241.094 330.072 240.964L328.314 240.184C328.021 240.054 327.891 239.729 328.021 239.437C328.151 239.177 328.477 239.047 328.77 239.145Z" fill="#1D87B7"/>
<path d="M334.596 241.744L336.354 242.523C336.647 242.653 336.777 242.978 336.647 243.271C336.516 243.563 336.191 243.693 335.898 243.563L334.14 242.783C333.847 242.653 333.717 242.328 333.847 242.036C333.978 241.744 334.303 241.614 334.596 241.744Z" fill="#1D87B7"/>
<path d="M340.422 244.343L342.18 245.122C342.473 245.252 342.603 245.577 342.473 245.87C342.342 246.162 342.017 246.292 341.724 246.162L339.966 245.382C339.674 245.252 339.543 244.927 339.674 244.635C339.804 244.343 340.129 244.213 340.422 244.343Z" fill="#1D87B7"/>
<path d="M346.248 246.974L347.973 247.754C348.266 247.884 348.396 248.209 348.266 248.501C348.136 248.794 347.81 248.924 347.518 248.794L345.793 248.014C345.5 247.884 345.369 247.559 345.5 247.267C345.597 246.974 345.955 246.844 346.248 246.974Z" fill="#1D87B7"/>
<path d="M352.042 249.638L353.767 250.45C354.06 250.58 354.19 250.938 354.06 251.198C353.929 251.49 353.571 251.62 353.311 251.49L351.586 250.678C351.293 250.548 351.163 250.191 351.293 249.931C351.391 249.606 351.749 249.508 352.042 249.638Z" fill="#1D87B7"/>
<path d="M357.835 252.302L359.56 253.114C359.853 253.244 359.983 253.602 359.853 253.894C359.723 254.187 359.365 254.317 359.072 254.187L357.347 253.374C357.054 253.244 356.924 252.887 357.054 252.595C357.184 252.27 357.542 252.172 357.835 252.302Z" fill="#1D87B7"/>
<path d="M363.629 254.966L365.354 255.778C365.647 255.908 365.777 256.266 365.647 256.558C365.517 256.851 365.159 256.98 364.866 256.851L363.141 256.038C362.848 255.908 362.718 255.551 362.848 255.259C362.978 254.966 363.336 254.836 363.629 254.966Z" fill="#1D87B7"/>
<path d="M369.422 257.63L371.147 258.442C371.44 258.572 371.571 258.93 371.44 259.222C371.31 259.515 370.952 259.645 370.659 259.515L368.934 258.702C368.641 258.572 368.511 258.215 368.641 257.923C368.771 257.63 369.13 257.5 369.422 257.63Z" fill="#1D87B7"/>
<path d="M375.216 260.294L376.941 261.074C377.234 261.204 377.364 261.561 377.234 261.854C377.104 262.146 376.746 262.276 376.453 262.146L374.728 261.366C374.435 261.236 374.305 260.879 374.435 260.587C374.565 260.294 374.891 260.164 375.216 260.294Z" fill="#1D87B7"/>
<path d="M381.01 262.926L382.767 263.706C383.06 263.835 383.19 264.193 383.06 264.485C382.93 264.778 382.572 264.908 382.279 264.778L380.521 263.998C380.228 263.868 380.098 263.511 380.228 263.218C380.359 262.926 380.717 262.796 381.01 262.926Z" fill="#1D87B7"/>
<path d="M386.803 265.525L388.561 266.305C388.854 266.435 388.984 266.792 388.854 267.084C388.723 267.377 388.365 267.507 388.072 267.377L386.315 266.597C386.022 266.467 385.892 266.11 386.022 265.817C386.152 265.525 386.51 265.395 386.803 265.525Z" fill="#1D87B7"/>
<path d="M392.629 268.124L394.387 268.904C394.68 269.034 394.843 269.391 394.713 269.683C394.582 269.976 394.224 270.138 393.931 270.008L392.174 269.229C391.881 269.099 391.751 268.741 391.881 268.449C391.978 268.124 392.336 267.994 392.629 268.124Z" fill="#1D87B7"/>
<path d="M398.488 270.658L400.246 271.405C400.539 271.535 400.701 271.893 400.571 272.185C400.441 272.477 400.083 272.64 399.79 272.51L398.032 271.763C397.74 271.633 397.577 271.275 397.707 270.983C397.837 270.658 398.195 270.528 398.488 270.658Z" fill="#1D87B7"/>
<path d="M404.347 273.16L406.104 273.907C406.397 274.037 406.56 274.394 406.43 274.687C406.3 274.979 405.942 275.141 405.649 275.011L403.891 274.264C403.598 274.134 403.435 273.777 403.566 273.484C403.696 273.16 404.054 273.03 404.347 273.16Z" fill="#1D87B7"/>
<path d="M410.238 275.596L411.996 276.311C412.321 276.441 412.451 276.798 412.321 277.091C412.191 277.416 411.833 277.545 411.54 277.416L409.782 276.701C409.457 276.571 409.327 276.213 409.457 275.921C409.555 275.629 409.913 275.466 410.238 275.596Z" fill="#1D87B7"/>
<path d="M416.129 277.968L417.919 278.683C418.245 278.813 418.375 279.17 418.277 279.462C418.147 279.787 417.789 279.917 417.496 279.82L415.706 279.105C415.381 278.975 415.25 278.618 415.348 278.325C415.478 278 415.836 277.838 416.129 277.968Z" fill="#1D87B7"/>
<path d="M422.086 280.274L423.876 280.957C424.201 281.087 424.364 281.444 424.234 281.736C424.103 282.061 423.745 282.224 423.453 282.094L421.662 281.412C421.337 281.282 421.174 280.924 421.304 280.632C421.402 280.307 421.76 280.144 422.086 280.274Z" fill="#1D87B7"/>
<path d="M428.042 282.516L429.832 283.166C430.157 283.296 430.32 283.621 430.19 283.946C430.06 284.271 429.734 284.433 429.409 284.303L427.619 283.653C427.293 283.523 427.131 283.198 427.261 282.874C427.358 282.549 427.716 282.386 428.042 282.516Z" fill="#1D87B7"/>
<path d="M434.031 284.66L435.821 285.278C436.146 285.375 436.309 285.732 436.211 286.057C436.114 286.382 435.756 286.545 435.43 286.447L433.608 285.83C433.282 285.732 433.119 285.375 433.217 285.05C433.347 284.725 433.705 284.563 434.031 284.66Z" fill="#1D87B7"/>
<path d="M440.052 286.74L441.875 287.324C442.2 287.422 442.396 287.779 442.265 288.104C442.168 288.429 441.81 288.624 441.484 288.494L439.662 287.877C439.336 287.779 439.173 287.422 439.271 287.097C439.369 286.805 439.727 286.61 440.052 286.74Z" fill="#1D87B7"/>
<path d="M446.106 288.689L447.929 289.241C448.254 289.339 448.45 289.696 448.352 290.021C448.254 290.346 447.896 290.541 447.571 290.443L445.748 289.858C445.423 289.761 445.227 289.404 445.325 289.079C445.423 288.754 445.781 288.591 446.106 288.689Z" fill="#1D87B7"/>
<path d="M452.193 290.541L454.015 291.06C454.341 291.158 454.536 291.515 454.438 291.84C454.341 292.165 453.983 292.36 453.657 292.263L451.802 291.71C451.477 291.613 451.281 291.255 451.379 290.931C451.509 290.638 451.867 290.443 452.193 290.541Z" fill="#1D87B7"/>
<path d="M458.344 292.295L460.2 292.782C460.525 292.88 460.753 293.237 460.655 293.562C460.558 293.887 460.2 294.114 459.874 294.017L458.019 293.53C457.693 293.432 457.498 293.075 457.563 292.75C457.628 292.393 457.986 292.198 458.344 292.295Z" fill="#1D87B7"/>
<path d="M464.496 293.919L466.351 294.374C466.677 294.472 466.904 294.797 466.807 295.154C466.709 295.479 466.384 295.706 466.026 295.609L464.17 295.154C463.845 295.056 463.617 294.732 463.715 294.374C463.78 294.017 464.138 293.822 464.496 293.919Z" fill="#1D87B7"/>
<path d="M470.68 295.381L472.535 295.804C472.893 295.869 473.089 296.226 473.024 296.583C472.958 296.941 472.6 297.136 472.242 297.071L470.387 296.648C470.029 296.583 469.834 296.226 469.899 295.869C469.964 295.544 470.322 295.316 470.68 295.381Z" fill="#1D87B7"/>
<path d="M476.897 296.746L478.752 297.136C479.11 297.201 479.338 297.558 479.24 297.883C479.175 298.24 478.817 298.468 478.492 298.37L476.604 297.98C476.246 297.915 476.018 297.558 476.116 297.233C476.181 296.908 476.539 296.681 476.897 296.746Z" fill="#1D87B7"/>
<path d="M483.146 297.98L485.034 298.305C485.392 298.37 485.619 298.695 485.554 299.053C485.489 299.41 485.164 299.637 484.806 299.572L482.918 299.247C482.56 299.182 482.332 298.858 482.397 298.5C482.43 298.143 482.788 297.916 483.146 297.98Z" fill="#1D87B7"/>
<path d="M489.395 299.053L491.283 299.345C491.641 299.41 491.869 299.735 491.836 300.092C491.771 300.45 491.446 300.677 491.088 300.645L489.2 300.352C488.842 300.287 488.614 299.962 488.647 299.605C488.712 299.248 489.037 298.988 489.395 299.053Z" fill="#1D87B7"/>
<path d="M495.71 299.962L497.598 300.19C497.956 300.222 498.216 300.547 498.151 300.904C498.118 301.262 497.793 301.522 497.435 301.457L495.515 301.229C495.156 301.197 494.896 300.872 494.961 300.515C494.994 300.157 495.319 299.897 495.71 299.962Z" fill="#1D87B7"/>
<path d="M502.024 300.677L503.912 300.872C504.27 300.904 504.53 301.229 504.498 301.587C504.465 301.944 504.14 302.204 503.782 302.171L501.861 301.977C501.503 301.944 501.243 301.619 501.275 301.262C501.341 300.904 501.666 300.645 502.024 300.677Z" fill="#1D87B7"/>
<path d="M508.339 301.197L510.226 301.327C510.584 301.359 510.877 301.652 510.845 302.041C510.812 302.399 510.519 302.691 510.129 302.659L508.208 302.529C507.85 302.496 507.557 302.204 507.59 301.814C507.655 301.457 507.98 301.197 508.339 301.197Z" fill="#1D87B7"/>
<path d="M514.685 301.587L516.606 301.652C516.964 301.652 517.257 301.977 517.257 302.334C517.257 302.691 516.931 302.984 516.573 302.984L514.653 302.919C514.295 302.919 514.002 302.594 514.002 302.236C514.034 301.847 514.327 301.554 514.685 301.587Z" fill="#1D87B7"/>
<path d="M521.065 301.749L522.985 301.782C523.343 301.782 523.636 302.074 523.636 302.464C523.636 302.821 523.343 303.114 522.952 303.114L521.032 303.081C520.674 303.081 520.381 302.789 520.381 302.399C520.381 302.042 520.674 301.749 521.065 301.749Z" fill="#1D87B7"/>
<path d="M527.412 301.749L529.332 301.717C529.69 301.717 530.015 302.009 530.015 302.366C530.015 302.724 529.722 303.049 529.364 303.049L527.444 303.081C527.086 303.081 526.761 302.789 526.761 302.431C526.761 302.074 527.054 301.749 527.412 301.749Z" fill="#1D87B7"/>
<path d="M533.759 301.554L535.679 301.457C536.037 301.424 536.363 301.717 536.395 302.106C536.428 302.464 536.135 302.789 535.744 302.821L533.824 302.919C533.466 302.951 533.14 302.659 533.108 302.269C533.108 301.879 533.401 301.587 533.759 301.554Z" fill="#1D87B7"/>
<path d="M540.106 301.197L541.993 301.034C542.351 301.002 542.677 301.294 542.709 301.652C542.742 302.009 542.449 302.334 542.091 302.366L540.171 302.529C539.813 302.561 539.487 302.269 539.455 301.911C539.455 301.522 539.748 301.197 540.106 301.197Z" fill="#1D87B7"/>
<path d="M546.452 300.612L548.34 300.385C548.698 300.352 549.056 300.612 549.089 300.969C549.121 301.327 548.861 301.684 548.503 301.717L546.582 301.944C546.224 301.977 545.866 301.717 545.834 301.359C545.801 300.969 546.062 300.644 546.452 300.612Z" fill="#1D87B7"/>
<path d="M552.767 299.832L554.654 299.572C555.013 299.507 555.371 299.767 555.436 300.157C555.501 300.515 555.24 300.872 554.85 300.937L552.962 301.197C552.604 301.262 552.246 301.002 552.181 300.612C552.116 300.222 552.376 299.865 552.767 299.832Z" fill="#1D87B7"/>
<path d="M559.049 298.825L560.936 298.5C561.294 298.435 561.652 298.695 561.75 299.053C561.815 299.41 561.555 299.767 561.197 299.865L559.309 300.19C558.951 300.255 558.593 299.995 558.528 299.637C558.398 299.248 558.658 298.89 559.049 298.825Z" fill="#1D87B7"/>
<path d="M565.265 297.623L567.12 297.201C567.478 297.103 567.869 297.363 567.934 297.721C568.032 298.078 567.771 298.468 567.413 298.533L565.526 298.955C565.168 299.02 564.777 298.793 564.712 298.435C564.647 298.078 564.907 297.721 565.265 297.623Z" fill="#1D87B7"/>
<path d="M571.449 296.194L573.305 295.706C573.663 295.609 574.053 295.836 574.151 296.194C574.248 296.551 574.021 296.941 573.663 297.038L571.807 297.526C571.449 297.623 571.059 297.396 570.961 297.038C570.864 296.648 571.091 296.291 571.449 296.194Z" fill="#1D87B7"/>
<path d="M577.601 294.504L579.424 293.952C579.782 293.854 580.172 294.049 580.303 294.407C580.4 294.764 580.205 295.154 579.847 295.284L577.992 295.836C577.634 295.934 577.243 295.739 577.113 295.381C577.015 295.024 577.21 294.634 577.601 294.504Z" fill="#1D87B7"/>
<path d="M583.655 292.587L585.445 291.97C585.803 291.84 586.194 292.035 586.324 292.393C586.454 292.75 586.259 293.14 585.901 293.27L584.078 293.887C583.72 294.017 583.33 293.822 583.199 293.465C583.069 293.107 583.264 292.717 583.655 292.587Z" fill="#1D87B7"/>
<path d="M589.611 290.411L591.369 289.696C591.727 289.566 592.15 289.728 592.28 290.086C592.41 290.443 592.248 290.866 591.89 290.996L590.099 291.71C589.741 291.84 589.318 291.678 589.188 291.32C589.058 290.963 589.221 290.573 589.611 290.411Z" fill="#1D87B7"/>
<path d="M595.437 287.974L597.162 287.194C597.52 287.032 597.944 287.194 598.106 287.552C598.269 287.909 598.106 288.331 597.748 288.494L595.991 289.306C595.633 289.469 595.209 289.306 595.047 288.949C594.917 288.559 595.079 288.137 595.437 287.974Z" fill="#1D87B7"/>
<path d="M601.166 285.245L602.858 284.368C603.216 284.173 603.64 284.336 603.802 284.66C603.998 285.018 603.835 285.44 603.509 285.603L601.817 286.48C601.459 286.675 601.036 286.512 600.873 286.187C600.678 285.83 600.808 285.408 601.166 285.245Z" fill="#1D87B7"/>
<path d="M606.732 282.224L608.359 281.249C608.685 281.054 609.14 281.152 609.336 281.509C609.531 281.834 609.433 282.289 609.075 282.484L607.415 283.458C607.09 283.653 606.634 283.556 606.439 283.198C606.276 282.841 606.406 282.419 606.732 282.224Z" fill="#1D87B7"/>
<path d="M612.135 278.877L613.697 277.805C614.022 277.578 614.478 277.675 614.706 278C614.934 278.325 614.836 278.78 614.511 279.007L612.916 280.079C612.59 280.307 612.135 280.209 611.939 279.885C611.711 279.56 611.777 279.105 612.135 278.877Z" fill="#1D87B7"/>
<path d="M617.31 275.239L618.807 274.102C619.133 273.874 619.588 273.907 619.816 274.232C620.044 274.557 620.012 275.011 619.686 275.239L618.156 276.408C617.831 276.636 617.375 276.603 617.147 276.278C616.919 275.954 616.984 275.499 617.31 275.239Z" fill="#1D87B7"/>
<path d="M622.257 271.275L623.689 270.041C623.982 269.781 624.438 269.813 624.698 270.106C624.959 270.398 624.926 270.853 624.633 271.113L623.168 272.38C622.875 272.64 622.42 272.607 622.159 272.315C621.899 272.022 621.932 271.568 622.257 271.275Z" fill="#1D87B7"/>
<path d="M626.912 267.019L628.246 265.687C628.539 265.395 628.995 265.395 629.288 265.687C629.581 265.98 629.581 266.434 629.288 266.727L627.921 268.091C627.628 268.384 627.172 268.384 626.912 268.091C626.619 267.767 626.619 267.312 626.912 267.019Z" fill="#1D87B7"/>
<path d="M631.273 262.439L632.51 261.009C632.77 260.717 633.226 260.684 633.551 260.944C633.844 261.204 633.877 261.659 633.617 261.984L632.347 263.446C632.087 263.738 631.631 263.771 631.306 263.511C631.045 263.218 631.013 262.763 631.273 262.439Z" fill="#1D87B7"/>
<path d="M635.342 257.598L636.481 256.103C636.741 255.778 637.197 255.713 637.522 255.973C637.848 256.233 637.913 256.688 637.653 257.013L636.481 258.54C636.22 258.865 635.765 258.93 635.472 258.67C635.146 258.378 635.081 257.923 635.342 257.598Z" fill="#1D87B7"/>
<path d="M639.052 252.497L640.094 250.905C640.322 250.58 640.777 250.483 641.103 250.71C641.428 250.938 641.526 251.393 641.298 251.717L640.224 253.309C639.996 253.634 639.54 253.732 639.215 253.504C638.922 253.277 638.824 252.822 639.052 252.497Z" fill="#1D87B7"/>
<path d="M642.405 247.137L643.349 245.48C643.544 245.122 644 244.992 644.358 245.22C644.716 245.415 644.846 245.87 644.618 246.227L643.674 247.884C643.479 248.241 643.023 248.371 642.665 248.144C642.34 247.949 642.209 247.494 642.405 247.137Z" fill="#1D87B7"/>
<path d="M645.399 241.581L646.245 239.892C646.44 239.534 646.864 239.372 647.222 239.534C647.58 239.729 647.742 240.152 647.58 240.509L646.733 242.231C646.538 242.588 646.115 242.751 645.757 242.556C645.366 242.393 645.236 241.939 645.399 241.581Z" fill="#1D87B7"/>
<path d="M648.068 235.831L648.784 234.076C648.947 233.687 649.37 233.524 649.76 233.687C650.151 233.849 650.314 234.271 650.151 234.661L649.402 236.448C649.24 236.838 648.816 237 648.426 236.838C648.068 236.643 647.905 236.221 648.068 235.831Z" fill="#1D87B7"/>
<path d="M650.346 229.918L650.965 228.131C651.095 227.741 651.518 227.546 651.909 227.676C652.299 227.806 652.494 228.229 652.364 228.618L651.746 230.438C651.616 230.828 651.193 231.023 650.802 230.893C650.411 230.763 650.216 230.34 650.346 229.918Z" fill="#1D87B7"/>
<path d="M652.267 223.908L652.787 222.088C652.885 221.698 653.308 221.471 653.699 221.569C654.089 221.666 654.317 222.088 654.22 222.478L653.699 224.33C653.601 224.72 653.178 224.947 652.787 224.85C652.397 224.72 652.136 224.33 652.267 223.908Z" fill="#1D87B7"/>
<path d="M653.829 217.767L654.22 215.916C654.317 215.493 654.708 215.266 655.131 215.331C655.554 215.428 655.782 215.818 655.717 216.24L655.294 218.125C655.196 218.515 654.806 218.775 654.382 218.71C653.992 218.612 653.732 218.19 653.829 217.767Z" fill="#1D87B7"/>
<path d="M655.066 211.562L655.359 209.678C655.424 209.256 655.814 208.996 656.237 209.061C656.661 209.126 656.921 209.515 656.856 209.938L656.563 211.822C656.498 212.244 656.107 212.504 655.684 212.439C655.261 212.374 655 212.017 655.066 211.562Z" fill="#1D87B7"/>
<path d="M655.945 205.325L656.14 203.44C656.172 203.018 656.563 202.726 656.986 202.758C657.409 202.791 657.702 203.18 657.67 203.603L657.474 205.519C657.442 205.942 657.051 206.234 656.628 206.202C656.205 206.104 655.912 205.747 655.945 205.325Z" fill="#1D87B7"/>
<path d="M656.498 199.022L656.596 197.138C656.628 196.715 656.986 196.39 657.409 196.423C657.833 196.455 658.158 196.813 658.125 197.235L658.028 199.152C657.995 199.574 657.637 199.899 657.214 199.867C656.791 199.802 656.466 199.444 656.498 199.022Z" fill="#1D87B7"/>
<path d="M656.726 192.687V190.802C656.726 190.38 657.084 190.023 657.507 190.023C657.93 190.023 658.288 190.38 658.288 190.802V192.719C658.288 193.141 657.93 193.499 657.507 193.466C657.051 193.466 656.726 193.109 656.726 192.687Z" fill="#1D87B7"/>
<path d="M656.628 186.352L656.531 184.467C656.498 184.045 656.856 183.687 657.279 183.655C657.702 183.623 658.06 183.98 658.093 184.402L658.191 186.319C658.223 186.741 657.865 187.099 657.442 187.131C657.019 187.131 656.661 186.806 656.628 186.352Z" fill="#1D87B7"/>
<path d="M656.238 180.049L656.075 178.165C656.042 177.742 656.335 177.352 656.758 177.32C657.182 177.287 657.572 177.58 657.605 178.002L657.767 179.919C657.8 180.341 657.507 180.731 657.084 180.764C656.661 180.796 656.27 180.471 656.238 180.049Z" fill="#1D87B7"/>
<path d="M655.554 173.746L655.294 171.862C655.229 171.439 655.522 171.05 655.945 170.985C656.368 170.92 656.758 171.212 656.823 171.634L657.084 173.551C657.149 173.974 656.856 174.363 656.433 174.428C656.01 174.493 655.619 174.168 655.554 173.746Z" fill="#1D87B7"/>
<path d="M654.578 167.508L654.22 165.657C654.155 165.234 654.415 164.812 654.838 164.747C655.261 164.682 655.684 164.942 655.749 165.364L656.107 167.249C656.173 167.671 655.912 168.093 655.489 168.158C655.066 168.223 654.643 167.931 654.578 167.508Z" fill="#1D87B7"/>
<path d="M653.276 161.303L652.853 159.451C652.755 159.029 653.015 158.607 653.438 158.509C653.861 158.412 654.285 158.672 654.382 159.094L654.838 160.978C654.936 161.401 654.675 161.823 654.252 161.92C653.829 161.985 653.406 161.726 653.276 161.303Z" fill="#1D87B7"/>
<path d="M651.746 155.163L651.225 153.344C651.095 152.921 651.355 152.499 651.778 152.369C652.202 152.239 652.625 152.499 652.755 152.921L653.276 154.773C653.406 155.195 653.146 155.618 652.722 155.748C652.299 155.813 651.844 155.585 651.746 155.163Z" fill="#1D87B7"/>
<path d="M649.891 149.088L649.305 147.301C649.175 146.879 649.402 146.456 649.793 146.294C650.216 146.164 650.639 146.391 650.802 146.781L651.42 148.6C651.551 149.023 651.323 149.445 650.932 149.607C650.509 149.737 650.053 149.51 649.891 149.088Z" fill="#1D87B7"/>
<path d="M647.808 143.11L647.124 141.323C646.961 140.901 647.157 140.446 647.58 140.316C648.003 140.153 648.459 140.348 648.589 140.771L649.272 142.558C649.435 142.98 649.207 143.435 648.817 143.565C648.426 143.727 647.97 143.532 647.808 143.11Z" fill="#1D87B7"/>
<path d="M645.464 137.23L644.715 135.475C644.553 135.085 644.715 134.598 645.139 134.436C645.529 134.273 646.017 134.436 646.18 134.858L646.929 136.612C647.091 137.002 646.929 137.49 646.506 137.652C646.115 137.847 645.627 137.652 645.464 137.23Z" fill="#1D87B7"/>
<path d="M642.86 131.479L642.047 129.757C641.851 129.367 642.014 128.88 642.405 128.685C642.795 128.49 643.283 128.653 643.479 129.043L644.325 130.764C644.52 131.154 644.358 131.642 643.967 131.837C643.544 132.032 643.056 131.869 642.86 131.479Z" fill="#1D87B7"/>
<path d="M640.028 125.794L639.117 124.104C638.922 123.715 639.052 123.227 639.443 123.032C639.833 122.837 640.321 122.967 640.517 123.357L641.428 125.047C641.623 125.436 641.493 125.924 641.103 126.119C640.712 126.346 640.224 126.184 640.028 125.794Z" fill="#1D87B7"/>
<path d="M636.937 120.271L635.96 118.646C635.732 118.257 635.862 117.769 636.253 117.542C636.644 117.314 637.132 117.444 637.36 117.834L638.336 119.491C638.564 119.881 638.434 120.368 638.043 120.596C637.653 120.791 637.164 120.661 636.937 120.271Z" fill="#1D87B7"/>
<path d="M633.649 114.845L632.607 113.253C632.38 112.864 632.477 112.376 632.835 112.149C633.226 111.921 633.714 112.019 633.942 112.376L634.984 114.001C635.211 114.39 635.114 114.878 634.756 115.105C634.398 115.333 633.909 115.235 633.649 114.845Z" fill="#1D87B7"/>
<path d="M630.134 109.582L629.027 108.023C628.767 107.665 628.864 107.146 629.222 106.886C629.58 106.626 630.101 106.723 630.361 107.081L631.468 108.64C631.729 108.997 631.631 109.517 631.273 109.777C630.915 110.037 630.394 109.94 630.134 109.582Z" fill="#1D87B7"/>
<path d="M626.424 104.449L625.284 102.922C625.024 102.565 625.089 102.045 625.447 101.785C625.805 101.525 626.326 101.59 626.586 101.948L627.758 103.474C628.018 103.832 627.953 104.352 627.595 104.612C627.205 104.871 626.684 104.806 626.424 104.449Z" fill="#1D87B7"/>
<path d="M622.518 99.446L621.313 97.984C621.02 97.6266 621.085 97.1068 621.411 96.8469C621.736 96.587 622.29 96.6195 622.55 96.9444L623.787 98.4388C624.08 98.7962 624.015 99.316 623.689 99.5759C623.299 99.8683 622.811 99.8033 622.518 99.446Z" fill="#1D87B7"/>
<path d="M618.384 94.6377L617.115 93.2083C616.822 92.8834 616.854 92.3636 617.18 92.0387C617.505 91.7463 618.026 91.7788 618.351 92.1037L619.621 93.5331C619.914 93.858 619.881 94.3778 619.556 94.7027C619.23 94.9951 618.709 94.9626 618.384 94.6377Z" fill="#1D87B7"/>
<path d="M614.12 89.9595L612.786 88.595C612.46 88.2701 612.493 87.7503 612.818 87.4254C613.144 87.1005 613.664 87.133 613.99 87.4579L615.324 88.8549C615.65 89.1798 615.617 89.6996 615.292 90.0244C614.966 90.2844 614.446 90.2843 614.12 89.9595Z" fill="#1D87B7"/>
<path d="M609.661 85.4436L608.294 84.1116C607.969 83.7867 607.969 83.2669 608.261 82.942C608.587 82.6172 609.108 82.6172 609.433 82.9095L610.8 84.2416C611.126 84.5664 611.126 85.0862 610.833 85.4111C610.507 85.7685 609.987 85.7685 609.661 85.4436Z" fill="#1D87B7"/>
<path d="M605.039 81.0902L603.607 79.8232C603.249 79.5308 603.249 78.9785 603.542 78.6536C603.835 78.2962 604.388 78.2962 604.714 78.5886L606.146 79.8556C606.471 80.148 606.504 80.7003 606.211 81.0252C605.918 81.3826 605.365 81.4151 605.039 81.0902Z" fill="#1D87B7"/>
<path d="M600.255 76.9317L598.79 75.6972C598.432 75.4048 598.399 74.885 598.692 74.5276C598.985 74.1702 599.506 74.1378 599.864 74.4302L601.329 75.6647C601.687 75.9571 601.719 76.4769 601.426 76.8343C601.133 77.1916 600.613 77.2241 600.255 76.9317Z" fill="#1D87B7"/>
<path d="M595.34 72.9357L593.843 71.7661C593.484 71.4737 593.419 70.9539 593.712 70.5966C594.005 70.2392 594.526 70.1742 594.884 70.4666L596.414 71.6362C596.772 71.9286 596.837 72.4484 596.544 72.8057C596.219 73.1306 595.698 73.1956 595.34 72.9357Z" fill="#1D87B7"/>
<path d="M590.262 69.1021L588.733 67.9975C588.342 67.7376 588.277 67.1853 588.537 66.8279C588.798 66.4381 589.351 66.3731 589.709 66.633L591.271 67.7701C591.662 68.03 591.727 68.5823 591.467 68.9396C591.174 69.297 590.653 69.362 590.262 69.1021Z" fill="#1D87B7"/>
<path d="M585.087 65.431L583.525 64.3589C583.134 64.099 583.037 63.5792 583.297 63.1893C583.557 62.7994 584.078 62.702 584.469 62.9619L586.064 64.034C586.454 64.2939 586.552 64.8137 586.291 65.2036C586.031 65.5934 585.478 65.6909 585.087 65.431Z" fill="#1D87B7"/>
<path d="M579.814 61.9223L578.22 60.9152C577.829 60.6553 577.699 60.1354 577.959 59.7456C578.22 59.3557 578.74 59.2258 579.131 59.4857L580.758 60.5253C581.149 60.7852 581.279 61.305 581.019 61.6949C580.726 62.0523 580.205 62.1822 579.814 61.9223Z" fill="#1D87B7"/>
<path d="M574.411 58.576L572.784 57.6014C572.393 57.3739 572.23 56.8541 572.491 56.4318C572.719 56.0419 573.239 55.8795 573.663 56.1394L575.322 57.114C575.713 57.3415 575.876 57.8613 575.615 58.2836C575.322 58.706 574.802 58.8359 574.411 58.576Z" fill="#1D87B7"/>
<path d="M568.911 55.4246L567.251 54.515C566.827 54.2876 566.697 53.7677 566.925 53.3454C567.153 52.9231 567.674 52.7931 568.097 53.0205L569.789 53.9627C570.212 54.1901 570.343 54.7099 570.115 55.1322C569.854 55.4896 569.334 55.6521 568.911 55.4246Z" fill="#1D87B7"/>
<path d="M563.312 52.4033L561.62 51.5261C561.197 51.2987 561.034 50.7789 561.262 50.3565C561.49 49.9342 562.01 49.7717 562.434 49.9992L564.126 50.8763C564.549 51.1038 564.712 51.6236 564.484 52.0134C564.256 52.4683 563.736 52.6307 563.312 52.4033Z" fill="#1D87B7"/>
<path d="M557.616 49.5768L555.891 48.7646C555.468 48.5697 555.273 48.0499 555.501 47.6275C555.696 47.2052 556.217 47.0103 556.64 47.2052L558.365 48.0174C558.788 48.2123 558.983 48.7321 558.756 49.1545C558.56 49.6093 558.072 49.7718 557.616 49.5768Z" fill="#1D87B7"/>
<path d="M551.855 46.9128L550.098 46.133C549.675 45.9381 549.479 45.4183 549.642 44.996C549.837 44.5736 550.358 44.3787 550.781 44.5411L552.539 45.3208C552.962 45.5158 553.157 46.0356 552.995 46.4579C552.799 46.9128 552.311 47.1077 551.855 46.9128Z" fill="#1D87B7"/>
<path d="M546.029 44.3787L544.272 43.664C543.816 43.469 543.621 42.9817 543.783 42.5269C543.979 42.072 544.467 41.8771 544.923 42.0395L546.713 42.7543C547.168 42.9492 547.364 43.4365 547.201 43.8914C546.973 44.3787 546.485 44.5736 546.029 44.3787Z" fill="#1D87B7"/>
<path d="M540.138 42.0395L538.348 41.3573C537.892 41.1949 537.664 40.675 537.827 40.2202C537.99 39.7654 538.511 39.538 538.966 39.7004L540.756 40.3827C541.212 40.5451 541.44 41.0649 541.277 41.4872C541.082 42.0071 540.594 42.202 540.138 42.0395Z" fill="#1D87B7"/>
<path d="M534.149 39.8629L532.359 39.2456C531.903 39.0831 531.675 38.5958 531.806 38.141C531.968 37.6862 532.457 37.4587 532.912 37.5887L534.735 38.206C535.191 38.3684 535.418 38.8557 535.288 39.3106C535.125 39.7979 534.605 40.0253 534.149 39.8629Z" fill="#1D87B7"/>
<path d="M528.128 37.8486L526.305 37.2638C525.849 37.1339 525.589 36.6141 525.719 36.1593C525.849 35.7044 526.37 35.4445 526.826 35.5745L528.648 36.1593C529.104 36.2892 529.365 36.809 529.234 37.2638C529.104 37.7512 528.616 38.0111 528.128 37.8486Z" fill="#1D87B7"/>
<path d="M522.041 35.9968L520.219 35.477C519.763 35.347 519.47 34.8597 519.6 34.4049C519.73 33.95 520.219 33.6576 520.674 33.7876L522.53 34.3074C522.985 34.4374 523.278 34.9247 523.148 35.3795C523.018 35.8668 522.53 36.1267 522.041 35.9968Z" fill="#1D87B7"/>
<path d="M515.922 34.3074L514.067 33.8201C513.579 33.6901 513.318 33.2028 513.416 32.748C513.546 32.2607 514.034 32.0008 514.49 32.0982L516.345 32.5855C516.834 32.7155 517.094 33.2028 516.996 33.6576C516.899 34.145 516.41 34.4374 515.922 34.3074Z" fill="#1D87B7"/>
<path d="M509.77 32.7805L507.915 32.3581C507.427 32.2606 507.134 31.7733 507.232 31.286C507.329 30.7987 507.817 30.5063 508.306 30.6038L510.194 31.0261C510.682 31.1236 510.975 31.6109 510.845 32.0982C510.714 32.618 510.259 32.9104 509.77 32.7805Z" fill="#1D87B7"/>
<path d="M503.554 31.4485L501.699 31.0586C501.21 30.9611 500.917 30.5063 501.015 30.019C501.113 29.5317 501.568 29.2393 502.057 29.3367L503.944 29.7266C504.433 29.824 504.726 30.2789 504.628 30.7662C504.498 31.221 504.042 31.5459 503.554 31.4485Z" fill="#1D87B7"/>
<path d="M497.305 30.2464L495.417 29.9216C494.928 29.8241 494.603 29.3693 494.701 28.8819C494.798 28.3946 495.254 28.0697 495.742 28.1672L497.63 28.4921C498.118 28.5895 498.444 29.0444 498.346 29.5317C498.281 30.019 497.793 30.3439 497.305 30.2464Z" fill="#1D87B7"/>
<path d="M491.055 29.2393L489.168 28.9794C488.679 28.9144 488.321 28.4596 488.419 27.9722C488.484 27.4849 488.94 27.1275 489.428 27.225L491.316 27.5174C491.804 27.5824 492.129 28.0372 492.064 28.5245C491.999 28.9469 491.544 29.3042 491.055 29.2393Z" fill="#1D87B7"/>
<path d="M484.741 28.3621L483.016 28.1672C482.528 28.1022 482.17 27.6474 482.235 27.16C482.3 26.6727 482.755 26.3153 483.244 26.3803L484.969 26.5752C485.457 26.6402 485.815 27.0951 485.75 27.5824C485.685 28.0697 485.229 28.4271 484.741 28.3621Z" fill="#1D87B7"/>
<path d="M473.772 15.0095L474.716 26.8677L466.254 22.4168L473.772 15.0095Z" fill="#1D87B7"/>
<path d="M419.742 12.4429L454.113 38.011C454.764 38.4984 455.61 38.6933 456.424 38.5633C457.238 38.4334 457.954 37.9786 458.409 37.2963L482.853 1.88432C483.146 1.49447 483.146 0.942171 482.853 0.519826C482.593 0.0974815 482.072 -0.0974468 481.616 1.73319e-05L419.742 12.4429Z" fill="#79BCD9"/>
<path d="M473.772 15.0095L419.742 12.4429L469.866 20.7274L470.257 24.0087L473.772 15.0095Z" fill="#1D87B7"/>
<path d="M467.49 24.1062L474.716 26.8677L469.866 20.7274L467.49 24.1062Z" fill="#1D779F"/>
<path d="M368.12 349.117C368.12 349.117 364.898 340.637 361.123 341.417C357.347 342.197 353.213 345.088 353.213 345.088L347.159 353.275C347.159 353.275 364.15 359.968 370.138 356.134C370.138 356.134 387.487 359.123 409.424 355.549C406.234 348.857 404.347 342.164 403.24 336.966C392.174 343.204 380.196 347.882 368.12 349.117Z" fill="url(#paint9_linear_68_2437)"/>
<path d="M460.102 287.617C460.102 287.617 435.235 318.87 403.272 336.934C404.379 342.132 406.267 348.824 409.457 355.517C426.056 352.788 445.227 346.323 461.501 331.898L460.102 287.617Z" fill="#F66691"/>
<path d="M128.077 302.041L177.42 425.918C179.927 432.221 186.436 435.99 193.174 435.015L322.585 425.464L275.976 293.757C274.74 290.508 271.582 288.364 268.067 288.461C245.381 288.981 162.741 291.028 133.187 293.66C129.086 293.984 126.515 298.24 128.077 302.041Z" fill="url(#paint10_linear_68_2437)"/>
<path d="M188.812 429.395L139.502 304.413C138.493 301.879 140.348 299.15 143.049 299.085L264.91 294.472C268.035 294.342 270.931 296.226 272.071 299.15L316.694 421.013L188.812 429.395Z" fill="#79BCD9"/>
<path d="M620.923 302.041L571.579 425.918C569.073 432.221 562.564 435.99 555.826 435.015L426.414 425.983L473.023 293.757C474.26 290.508 477.417 288.364 480.933 288.461C503.619 288.981 586.259 291.028 615.813 293.66C619.914 293.984 622.485 298.24 620.923 302.041Z" fill="url(#paint11_linear_68_2437)"/>
<path d="M560.188 429.395L609.498 304.413C610.507 301.879 608.652 299.15 605.951 299.085L484.09 294.472C480.965 294.342 478.069 296.226 476.929 299.15L432.306 421.013L560.188 429.395Z" fill="#79BCD9"/>
<path d="M273.763 291.743L275.293 333.133C279.687 334.627 283.853 335.797 287.824 336.674C290.298 328.682 295.798 318.87 300.257 311.593C283.821 305.778 273.763 291.743 273.763 291.743Z" fill="#E84475"/>
<path d="M355.98 291.061C333.391 315.394 315.099 316.824 300.29 311.593C295.798 318.87 290.33 328.682 287.856 336.674C348.168 349.961 362.392 294.602 362.392 294.602L355.98 291.061Z" fill="url(#paint12_linear_68_2437)"/>
<path d="M360.569 288.461C360.569 288.461 363.173 285.668 367.99 286.545C372.807 287.422 377.104 289.079 380.098 286.545C383.093 284.011 384.167 287.422 384.167 287.422L375.183 294.244L360.569 288.461Z" fill="url(#paint13_linear_68_2437)"/>
<path d="M355.199 293.237C355.199 293.237 356.989 285.797 362.36 286.805C367.73 287.812 379.936 294.439 383.06 293.237C386.217 292.003 390.221 289.111 392.271 290.118L388.626 294.634C388.626 294.634 397.967 289.241 399.562 292.555L384.037 301.294C384.069 301.294 361.351 299.02 355.199 293.237Z" fill="url(#paint14_linear_68_2437)"/>
<path d="M195.582 428.095C195.582 428.095 187.868 318.253 244.079 284.108C244.079 284.108 259.8 273.744 279.362 293.789C298.923 313.835 292.641 334.659 276.204 354.185C259.767 373.71 243.038 408.57 247.041 428.095H195.582Z" fill="#F76691"/>
<path d="M272.364 254.187C272.364 255.486 253.648 282.029 253.648 282.029C253.648 282.029 257.001 288.624 273.047 293.984L286.88 265.59L272.364 254.187Z" fill="url(#paint15_linear_68_2437)"/>
<path d="M265.008 345.283C265.008 345.283 300.518 374.945 338.827 362.014C341.203 361.202 343.807 361.397 346.02 362.567L357.054 368.382C361.676 370.819 367.404 369.227 370.106 364.743C371.636 362.177 372.937 359.253 373.198 356.459L351.618 347.752L353.213 345.121C353.213 345.121 342.7 344.243 339.934 351.748C339.934 351.748 319.884 360.065 286.066 322.931C286.066 322.931 270.736 335.959 265.008 345.283Z" fill="url(#paint16_linear_68_2437)"/>
<path d="M263.12 345.153C262.957 345.153 262.827 345.121 262.697 345.023C247.692 334.919 240.662 318.578 240.597 318.415C240.434 318.025 240.629 317.571 241.02 317.376C241.41 317.213 241.866 317.408 242.061 317.798C242.126 317.961 249.027 333.847 263.608 343.691C263.966 343.919 264.064 344.406 263.804 344.796C263.608 345.023 263.348 345.153 263.12 345.153Z" fill="#FA95B3"/>
<path d="M285.383 322.606C285.122 322.606 284.862 322.476 284.732 322.249C284.699 322.184 280.11 315.069 271.42 299.54C268.783 294.797 265.301 291.808 261.069 290.638C254.104 288.689 247.367 292.425 247.301 292.458C246.911 292.685 246.455 292.555 246.227 292.165C246 291.775 246.13 291.32 246.52 291.093C246.813 290.931 253.876 287 261.492 289.111C266.114 290.411 269.922 293.66 272.787 298.76C281.445 314.257 286.001 321.339 286.066 321.404C286.294 321.762 286.197 322.249 285.839 322.476C285.676 322.541 285.513 322.606 285.383 322.606Z" fill="#FA95B3"/>
<path d="M287.108 238.982C287.108 238.982 293.78 254.252 294.203 262.276C294.659 270.301 296.384 275.499 287.108 277.091C277.831 278.715 270.02 274.102 265.756 266.11C265.756 266.11 259.116 253.797 260.613 248.761C262.111 243.758 287.108 238.982 287.108 238.982Z" fill="url(#paint17_linear_68_2437)"/>
<path d="M268.946 260.392L269.467 260.164C270.15 259.872 270.443 259.06 270.085 258.41C268.783 255.876 266.212 250.093 269.532 248.761C273.796 247.007 290.623 243.595 294.236 237.65C297.719 231.932 294.626 224.525 289.972 222.413C289.647 222.283 289.289 222.381 289.126 222.673L288.735 223.42C288.475 223.908 287.726 223.843 287.563 223.29C287.401 222.771 286.717 222.673 286.424 223.128C285.318 224.915 282.291 227.806 274.251 229.301C262.794 231.412 255.243 236.026 255.048 243.92C255.048 244.408 254.494 244.7 254.071 244.44C253.225 243.92 251.858 243.693 250.068 245.187C246.911 247.819 248.213 254.674 255.113 260.294C255.438 260.554 255.438 261.074 255.08 261.301C253.843 262.114 251.956 264.03 256.805 266.629C261.785 269.293 265.528 269.066 266.96 268.839C267.318 268.774 267.546 268.449 267.481 268.091L265.951 261.139C265.854 260.749 266.179 260.359 266.57 260.359H268.946V260.392Z" fill="white"/>
<path d="M269.239 261.854C269.239 261.854 266.7 252.107 262.306 254.836C257.912 257.565 264.584 265.752 268.099 266.142L269.239 261.854Z" fill="url(#paint18_linear_68_2437)"/>
<path d="M346.053 362.534C346.053 362.534 355.069 371.338 356.826 370.071C357.445 369.616 359.007 367.96 360.537 366.108C361.611 364.808 361.708 362.956 360.797 361.559L358.681 358.278C356.663 355.159 352.302 354.51 349.503 356.946C348.038 358.181 346.769 359.968 346.053 362.534Z" fill="url(#paint19_linear_68_2437)"/>
<path d="M488.191 426.503C488.191 426.503 488.126 386.933 465.082 346.063C457.856 333.295 455.317 318.415 457.563 303.893L460.102 287.617C460.102 287.617 491.739 276.928 526.793 287.162C526.793 287.162 575.42 327.22 542.904 429.687L488.191 426.503Z" fill="#F66691"/>
<path d="M465.472 266.824L473.674 286.48C474.195 287.714 475.302 288.591 476.636 288.819C481.356 289.631 492.813 290.898 500.331 285.96C501.243 285.375 501.47 284.173 500.852 283.296L485.685 261.594L465.472 266.824Z" fill="url(#paint20_linear_68_2437)"/>
<path d="M485.717 359.285C484.578 359.578 484.025 360.845 484.578 361.884L508.306 407.303C508.696 408.083 509.608 408.44 510.421 408.212L588.049 385.828C589.025 385.536 589.579 384.529 589.286 383.586L575.908 337.388C575.648 336.446 574.639 335.894 573.695 336.121L485.717 359.285Z" fill="#FCB97F"/>
<path d="M490.73 353.957C489.623 354.217 488.972 355.387 489.395 356.459L508.404 407.953C508.762 408.895 509.771 409.415 510.714 409.122L588.114 386.803C589.091 386.51 589.676 385.536 589.449 384.561L578.708 334.984C578.48 333.945 577.438 333.295 576.397 333.522L490.73 353.957Z" fill="#F3A766"/>
<path d="M497.467 348.759C496.1 348.954 495.222 350.286 495.515 351.618L508.404 407.238C508.697 408.537 510.064 409.35 511.366 408.96L587.593 386.998C588.83 386.64 589.546 385.373 589.221 384.139L577.504 338.753C577.211 337.583 576.071 336.836 574.867 336.999L497.467 348.759Z" fill="#F58220"/>
<path d="M559.146 369.941C565.07 325.335 530.634 291.028 530.634 291.028L510.128 314.874C525.687 334.237 533.075 351.976 536.46 365.88C540.952 364.613 551.725 362.534 559.146 369.941Z" fill="#F66691"/>
<path d="M536.46 366.433C536.232 366.433 536.004 366.27 535.939 366.043C531.74 348.759 522.92 331.671 509.705 315.232C509.51 315.004 509.575 314.679 509.77 314.484C509.998 314.289 510.324 314.354 510.519 314.549C523.831 331.118 532.717 348.337 536.948 365.783C537.013 366.075 536.85 366.335 536.558 366.4C536.558 366.433 536.525 366.433 536.46 366.433Z" fill="#FA95B3"/>
<path d="M536.46 365.913C539.584 378.843 539.259 388.525 538.803 393.138C538.608 394.892 537.208 396.224 535.483 396.354C533.498 396.484 530.797 396.679 528.388 396.809C525.719 396.972 522.79 395.282 520.837 393.885C519.828 393.17 518.526 394.275 519.079 395.38C520.544 398.239 524.287 400.805 526.858 402.3C527.802 402.852 527.607 404.249 526.565 404.541L515.564 407.66C533.628 424.651 545.541 405.646 545.541 405.646C553.515 393.333 557.649 381.312 559.146 369.974C551.725 362.534 540.951 364.613 536.46 365.913Z" fill="url(#paint21_linear_68_2437)"/>
<path d="M473.968 236.74C473.609 237.065 459.418 264.875 459.418 264.875L475.497 272.64L492.878 248.274C492.878 248.274 479.729 231.315 473.968 236.74Z" fill="url(#paint22_linear_68_2437)"/>
<path d="M485.587 251.198L477.548 264.55C477.418 264.745 477.287 264.94 477.092 265.103C476.148 265.98 472.861 268.579 470.355 265.07C468.206 262.081 466.188 259.352 464.008 258.215C462.738 257.565 461.176 258.085 460.558 259.352C459.223 261.984 456.684 267.312 455.057 272.347C454.666 273.614 455.317 274.979 456.554 275.466C459.809 276.798 466.254 279.17 471.949 279.95C472.893 280.08 473.805 279.69 474.391 278.91C476.864 275.564 483.765 266.142 486.141 263.803C488.321 261.626 492.39 262.439 494.213 262.958C494.896 263.153 495.645 263.056 496.263 262.698C498.118 261.594 501.341 258.8 498.379 254.122C497.63 252.952 498.021 251.393 499.16 250.645C501.243 249.281 503.489 246.747 501.341 242.621C499.16 238.43 495.319 238.072 492.683 238.397C491.511 238.527 490.339 237.943 489.884 236.838C489.688 236.351 489.298 235.961 488.549 235.798C487.182 235.506 486.271 234.271 486.531 232.874C486.987 230.503 486.661 227.449 482.853 225.37C475.92 221.569 469.834 227.774 468.272 233.004C466.709 238.235 474.488 241.939 479.371 242.556C482.951 243.011 484.936 246.909 485.717 248.956C486.043 249.671 485.978 250.515 485.587 251.198Z" fill="url(#paint23_linear_68_2437)"/>
<path d="M483.146 268.709C483.146 268.709 486.238 259.71 490.176 260.034C494.115 260.359 497.239 264.29 492.325 268.709C486.238 274.199 483.146 268.709 483.146 268.709Z" fill="url(#paint24_linear_68_2437)"/>
<path d="M366.591 430.987C366.591 433.293 364.703 435.177 362.392 435.177H192.197C188.682 435.177 185.818 432.319 185.818 428.81L183.149 425.691L359.886 424.164C363.596 424.261 366.591 427.283 366.591 430.987Z" fill="url(#paint25_linear_68_2437)"/>
<path d="M382.409 430.987C382.409 433.293 384.297 435.177 386.608 435.177H556.803C560.318 435.177 563.182 432.319 563.182 428.81L565.851 425.691L389.114 424.164C385.404 424.261 382.409 427.283 382.409 430.987Z" fill="url(#paint26_linear_68_2437)"/>
<path d="M157.273 345.381C157.045 345.381 156.785 345.251 156.655 345.056C156.134 344.243 155.548 343.464 154.962 342.684C154.734 342.359 154.799 341.904 155.125 341.644C155.45 341.417 155.906 341.482 156.166 341.807C156.752 342.619 157.338 343.431 157.891 344.243C158.119 344.568 158.022 345.056 157.696 345.251C157.566 345.348 157.403 345.381 157.273 345.381Z" fill="#006C9E"/>
<path d="M105.587 442C104.48 442 103.341 441.968 102.234 441.903C101.811 441.87 101.518 441.545 101.551 441.123C101.583 440.701 101.941 440.408 102.332 440.441C104.252 440.538 106.205 440.538 108.093 440.473C108.516 440.473 108.841 440.766 108.874 441.188C108.906 441.61 108.581 441.935 108.158 441.968C107.312 441.968 106.465 442 105.587 442ZM117.532 440.83C117.174 440.83 116.881 440.571 116.816 440.246C116.751 439.856 117.011 439.466 117.402 439.369C119.224 439.011 121.047 438.556 122.837 438.037L123 438.004C123.39 437.874 123.814 438.101 123.911 438.491C124.041 438.881 123.814 439.304 123.423 439.401L123.26 439.433C121.405 439.953 119.55 440.408 117.694 440.798C117.629 440.831 117.564 440.83 117.532 440.83ZM132.016 436.12C131.723 436.12 131.462 435.957 131.332 435.697C131.169 435.34 131.332 434.885 131.69 434.723C133.415 433.911 135.14 433.001 136.768 432.059C137.126 431.864 137.581 431.961 137.777 432.319C137.972 432.676 137.874 433.131 137.516 433.326C135.824 434.3 134.066 435.243 132.309 436.055C132.244 436.087 132.146 436.12 132.016 436.12ZM144.937 427.998C144.709 427.998 144.514 427.9 144.351 427.738C144.091 427.413 144.156 426.958 144.449 426.698C145.914 425.496 147.378 424.197 148.713 422.865C149.006 422.572 149.462 422.572 149.754 422.865C150.047 423.157 150.047 423.612 149.754 423.904C148.355 425.269 146.89 426.601 145.36 427.835C145.263 427.965 145.1 427.998 144.937 427.998ZM155.483 416.984C155.32 416.984 155.19 416.952 155.027 416.854C154.702 416.627 154.637 416.14 154.865 415.815C156.004 414.288 157.078 412.696 158.087 411.039C158.315 410.682 158.738 410.584 159.096 410.779C159.454 411.006 159.551 411.429 159.356 411.786C158.347 413.443 157.241 415.1 156.069 416.659C155.939 416.887 155.711 416.984 155.483 416.984ZM163.034 403.762C162.936 403.762 162.839 403.729 162.741 403.697C162.351 403.534 162.188 403.112 162.351 402.722C163.099 400.968 163.75 399.148 164.304 397.329C164.434 396.939 164.824 396.712 165.215 396.842C165.605 396.972 165.833 397.361 165.703 397.751C165.117 399.603 164.434 401.487 163.685 403.274C163.587 403.567 163.295 403.762 163.034 403.762ZM167.135 389.077C167.103 389.077 167.07 389.077 167.038 389.077C166.647 389.012 166.354 388.655 166.419 388.232C166.712 386.348 166.907 384.431 167.005 382.514C167.038 382.125 167.396 381.8 167.786 381.832C168.209 381.865 168.502 382.189 168.47 382.612C168.372 384.561 168.177 386.543 167.884 388.46C167.786 388.817 167.493 389.077 167.135 389.077ZM167.493 373.84C167.103 373.84 166.81 373.548 166.745 373.19C166.549 371.306 166.256 369.389 165.898 367.505C165.833 367.115 166.094 366.725 166.484 366.628C166.875 366.563 167.265 366.823 167.363 367.213C167.754 369.129 168.014 371.079 168.209 373.028C168.242 373.418 167.949 373.808 167.558 373.84C167.526 373.84 167.526 373.84 167.493 373.84ZM164.141 358.993C163.848 358.993 163.555 358.798 163.457 358.506C162.806 356.719 162.09 354.932 161.277 353.178C161.114 352.82 161.277 352.365 161.635 352.203C161.993 352.041 162.448 352.203 162.611 352.56C163.425 354.315 164.206 356.167 164.857 358.018C164.987 358.408 164.792 358.831 164.401 358.961C164.304 358.961 164.206 358.993 164.141 358.993Z" fill="#006C9E"/>
<path d="M92.8926 440.668C92.8275 440.668 92.795 440.668 92.7299 440.668C91.7534 440.473 90.777 440.246 89.8331 439.986C89.4425 439.888 89.2147 439.466 89.3123 439.076C89.41 438.686 89.8331 438.459 90.2237 438.556C91.1676 438.816 92.1115 439.011 93.0554 439.238C93.4459 439.336 93.7063 439.726 93.6412 440.116C93.5436 440.44 93.2181 440.668 92.8926 440.668Z" fill="#006C9E"/>
<path d="M52.7607 412.566C52.5003 412.566 52.2724 412.436 52.1423 412.209C51.6215 411.364 51.1007 410.487 50.645 409.642C50.4497 409.285 50.5799 408.83 50.938 408.635C51.296 408.44 51.7517 408.57 51.947 408.927C52.4026 409.772 52.9234 410.617 53.4116 411.429C53.6395 411.786 53.5093 412.241 53.1838 412.436C53.0211 412.533 52.8909 412.566 52.7607 412.566Z" fill="#006C9E"/>
<path d="M47.3577 401.552C47.0648 401.552 46.7718 401.357 46.6742 401.065C46.1534 399.668 45.6652 398.206 45.2421 396.744C45.1119 396.354 45.0142 395.932 44.9166 395.542C44.8189 395.152 45.0468 394.73 45.4373 394.632C45.8279 394.535 46.251 394.762 46.3487 395.152C46.4463 395.542 46.5765 395.932 46.6742 396.322C47.0973 397.751 47.553 399.148 48.0738 400.545C48.2039 400.935 48.0087 401.357 47.6506 401.487C47.553 401.552 47.4553 401.552 47.3577 401.552ZM43.875 386.998C43.517 386.998 43.1915 386.705 43.1264 386.348C42.8986 384.431 42.7684 382.482 42.7358 380.565C42.7358 380.143 43.0613 379.818 43.4519 379.818C43.8425 379.818 44.2005 380.143 44.2005 380.533C44.2331 382.417 44.3633 384.301 44.5911 386.186C44.6236 386.575 44.3633 386.965 43.9401 386.998C43.9401 386.998 43.9076 386.998 43.875 386.998ZM43.9727 371.988C43.9401 371.988 43.9076 371.988 43.875 371.988C43.4844 371.923 43.1915 371.566 43.2241 371.176C43.4844 369.259 43.8099 367.343 44.2331 365.458C44.3307 365.068 44.7213 364.808 45.1119 364.906C45.5024 365.003 45.7628 365.393 45.6652 365.783C45.2421 367.602 44.9166 369.487 44.6887 371.339C44.6562 371.728 44.3307 371.988 43.9727 371.988ZM47.6832 357.466C47.5855 357.466 47.4879 357.466 47.4228 357.401C47.0322 357.239 46.8695 356.816 46.9997 356.459C47.6832 354.672 48.4969 352.885 49.3431 351.163C49.5384 350.806 49.9616 350.644 50.3196 350.839C50.6776 351.034 50.8404 351.456 50.6451 351.813C49.7988 353.503 49.0177 355.224 48.3667 356.979C48.269 357.304 47.9761 357.466 47.6832 357.466ZM54.7787 344.276C54.6485 344.276 54.4858 344.244 54.3556 344.146C54.0301 343.919 53.9324 343.464 54.1603 343.106C55.2669 341.547 56.4712 339.988 57.708 338.526C57.9684 338.201 58.4241 338.168 58.7496 338.428C59.0751 338.688 59.1076 339.143 58.8472 339.468C57.6429 340.897 56.4712 342.392 55.3971 343.951C55.2344 344.146 55.0065 344.276 54.7787 344.276ZM64.8036 333.133C64.6083 333.133 64.3804 333.035 64.2502 332.873C63.9898 332.58 64.0224 332.093 64.3153 331.833C65.78 330.566 67.3098 329.364 68.8721 328.227C69.1976 328 69.6532 328.064 69.9136 328.389C70.1415 328.714 70.0764 329.169 69.7509 329.429C68.2211 330.534 66.7239 331.703 65.3243 332.938C65.1616 333.068 64.9988 333.133 64.8036 333.133ZM77.237 324.718C76.9766 324.718 76.7162 324.556 76.586 324.328C76.3907 323.971 76.5535 323.516 76.9115 323.321C78.6366 322.444 80.3942 321.632 82.1843 320.917C82.5749 320.755 82.998 320.95 83.1282 321.339C83.291 321.729 83.0957 322.152 82.7051 322.282C80.9475 322.996 79.2224 323.776 77.5625 324.621C77.4648 324.718 77.3672 324.718 77.237 324.718ZM91.3304 319.553C91.0049 319.553 90.6794 319.325 90.6143 319C90.5167 318.61 90.7771 318.221 91.1676 318.123C93.0554 317.668 94.9758 317.311 96.8636 317.051C97.2542 316.986 97.6447 317.278 97.7098 317.668C97.7749 318.058 97.482 318.448 97.0914 318.513C95.2362 318.773 93.3484 319.13 91.5257 319.553C91.4606 319.553 91.3955 319.553 91.3304 319.553ZM111.999 318.221C111.966 318.221 111.933 318.221 111.933 318.221C110.046 318.026 108.158 317.928 106.27 317.896C105.847 317.896 105.521 317.571 105.554 317.149C105.554 316.759 105.879 316.434 106.303 316.434C108.223 316.466 110.176 316.564 112.096 316.759C112.487 316.791 112.812 317.149 112.747 317.571C112.682 317.928 112.357 318.221 111.999 318.221Z" fill="#006C9E"/>
<path d="M124.009 320.657C123.944 320.657 123.846 320.657 123.781 320.625C122.87 320.332 121.926 320.072 120.982 319.812C120.591 319.715 120.363 319.293 120.461 318.903C120.559 318.513 120.982 318.286 121.372 318.383C122.349 318.643 123.293 318.903 124.237 319.195C124.627 319.325 124.855 319.715 124.725 320.105C124.627 320.462 124.334 320.657 124.009 320.657Z" fill="#006C9E"/>
<path d="M125.408 335.829C125.148 335.667 124.79 335.699 124.53 335.894L117.629 341.774C113.593 340.507 109.297 339.89 104.936 339.988L99.9231 332.418C99.7604 332.158 99.4349 332.028 99.1094 332.093L88.5638 334.789C88.2708 334.854 88.043 335.147 88.0104 335.439L87.2944 344.471C83.4211 346.485 79.971 349.117 77.0417 352.171L68.156 350.351C67.8305 350.286 67.5376 350.416 67.3749 350.709L61.8417 360.065C61.6789 360.325 61.7115 360.682 61.9068 360.942L67.798 367.83C66.5286 371.858 65.9102 376.147 66.0078 380.5L58.4241 385.503C58.1637 385.666 58.0335 385.991 58.0986 386.316L60.8001 396.842C60.8652 397.134 61.1582 397.361 61.4511 397.394L70.4995 398.109C72.5175 401.975 75.1539 405.419 78.2134 408.342L76.3907 417.212C76.3256 417.537 76.4558 417.829 76.7488 417.991L86.1226 423.514C86.383 423.677 86.7411 423.644 87.0014 423.449L93.9017 417.569C97.9377 418.836 102.234 419.453 106.595 419.356L111.608 426.926C111.771 427.186 112.096 427.316 112.422 427.251L122.967 424.554C123.26 424.489 123.488 424.197 123.521 423.904L124.237 414.873C128.11 412.858 131.56 410.227 134.489 407.173L143.375 408.992C143.7 409.057 143.993 408.927 144.156 408.635L149.689 399.278C149.852 399.018 149.82 398.661 149.624 398.401L143.733 391.514C145.002 387.485 145.621 383.197 145.523 378.843L153.107 373.84C153.367 373.678 153.497 373.353 153.432 373.028L150.731 362.502C150.666 362.209 150.373 361.982 150.08 361.949L141.032 361.235C139.014 357.369 136.377 353.925 133.318 351.001L135.14 342.132C135.205 341.807 135.075 341.514 134.782 341.352L125.408 335.829Z" fill="#006C9E"/>
<path d="M105.782 390.442C104.773 390.442 103.731 390.279 102.722 389.987C99.9556 389.175 97.6773 387.323 96.3102 384.821C94.9432 382.287 94.6177 379.396 95.4314 376.634C96.2451 373.873 98.1004 371.598 100.607 370.234C103.145 368.869 106.042 368.545 108.809 369.357C111.575 370.169 113.854 372.021 115.221 374.522C116.588 377.056 116.913 379.948 116.1 382.709C115.286 385.471 113.431 387.745 110.924 389.11C109.297 389.987 107.539 390.442 105.782 390.442ZM105.749 371.111C104.35 371.111 102.95 371.468 101.648 372.151C99.6302 373.255 98.1655 375.042 97.5471 377.251C96.8961 379.428 97.1565 381.767 98.2306 383.749C99.3372 385.763 101.127 387.225 103.341 387.843C105.521 388.492 107.865 388.232 109.85 387.16C111.868 386.056 113.333 384.269 113.951 382.06C114.602 379.883 114.342 377.576 113.268 375.562C112.161 373.548 110.371 372.086 108.158 371.468C107.377 371.241 106.563 371.111 105.749 371.111Z" fill="url(#paint27_linear_68_2437)"/>
<path d="M105.651 407.205C93.4459 407.205 82.3144 398.986 79.1247 386.673C78.5388 384.399 78.2458 382.092 78.2458 379.818C78.2458 374.977 79.5478 370.234 82.054 365.978C85.7645 359.708 91.7208 355.224 98.8163 353.405C100.704 352.918 102.657 352.625 104.577 352.56L104.675 354.77C102.885 354.835 101.127 355.094 99.3696 355.549C99.1418 355.614 98.914 355.679 98.7187 355.744C86.2202 359.318 78.5388 371.826 80.9148 384.496C81.0125 385.048 81.1426 385.601 81.2728 386.153C84.7229 399.571 98.4908 407.693 111.933 404.216C123.293 401.292 130.844 391.059 130.844 379.883C130.844 377.804 130.583 375.724 130.063 373.645C128.923 369.227 126.613 365.231 123.39 362.047L124.953 360.487C128.468 363.964 130.974 368.317 132.211 373.125C132.797 375.399 133.09 377.674 133.09 379.915C133.09 392.098 124.855 403.242 112.519 406.393C110.208 406.945 107.93 407.205 105.651 407.205Z" fill="url(#paint28_linear_68_2437)"/>
<path d="M200.269 322.444C200.009 322.444 199.781 322.314 199.651 322.087C199.163 321.274 198.609 320.462 198.056 319.682C197.828 319.358 197.893 318.903 198.219 318.643C198.544 318.415 199 318.48 199.26 318.805C199.846 319.618 200.432 320.462 200.953 321.307C201.181 321.664 201.05 322.119 200.692 322.314C200.53 322.411 200.399 322.444 200.269 322.444Z" fill="#006C9E"/>
<path d="M177.551 370.526C177.193 370.526 176.867 370.266 176.835 369.909C176.769 369.519 177.062 369.129 177.453 369.064C178.885 368.869 180.285 368.545 181.684 368.155C182.172 368.025 182.661 367.862 183.149 367.7C183.539 367.57 183.963 367.765 184.093 368.155C184.223 368.545 184.028 368.967 183.637 369.097C183.149 369.259 182.628 369.422 182.107 369.584C180.643 370.006 179.178 370.331 177.681 370.559C177.616 370.526 177.583 370.526 177.551 370.526ZM191.969 364.613C191.742 364.613 191.514 364.516 191.384 364.321C191.156 363.996 191.221 363.541 191.546 363.281C193.109 362.112 194.573 360.812 195.908 359.383C196.168 359.09 196.656 359.058 196.949 359.35C197.242 359.61 197.275 360.098 196.982 360.39C195.582 361.884 194.053 363.249 192.425 364.484C192.262 364.549 192.132 364.613 191.969 364.613ZM201.832 352.593C201.734 352.593 201.604 352.56 201.506 352.528C201.148 352.365 200.985 351.911 201.148 351.553C201.994 349.799 202.645 347.947 203.134 346.063C203.231 345.673 203.654 345.445 204.045 345.543C204.435 345.64 204.663 346.063 204.566 346.453C204.045 348.434 203.361 350.351 202.483 352.203C202.385 352.43 202.125 352.593 201.832 352.593ZM204.859 337.324C204.468 337.324 204.143 337.031 204.11 336.641C204.012 334.692 203.719 332.775 203.264 330.858C203.166 330.469 203.394 330.079 203.817 329.981C204.208 329.884 204.598 330.111 204.696 330.533C205.184 332.515 205.477 334.562 205.607 336.576C205.64 336.999 205.314 337.323 204.924 337.356C204.859 337.323 204.859 337.324 204.859 337.324Z" fill="#006C9E"/>
<path d="M167.819 370.461C167.786 370.461 167.754 370.461 167.689 370.461C166.712 370.299 165.703 370.104 164.727 369.844C164.336 369.747 164.108 369.324 164.206 368.934C164.304 368.545 164.694 368.317 165.117 368.415C166.061 368.642 167.005 368.869 167.949 368.999C168.34 369.064 168.632 369.454 168.567 369.844C168.502 370.202 168.177 370.461 167.819 370.461Z" fill="#006C9E"/>
<path d="M145.784 355.744C145.523 355.744 145.295 355.614 145.165 355.387C144.644 354.542 144.156 353.632 143.7 352.755C143.505 352.398 143.668 351.943 144.026 351.781C144.384 351.586 144.84 351.748 145.002 352.106C145.426 352.95 145.914 353.827 146.402 354.64C146.63 354.997 146.5 355.452 146.174 355.647C146.044 355.712 145.914 355.744 145.784 355.744Z" fill="#006C9E"/>
<path d="M141.422 344.113C141.064 344.113 140.739 343.854 140.706 343.496C140.413 341.774 140.283 340.02 140.283 338.266C140.283 338.006 140.283 337.746 140.283 337.486C140.283 337.064 140.641 336.739 141.032 336.771C141.455 336.771 141.748 337.129 141.748 337.518C141.748 337.746 141.748 338.006 141.748 338.233C141.748 339.89 141.878 341.579 142.171 343.236C142.236 343.626 141.975 344.016 141.552 344.081C141.52 344.114 141.487 344.113 141.422 344.113ZM142.692 328.844C142.626 328.844 142.529 328.844 142.464 328.812C142.073 328.682 141.878 328.259 142.008 327.869C142.659 325.985 143.473 324.133 144.449 322.379C144.644 322.022 145.1 321.892 145.458 322.087C145.816 322.282 145.946 322.736 145.751 323.094C144.807 324.751 144.026 326.537 143.408 328.357C143.277 328.649 142.984 328.844 142.692 328.844ZM150.894 315.946C150.698 315.946 150.503 315.881 150.373 315.719C150.08 315.427 150.113 314.972 150.405 314.679C151.87 313.282 153.432 312.048 155.125 310.943C155.45 310.716 155.939 310.813 156.134 311.171C156.362 311.528 156.264 311.983 155.906 312.178C154.311 313.217 152.781 314.419 151.414 315.751C151.284 315.881 151.089 315.946 150.894 315.946ZM164.206 308.344C163.88 308.344 163.587 308.117 163.49 307.824C163.392 307.434 163.62 307.012 164.011 306.915C165.963 306.362 167.949 306.005 169.934 305.81C170.358 305.778 170.716 306.07 170.748 306.46C170.781 306.85 170.488 307.24 170.097 307.272C168.209 307.467 166.289 307.824 164.434 308.344C164.336 308.344 164.271 308.344 164.206 308.344Z" fill="#006C9E"/>
<path d="M182.4 308.539C182.335 308.539 182.238 308.539 182.173 308.507C181.261 308.214 180.317 307.987 179.373 307.792C178.983 307.695 178.722 307.305 178.788 306.915C178.885 306.525 179.276 306.265 179.666 306.33C180.643 306.525 181.619 306.785 182.596 307.077C182.986 307.207 183.214 307.597 183.084 307.987C183.019 308.344 182.726 308.539 182.4 308.539Z" fill="#006C9E"/>
<path d="M183.116 315.979C182.986 315.881 182.791 315.914 182.661 316.011L179.113 319.033C177.03 318.383 174.849 318.058 172.603 318.123L170.032 314.257C169.934 314.127 169.772 314.062 169.609 314.095L164.206 315.492C164.043 315.524 163.945 315.654 163.913 315.816L163.555 320.462C161.569 321.502 159.812 322.834 158.282 324.426L153.725 323.484C153.563 323.451 153.4 323.516 153.335 323.679L150.503 328.487C150.405 328.617 150.438 328.812 150.536 328.942L153.563 332.483C152.912 334.562 152.586 336.739 152.651 338.98L148.778 341.547C148.648 341.644 148.583 341.807 148.615 341.969L150.015 347.362C150.047 347.525 150.178 347.622 150.34 347.655L154.995 348.012C156.036 349.994 157.371 351.748 158.966 353.275L158.022 357.823C157.989 357.986 158.054 358.148 158.217 358.213L163.034 361.04C163.164 361.137 163.36 361.105 163.49 361.007L167.038 357.986C169.121 358.636 171.301 358.96 173.547 358.896L176.118 362.762C176.216 362.892 176.379 362.957 176.542 362.924L181.945 361.527C182.107 361.495 182.205 361.365 182.238 361.202L182.596 356.556C184.581 355.517 186.339 354.185 187.868 352.593L192.425 353.535C192.588 353.567 192.751 353.503 192.816 353.34L195.647 348.532C195.745 348.402 195.713 348.207 195.615 348.077L192.588 344.536C193.239 342.457 193.564 340.28 193.499 338.038L197.372 335.472C197.503 335.374 197.568 335.212 197.535 335.049L196.136 329.656C196.103 329.494 195.973 329.396 195.81 329.364L191.156 329.007C190.114 327.025 188.78 325.27 187.185 323.744L188.129 319.195C188.161 319.033 188.096 318.87 187.933 318.805L183.116 315.979Z" fill="#006C9E"/>
<path d="M173.026 344.568C172.441 344.568 171.855 344.471 171.301 344.308C169.739 343.854 168.47 342.814 167.689 341.385C166.094 338.461 167.168 334.757 170.13 333.165C173.059 331.573 176.769 332.645 178.364 335.602C179.145 337.031 179.308 338.656 178.853 340.215C178.397 341.774 177.355 343.041 175.923 343.821C175.012 344.308 174.035 344.568 173.026 344.568ZM173.026 334.66C172.408 334.66 171.757 334.822 171.171 335.114C169.316 336.122 168.6 338.461 169.641 340.345C170.65 342.197 172.994 342.912 174.882 341.872C175.793 341.385 176.444 340.572 176.737 339.565C177.03 338.591 176.932 337.551 176.411 336.641C175.728 335.374 174.393 334.66 173.026 334.66Z" fill="url(#paint29_linear_68_2437)"/>
<path d="M172.961 353.21C170.39 353.21 167.851 352.528 165.54 351.163C162.188 349.182 159.812 346.03 158.835 342.229C158.51 341.027 158.38 339.793 158.38 338.591C158.38 332.093 162.774 326.148 169.348 324.458C169.381 324.458 169.413 324.458 169.446 324.426C170.357 324.198 171.301 324.068 172.245 324.003C172.31 324.003 172.375 324.003 172.44 324.003L172.538 326.213C171.659 326.245 170.781 326.375 169.934 326.602C163.327 328.292 159.324 335.049 161.016 341.677C161.83 344.861 163.848 347.557 166.712 349.247C169.576 350.936 172.896 351.391 176.086 350.579C181.684 349.149 185.395 344.113 185.395 338.591C185.395 337.583 185.265 336.544 185.004 335.504C184.451 333.327 183.312 331.346 181.717 329.786L183.279 328.227C185.167 330.079 186.501 332.418 187.152 334.952C187.478 336.154 187.608 337.388 187.608 338.591C187.608 345.088 183.214 351.033 176.639 352.723C175.402 353.048 174.166 353.21 172.961 353.21Z" fill="url(#paint30_linear_68_2437)"/>
<path d="M264.617 196.423C266.603 195.741 266.31 192.882 264.227 192.589C254.788 191.355 240.955 187.683 236.43 176.638C229.335 159.289 244.047 92.461 176.444 80.5054C114.082 69.4595 79.3201 89.1797 80.1338 146.716C80.8825 202.433 170.65 228.586 264.617 196.423Z" fill="#006C9E"/>
<path d="M116.848 134.663H110.794V181.901H116.848V134.663Z" fill="url(#paint31_linear_68_2437)"/>
<path d="M126.938 150.907H120.884V181.933H126.938V150.907Z" fill="url(#paint32_linear_68_2437)"/>
<path d="M137.061 110.752H131.007V181.901H137.061V110.752Z" fill="url(#paint33_linear_68_2437)"/>
<path d="M147.151 164.812H141.097V181.901H147.151V164.812Z" fill="url(#paint34_linear_68_2437)"/>
<path d="M157.273 120.271H151.219V181.901H157.273V120.271Z" fill="url(#paint35_linear_68_2437)"/>
<path d="M167.363 130.959H161.309V181.933H167.363V130.959Z" fill="url(#paint36_linear_68_2437)"/>
<path d="M177.486 142.558H171.432V181.933H177.486V142.558Z" fill="url(#paint37_linear_68_2437)"/>
<path d="M187.608 96.3921H181.554V181.933H187.608V96.3921Z" fill="url(#paint38_linear_68_2437)"/>
<path d="M197.698 105.424H191.644V181.901H197.698V105.424Z" fill="url(#paint39_linear_68_2437)"/>
<path d="M207.82 119.101H201.766V181.901H207.82V119.101Z" fill="url(#paint40_linear_68_2437)"/>
<path d="M217.91 166.404H211.856V181.901H217.91V166.404Z" fill="url(#paint41_linear_68_2437)"/>
</g>
<defs>
<linearGradient id="paint0_linear_68_2437" x1="187.68" y1="409.171" x2="278.452" y2="287.179" gradientUnits="userSpaceOnUse">
<stop stop-color="#2A8FBC"/>
<stop offset="1" stop-color="#79BCD9"/>
</linearGradient>
<linearGradient id="paint1_linear_68_2437" x1="653.43" y1="152.217" x2="484.854" y2="222.587" gradientUnits="userSpaceOnUse">
<stop stop-color="#79BCD9"/>
<stop offset="1" stop-color="#1D87B7"/>
</linearGradient>
<linearGradient id="paint2_linear_68_2437" x1="506.335" y1="427.737" x2="514.061" y2="193.327" gradientUnits="userSpaceOnUse">
<stop stop-color="#006C9E"/>
<stop offset="1" stop-color="#1D86B7"/>
</linearGradient>
<linearGradient id="paint3_linear_68_2437" x1="225.997" y1="270.39" x2="219.364" y2="103.148" gradientUnits="userSpaceOnUse">
<stop stop-color="#1D87B7"/>
<stop offset="1" stop-color="#79BCD9"/>
</linearGradient>
<linearGradient id="paint4_linear_68_2437" x1="385.126" y1="170.108" x2="377.669" y2="219.416" gradientUnits="userSpaceOnUse">
<stop stop-color="#2B3582"/>
<stop offset="1" stop-color="#150E42"/>
</linearGradient>
<linearGradient id="paint5_linear_68_2437" x1="382.172" y1="192.309" x2="366.263" y2="250.369" gradientUnits="userSpaceOnUse">
<stop stop-color="#53D8FF"/>
<stop offset="1" stop-color="#3840F7"/>
</linearGradient>
<linearGradient id="paint6_linear_68_2437" x1="381.581" y1="192.147" x2="365.673" y2="250.206" gradientUnits="userSpaceOnUse">
<stop stop-color="#53D8FF"/>
<stop offset="1" stop-color="#3840F7"/>
</linearGradient>
<linearGradient id="paint7_linear_68_2437" x1="380.097" y1="191.741" x2="364.188" y2="249.801" gradientUnits="userSpaceOnUse">
<stop stop-color="#53D8FF"/>
<stop offset="1" stop-color="#3840F7"/>
</linearGradient>
<linearGradient id="paint8_linear_68_2437" x1="379.699" y1="191.632" x2="363.791" y2="249.691" gradientUnits="userSpaceOnUse">
<stop stop-color="#53D8FF"/>
<stop offset="1" stop-color="#3840F7"/>
</linearGradient>
<linearGradient id="paint9_linear_68_2437" x1="352.041" y1="364.77" x2="387.818" y2="346.849" gradientUnits="userSpaceOnUse">
<stop stop-color="#FF928E"/>
<stop offset="1" stop-color="#FEB3B1"/>
</linearGradient>
<linearGradient id="paint10_linear_68_2437" x1="127.604" y1="361.802" x2="322.584" y2="361.802" gradientUnits="userSpaceOnUse">
<stop stop-color="#79BCD9"/>
<stop offset="1" stop-color="#1D87B7"/>
</linearGradient>
<linearGradient id="paint11_linear_68_2437" x1="426.404" y1="361.802" x2="621.384" y2="361.802" gradientUnits="userSpaceOnUse">
<stop stop-color="#79BCD9"/>
<stop offset="1" stop-color="#1680B1"/>
</linearGradient>
<linearGradient id="paint12_linear_68_2437" x1="274.714" y1="345.919" x2="370.8" y2="290.7" gradientUnits="userSpaceOnUse">
<stop stop-color="#FF928E"/>
<stop offset="1" stop-color="#FEB3B1"/>
</linearGradient>
<linearGradient id="paint13_linear_68_2437" x1="274.132" y1="344.905" x2="370.218" y2="289.687" gradientUnits="userSpaceOnUse">
<stop stop-color="#FF928E"/>
<stop offset="1" stop-color="#FEB3B1"/>
</linearGradient>
<linearGradient id="paint14_linear_68_2437" x1="276.41" y1="348.871" x2="372.498" y2="293.653" gradientUnits="userSpaceOnUse">
<stop stop-color="#FF928E"/>
<stop offset="1" stop-color="#FEB3B1"/>
</linearGradient>
<linearGradient id="paint15_linear_68_2437" x1="278.149" y1="259.802" x2="262.086" y2="290.527" gradientUnits="userSpaceOnUse">
<stop stop-color="#FF928E"/>
<stop offset="1" stop-color="#FEB3B1"/>
</linearGradient>
<linearGradient id="paint16_linear_68_2437" x1="265.218" y1="315.038" x2="334.463" y2="361.45" gradientUnits="userSpaceOnUse">
<stop stop-color="#FF928E"/>
<stop offset="1" stop-color="#FEB3B1"/>
</linearGradient>
<linearGradient id="paint17_linear_68_2437" x1="265.654" y1="234.952" x2="289.999" y2="274.95" gradientUnits="userSpaceOnUse">
<stop stop-color="#FF928E"/>
<stop offset="1" stop-color="#FEB3B1"/>
</linearGradient>
<linearGradient id="paint18_linear_68_2437" x1="254.195" y1="241.926" x2="278.539" y2="281.925" gradientUnits="userSpaceOnUse">
<stop stop-color="#FF928E"/>
<stop offset="1" stop-color="#FEB3B1"/>
</linearGradient>
<linearGradient id="paint19_linear_68_2437" x1="351.713" y1="364.116" x2="387.489" y2="346.194" gradientUnits="userSpaceOnUse">
<stop stop-color="#FF928E"/>
<stop offset="1" stop-color="#FEB3B1"/>
</linearGradient>
<linearGradient id="paint20_linear_68_2437" x1="482.075" y1="269.684" x2="489.859" y2="306.076" gradientUnits="userSpaceOnUse">
<stop stop-color="#FF928E"/>
<stop offset="1" stop-color="#FEB3B1"/>
</linearGradient>
<linearGradient id="paint21_linear_68_2437" x1="573.114" y1="322.139" x2="540.758" y2="384.477" gradientUnits="userSpaceOnUse">
<stop stop-color="#FF928E"/>
<stop offset="1" stop-color="#FEB3B1"/>
</linearGradient>
<linearGradient id="paint22_linear_68_2437" x1="458.015" y1="243.115" x2="482.725" y2="259.076" gradientUnits="userSpaceOnUse">
<stop stop-color="#FF928E"/>
<stop offset="1" stop-color="#FEB3B1"/>
</linearGradient>
<linearGradient id="paint23_linear_68_2437" x1="454.952" y1="252.071" x2="502.239" y2="252.071" gradientUnits="userSpaceOnUse">
<stop stop-color="#E1473D"/>
<stop offset="1" stop-color="#E9605A"/>
</linearGradient>
<linearGradient id="paint24_linear_68_2437" x1="487.288" y1="305.926" x2="489.055" y2="264.801" gradientUnits="userSpaceOnUse">
<stop stop-color="#FF928E"/>
<stop offset="1" stop-color="#FEB3B1"/>
</linearGradient>
<linearGradient id="paint25_linear_68_2437" x1="274.301" y1="400.266" x2="275.627" y2="465.706" gradientUnits="userSpaceOnUse">
<stop stop-color="#79BCD9"/>
<stop offset="1" stop-color="#1D87B7"/>
</linearGradient>
<linearGradient id="paint26_linear_68_2437" x1="473.463" y1="396.23" x2="474.79" y2="461.676" gradientUnits="userSpaceOnUse">
<stop stop-color="#79BCD9"/>
<stop offset="1" stop-color="#157FB0"/>
</linearGradient>
<linearGradient id="paint27_linear_68_2437" x1="94.9761" y1="379.674" x2="116.542" y2="379.674" gradientUnits="userSpaceOnUse">
<stop stop-color="#DAE3FE"/>
<stop offset="1" stop-color="#E9EFFD"/>
</linearGradient>
<linearGradient id="paint28_linear_68_2437" x1="78.2609" y1="379.891" x2="133.047" y2="379.891" gradientUnits="userSpaceOnUse">
<stop stop-color="#DAE3FE"/>
<stop offset="1" stop-color="#E9EFFD"/>
</linearGradient>
<linearGradient id="paint29_linear_68_2437" x1="166.949" y1="338.506" x2="179.102" y2="338.506" gradientUnits="userSpaceOnUse">
<stop stop-color="#DAE3FE"/>
<stop offset="1" stop-color="#E9EFFD"/>
</linearGradient>
<linearGradient id="paint30_linear_68_2437" x1="158.363" y1="338.618" x2="187.58" y2="338.618" gradientUnits="userSpaceOnUse">
<stop stop-color="#DAE3FE"/>
<stop offset="1" stop-color="#E9EFFD"/>
</linearGradient>
<linearGradient id="paint31_linear_68_2437" x1="110.78" y1="158.283" x2="116.83" y2="158.283" gradientUnits="userSpaceOnUse">
<stop stop-color="#DAE3FE"/>
<stop offset="1" stop-color="#E9EFFD"/>
</linearGradient>
<linearGradient id="paint32_linear_68_2437" x1="120.889" y1="166.403" x2="126.939" y2="166.403" gradientUnits="userSpaceOnUse">
<stop stop-color="#DAE3FE"/>
<stop offset="1" stop-color="#E9EFFD"/>
</linearGradient>
<linearGradient id="paint33_linear_68_2437" x1="130.998" y1="146.335" x2="137.048" y2="146.335" gradientUnits="userSpaceOnUse">
<stop stop-color="#DAE3FE"/>
<stop offset="1" stop-color="#E9EFFD"/>
</linearGradient>
<linearGradient id="paint34_linear_68_2437" x1="141.107" y1="173.363" x2="147.157" y2="173.363" gradientUnits="userSpaceOnUse">
<stop stop-color="#DAE3FE"/>
<stop offset="1" stop-color="#E9EFFD"/>
</linearGradient>
<linearGradient id="paint35_linear_68_2437" x1="151.216" y1="151.091" x2="157.265" y2="151.091" gradientUnits="userSpaceOnUse">
<stop stop-color="#DAE3FE"/>
<stop offset="1" stop-color="#E9EFFD"/>
</linearGradient>
<linearGradient id="paint36_linear_68_2437" x1="161.325" y1="156.427" x2="167.374" y2="156.427" gradientUnits="userSpaceOnUse">
<stop stop-color="#DAE3FE"/>
<stop offset="1" stop-color="#E9EFFD"/>
</linearGradient>
<linearGradient id="paint37_linear_68_2437" x1="171.433" y1="162.227" x2="177.483" y2="162.227" gradientUnits="userSpaceOnUse">
<stop stop-color="#DAE3FE"/>
<stop offset="1" stop-color="#E9EFFD"/>
</linearGradient>
<linearGradient id="paint38_linear_68_2437" x1="181.542" y1="139.143" x2="187.592" y2="139.143" gradientUnits="userSpaceOnUse">
<stop stop-color="#DAE3FE"/>
<stop offset="1" stop-color="#E9EFFD"/>
</linearGradient>
<linearGradient id="paint39_linear_68_2437" x1="191.651" y1="143.667" x2="197.701" y2="143.667" gradientUnits="userSpaceOnUse">
<stop stop-color="#DAE3FE"/>
<stop offset="1" stop-color="#E9EFFD"/>
</linearGradient>
<linearGradient id="paint40_linear_68_2437" x1="201.76" y1="150.511" x2="207.81" y2="150.511" gradientUnits="userSpaceOnUse">
<stop stop-color="#DAE3FE"/>
<stop offset="1" stop-color="#E9EFFD"/>
</linearGradient>
<linearGradient id="paint41_linear_68_2437" x1="211.869" y1="174.156" x2="217.919" y2="174.156" gradientUnits="userSpaceOnUse">
<stop stop-color="#DAE3FE"/>
<stop offset="1" stop-color="#E9EFFD"/>
</linearGradient>
<clipPath id="clip0_68_2437">
<rect width="749" height="442" fill="white"/>
</clipPath>
</defs>
</svg>
