<svg width="99" height="43" viewBox="0 0 99 43" fill="none" xmlns="http://www.w3.org/2000/svg">
<g clip-path="url(#clip0_12_367)">
<path d="M15.9014 42.4594C10.429 41.9995 5.89698 40.56 2.07819 37.2851C0.813036 36.1991 -0.615563 34.8384 0.28023 33.0668C1.1548 31.3377 3.00157 31.919 4.50659 32.3087C7.61215 33.1136 10.6668 34.1336 13.7957 34.8192C17.6314 35.6582 19.2553 33.6311 17.9223 29.9068C17.3258 28.2416 16.3366 26.8213 15.2688 25.4393C14.0971 23.9232 12.8999 22.4263 11.8067 20.8548C6.51045 13.2508 8.15132 6.28985 15.5809 0.540527C13.0718 5.37208 12.7492 11.658 16.1116 15.9104C18.2725 18.6402 20.6309 21.2146 22.7472 23.9786C23.9551 25.5543 24.9973 27.3004 25.8613 29.0933C28.3534 34.2635 26.6021 37.4618 20.9917 38.4264C18.3829 38.8736 15.7868 38.584 13.1843 38.6543C12.6388 38.6692 11.7918 38.4477 11.7069 39.2696C11.6708 39.6189 12.2333 40.1214 12.6324 40.4046C13.5325 41.0434 14.5025 41.5907 15.9014 42.4594Z" fill="#F58120"/>
<path d="M1.70871 20.4692C1.3054 23.7464 1.64079 26.21 4.32604 28.5886C4.86309 29.0634 5.51053 29.9045 4.81215 30.6413C3.97579 31.5228 3.19675 30.6285 2.55781 30.1664C-0.233585 28.1435 -0.666623 23.8699 1.70871 20.4692Z" fill="#FFC233"/>
<path d="M14.5279 28.925C13.8529 27.3918 12.7427 26.095 11.4967 25.024C7.17054 21.3018 4.4301 17.2624 6.9986 8.47656C5.0372 9.92241 3.51308 15.4652 3.38571 18.3995C3.13098 24.3319 5.82685 28.9846 10.5117 32.4704C11.6814 33.3413 13.1482 33.4989 14.3921 32.5066C15.7379 31.4334 15.0416 30.0919 14.5279 28.925Z" fill="#FFC233"/>
<path d="M33.8516 19.6815C33.8516 19.1534 34.2528 18.751 34.7792 18.751C35.3056 18.751 35.7217 19.1534 35.7217 19.6815V23.3249C36.3245 22.4731 37.1736 21.7896 38.5046 21.7896C40.4214 21.7896 42.2915 23.31 42.2915 26.0377V26.0696C42.2915 28.7825 40.4363 30.3178 38.5046 30.3178C37.1439 30.3178 36.2948 29.6364 35.7217 28.8762V29.2956C35.7217 29.8067 35.3035 30.2262 34.7792 30.2262C34.2697 30.2262 33.8516 29.8067 33.8516 29.2956V19.6815ZM40.3917 26.0696V26.0377C40.3917 24.4556 39.3261 23.4164 38.0567 23.4164C36.7894 23.4164 35.6771 24.4705 35.6771 26.0377V26.0696C35.6771 27.6347 36.7894 28.6909 38.0567 28.6909C39.3388 28.6909 40.3917 27.6837 40.3917 26.0696Z" fill="#01304A"/>
<path d="M45.3525 19.7604C45.3525 19.2025 45.8153 18.8447 46.4182 18.8447C47.021 18.8447 47.4838 19.2003 47.4838 19.7604V19.8541C47.4838 20.4119 47.021 20.7846 46.4182 20.7846C45.8153 20.7846 45.3525 20.4119 45.3525 19.8541V19.7604ZM45.4905 22.8139C45.4905 22.2858 45.8917 21.8684 46.4182 21.8684C46.9446 21.8684 47.3606 22.2879 47.3606 22.8139V29.2957C47.3606 29.8238 46.9425 30.2262 46.4182 30.2262C45.9087 30.2262 45.4905 29.8238 45.4905 29.2957V22.8139Z" fill="#01304A"/>
<path d="M51.3493 27.884V23.5741H51.0394C50.5915 23.5741 50.2349 23.2185 50.2349 22.7671C50.2349 22.3178 50.5894 21.96 51.0394 21.96H51.3493V20.5653C51.3493 20.0543 51.7675 19.6348 52.2918 19.6348C52.8012 19.6348 53.2194 20.0543 53.2194 20.5653V21.96H54.6884C55.1363 21.96 55.5077 22.3157 55.5077 22.7671C55.5077 23.2164 55.1363 23.5741 54.6884 23.5741H53.2194V27.5901C53.2194 28.3184 53.5909 28.6143 54.2235 28.6143C54.44 28.6143 54.6247 28.5675 54.6862 28.5675C55.1044 28.5675 55.4738 28.9082 55.4738 29.3426C55.4738 29.6833 55.2424 29.9622 54.9792 30.0708C54.578 30.2114 54.1916 30.288 53.697 30.288C52.3236 30.288 51.3493 29.6833 51.3493 27.884Z" fill="#01304A"/>
<path d="M58.4731 19.6815C58.4731 19.1534 58.8743 18.751 59.4008 18.751C59.9272 18.751 60.3433 19.1534 60.3433 19.6815V23.3249C60.9461 22.4731 61.7952 21.7896 63.1262 21.7896C65.043 21.7896 66.9131 23.31 66.9131 26.0377V26.0696C66.9131 28.7825 65.0579 30.3178 63.1262 30.3178C61.7655 30.3178 60.9164 29.6364 60.3433 28.8762V29.2956C60.3433 29.8067 59.9251 30.2262 59.4008 30.2262C58.8913 30.2262 58.4731 29.8067 58.4731 29.2956V19.6815ZM65.0133 26.0696V26.0377C65.0133 24.4556 63.9477 23.4164 62.6783 23.4164C61.4089 23.4164 60.2987 24.4705 60.2987 26.0377V26.0696C60.2987 27.6347 61.411 28.6909 62.6783 28.6909C63.9604 28.6909 65.0133 27.6837 65.0133 26.0696Z" fill="#01304A"/>
<path d="M69.4624 27.7923V27.7604C69.4624 25.993 70.8379 25.1242 72.8312 25.1242C73.7439 25.1242 74.3914 25.2648 75.0261 25.4649V25.2626C75.0261 24.1 74.315 23.4804 73.001 23.4804C72.2899 23.4804 71.7019 23.6039 71.1924 23.8062C71.0842 23.8381 70.9908 23.853 70.8995 23.853C70.4665 23.853 70.112 23.5123 70.112 23.0779C70.112 22.7372 70.3433 22.4412 70.6214 22.3348C71.3941 22.0409 72.1816 21.8535 73.2493 21.8535C74.4699 21.8535 75.3827 22.1793 75.9537 22.7691C76.5566 23.359 76.8346 24.2256 76.8346 25.2967V29.3276C76.8346 29.8387 76.4334 30.2262 75.9219 30.2262C75.3806 30.2262 75.0091 29.8536 75.0091 29.4362V29.1253C74.4529 29.7918 73.6017 30.3199 72.3514 30.3199C70.8231 30.3199 69.4624 29.4362 69.4624 27.7923ZM75.0579 27.2025V26.6446C74.5782 26.4594 73.9456 26.3188 73.2026 26.3188C71.9969 26.3188 71.2858 26.8299 71.2858 27.6838V27.7157C71.2858 28.5057 71.9821 28.9571 72.8779 28.9571C74.1154 28.955 75.0579 28.2416 75.0579 27.2025Z" fill="#01304A"/>
<path d="M80.2355 22.8138C80.2355 22.2857 80.6367 21.8682 81.1632 21.8682C81.6896 21.8682 82.1057 22.2878 82.1057 22.8138V23.2162C82.6321 22.456 83.3878 21.7896 84.6551 21.7896C86.4955 21.7896 87.5611 23.031 87.5611 24.9219V29.2935C87.5611 29.8216 87.1599 30.224 86.6334 30.224C86.107 30.224 85.6909 29.8216 85.6909 29.2935V25.4967C85.6909 24.2255 85.0563 23.4972 83.9439 23.4972C82.8613 23.4972 82.1035 24.2575 82.1035 25.5287V29.2956C82.1035 29.8237 81.6853 30.2261 81.161 30.2261C80.6516 30.2261 80.2334 29.8237 80.2334 29.2956V22.8138H80.2355Z" fill="#01304A"/>
<path d="M99.0005 29.2956C99.0005 29.8237 98.5823 30.2262 98.0729 30.2262C97.5465 30.2262 97.1304 29.8237 97.1304 29.2956V28.7846C96.5275 29.6363 95.6784 30.3199 94.3475 30.3199C92.4307 30.3199 90.5605 28.7846 90.5605 26.0718V26.0398C90.5605 23.327 92.401 21.7917 94.3475 21.7917C95.6912 21.7917 96.5424 22.4582 97.1304 23.2333V19.6815C97.1304 19.1534 97.5486 18.751 98.058 18.751C98.5845 18.751 99.0005 19.1534 99.0005 19.6815V29.2956ZM92.4455 26.0398V26.0718C92.4455 27.6539 93.5281 28.693 94.7954 28.693C96.0478 28.693 97.1601 27.639 97.1601 26.0718V26.0398C97.1601 24.4577 96.0478 23.4186 94.7954 23.4186C93.5133 23.4186 92.4455 24.4109 92.4455 26.0398Z" fill="#01304A"/>
</g>
<defs>
<clipPath id="clip0_12_367">
<rect width="99" height="43" fill="white"/>
</clipPath>
</defs>
</svg>
