<svg width="14" height="12" viewBox="0 0 14 12" fill="none" xmlns="http://www.w3.org/2000/svg">
<path d="M1.43148 2.63143C1.59557 2.4674 1.81809 2.37524 2.0501 2.37524C2.28212 2.37524 2.50464 2.4674 2.66873 2.63143L6.99997 6.96268L11.3312 2.63143C11.4962 2.47204 11.7173 2.38385 11.9467 2.38584C12.1761 2.38784 12.3956 2.47986 12.5578 2.64209C12.72 2.80432 12.8121 3.02378 12.8141 3.25321C12.816 3.48263 12.7279 3.70366 12.5685 3.86868L7.6186 8.81856C7.45451 8.98259 7.23199 9.07475 6.99997 9.07475C6.76796 9.07475 6.54544 8.98259 6.38135 8.81856L1.43148 3.86868C1.26744 3.7046 1.17529 3.48208 1.17529 3.25006C1.17529 3.01804 1.26744 2.79552 1.43148 2.63143Z" fill="#5F6E80"/>
</svg>
