<svg width="461" height="462" viewBox="0 0 461 462" fill="none" xmlns="http://www.w3.org/2000/svg">
<g clip-path="url(#clip0_68_2798)">
<path d="M405.882 390.192C396.605 399.96 387.806 406.263 380.873 411.246C299.278 469.755 202.743 452.711 182.224 448.536C151.933 442.382 93.3653 430.502 51.0241 380.721C-13.0243 305.415 -3.0539 186.797 46.6331 108.488C55.7287 94.1655 103.732 14.6685 201.307 1.91402C260.353 -5.80799 329.205 9.76802 379.057 51.513C483.697 139.128 476.236 316.157 405.882 390.192Z" fill="#DADFE5"/>



<g class="letters1 l1">
<path d="M333.085 269.676C333.085 269.676 331.814 216.183 356.459 201.861C381.105 187.539 427.985 178.596 429.735 101.772C430.759 56.7931 431.881 37.1416 432.624 28.5616C432.921 25.2121 429.95 22.5226 426.648 23.1331C403.307 27.5221 327.456 45.6226 311.559 97.3666C292.691 158.714 333.085 269.676 333.085 269.676Z" fill="#A3BDCC"/>
<path opacity="0.5" d="M408.589 44.5006C382.953 67.3531 353.322 107.778 337.525 148.22C335.495 154.886 329.568 169.059 326.993 194.238C324.699 215.243 325.838 237.435 328.628 252.12C328.809 253.044 329.701 253.655 330.625 253.49C332.226 253.193 332.012 251.477 331.995 251.526C328.809 226.43 330.13 195.195 337.426 167.013C346.753 132.413 367.552 98.8516 389.061 70.3891L391.273 67.5841C407.945 46.1836 411.445 46.0351 409.893 44.5336C409.546 44.1706 408.969 44.1706 408.589 44.5006Z" fill="white"/>
</g>
<g class="letters1 l2">
<path d="M292.147 382.949C288.465 384.747 326.928 336.419 338.961 260.519C344.64 224.747 344.706 179.933 365.092 162.674C382.062 148.302 439.788 157.377 458.673 160.826C461.033 161.255 461.826 164.241 459.993 165.776C450.931 173.382 431.551 191.318 426.516 209.385C419.864 233.211 397.199 248.358 376.912 252.467C356.624 256.575 345.333 260.552 335.462 292.974C325.557 325.413 302.579 377.833 292.147 382.949Z" fill="#AEC8D7"/>
<path opacity="0.5" d="M432.112 170.891C408.011 171.897 382.145 182.886 369.021 203.495L367.783 205.458C364.927 210.078 348.701 242.847 339.688 270.039C339.572 270.386 339.754 270.749 340.101 270.848C340.678 271.046 340.959 270.402 340.909 270.468C347.182 255.123 356.195 235.653 363.376 221.1C371.068 205.211 376.466 194.453 394.03 184.157C413.574 173.052 432.244 171.914 432.195 171.93C432.475 171.897 432.69 171.65 432.657 171.369C432.624 171.089 432.376 170.874 432.112 170.891Z" fill="white"/>
</g>
<g class="letters1 l3">
<path d="M308.621 389.301C306.442 390.456 320.902 365.574 322.008 343.662C323.114 321.75 328.067 284.345 346.967 261.971C365.868 239.597 386.585 237.551 412.667 257.895C434.407 274.841 447.976 283.404 455.916 284.988C457.88 285.384 458.887 287.612 457.93 289.361C452.829 298.749 438.402 320.315 414.185 318.797C383.3 316.866 345.861 296.786 334.455 313.533C323.048 330.281 324.518 339.653 324.154 347.573C323.824 355.526 323.048 381.711 308.621 389.301Z" fill="#A3BDCC"/>
<path opacity="0.5" d="M403.901 284.757C394.442 275.682 379.025 266.772 365.555 268.439C348.024 271.26 336.353 282.959 329.998 300.366C327.505 307.758 326.482 311.702 325.013 320.777C324.897 321.503 325.97 321.717 326.135 321.008C327.208 316.751 328.265 312.296 329.849 307.692C339.093 277.943 358.803 273.95 359.562 273.339C361.048 273.488 370.094 266.723 391.537 278.256C395.548 280.434 399.444 282.926 403.092 285.665L403.109 285.681C403.373 285.879 403.752 285.83 403.951 285.566C404.165 285.318 404.132 284.972 403.901 284.757Z" fill="white"/>
</g>


<path d="M37.9338 363.924L49.3568 382.899C53.1865 389.252 60.6313 392.486 67.8781 390.935L85.0787 387.272C89.7338 386.282 94.5374 387.668 98.0204 390.918C106.769 399.069 116.36 406.098 126.529 411.956C130.655 414.332 133.412 418.522 133.841 423.258L135.393 440.798C136.053 448.19 141.319 454.344 148.533 456.143L170.042 461.489C177.239 463.271 184.799 460.301 188.827 454.08L198.418 439.313C201.01 435.32 205.401 432.911 210.171 432.746C221.891 432.333 233.661 430.617 245.216 427.499C249.805 426.261 254.708 427.284 258.356 430.337L271.843 441.623C277.538 446.391 285.626 447.018 291.982 443.19L310.965 431.772C317.32 427.944 320.556 420.503 319.004 413.259L315.339 396.066C314.349 391.413 315.736 386.612 318.988 383.13C327.142 374.385 334.174 364.799 340.034 354.635C342.411 350.51 346.604 347.754 351.342 347.325L368.889 345.774C376.284 345.114 382.442 339.851 384.241 332.64L389.589 311.141C391.372 303.947 388.401 296.39 382.178 292.364L367.404 282.777C363.409 280.187 360.999 275.798 360.834 271.029C360.421 259.314 358.704 247.55 355.584 236C354.346 231.413 355.37 226.512 358.424 222.866L369.715 209.385C374.485 203.693 375.112 195.608 371.283 189.255L359.86 170.28C356.03 163.928 348.585 160.694 341.338 162.245L324.138 165.908C319.483 166.898 314.679 165.512 311.196 162.261C302.447 154.11 292.856 147.081 282.688 141.224C278.561 138.848 275.804 134.657 275.375 129.921L273.824 112.382C273.163 104.99 267.897 98.835 260.684 97.0365L239.175 91.6905C231.977 89.9085 224.417 92.8785 220.389 99.099L210.799 113.85C208.207 117.843 203.816 120.252 199.045 120.417C187.325 120.83 175.555 122.546 164 125.664C159.411 126.902 154.509 125.879 150.86 122.826L137.374 111.54C131.679 106.772 123.59 106.145 117.235 109.973L98.2515 121.391C91.8962 125.219 88.6608 132.66 90.2125 139.904L93.8771 157.097C94.8675 161.75 93.4809 166.551 90.229 170.033C82.0744 178.778 75.0422 188.364 69.1821 198.528C66.8051 202.653 62.6122 205.409 57.8746 205.838L40.3273 207.389C32.932 208.049 26.7748 213.312 24.9755 220.523L19.6271 242.022C17.8443 249.216 20.8157 256.757 27.0389 260.799L41.813 270.385C45.8078 272.976 48.2178 277.365 48.3829 282.134C48.7956 293.849 50.5123 305.596 53.6322 317.163C54.8703 321.75 53.8468 326.651 50.793 330.297L39.502 343.778C34.7479 349.487 34.1206 357.572 37.9338 363.924ZM88.0005 331.568C57.6105 267.201 85.1777 190.377 149.589 160.001C214.001 129.624 290.843 157.196 321.233 221.579C351.623 285.962 324.039 362.769 259.627 393.146C195.232 423.522 118.374 395.951 88.0005 331.568Z" fill="#006C9E"/>
<path d="M277.439 242.797C263.688 239.844 216.791 231.181 167.698 238.21C151.257 240.57 136.697 250.107 127.816 264.148C111.821 289.443 89.2055 334.521 93.9927 381.546L119.1 387.75C119.1 387.75 136.45 331.963 155.978 309.243C155.978 309.243 179.104 361.927 177.932 390.852C177.899 391.677 177.85 392.469 177.767 393.244C175.11 421.542 288.763 398.524 288.763 398.524L281.681 247.764C281.549 245.355 279.816 243.309 277.439 242.797Z" fill="#FEC223"/>
<path d="M238.333 189.849L241.634 229.02C241.948 232.666 240.066 236.065 236.93 237.534C229.716 240.9 215.866 245.718 201.059 242.17C198.352 241.527 196.586 238.689 197.031 235.801L206.639 173.712L238.333 189.849Z" fill="url(#paint0_linear_68_2798)"/>



<g class="head">
<path d="M194.242 142.378C194.242 142.378 186.78 171.319 188.266 185.641C189.752 199.963 188.151 209.682 205.038 209.913C221.925 210.144 234.454 199.765 239.686 184.42C239.686 184.42 247.957 160.743 243.896 152.245C239.835 143.731 194.242 142.378 194.242 142.378Z" fill="url(#paint1_linear_68_2798)"/>
<path d="M232.456 175.147L230.376 175.477C230.376 175.477 236.137 156.568 228.115 154.687C220.109 152.806 189.355 151.486 181.234 141.949C173.409 132.759 176.826 118.717 184.519 113.718C184.998 113.404 185.658 113.553 186.004 114.015L186.896 115.203C187.507 116.011 188.794 115.665 188.926 114.658C189.042 113.701 190.247 113.305 190.874 114.031C193.35 116.869 199.491 121.159 214.199 121.522C235.064 122.017 249.772 128.089 252.347 142.032C252.513 142.923 253.536 143.253 254.229 142.675C255.583 141.52 257.91 140.712 261.542 142.89C267.848 146.685 267.518 159.175 256.904 171.105C256.392 171.666 256.557 172.573 257.25 172.887C259.693 173.976 263.539 176.863 255.715 182.803C247.725 188.875 242.46 189.189 240.429 188.991C239.884 188.941 239.455 188.512 239.406 187.968L238.184 175.428C238.118 174.784 237.524 174.322 236.88 174.421L232.456 175.147Z" fill="url(#paint2_linear_68_2798)"/>
<path d="M232.357 177.82C232.357 177.82 234.09 159.819 242.625 163.432C251.159 167.046 241.7 183.447 235.56 185.08L232.357 177.82Z" fill="url(#paint3_linear_68_2798)"/>
</g>

<path d="M281.136 353.562C283.579 336.27 265.669 310.843 258.257 301.191C256.144 298.435 254.956 295.053 254.923 291.571C254.708 267.069 263.011 254.281 279.485 243.705C279.485 243.705 341.322 310.464 326.086 364.056C324.435 369.847 321.893 374.814 318.657 379.087C316.264 358.891 292.906 354.486 281.136 353.562Z" fill="#FEC223"/>
<path d="M280.014 346.863L282.292 346.599C280.36 329.637 265.471 308.698 259.148 300.481L257.333 301.884C263.539 309.952 278.148 330.478 280.014 346.863Z" fill="#FFD976"/>
<path d="M280.658 355.954C280.872 355.179 281.004 354.37 281.12 353.562C292.889 354.486 316.247 358.908 318.641 379.104C291.932 414.414 218.326 401.676 218.326 401.676V387.931C218.342 387.931 274.88 377.421 280.658 355.954Z" fill="url(#paint4_linear_68_2798)"/>
<path d="M225.424 397.864C225.424 397.864 214.562 372.224 195.397 381.315C176.249 390.406 177.751 396.363 177.751 396.363L225.424 397.864Z" fill="url(#paint5_linear_68_2798)"/>
<path d="M227.851 403.194C227.702 405.141 226.051 406.609 224.103 406.543L124.861 403.078C123.326 403.029 121.973 402.006 121.51 400.537L118.638 391.33C117.928 389.07 119.546 386.743 121.923 386.611L158.107 384.697C158.437 384.681 158.767 384.714 159.081 384.78L225.011 399.382C226.794 399.745 227.999 401.379 227.851 403.194Z" fill="url(#paint6_linear_68_2798)"/>
<path d="M180.392 262.366C182.488 279.543 191.964 349.371 194.671 369.32C195.051 372.125 192.822 374.6 189.999 374.517L29.449 369.93C27.3526 369.864 25.5533 368.395 25.1076 366.333L0.115521 253.885C-0.544772 250.915 1.81578 248.127 4.86963 248.308L176.117 258.34C178.312 258.472 180.128 260.155 180.392 262.366Z" fill="#79BCD9"/>
<path d="M115.848 333.168L139.569 400.488L84.3854 401.659L79.7963 333.58C79.5817 330.379 82.2394 327.739 85.4253 327.937L111.193 329.653C113.323 329.785 115.155 331.171 115.848 333.168Z" fill="url(#paint7_linear_68_2798)"/>
<path d="M161.953 401.445C162.564 403.293 161.178 405.207 159.23 405.207H72.8138C71.2291 405.207 69.9415 403.92 69.9415 402.336V398.64C69.9415 397.006 71.2951 395.703 72.9294 395.785L159.345 399.498C160.55 399.531 161.574 400.323 161.953 401.445Z" fill="url(#paint8_linear_68_2798)"/>
<path d="M205.054 195.723C224.4 200.788 239.521 182.605 239.67 182.424L238.481 181.467C238.333 181.648 223.823 199.089 205.434 194.271L205.054 195.723Z" fill="url(#paint9_linear_68_2798)"/>
<path d="M200.168 193.149C199.755 194.254 200.333 195.475 201.439 195.888L205.153 197.241C206.259 197.653 207.48 197.076 207.893 195.97L208.124 195.343C208.537 194.238 207.959 193.017 206.853 192.604L203.139 191.251C202.033 190.839 200.811 191.416 200.399 192.522L200.168 193.149Z" fill="url(#paint10_linear_68_2798)"/>
<path d="M207.431 196.218L206.407 198.61L206.54 198.643L207.431 196.218Z" fill="url(#paint11_linear_68_2798)"/>
<path d="M208.422 193.182L206.094 199.32L206.143 199.353L207.745 196.333L208.851 193.347L208.422 193.182Z" fill="url(#paint12_linear_68_2798)"/>
<path d="M208.372 193.165L206.044 199.303L206.094 199.32L208.421 193.182L208.372 193.165Z" fill="url(#paint13_linear_68_2798)"/>
<path d="M208.306 193.149L205.978 199.287L206.044 199.303L208.372 193.165L208.306 193.149Z" fill="url(#paint14_linear_68_2798)"/>
<path d="M208.256 193.132L205.929 199.27L205.978 199.287L208.306 193.149L208.256 193.132Z" fill="url(#paint15_linear_68_2798)"/>
<path d="M208.207 193.099L205.879 199.254L205.929 199.27L208.256 193.132L208.207 193.099Z" fill="url(#paint16_linear_68_2798)"/>
<path d="M208.157 193.083L205.83 199.237L205.879 199.254L208.207 193.099L208.157 193.083Z" fill="url(#paint17_linear_68_2798)"/>
<path d="M208.108 193.066L205.764 199.204L205.83 199.237L208.157 193.083L208.108 193.066Z" fill="url(#paint18_linear_68_2798)"/>
<path d="M208.042 193.05L205.714 199.188L205.764 199.204L208.108 193.066L208.042 193.05Z" fill="url(#paint19_linear_68_2798)"/>
<path d="M207.992 193.033L205.665 199.171L205.714 199.188L208.042 193.05L207.992 193.033Z" fill="url(#paint20_linear_68_2798)"/>
<path d="M207.943 193.017L205.615 199.155L205.665 199.171L207.992 193.033L207.943 193.017Z" fill="url(#paint21_linear_68_2798)"/>
<path d="M207.893 192.984L205.549 199.138L205.615 199.155L207.943 193.017L207.893 192.984Z" fill="url(#paint22_linear_68_2798)"/>
<path d="M207.827 192.967L205.5 199.105L205.549 199.138L207.893 192.984L207.827 192.967Z" fill="url(#paint23_linear_68_2798)"/>
<path d="M207.778 192.951L205.45 199.089L205.5 199.105L207.827 192.967L207.778 192.951Z" fill="url(#paint24_linear_68_2798)"/>
<path d="M207.728 192.934L205.401 199.072L205.45 199.089L207.778 192.951L207.728 192.934Z" fill="url(#paint25_linear_68_2798)"/>
<path d="M207.679 192.918L205.334 199.056L205.401 199.072L207.728 192.934L207.679 192.918Z" fill="url(#paint26_linear_68_2798)"/>
<path d="M207.613 192.885L205.285 199.039L205.335 199.056L207.679 192.918L207.613 192.885Z" fill="url(#paint27_linear_68_2798)"/>
<path d="M207.563 192.868L205.236 199.023L205.285 199.039L207.613 192.885L207.563 192.868Z" fill="url(#paint28_linear_68_2798)"/>
<path d="M207.514 192.852L205.186 198.99L205.235 199.023L207.563 192.868L207.514 192.852Z" fill="url(#paint29_linear_68_2798)"/>
<path d="M207.464 192.835L205.12 198.973L205.186 198.99L207.513 192.852L207.464 192.835Z" fill="url(#paint30_linear_68_2798)"/>
<path d="M207.398 192.819L205.071 198.957L205.12 198.973L207.464 192.835L207.398 192.819Z" fill="url(#paint31_linear_68_2798)"/>
<path d="M207.348 192.786L205.021 198.94L205.07 198.957L207.398 192.819L207.348 192.786Z" fill="url(#paint32_linear_68_2798)"/>
<path d="M207.299 192.769L204.971 198.924L205.021 198.94L207.348 192.786L207.299 192.769Z" fill="url(#paint33_linear_68_2798)"/>
<path d="M207.25 192.753L204.922 198.891L204.972 198.924L207.299 192.769L207.25 192.753Z" fill="url(#paint34_linear_68_2798)"/>
<path d="M207.2 192.736L204.856 198.874L204.922 198.891L207.25 192.753L207.2 192.736Z" fill="url(#paint35_linear_68_2798)"/>
<path d="M207.134 192.72L204.806 198.858L204.856 198.874L207.2 192.736L207.134 192.72Z" fill="url(#paint36_linear_68_2798)"/>
<path d="M207.084 192.703L204.757 198.841L204.806 198.858L207.134 192.72L207.084 192.703Z" fill="url(#paint37_linear_68_2798)"/>
<path d="M207.035 192.67L204.707 198.825L204.757 198.841L207.084 192.703L207.035 192.67Z" fill="url(#paint38_linear_68_2798)"/>
<path d="M206.985 192.654L204.641 198.792L204.707 198.825L207.035 192.67L206.985 192.654Z" fill="url(#paint39_linear_68_2798)"/>
<path d="M206.919 192.637L204.592 198.775L204.641 198.792L206.985 192.654L206.919 192.637Z" fill="url(#paint40_linear_68_2798)"/>
<path d="M206.87 192.621L204.542 198.759L204.592 198.775L206.919 192.637L206.87 192.621Z" fill="url(#paint41_linear_68_2798)"/>
<path d="M206.82 192.604L204.493 198.742L204.542 198.759L206.87 192.621L206.82 192.604Z" fill="url(#paint42_linear_68_2798)"/>
<path d="M206.771 192.571L204.427 198.726L204.493 198.742L206.82 192.604L206.771 192.571Z" fill="url(#paint43_linear_68_2798)"/>
<path d="M206.705 192.555L204.377 198.709L204.427 198.726L206.771 192.571L206.705 192.555Z" fill="url(#paint44_linear_68_2798)"/>
<path d="M206.655 192.538L204.328 198.676L204.377 198.709L206.705 192.555L206.655 192.538Z" fill="url(#paint45_linear_68_2798)"/>
<path d="M206.606 192.522L204.278 198.66L204.328 198.676L206.655 192.538L206.606 192.522Z" fill="url(#paint46_linear_68_2798)"/>
<path d="M206.556 192.505L204.212 198.643L204.278 198.66L206.606 192.522L206.556 192.505Z" fill="url(#paint47_linear_68_2798)"/>
<path d="M206.49 192.489L204.163 198.627L204.212 198.643L206.556 192.505L206.49 192.489Z" fill="url(#paint48_linear_68_2798)"/>
<path d="M206.441 192.456L204.113 198.61L204.163 198.627L206.49 192.489L206.441 192.456Z" fill="url(#paint49_linear_68_2798)"/>
<path d="M206.391 192.439L204.064 198.577L204.113 198.61L206.441 192.456L206.391 192.439Z" fill="url(#paint50_linear_68_2798)"/>
<path d="M206.342 192.423L204.014 198.561L204.064 198.577L206.391 192.439L206.342 192.423Z" fill="url(#paint51_linear_68_2798)"/>
<path d="M206.276 192.406L203.948 198.544L204.014 198.561L206.342 192.423L206.276 192.406Z" fill="url(#paint52_linear_68_2798)"/>
<path d="M206.226 192.39L203.898 198.528L203.948 198.544L206.275 192.406L206.226 192.39Z" fill="url(#paint53_linear_68_2798)"/>
<path d="M206.177 192.357L203.849 198.511L203.899 198.528L206.226 192.39L206.177 192.357Z" fill="url(#paint54_linear_68_2798)"/>
<path d="M206.127 192.34L203.799 198.495L203.849 198.511L206.176 192.357L206.127 192.34Z" fill="url(#paint55_linear_68_2798)"/>
<path d="M206.077 192.324L203.733 198.462L203.799 198.495L206.127 192.34L206.077 192.324Z" fill="url(#paint56_linear_68_2798)"/>
<path d="M206.011 192.307L203.684 198.445L203.733 198.462L206.077 192.324L206.011 192.307Z" fill="url(#paint57_linear_68_2798)"/>
<path d="M205.962 192.291L203.634 198.429L203.684 198.445L206.011 192.307L205.962 192.291Z" fill="url(#paint58_linear_68_2798)"/>
<path d="M205.912 192.274L203.585 198.412L203.634 198.429L205.962 192.291L205.912 192.274Z" fill="url(#paint59_linear_68_2798)"/>
<path d="M205.863 192.241L203.519 198.396L203.585 198.412L205.912 192.274L205.863 192.241Z" fill="url(#paint60_linear_68_2798)"/>
<path d="M205.797 192.225L203.469 198.363L203.519 198.396L205.863 192.241L205.797 192.225Z" fill="url(#paint61_linear_68_2798)"/>
<path d="M205.747 192.208L203.42 198.346L203.469 198.363L205.797 192.225L205.747 192.208Z" fill="url(#paint62_linear_68_2798)"/>
<path d="M205.698 192.192L203.37 198.33L203.42 198.346L205.747 192.208L205.698 192.192Z" fill="url(#paint63_linear_68_2798)"/>
<path d="M205.648 192.175L203.304 198.313L203.37 198.33L205.698 192.192L205.648 192.175Z" fill="url(#paint64_linear_68_2798)"/>
<path d="M205.582 192.142L203.255 198.297L203.304 198.313L205.648 192.175L205.582 192.142Z" fill="url(#paint65_linear_68_2798)"/>
<path d="M205.533 192.126L203.205 198.28L203.255 198.297L205.582 192.142L205.533 192.126Z" fill="url(#paint66_linear_68_2798)"/>
<path d="M205.483 192.109L203.156 198.247L203.205 198.28L205.533 192.126L205.483 192.109Z" fill="url(#paint67_linear_68_2798)"/>
<path d="M205.434 192.093L203.106 198.231L203.156 198.247L205.483 192.109L205.434 192.093Z" fill="url(#paint68_linear_68_2798)"/>
<path d="M205.368 192.076L203.04 198.214L203.106 198.231L205.434 192.093L205.368 192.076Z" fill="url(#paint69_linear_68_2798)"/>
<path d="M205.318 192.043L202.991 198.198L203.04 198.214L205.368 192.076L205.318 192.043Z" fill="url(#paint70_linear_68_2798)"/>
<path d="M205.269 192.027L202.941 198.181L202.991 198.198L205.318 192.043L205.269 192.027Z" fill="url(#paint71_linear_68_2798)"/>
<path d="M205.219 192.01L202.892 198.148L202.941 198.181L205.269 192.027L205.219 192.01Z" fill="url(#paint72_linear_68_2798)"/>
<path d="M205.169 191.994L202.825 198.132L202.891 198.148L205.219 192.01L205.169 191.994Z" fill="url(#paint73_linear_68_2798)"/>
<path d="M205.103 191.977L202.776 198.115L202.826 198.132L205.169 191.994L205.103 191.977Z" fill="url(#paint74_linear_68_2798)"/>
<path d="M205.054 191.961L202.726 198.099L202.776 198.115L205.103 191.977L205.054 191.961Z" fill="url(#paint75_linear_68_2798)"/>
<path d="M205.005 191.928L202.677 198.082L202.726 198.099L205.054 191.961L205.005 191.928Z" fill="url(#paint76_linear_68_2798)"/>
<path d="M204.955 191.911L202.611 198.049L202.677 198.082L205.004 191.928L204.955 191.911Z" fill="url(#paint77_linear_68_2798)"/>
<path d="M204.889 191.895L202.561 198.033L202.611 198.049L204.955 191.911L204.889 191.895Z" fill="url(#paint78_linear_68_2798)"/>
<path d="M204.839 191.878L202.512 198.016L202.561 198.033L204.889 191.895L204.839 191.878Z" fill="url(#paint79_linear_68_2798)"/>
<path d="M204.79 191.862L202.462 198L202.512 198.016L204.839 191.878L204.79 191.862Z" fill="url(#paint80_linear_68_2798)"/>
<path d="M204.74 191.829L202.396 197.983L202.462 198L204.79 191.862L204.74 191.829Z" fill="url(#paint81_linear_68_2798)"/>
<path d="M204.674 191.812L202.347 197.967L202.396 197.983L204.74 191.829L204.674 191.812Z" fill="url(#paint82_linear_68_2798)"/>
<path d="M204.625 191.796L202.297 197.934L202.347 197.967L204.674 191.812L204.625 191.796Z" fill="url(#paint83_linear_68_2798)"/>
<path d="M204.575 191.779L202.248 197.917L202.297 197.934L204.625 191.796L204.575 191.779Z" fill="url(#paint84_linear_68_2798)"/>
<path d="M204.526 191.763L202.198 197.901L202.248 197.917L204.575 191.779L204.526 191.763Z" fill="url(#paint85_linear_68_2798)"/>
<path d="M204.46 191.746L202.132 197.884L202.198 197.901L204.526 191.763L204.46 191.746Z" fill="url(#paint86_linear_68_2798)"/>
<path d="M204.41 191.713L202.083 197.868L202.132 197.884L204.46 191.746L204.41 191.713Z" fill="url(#paint87_linear_68_2798)"/>
<path d="M204.361 191.697L202.033 197.835L202.083 197.868L204.41 191.713L204.361 191.697Z" fill="url(#paint88_linear_68_2798)"/>
<path d="M204.311 191.68L201.984 197.818L202.033 197.835L204.361 191.697L204.311 191.68Z" fill="url(#paint89_linear_68_2798)"/>
<path d="M204.262 191.664L201.918 197.802L201.984 197.818L204.311 191.68L204.262 191.664Z" fill="url(#paint90_linear_68_2798)"/>
<path d="M204.195 191.647L201.868 197.785L201.917 197.802L204.261 191.664L204.195 191.647Z" fill="url(#paint91_linear_68_2798)"/>
<path d="M204.146 191.614L201.818 197.769L201.868 197.785L204.196 191.647L204.146 191.614Z" fill="url(#paint92_linear_68_2798)"/>
<path d="M204.097 191.598L201.769 197.752L201.819 197.769L204.146 191.614L204.097 191.598Z" fill="url(#paint93_linear_68_2798)"/>
<path d="M204.047 191.581L201.703 197.719L201.769 197.752L204.096 191.598L204.047 191.581Z" fill="url(#paint94_linear_68_2798)"/>
<path d="M203.981 191.565L201.653 197.703L201.703 197.719L204.047 191.581L203.981 191.565Z" fill="url(#paint95_linear_68_2798)"/>
<path d="M203.932 191.548L201.604 197.686L201.653 197.703L203.981 191.565L203.932 191.548Z" fill="url(#paint96_linear_68_2798)"/>
<path d="M203.882 191.532L201.554 197.67L201.604 197.686L203.931 191.548L203.882 191.532Z" fill="url(#paint97_linear_68_2798)"/>
<path d="M203.832 191.499L201.488 197.653L201.554 197.67L203.882 191.532L203.832 191.499Z" fill="url(#paint98_linear_68_2798)"/>
<path d="M203.766 191.482L201.439 197.62L201.488 197.653L203.833 191.499L203.766 191.482Z" fill="url(#paint99_linear_68_2798)"/>
<path d="M203.717 191.466L201.389 197.604L201.439 197.62L203.766 191.482L203.717 191.466Z" fill="url(#paint100_linear_68_2798)"/>
<path d="M203.667 191.449L201.34 197.587L201.389 197.604L203.717 191.466L203.667 191.449Z" fill="url(#paint101_linear_68_2798)"/>
<path d="M203.618 191.433L201.29 197.571L201.34 197.587L203.667 191.449L203.618 191.433Z" fill="url(#paint102_linear_68_2798)"/>
<path d="M203.552 191.4L201.224 197.554L201.29 197.571L203.618 191.433L203.552 191.4Z" fill="url(#paint103_linear_68_2798)"/>
<path d="M203.502 191.383L201.175 197.521L201.224 197.554L203.552 191.4L203.502 191.383Z" fill="url(#paint104_linear_68_2798)"/>
<path d="M203.453 191.367L201.125 197.505L201.175 197.521L203.502 191.383L203.453 191.367Z" fill="url(#paint105_linear_68_2798)"/>
<path d="M203.403 191.35L201.076 197.488L201.125 197.505L203.453 191.367L203.403 191.35Z" fill="url(#paint106_linear_68_2798)"/>
<path d="M203.354 191.334L201.01 197.472L201.076 197.488L203.403 191.35L203.354 191.334Z" fill="url(#paint107_linear_68_2798)"/>
<path d="M203.288 191.301L200.96 197.455L201.01 197.472L203.354 191.334L203.288 191.301Z" fill="url(#paint108_linear_68_2798)"/>
<path d="M203.238 191.284L200.911 197.439L200.96 197.455L203.288 191.301L203.238 191.284Z" fill="url(#paint109_linear_68_2798)"/>
<path d="M203.188 191.268L200.861 197.406L200.911 197.439L203.238 191.284L203.188 191.268Z" fill="url(#paint110_linear_68_2798)"/>
<path d="M203.139 191.251L200.795 197.389L200.861 197.406L203.189 191.268L203.139 191.251Z" fill="url(#paint111_linear_68_2798)"/>
<path d="M203.073 191.235L200.745 197.373L200.795 197.389L203.139 191.251L203.073 191.235Z" fill="url(#paint112_linear_68_2798)"/>
<path d="M203.023 191.218L200.696 197.356L200.746 197.373L203.073 191.235L203.023 191.218Z" fill="url(#paint113_linear_68_2798)"/>
<path d="M202.974 191.185L200.646 197.34L200.696 197.356L203.024 191.218L202.974 191.185Z" fill="url(#paint114_linear_68_2798)"/>
<path d="M202.924 191.169L200.58 197.307L200.646 197.34L202.974 191.185L202.924 191.169Z" fill="url(#paint115_linear_68_2798)"/>
<path d="M202.859 191.152L200.531 197.29L200.581 197.307L202.925 191.169L202.859 191.152Z" fill="url(#paint116_linear_68_2798)"/>
<path d="M202.809 191.136L200.481 197.274L200.531 197.29L202.859 191.152L202.809 191.136Z" fill="url(#paint117_linear_68_2798)"/>
<path d="M202.759 191.119L200.432 197.257L200.481 197.274L202.809 191.136L202.759 191.119Z" fill="url(#paint118_linear_68_2798)"/>
<path d="M202.71 191.086L200.382 197.241L200.432 197.257L202.76 191.119L202.71 191.086Z" fill="url(#paint119_linear_68_2798)"/>
<path d="M202.644 191.07L200.316 197.224L200.382 197.241L202.71 191.086L202.644 191.07Z" fill="url(#paint120_linear_68_2798)"/>
<path d="M202.594 191.053L200.267 197.191L200.316 197.224L202.644 191.07L202.594 191.053Z" fill="url(#paint121_linear_68_2798)"/>
<path d="M202.545 191.037L200.217 197.175L200.267 197.191L202.594 191.053L202.545 191.037Z" fill="url(#paint122_linear_68_2798)"/>
<path d="M202.495 191.02L200.168 197.158L200.217 197.175L202.545 191.037L202.495 191.02Z" fill="url(#paint123_linear_68_2798)"/>
<path d="M202.446 191.004L200.102 197.142L200.168 197.158L202.495 191.02L202.446 191.004Z" fill="url(#paint124_linear_68_2798)"/>
<path d="M202.38 190.971L200.052 197.125L200.102 197.142L202.446 191.004L202.38 190.971Z" fill="url(#paint125_linear_68_2798)"/>
<path d="M202.33 190.954L200.003 197.092L200.052 197.125L202.38 190.971L202.33 190.954Z" fill="url(#paint126_linear_68_2798)"/>
<path d="M202.281 190.938L199.953 197.076L200.003 197.092L202.33 190.954L202.281 190.938Z" fill="url(#paint127_linear_68_2798)"/>
<path d="M202.231 190.921L199.887 197.059L199.953 197.076L202.281 190.938L202.231 190.921Z" fill="url(#paint128_linear_68_2798)"/>
<path d="M202.165 190.905L199.838 197.043L199.887 197.059L202.231 190.921L202.165 190.905Z" fill="url(#paint129_linear_68_2798)"/>
<path d="M202.116 190.872L199.788 197.026L199.838 197.043L202.165 190.905L202.116 190.872Z" fill="url(#paint130_linear_68_2798)"/>
<path d="M202.066 190.855L199.739 197.01L199.788 197.026L202.116 190.872L202.066 190.855Z" fill="url(#paint131_linear_68_2798)"/>
<path d="M202.017 190.839L199.672 196.977L199.739 197.01L202.066 190.855L202.017 190.839Z" fill="url(#paint132_linear_68_2798)"/>
<path d="M201.951 190.822L199.623 196.96L199.673 196.977L202.017 190.839L201.951 190.822Z" fill="url(#paint133_linear_68_2798)"/>
<path d="M201.901 190.806L199.574 196.944L199.623 196.96L201.951 190.822L201.901 190.806Z" fill="url(#paint134_linear_68_2798)"/>
<path d="M201.852 190.773L199.524 196.927L199.574 196.944L201.901 190.806L201.852 190.773Z" fill="url(#paint135_linear_68_2798)"/>
<path d="M201.802 190.756L199.474 196.911L199.524 196.927L201.852 190.773L201.802 190.756Z" fill="url(#paint136_linear_68_2798)"/>
<path d="M201.736 190.74L199.408 196.878L199.474 196.911L201.802 190.756L201.736 190.74Z" fill="url(#paint137_linear_68_2798)"/>
<path d="M201.687 190.723L199.359 196.861L199.409 196.878L201.736 190.74L201.687 190.723Z" fill="url(#paint138_linear_68_2798)"/>
<path d="M201.637 190.707L199.309 196.845L199.359 196.861L201.687 190.723L201.637 190.707Z" fill="url(#paint139_linear_68_2798)"/>
<path d="M201.587 190.69L199.26 196.828L199.309 196.845L201.637 190.707L201.587 190.69Z" fill="url(#paint140_linear_68_2798)"/>
<path d="M201.538 190.657L199.194 196.812L199.26 196.828L201.587 190.69L201.538 190.657Z" fill="url(#paint141_linear_68_2798)"/>
<path d="M201.472 190.641L199.144 196.779L199.194 196.812L201.538 190.657L201.472 190.641Z" fill="url(#paint142_linear_68_2798)"/>
<path d="M201.422 190.624L199.095 196.762L199.144 196.779L201.472 190.641L201.422 190.624Z" fill="url(#paint143_linear_68_2798)"/>
<path d="M201.373 190.608L199.045 196.746L199.095 196.762L201.422 190.624L201.373 190.608Z" fill="url(#paint144_linear_68_2798)"/>
<path d="M201.323 190.591L198.979 196.729L199.045 196.746L201.373 190.608L201.323 190.591Z" fill="url(#paint145_linear_68_2798)"/>
<path d="M201.257 190.558L198.93 196.713L198.979 196.729L201.323 190.591L201.257 190.558Z" fill="url(#paint146_linear_68_2798)"/>
<path d="M201.208 190.542L198.88 196.696L198.93 196.713L201.257 190.558L201.208 190.542Z" fill="url(#paint147_linear_68_2798)"/>
<path d="M201.158 190.525L198.831 196.663L198.88 196.696L201.208 190.542L201.158 190.525Z" fill="url(#paint148_linear_68_2798)"/>
<path d="M201.109 190.509L198.765 196.647L198.831 196.663L201.158 190.525L201.109 190.509Z" fill="url(#paint149_linear_68_2798)"/>
<path d="M201.043 190.492L198.715 196.63L198.765 196.647L201.109 190.509L201.043 190.492Z" fill="url(#paint150_linear_68_2798)"/>
<path d="M200.993 190.476L198.666 196.614L198.715 196.63L201.043 190.492L200.993 190.476Z" fill="url(#paint151_linear_68_2798)"/>
<path d="M200.944 190.443L198.616 196.597L198.666 196.614L200.993 190.476L200.944 190.443Z" fill="url(#paint152_linear_68_2798)"/>
<path d="M200.894 190.426L198.567 196.564L198.616 196.597L200.944 190.443L200.894 190.426Z" fill="url(#paint153_linear_68_2798)"/>
<path d="M200.828 190.41L198.501 196.548L198.567 196.564L200.894 190.426L200.828 190.41Z" fill="url(#paint154_linear_68_2798)"/>
<path d="M200.779 190.393L198.451 196.531L198.501 196.548L200.828 190.41L200.779 190.393Z" fill="url(#paint155_linear_68_2798)"/>
<path d="M200.729 190.377L198.401 196.515L198.451 196.531L200.779 190.393L200.729 190.377Z" fill="url(#paint156_linear_68_2798)"/>
<path d="M200.68 190.344L198.352 196.498L198.402 196.515L200.729 190.377L200.68 190.344Z" fill="url(#paint157_linear_68_2798)"/>
<path d="M200.63 190.327L198.286 196.482L198.352 196.498L200.68 190.344L200.63 190.327Z" fill="url(#paint158_linear_68_2798)"/>
<path d="M200.564 190.311L198.236 196.449L198.286 196.482L200.63 190.327L200.564 190.311Z" fill="url(#paint159_linear_68_2798)"/>
<path d="M200.515 190.294L198.187 196.432L198.237 196.449L200.564 190.311L200.515 190.294Z" fill="url(#paint160_linear_68_2798)"/>
<path d="M200.465 190.278L198.137 196.416L198.187 196.432L200.514 190.294L200.465 190.278Z" fill="url(#paint161_linear_68_2798)"/>
<path d="M200.415 190.261L198.071 196.399L198.137 196.416L200.465 190.278L200.415 190.261Z" fill="url(#paint162_linear_68_2798)"/>
<path d="M200.349 190.228L200.135 193.231L198.88 196.68L198.071 196.399L200.415 190.261L200.349 190.228Z" fill="url(#paint163_linear_68_2798)"/>
<path d="M199.507 193L200.135 190.855L200.283 190.905L199.507 193Z" fill="url(#paint164_linear_68_2798)"/>
<path d="M242.674 159.918C242.674 159.918 241.32 127.297 222.37 120.516C222.37 120.516 228.296 119.031 233.579 122.958C238.844 126.868 250.796 144.969 247.395 161.667C243.252 162.178 242.674 159.918 242.674 159.918Z" fill="url(#paint165_linear_68_2798)"/>
<path d="M246.355 158.631C256.738 162.789 252.925 176.187 252.925 176.187C251.885 186.219 248.105 190.591 243.978 192.258C241.155 193.396 237.953 192.951 235.526 191.12C233.1 189.288 231.812 186.318 232.142 183.299C232.44 180.576 232.671 177.969 232.638 177.029C232.539 174.719 235.972 154.473 246.355 158.631Z" fill="url(#paint166_linear_68_2798)"/>
<path d="M244.721 161.898C247.032 161.914 249.03 163.515 249.541 165.759C253.256 181.863 243.566 190.129 239.637 189.618C235.51 189.09 239.191 169.405 240.99 164.521C241.75 162.475 243.236 161.881 244.721 161.898Z" fill="url(#paint167_linear_68_2798)"/>
<path d="M182.752 333.696L184.024 333.531L176.133 271.342C175.638 267.448 172.435 264.462 168.523 264.214L20.5351 255.288L20.4525 256.575L168.441 265.501C171.742 265.699 174.433 268.224 174.845 271.507L182.752 333.696Z" fill="#91B3FA"/>
<path d="M186.286 351.271L185.008 351.432L186.704 364.889L187.982 364.728L186.286 351.271Z" fill="#91B3FA"/>



<g class="buble">
<path d="M131.761 190.476C131.761 190.476 -12.4466 119.262 34.7149 66.8251C81.8763 14.3881 169.794 35.3431 174.251 90.5356C178.708 145.728 71.7078 132.776 131.761 190.476Z" fill="#79BCD9"/>
<path d="M45.4612 80.3716C45.4612 81.1801 46.105 81.8236 46.9138 81.8236H110.55C111.358 81.8236 112.002 81.1801 112.002 80.3716C112.002 79.5631 111.358 78.9196 110.55 78.9196H46.9138C46.1215 78.9196 45.4612 79.5631 45.4612 80.3716Z" fill="white"/>
<path d="M129.467 81.8236H148.351C149.16 81.8236 149.804 81.1801 149.804 80.3716C149.804 79.5631 149.16 78.9196 148.351 78.9196H129.467C128.658 78.9196 128.014 79.5631 128.014 80.3716C127.998 81.1636 128.658 81.8236 129.467 81.8236Z" fill="white"/>
<path d="M43.3318 93.2415C43.3318 94.05 43.9756 94.6936 44.7844 94.6936H68.6705C69.4794 94.6936 70.1232 94.05 70.1232 93.2415C70.1232 92.433 69.4794 91.7896 68.6705 91.7896H44.7844C43.9756 91.7896 43.3318 92.433 43.3318 93.2415Z" fill="white"/>
<path d="M102.279 93.2415C102.279 94.05 102.923 94.6936 103.732 94.6936H146.189C146.998 94.6936 147.642 94.05 147.642 93.2415C147.642 92.433 146.998 91.7896 146.189 91.7896H103.732C102.94 91.7896 102.279 92.433 102.279 93.2415Z" fill="white"/>
<path d="M42.6384 107.58H106.159C106.967 107.58 107.611 106.937 107.611 106.128C107.611 105.32 106.967 104.676 106.159 104.676H42.6384C41.8296 104.676 41.1858 105.32 41.1858 106.128C41.1858 106.92 41.8296 107.58 42.6384 107.58Z" fill="white"/>
<path d="M122.072 107.58H144.059C144.868 107.58 145.512 106.937 145.512 106.128C145.512 105.32 144.868 104.676 144.059 104.676H122.072C121.263 104.676 120.619 105.32 120.619 106.128C120.603 106.92 121.263 107.58 122.072 107.58Z" fill="white"/>
</g>


<path d="M344.508 142.89C375.304 142.89 400.27 117.936 400.27 87.153C400.27 56.3703 375.304 31.416 344.508 31.416C313.711 31.416 288.746 56.3703 288.746 87.153C288.746 117.936 313.711 142.89 344.508 142.89Z" fill="#F58220"/>
<path d="M344.805 137.098C372.018 137.098 394.079 115.047 394.079 87.846C394.079 60.6446 372.018 38.5935 344.805 38.5935C317.592 38.5935 295.531 60.6446 295.531 87.846C295.531 115.047 317.592 137.098 344.805 137.098Z" fill="#DADFE5"/>
<path d="M323.378 102.383H306.26V97.9441L311.939 89.9086C313.491 87.6976 314.564 86.0641 315.141 84.9916C315.719 83.9191 316.148 82.8961 316.429 81.9061C316.71 80.9161 316.842 79.9096 316.842 78.8536C316.842 77.6326 316.561 76.7086 316.016 76.0981C315.471 75.4876 314.762 75.1741 313.887 75.1741C313.111 75.1741 312.401 75.3721 311.724 75.7846C311.048 76.1971 310.239 76.9231 309.281 77.9956L305.963 74.4976C307.498 72.7651 308.918 71.5771 310.222 70.9336C311.526 70.2901 312.946 69.9766 314.481 69.9766C317.056 69.9766 319.07 70.7356 320.523 72.2536C321.975 73.7716 322.702 75.8671 322.702 78.5566C322.702 79.7776 322.57 80.9326 322.306 82.0216C322.041 83.1106 321.645 84.2161 321.117 85.3051C320.589 86.4106 319.912 87.5491 319.12 88.7371C318.311 89.9251 316.247 92.6476 312.913 96.8881V97.0696H323.378V102.383Z" fill="#F58220"/>
<path d="M345.399 95.6836H342.164V102.383H336.568V95.6836H326.152V90.8656L335.809 70.488H342.164V90.7831H345.399V95.6836ZM336.568 90.7665V84.051L336.684 81.081L336.832 78.243H336.651C336.139 79.827 335.594 81.2625 334.983 82.5495L331.137 90.7831H336.568V90.7665Z" fill="#F58220"/>
<path d="M363.888 70.4716L351.986 102.383H346.39L358.292 70.4716H363.888Z" fill="#F58220"/>
<path d="M368.08 102.383L377.027 75.7845H365.885V70.521H383.003V74.5305L374.221 102.383H368.08Z" fill="#F58220"/>
</g>
<defs>
<linearGradient id="paint0_linear_68_2798" x1="236.382" y1="293.004" x2="213.225" y2="194.759" gradientUnits="userSpaceOnUse">
<stop stop-color="#FEBBBA"/>
<stop offset="1" stop-color="#FF928E"/>
</linearGradient>
<linearGradient id="paint1_linear_68_2798" x1="232.915" y1="182.441" x2="190.788" y2="171.407" gradientUnits="userSpaceOnUse">
<stop stop-color="#FEBBBA"/>
<stop offset="1" stop-color="#FF928E"/>
</linearGradient>
<linearGradient id="paint2_linear_68_2798" x1="272.521" y1="202.352" x2="193.183" y2="108.819" gradientUnits="userSpaceOnUse">
<stop stop-color="#E1473D"/>
<stop offset="1" stop-color="#E9605A"/>
</linearGradient>
<linearGradient id="paint3_linear_68_2798" x1="235.326" y1="173.234" x2="193.198" y2="162.2" gradientUnits="userSpaceOnUse">
<stop stop-color="#FEBBBA"/>
<stop offset="1" stop-color="#FF928E"/>
</linearGradient>
<linearGradient id="paint4_linear_68_2798" x1="287.424" y1="333.728" x2="243.835" y2="448.486" gradientUnits="userSpaceOnUse">
<stop stop-color="#FEBBBA"/>
<stop offset="1" stop-color="#FF928E"/>
</linearGradient>
<linearGradient id="paint5_linear_68_2798" x1="233.3" y1="313.171" x2="189.712" y2="427.928" gradientUnits="userSpaceOnUse">
<stop stop-color="#FEBBBA"/>
<stop offset="1" stop-color="#FF928E"/>
</linearGradient>
<linearGradient id="paint6_linear_68_2798" x1="138.624" y1="354.837" x2="161.188" y2="383.916" gradientUnits="userSpaceOnUse">
<stop stop-color="#78BCDA"/>
<stop offset="1" stop-color="#3998C3"/>
</linearGradient>
<linearGradient id="paint7_linear_68_2798" x1="96.7524" y1="394.299" x2="130.268" y2="321.649" gradientUnits="userSpaceOnUse">
<stop stop-color="#77BBD9"/>
<stop offset="1" stop-color="#2089B9"/>
</linearGradient>
<linearGradient id="paint8_linear_68_2798" x1="118.401" y1="386.442" x2="146.326" y2="221.051" gradientUnits="userSpaceOnUse">
<stop stop-color="#79BCD9"/>
<stop offset="1" stop-color="#4042E2"/>
</linearGradient>
<linearGradient id="paint9_linear_68_2798" x1="235.808" y1="207.733" x2="214.645" y2="178.336" gradientUnits="userSpaceOnUse">
<stop stop-color="#4F52FF"/>
<stop offset="1" stop-color="#4042E2"/>
</linearGradient>
<linearGradient id="paint10_linear_68_2798" x1="200.039" y1="194.242" x2="208.243" y2="194.242" gradientUnits="userSpaceOnUse">
<stop stop-color="#4F52FF"/>
<stop offset="1" stop-color="#4042E2"/>
</linearGradient>
<linearGradient id="paint11_linear_68_2798" x1="206.414" y1="197.43" x2="207.425" y2="197.43" gradientUnits="userSpaceOnUse">
<stop stop-color="#4F52FF"/>
<stop offset="1" stop-color="#4042E2"/>
</linearGradient>
<linearGradient id="paint12_linear_68_2798" x1="206.09" y1="196.266" x2="208.846" y2="196.266" gradientUnits="userSpaceOnUse">
<stop stop-color="#4F52FF"/>
<stop offset="1" stop-color="#4042E2"/>
</linearGradient>
<linearGradient id="paint13_linear_68_2798" x1="206.036" y1="196.246" x2="208.42" y2="196.246" gradientUnits="userSpaceOnUse">
<stop stop-color="#4F52FF"/>
<stop offset="1" stop-color="#4042E2"/>
</linearGradient>
<linearGradient id="paint14_linear_68_2798" x1="205.983" y1="196.227" x2="208.367" y2="196.227" gradientUnits="userSpaceOnUse">
<stop stop-color="#4F52FF"/>
<stop offset="1" stop-color="#4042E2"/>
</linearGradient>
<linearGradient id="paint15_linear_68_2798" x1="205.929" y1="196.207" x2="208.313" y2="196.207" gradientUnits="userSpaceOnUse">
<stop stop-color="#4F52FF"/>
<stop offset="1" stop-color="#4042E2"/>
</linearGradient>
<linearGradient id="paint16_linear_68_2798" x1="205.876" y1="196.188" x2="208.26" y2="196.188" gradientUnits="userSpaceOnUse">
<stop stop-color="#4F52FF"/>
<stop offset="1" stop-color="#4042E2"/>
</linearGradient>
<linearGradient id="paint17_linear_68_2798" x1="205.822" y1="196.168" x2="208.206" y2="196.168" gradientUnits="userSpaceOnUse">
<stop stop-color="#4F52FF"/>
<stop offset="1" stop-color="#4042E2"/>
</linearGradient>
<linearGradient id="paint18_linear_68_2798" x1="205.769" y1="196.149" x2="208.153" y2="196.149" gradientUnits="userSpaceOnUse">
<stop stop-color="#4F52FF"/>
<stop offset="1" stop-color="#4042E2"/>
</linearGradient>
<linearGradient id="paint19_linear_68_2798" x1="205.716" y1="196.129" x2="208.099" y2="196.129" gradientUnits="userSpaceOnUse">
<stop stop-color="#4F52FF"/>
<stop offset="1" stop-color="#4042E2"/>
</linearGradient>
<linearGradient id="paint20_linear_68_2798" x1="205.662" y1="196.11" x2="208.046" y2="196.11" gradientUnits="userSpaceOnUse">
<stop stop-color="#4F52FF"/>
<stop offset="1" stop-color="#4042E2"/>
</linearGradient>
<linearGradient id="paint21_linear_68_2798" x1="205.609" y1="196.09" x2="207.993" y2="196.09" gradientUnits="userSpaceOnUse">
<stop stop-color="#4F52FF"/>
<stop offset="1" stop-color="#4042E2"/>
</linearGradient>
<linearGradient id="paint22_linear_68_2798" x1="205.556" y1="196.07" x2="207.939" y2="196.07" gradientUnits="userSpaceOnUse">
<stop stop-color="#4F52FF"/>
<stop offset="1" stop-color="#4042E2"/>
</linearGradient>
<linearGradient id="paint23_linear_68_2798" x1="205.502" y1="196.051" x2="207.886" y2="196.051" gradientUnits="userSpaceOnUse">
<stop stop-color="#4F52FF"/>
<stop offset="1" stop-color="#4042E2"/>
</linearGradient>
<linearGradient id="paint24_linear_68_2798" x1="205.449" y1="196.031" x2="207.833" y2="196.031" gradientUnits="userSpaceOnUse">
<stop stop-color="#4F52FF"/>
<stop offset="1" stop-color="#4042E2"/>
</linearGradient>
<linearGradient id="paint25_linear_68_2798" x1="205.395" y1="196.012" x2="207.779" y2="196.012" gradientUnits="userSpaceOnUse">
<stop stop-color="#4F52FF"/>
<stop offset="1" stop-color="#4042E2"/>
</linearGradient>
<linearGradient id="paint26_linear_68_2798" x1="205.342" y1="195.992" x2="207.726" y2="195.992" gradientUnits="userSpaceOnUse">
<stop stop-color="#4F52FF"/>
<stop offset="1" stop-color="#4042E2"/>
</linearGradient>
<linearGradient id="paint27_linear_68_2798" x1="205.288" y1="195.973" x2="207.672" y2="195.973" gradientUnits="userSpaceOnUse">
<stop stop-color="#4F52FF"/>
<stop offset="1" stop-color="#4042E2"/>
</linearGradient>
<linearGradient id="paint28_linear_68_2798" x1="205.235" y1="195.953" x2="207.619" y2="195.953" gradientUnits="userSpaceOnUse">
<stop stop-color="#4F52FF"/>
<stop offset="1" stop-color="#4042E2"/>
</linearGradient>
<linearGradient id="paint29_linear_68_2798" x1="205.182" y1="195.934" x2="207.566" y2="195.934" gradientUnits="userSpaceOnUse">
<stop stop-color="#4F52FF"/>
<stop offset="1" stop-color="#4042E2"/>
</linearGradient>
<linearGradient id="paint30_linear_68_2798" x1="205.128" y1="195.914" x2="207.512" y2="195.914" gradientUnits="userSpaceOnUse">
<stop stop-color="#4F52FF"/>
<stop offset="1" stop-color="#4042E2"/>
</linearGradient>
<linearGradient id="paint31_linear_68_2798" x1="205.075" y1="195.894" x2="207.459" y2="195.894" gradientUnits="userSpaceOnUse">
<stop stop-color="#4F52FF"/>
<stop offset="1" stop-color="#4042E2"/>
</linearGradient>
<linearGradient id="paint32_linear_68_2798" x1="205.021" y1="195.875" x2="207.405" y2="195.875" gradientUnits="userSpaceOnUse">
<stop stop-color="#4F52FF"/>
<stop offset="1" stop-color="#4042E2"/>
</linearGradient>
<linearGradient id="paint33_linear_68_2798" x1="204.968" y1="195.855" x2="207.352" y2="195.855" gradientUnits="userSpaceOnUse">
<stop stop-color="#4F52FF"/>
<stop offset="1" stop-color="#4042E2"/>
</linearGradient>
<linearGradient id="paint34_linear_68_2798" x1="204.915" y1="195.836" x2="207.299" y2="195.836" gradientUnits="userSpaceOnUse">
<stop stop-color="#4F52FF"/>
<stop offset="1" stop-color="#4042E2"/>
</linearGradient>
<linearGradient id="paint35_linear_68_2798" x1="204.861" y1="195.816" x2="207.245" y2="195.816" gradientUnits="userSpaceOnUse">
<stop stop-color="#4F52FF"/>
<stop offset="1" stop-color="#4042E2"/>
</linearGradient>
<linearGradient id="paint36_linear_68_2798" x1="204.808" y1="195.797" x2="207.192" y2="195.797" gradientUnits="userSpaceOnUse">
<stop stop-color="#4F52FF"/>
<stop offset="1" stop-color="#4042E2"/>
</linearGradient>
<linearGradient id="paint37_linear_68_2798" x1="204.754" y1="195.777" x2="207.138" y2="195.777" gradientUnits="userSpaceOnUse">
<stop stop-color="#4F52FF"/>
<stop offset="1" stop-color="#4042E2"/>
</linearGradient>
<linearGradient id="paint38_linear_68_2798" x1="204.701" y1="195.758" x2="207.085" y2="195.758" gradientUnits="userSpaceOnUse">
<stop stop-color="#4F52FF"/>
<stop offset="1" stop-color="#4042E2"/>
</linearGradient>
<linearGradient id="paint39_linear_68_2798" x1="204.647" y1="195.738" x2="207.031" y2="195.738" gradientUnits="userSpaceOnUse">
<stop stop-color="#4F52FF"/>
<stop offset="1" stop-color="#4042E2"/>
</linearGradient>
<linearGradient id="paint40_linear_68_2798" x1="204.594" y1="195.719" x2="206.978" y2="195.719" gradientUnits="userSpaceOnUse">
<stop stop-color="#4F52FF"/>
<stop offset="1" stop-color="#4042E2"/>
</linearGradient>
<linearGradient id="paint41_linear_68_2798" x1="204.541" y1="195.699" x2="206.925" y2="195.699" gradientUnits="userSpaceOnUse">
<stop stop-color="#4F52FF"/>
<stop offset="1" stop-color="#4042E2"/>
</linearGradient>
<linearGradient id="paint42_linear_68_2798" x1="204.487" y1="195.679" x2="206.871" y2="195.679" gradientUnits="userSpaceOnUse">
<stop stop-color="#4F52FF"/>
<stop offset="1" stop-color="#4042E2"/>
</linearGradient>
<linearGradient id="paint43_linear_68_2798" x1="204.434" y1="195.66" x2="206.818" y2="195.66" gradientUnits="userSpaceOnUse">
<stop stop-color="#4F52FF"/>
<stop offset="1" stop-color="#4042E2"/>
</linearGradient>
<linearGradient id="paint44_linear_68_2798" x1="204.38" y1="195.64" x2="206.764" y2="195.64" gradientUnits="userSpaceOnUse">
<stop stop-color="#4F52FF"/>
<stop offset="1" stop-color="#4042E2"/>
</linearGradient>
<linearGradient id="paint45_linear_68_2798" x1="204.327" y1="195.621" x2="206.711" y2="195.621" gradientUnits="userSpaceOnUse">
<stop stop-color="#4F52FF"/>
<stop offset="1" stop-color="#4042E2"/>
</linearGradient>
<linearGradient id="paint46_linear_68_2798" x1="204.274" y1="195.601" x2="206.658" y2="195.601" gradientUnits="userSpaceOnUse">
<stop stop-color="#4F52FF"/>
<stop offset="1" stop-color="#4042E2"/>
</linearGradient>
<linearGradient id="paint47_linear_68_2798" x1="204.22" y1="195.582" x2="206.604" y2="195.582" gradientUnits="userSpaceOnUse">
<stop stop-color="#4F52FF"/>
<stop offset="1" stop-color="#4042E2"/>
</linearGradient>
<linearGradient id="paint48_linear_68_2798" x1="204.167" y1="195.562" x2="206.551" y2="195.562" gradientUnits="userSpaceOnUse">
<stop stop-color="#4F52FF"/>
<stop offset="1" stop-color="#4042E2"/>
</linearGradient>
<linearGradient id="paint49_linear_68_2798" x1="204.113" y1="195.543" x2="206.497" y2="195.543" gradientUnits="userSpaceOnUse">
<stop stop-color="#4F52FF"/>
<stop offset="1" stop-color="#4042E2"/>
</linearGradient>
<linearGradient id="paint50_linear_68_2798" x1="204.06" y1="195.523" x2="206.444" y2="195.523" gradientUnits="userSpaceOnUse">
<stop stop-color="#4F52FF"/>
<stop offset="1" stop-color="#4042E2"/>
</linearGradient>
<linearGradient id="paint51_linear_68_2798" x1="204.006" y1="195.504" x2="206.391" y2="195.504" gradientUnits="userSpaceOnUse">
<stop stop-color="#4F52FF"/>
<stop offset="1" stop-color="#4042E2"/>
</linearGradient>
<linearGradient id="paint52_linear_68_2798" x1="203.953" y1="195.484" x2="206.337" y2="195.484" gradientUnits="userSpaceOnUse">
<stop stop-color="#4F52FF"/>
<stop offset="1" stop-color="#4042E2"/>
</linearGradient>
<linearGradient id="paint53_linear_68_2798" x1="203.9" y1="195.465" x2="206.284" y2="195.465" gradientUnits="userSpaceOnUse">
<stop stop-color="#4F52FF"/>
<stop offset="1" stop-color="#4042E2"/>
</linearGradient>
<linearGradient id="paint54_linear_68_2798" x1="203.846" y1="195.445" x2="206.23" y2="195.445" gradientUnits="userSpaceOnUse">
<stop stop-color="#4F52FF"/>
<stop offset="1" stop-color="#4042E2"/>
</linearGradient>
<linearGradient id="paint55_linear_68_2798" x1="203.793" y1="195.425" x2="206.177" y2="195.425" gradientUnits="userSpaceOnUse">
<stop stop-color="#4F52FF"/>
<stop offset="1" stop-color="#4042E2"/>
</linearGradient>
<linearGradient id="paint56_linear_68_2798" x1="203.739" y1="195.406" x2="206.124" y2="195.406" gradientUnits="userSpaceOnUse">
<stop stop-color="#4F52FF"/>
<stop offset="1" stop-color="#4042E2"/>
</linearGradient>
<linearGradient id="paint57_linear_68_2798" x1="203.686" y1="195.386" x2="206.07" y2="195.386" gradientUnits="userSpaceOnUse">
<stop stop-color="#4F52FF"/>
<stop offset="1" stop-color="#4042E2"/>
</linearGradient>
<linearGradient id="paint58_linear_68_2798" x1="203.633" y1="195.367" x2="206.017" y2="195.367" gradientUnits="userSpaceOnUse">
<stop stop-color="#4F52FF"/>
<stop offset="1" stop-color="#4042E2"/>
</linearGradient>
<linearGradient id="paint59_linear_68_2798" x1="203.579" y1="195.347" x2="205.963" y2="195.347" gradientUnits="userSpaceOnUse">
<stop stop-color="#4F52FF"/>
<stop offset="1" stop-color="#4042E2"/>
</linearGradient>
<linearGradient id="paint60_linear_68_2798" x1="203.526" y1="195.328" x2="205.91" y2="195.328" gradientUnits="userSpaceOnUse">
<stop stop-color="#4F52FF"/>
<stop offset="1" stop-color="#4042E2"/>
</linearGradient>
<linearGradient id="paint61_linear_68_2798" x1="203.472" y1="195.308" x2="205.856" y2="195.308" gradientUnits="userSpaceOnUse">
<stop stop-color="#4F52FF"/>
<stop offset="1" stop-color="#4042E2"/>
</linearGradient>
<linearGradient id="paint62_linear_68_2798" x1="203.419" y1="195.289" x2="205.803" y2="195.289" gradientUnits="userSpaceOnUse">
<stop stop-color="#4F52FF"/>
<stop offset="1" stop-color="#4042E2"/>
</linearGradient>
<linearGradient id="paint63_linear_68_2798" x1="203.366" y1="195.269" x2="205.75" y2="195.269" gradientUnits="userSpaceOnUse">
<stop stop-color="#4F52FF"/>
<stop offset="1" stop-color="#4042E2"/>
</linearGradient>
<linearGradient id="paint64_linear_68_2798" x1="203.312" y1="195.25" x2="205.696" y2="195.25" gradientUnits="userSpaceOnUse">
<stop stop-color="#4F52FF"/>
<stop offset="1" stop-color="#4042E2"/>
</linearGradient>
<linearGradient id="paint65_linear_68_2798" x1="203.259" y1="195.23" x2="205.643" y2="195.23" gradientUnits="userSpaceOnUse">
<stop stop-color="#4F52FF"/>
<stop offset="1" stop-color="#4042E2"/>
</linearGradient>
<linearGradient id="paint66_linear_68_2798" x1="203.205" y1="195.21" x2="205.589" y2="195.21" gradientUnits="userSpaceOnUse">
<stop stop-color="#4F52FF"/>
<stop offset="1" stop-color="#4042E2"/>
</linearGradient>
<linearGradient id="paint67_linear_68_2798" x1="203.152" y1="195.191" x2="205.536" y2="195.191" gradientUnits="userSpaceOnUse">
<stop stop-color="#4F52FF"/>
<stop offset="1" stop-color="#4042E2"/>
</linearGradient>
<linearGradient id="paint68_linear_68_2798" x1="203.099" y1="195.171" x2="205.483" y2="195.171" gradientUnits="userSpaceOnUse">
<stop stop-color="#4F52FF"/>
<stop offset="1" stop-color="#4042E2"/>
</linearGradient>
<linearGradient id="paint69_linear_68_2798" x1="203.045" y1="195.152" x2="205.429" y2="195.152" gradientUnits="userSpaceOnUse">
<stop stop-color="#4F52FF"/>
<stop offset="1" stop-color="#4042E2"/>
</linearGradient>
<linearGradient id="paint70_linear_68_2798" x1="202.992" y1="195.132" x2="205.376" y2="195.132" gradientUnits="userSpaceOnUse">
<stop stop-color="#4F52FF"/>
<stop offset="1" stop-color="#4042E2"/>
</linearGradient>
<linearGradient id="paint71_linear_68_2798" x1="202.938" y1="195.113" x2="205.322" y2="195.113" gradientUnits="userSpaceOnUse">
<stop stop-color="#4F52FF"/>
<stop offset="1" stop-color="#4042E2"/>
</linearGradient>
<linearGradient id="paint72_linear_68_2798" x1="202.885" y1="195.093" x2="205.269" y2="195.093" gradientUnits="userSpaceOnUse">
<stop stop-color="#4F52FF"/>
<stop offset="1" stop-color="#4042E2"/>
</linearGradient>
<linearGradient id="paint73_linear_68_2798" x1="202.831" y1="195.074" x2="205.215" y2="195.074" gradientUnits="userSpaceOnUse">
<stop stop-color="#4F52FF"/>
<stop offset="1" stop-color="#4042E2"/>
</linearGradient>
<linearGradient id="paint74_linear_68_2798" x1="202.778" y1="195.054" x2="205.162" y2="195.054" gradientUnits="userSpaceOnUse">
<stop stop-color="#4F52FF"/>
<stop offset="1" stop-color="#4042E2"/>
</linearGradient>
<linearGradient id="paint75_linear_68_2798" x1="202.725" y1="195.035" x2="205.109" y2="195.035" gradientUnits="userSpaceOnUse">
<stop stop-color="#4F52FF"/>
<stop offset="1" stop-color="#4042E2"/>
</linearGradient>
<linearGradient id="paint76_linear_68_2798" x1="202.671" y1="195.015" x2="205.055" y2="195.015" gradientUnits="userSpaceOnUse">
<stop stop-color="#4F52FF"/>
<stop offset="1" stop-color="#4042E2"/>
</linearGradient>
<linearGradient id="paint77_linear_68_2798" x1="202.618" y1="194.995" x2="205.002" y2="194.995" gradientUnits="userSpaceOnUse">
<stop stop-color="#4F52FF"/>
<stop offset="1" stop-color="#4042E2"/>
</linearGradient>
<linearGradient id="paint78_linear_68_2798" x1="202.564" y1="194.976" x2="204.948" y2="194.976" gradientUnits="userSpaceOnUse">
<stop stop-color="#4F52FF"/>
<stop offset="1" stop-color="#4042E2"/>
</linearGradient>
<linearGradient id="paint79_linear_68_2798" x1="202.511" y1="194.956" x2="204.895" y2="194.956" gradientUnits="userSpaceOnUse">
<stop stop-color="#4F52FF"/>
<stop offset="1" stop-color="#4042E2"/>
</linearGradient>
<linearGradient id="paint80_linear_68_2798" x1="202.458" y1="194.937" x2="204.842" y2="194.937" gradientUnits="userSpaceOnUse">
<stop stop-color="#4F52FF"/>
<stop offset="1" stop-color="#4042E2"/>
</linearGradient>
<linearGradient id="paint81_linear_68_2798" x1="202.404" y1="194.917" x2="204.788" y2="194.917" gradientUnits="userSpaceOnUse">
<stop stop-color="#4F52FF"/>
<stop offset="1" stop-color="#4042E2"/>
</linearGradient>
<linearGradient id="paint82_linear_68_2798" x1="202.351" y1="194.898" x2="204.735" y2="194.898" gradientUnits="userSpaceOnUse">
<stop stop-color="#4F52FF"/>
<stop offset="1" stop-color="#4042E2"/>
</linearGradient>
<linearGradient id="paint83_linear_68_2798" x1="202.297" y1="194.878" x2="204.681" y2="194.878" gradientUnits="userSpaceOnUse">
<stop stop-color="#4F52FF"/>
<stop offset="1" stop-color="#4042E2"/>
</linearGradient>
<linearGradient id="paint84_linear_68_2798" x1="202.244" y1="194.859" x2="204.628" y2="194.859" gradientUnits="userSpaceOnUse">
<stop stop-color="#4F52FF"/>
<stop offset="1" stop-color="#4042E2"/>
</linearGradient>
<linearGradient id="paint85_linear_68_2798" x1="202.19" y1="194.839" x2="204.575" y2="194.839" gradientUnits="userSpaceOnUse">
<stop stop-color="#4F52FF"/>
<stop offset="1" stop-color="#4042E2"/>
</linearGradient>
<linearGradient id="paint86_linear_68_2798" x1="202.137" y1="194.82" x2="204.521" y2="194.82" gradientUnits="userSpaceOnUse">
<stop stop-color="#4F52FF"/>
<stop offset="1" stop-color="#4042E2"/>
</linearGradient>
<linearGradient id="paint87_linear_68_2798" x1="202.084" y1="194.8" x2="204.468" y2="194.8" gradientUnits="userSpaceOnUse">
<stop stop-color="#4F52FF"/>
<stop offset="1" stop-color="#4042E2"/>
</linearGradient>
<linearGradient id="paint88_linear_68_2798" x1="202.03" y1="194.781" x2="204.414" y2="194.781" gradientUnits="userSpaceOnUse">
<stop stop-color="#4F52FF"/>
<stop offset="1" stop-color="#4042E2"/>
</linearGradient>
<linearGradient id="paint89_linear_68_2798" x1="201.977" y1="194.761" x2="204.361" y2="194.761" gradientUnits="userSpaceOnUse">
<stop stop-color="#4F52FF"/>
<stop offset="1" stop-color="#4042E2"/>
</linearGradient>
<linearGradient id="paint90_linear_68_2798" x1="201.923" y1="194.742" x2="204.307" y2="194.742" gradientUnits="userSpaceOnUse">
<stop stop-color="#4F52FF"/>
<stop offset="1" stop-color="#4042E2"/>
</linearGradient>
<linearGradient id="paint91_linear_68_2798" x1="201.87" y1="194.722" x2="204.254" y2="194.722" gradientUnits="userSpaceOnUse">
<stop stop-color="#4F52FF"/>
<stop offset="1" stop-color="#4042E2"/>
</linearGradient>
<linearGradient id="paint92_linear_68_2798" x1="201.817" y1="194.702" x2="204.201" y2="194.702" gradientUnits="userSpaceOnUse">
<stop stop-color="#4F52FF"/>
<stop offset="1" stop-color="#4042E2"/>
</linearGradient>
<linearGradient id="paint93_linear_68_2798" x1="201.763" y1="194.683" x2="204.147" y2="194.683" gradientUnits="userSpaceOnUse">
<stop stop-color="#4F52FF"/>
<stop offset="1" stop-color="#4042E2"/>
</linearGradient>
<linearGradient id="paint94_linear_68_2798" x1="201.71" y1="194.663" x2="204.094" y2="194.663" gradientUnits="userSpaceOnUse">
<stop stop-color="#4F52FF"/>
<stop offset="1" stop-color="#4042E2"/>
</linearGradient>
<linearGradient id="paint95_linear_68_2798" x1="201.656" y1="194.644" x2="204.04" y2="194.644" gradientUnits="userSpaceOnUse">
<stop stop-color="#4F52FF"/>
<stop offset="1" stop-color="#4042E2"/>
</linearGradient>
<linearGradient id="paint96_linear_68_2798" x1="201.603" y1="194.624" x2="203.987" y2="194.624" gradientUnits="userSpaceOnUse">
<stop stop-color="#4F52FF"/>
<stop offset="1" stop-color="#4042E2"/>
</linearGradient>
<linearGradient id="paint97_linear_68_2798" x1="201.549" y1="194.605" x2="203.934" y2="194.605" gradientUnits="userSpaceOnUse">
<stop stop-color="#4F52FF"/>
<stop offset="1" stop-color="#4042E2"/>
</linearGradient>
<linearGradient id="paint98_linear_68_2798" x1="201.496" y1="194.585" x2="203.88" y2="194.585" gradientUnits="userSpaceOnUse">
<stop stop-color="#4F52FF"/>
<stop offset="1" stop-color="#4042E2"/>
</linearGradient>
<linearGradient id="paint99_linear_68_2798" x1="201.443" y1="194.566" x2="203.827" y2="194.566" gradientUnits="userSpaceOnUse">
<stop stop-color="#4F52FF"/>
<stop offset="1" stop-color="#4042E2"/>
</linearGradient>
<linearGradient id="paint100_linear_68_2798" x1="201.389" y1="194.546" x2="203.773" y2="194.546" gradientUnits="userSpaceOnUse">
<stop stop-color="#4F52FF"/>
<stop offset="1" stop-color="#4042E2"/>
</linearGradient>
<linearGradient id="paint101_linear_68_2798" x1="201.336" y1="194.527" x2="203.72" y2="194.527" gradientUnits="userSpaceOnUse">
<stop stop-color="#4F52FF"/>
<stop offset="1" stop-color="#4042E2"/>
</linearGradient>
<linearGradient id="paint102_linear_68_2798" x1="201.282" y1="194.507" x2="203.666" y2="194.507" gradientUnits="userSpaceOnUse">
<stop stop-color="#4F52FF"/>
<stop offset="1" stop-color="#4042E2"/>
</linearGradient>
<linearGradient id="paint103_linear_68_2798" x1="201.229" y1="194.488" x2="203.613" y2="194.488" gradientUnits="userSpaceOnUse">
<stop stop-color="#4F52FF"/>
<stop offset="1" stop-color="#4042E2"/>
</linearGradient>
<linearGradient id="paint104_linear_68_2798" x1="201.176" y1="194.468" x2="203.56" y2="194.468" gradientUnits="userSpaceOnUse">
<stop stop-color="#4F52FF"/>
<stop offset="1" stop-color="#4042E2"/>
</linearGradient>
<linearGradient id="paint105_linear_68_2798" x1="201.122" y1="194.448" x2="203.506" y2="194.448" gradientUnits="userSpaceOnUse">
<stop stop-color="#4F52FF"/>
<stop offset="1" stop-color="#4042E2"/>
</linearGradient>
<linearGradient id="paint106_linear_68_2798" x1="201.069" y1="194.429" x2="203.453" y2="194.429" gradientUnits="userSpaceOnUse">
<stop stop-color="#4F52FF"/>
<stop offset="1" stop-color="#4042E2"/>
</linearGradient>
<linearGradient id="paint107_linear_68_2798" x1="201.015" y1="194.409" x2="203.399" y2="194.409" gradientUnits="userSpaceOnUse">
<stop stop-color="#4F52FF"/>
<stop offset="1" stop-color="#4042E2"/>
</linearGradient>
<linearGradient id="paint108_linear_68_2798" x1="200.962" y1="194.39" x2="203.346" y2="194.39" gradientUnits="userSpaceOnUse">
<stop stop-color="#4F52FF"/>
<stop offset="1" stop-color="#4042E2"/>
</linearGradient>
<linearGradient id="paint109_linear_68_2798" x1="200.908" y1="194.37" x2="203.293" y2="194.37" gradientUnits="userSpaceOnUse">
<stop stop-color="#4F52FF"/>
<stop offset="1" stop-color="#4042E2"/>
</linearGradient>
<linearGradient id="paint110_linear_68_2798" x1="200.855" y1="194.351" x2="203.239" y2="194.351" gradientUnits="userSpaceOnUse">
<stop stop-color="#4F52FF"/>
<stop offset="1" stop-color="#4042E2"/>
</linearGradient>
<linearGradient id="paint111_linear_68_2798" x1="200.802" y1="194.331" x2="203.186" y2="194.331" gradientUnits="userSpaceOnUse">
<stop stop-color="#4F52FF"/>
<stop offset="1" stop-color="#4042E2"/>
</linearGradient>
<linearGradient id="paint112_linear_68_2798" x1="200.748" y1="194.312" x2="203.132" y2="194.312" gradientUnits="userSpaceOnUse">
<stop stop-color="#4F52FF"/>
<stop offset="1" stop-color="#4042E2"/>
</linearGradient>
<linearGradient id="paint113_linear_68_2798" x1="200.695" y1="194.292" x2="203.079" y2="194.292" gradientUnits="userSpaceOnUse">
<stop stop-color="#4F52FF"/>
<stop offset="1" stop-color="#4042E2"/>
</linearGradient>
<linearGradient id="paint114_linear_68_2798" x1="200.641" y1="194.273" x2="203.026" y2="194.273" gradientUnits="userSpaceOnUse">
<stop stop-color="#4F52FF"/>
<stop offset="1" stop-color="#4042E2"/>
</linearGradient>
<linearGradient id="paint115_linear_68_2798" x1="200.588" y1="194.253" x2="202.972" y2="194.253" gradientUnits="userSpaceOnUse">
<stop stop-color="#4F52FF"/>
<stop offset="1" stop-color="#4042E2"/>
</linearGradient>
<linearGradient id="paint116_linear_68_2798" x1="200.535" y1="194.233" x2="202.919" y2="194.233" gradientUnits="userSpaceOnUse">
<stop stop-color="#4F52FF"/>
<stop offset="1" stop-color="#4042E2"/>
</linearGradient>
<linearGradient id="paint117_linear_68_2798" x1="200.481" y1="194.214" x2="202.865" y2="194.214" gradientUnits="userSpaceOnUse">
<stop stop-color="#4F52FF"/>
<stop offset="1" stop-color="#4042E2"/>
</linearGradient>
<linearGradient id="paint118_linear_68_2798" x1="200.428" y1="194.194" x2="202.812" y2="194.194" gradientUnits="userSpaceOnUse">
<stop stop-color="#4F52FF"/>
<stop offset="1" stop-color="#4042E2"/>
</linearGradient>
<linearGradient id="paint119_linear_68_2798" x1="200.375" y1="194.175" x2="202.759" y2="194.175" gradientUnits="userSpaceOnUse">
<stop stop-color="#4F52FF"/>
<stop offset="1" stop-color="#4042E2"/>
</linearGradient>
<linearGradient id="paint120_linear_68_2798" x1="200.321" y1="194.155" x2="202.705" y2="194.155" gradientUnits="userSpaceOnUse">
<stop stop-color="#4F52FF"/>
<stop offset="1" stop-color="#4042E2"/>
</linearGradient>
<linearGradient id="paint121_linear_68_2798" x1="200.268" y1="194.136" x2="202.652" y2="194.136" gradientUnits="userSpaceOnUse">
<stop stop-color="#4F52FF"/>
<stop offset="1" stop-color="#4042E2"/>
</linearGradient>
<linearGradient id="paint122_linear_68_2798" x1="200.214" y1="194.116" x2="202.598" y2="194.116" gradientUnits="userSpaceOnUse">
<stop stop-color="#4F52FF"/>
<stop offset="1" stop-color="#4042E2"/>
</linearGradient>
<linearGradient id="paint123_linear_68_2798" x1="200.161" y1="194.097" x2="202.545" y2="194.097" gradientUnits="userSpaceOnUse">
<stop stop-color="#4F52FF"/>
<stop offset="1" stop-color="#4042E2"/>
</linearGradient>
<linearGradient id="paint124_linear_68_2798" x1="200.107" y1="194.077" x2="202.491" y2="194.077" gradientUnits="userSpaceOnUse">
<stop stop-color="#4F52FF"/>
<stop offset="1" stop-color="#4042E2"/>
</linearGradient>
<linearGradient id="paint125_linear_68_2798" x1="200.054" y1="194.058" x2="202.438" y2="194.058" gradientUnits="userSpaceOnUse">
<stop stop-color="#4F52FF"/>
<stop offset="1" stop-color="#4042E2"/>
</linearGradient>
<linearGradient id="paint126_linear_68_2798" x1="200.001" y1="194.038" x2="202.385" y2="194.038" gradientUnits="userSpaceOnUse">
<stop stop-color="#4F52FF"/>
<stop offset="1" stop-color="#4042E2"/>
</linearGradient>
<linearGradient id="paint127_linear_68_2798" x1="199.947" y1="194.018" x2="202.331" y2="194.018" gradientUnits="userSpaceOnUse">
<stop stop-color="#4F52FF"/>
<stop offset="1" stop-color="#4042E2"/>
</linearGradient>
<linearGradient id="paint128_linear_68_2798" x1="199.894" y1="193.999" x2="202.278" y2="193.999" gradientUnits="userSpaceOnUse">
<stop stop-color="#4F52FF"/>
<stop offset="1" stop-color="#4042E2"/>
</linearGradient>
<linearGradient id="paint129_linear_68_2798" x1="199.84" y1="193.979" x2="202.224" y2="193.979" gradientUnits="userSpaceOnUse">
<stop stop-color="#4F52FF"/>
<stop offset="1" stop-color="#4042E2"/>
</linearGradient>
<linearGradient id="paint130_linear_68_2798" x1="199.787" y1="193.96" x2="202.171" y2="193.96" gradientUnits="userSpaceOnUse">
<stop stop-color="#4F52FF"/>
<stop offset="1" stop-color="#4042E2"/>
</linearGradient>
<linearGradient id="paint131_linear_68_2798" x1="199.734" y1="193.94" x2="202.118" y2="193.94" gradientUnits="userSpaceOnUse">
<stop stop-color="#4F52FF"/>
<stop offset="1" stop-color="#4042E2"/>
</linearGradient>
<linearGradient id="paint132_linear_68_2798" x1="199.68" y1="193.921" x2="202.064" y2="193.921" gradientUnits="userSpaceOnUse">
<stop stop-color="#4F52FF"/>
<stop offset="1" stop-color="#4042E2"/>
</linearGradient>
<linearGradient id="paint133_linear_68_2798" x1="199.627" y1="193.901" x2="202.011" y2="193.901" gradientUnits="userSpaceOnUse">
<stop stop-color="#4F52FF"/>
<stop offset="1" stop-color="#4042E2"/>
</linearGradient>
<linearGradient id="paint134_linear_68_2798" x1="199.573" y1="193.882" x2="201.957" y2="193.882" gradientUnits="userSpaceOnUse">
<stop stop-color="#4F52FF"/>
<stop offset="1" stop-color="#4042E2"/>
</linearGradient>
<linearGradient id="paint135_linear_68_2798" x1="199.52" y1="193.862" x2="201.904" y2="193.862" gradientUnits="userSpaceOnUse">
<stop stop-color="#4F52FF"/>
<stop offset="1" stop-color="#4042E2"/>
</linearGradient>
<linearGradient id="paint136_linear_68_2798" x1="199.467" y1="193.843" x2="201.85" y2="193.843" gradientUnits="userSpaceOnUse">
<stop stop-color="#4F52FF"/>
<stop offset="1" stop-color="#4042E2"/>
</linearGradient>
<linearGradient id="paint137_linear_68_2798" x1="199.413" y1="193.823" x2="201.797" y2="193.823" gradientUnits="userSpaceOnUse">
<stop stop-color="#4F52FF"/>
<stop offset="1" stop-color="#4042E2"/>
</linearGradient>
<linearGradient id="paint138_linear_68_2798" x1="199.36" y1="193.804" x2="201.744" y2="193.804" gradientUnits="userSpaceOnUse">
<stop stop-color="#4F52FF"/>
<stop offset="1" stop-color="#4042E2"/>
</linearGradient>
<linearGradient id="paint139_linear_68_2798" x1="199.306" y1="193.784" x2="201.69" y2="193.784" gradientUnits="userSpaceOnUse">
<stop stop-color="#4F52FF"/>
<stop offset="1" stop-color="#4042E2"/>
</linearGradient>
<linearGradient id="paint140_linear_68_2798" x1="199.253" y1="193.765" x2="201.637" y2="193.765" gradientUnits="userSpaceOnUse">
<stop stop-color="#4F52FF"/>
<stop offset="1" stop-color="#4042E2"/>
</linearGradient>
<linearGradient id="paint141_linear_68_2798" x1="199.199" y1="193.745" x2="201.583" y2="193.745" gradientUnits="userSpaceOnUse">
<stop stop-color="#4F52FF"/>
<stop offset="1" stop-color="#4042E2"/>
</linearGradient>
<linearGradient id="paint142_linear_68_2798" x1="199.146" y1="193.725" x2="201.53" y2="193.725" gradientUnits="userSpaceOnUse">
<stop stop-color="#4F52FF"/>
<stop offset="1" stop-color="#4042E2"/>
</linearGradient>
<linearGradient id="paint143_linear_68_2798" x1="199.093" y1="193.706" x2="201.477" y2="193.706" gradientUnits="userSpaceOnUse">
<stop stop-color="#4F52FF"/>
<stop offset="1" stop-color="#4042E2"/>
</linearGradient>
<linearGradient id="paint144_linear_68_2798" x1="199.039" y1="193.686" x2="201.423" y2="193.686" gradientUnits="userSpaceOnUse">
<stop stop-color="#4F52FF"/>
<stop offset="1" stop-color="#4042E2"/>
</linearGradient>
<linearGradient id="paint145_linear_68_2798" x1="198.986" y1="193.667" x2="201.37" y2="193.667" gradientUnits="userSpaceOnUse">
<stop stop-color="#4F52FF"/>
<stop offset="1" stop-color="#4042E2"/>
</linearGradient>
<linearGradient id="paint146_linear_68_2798" x1="198.932" y1="193.647" x2="201.316" y2="193.647" gradientUnits="userSpaceOnUse">
<stop stop-color="#4F52FF"/>
<stop offset="1" stop-color="#4042E2"/>
</linearGradient>
<linearGradient id="paint147_linear_68_2798" x1="198.879" y1="193.628" x2="201.263" y2="193.628" gradientUnits="userSpaceOnUse">
<stop stop-color="#4F52FF"/>
<stop offset="1" stop-color="#4042E2"/>
</linearGradient>
<linearGradient id="paint148_linear_68_2798" x1="198.826" y1="193.608" x2="201.21" y2="193.608" gradientUnits="userSpaceOnUse">
<stop stop-color="#4F52FF"/>
<stop offset="1" stop-color="#4042E2"/>
</linearGradient>
<linearGradient id="paint149_linear_68_2798" x1="198.772" y1="193.589" x2="201.156" y2="193.589" gradientUnits="userSpaceOnUse">
<stop stop-color="#4F52FF"/>
<stop offset="1" stop-color="#4042E2"/>
</linearGradient>
<linearGradient id="paint150_linear_68_2798" x1="198.719" y1="193.569" x2="201.103" y2="193.569" gradientUnits="userSpaceOnUse">
<stop stop-color="#4F52FF"/>
<stop offset="1" stop-color="#4042E2"/>
</linearGradient>
<linearGradient id="paint151_linear_68_2798" x1="198.665" y1="193.55" x2="201.049" y2="193.55" gradientUnits="userSpaceOnUse">
<stop stop-color="#4F52FF"/>
<stop offset="1" stop-color="#4042E2"/>
</linearGradient>
<linearGradient id="paint152_linear_68_2798" x1="198.612" y1="193.53" x2="200.996" y2="193.53" gradientUnits="userSpaceOnUse">
<stop stop-color="#4F52FF"/>
<stop offset="1" stop-color="#4042E2"/>
</linearGradient>
<linearGradient id="paint153_linear_68_2798" x1="198.558" y1="193.51" x2="200.942" y2="193.51" gradientUnits="userSpaceOnUse">
<stop stop-color="#4F52FF"/>
<stop offset="1" stop-color="#4042E2"/>
</linearGradient>
<linearGradient id="paint154_linear_68_2798" x1="198.505" y1="193.491" x2="200.889" y2="193.491" gradientUnits="userSpaceOnUse">
<stop stop-color="#4F52FF"/>
<stop offset="1" stop-color="#4042E2"/>
</linearGradient>
<linearGradient id="paint155_linear_68_2798" x1="198.452" y1="193.471" x2="200.836" y2="193.471" gradientUnits="userSpaceOnUse">
<stop stop-color="#4F52FF"/>
<stop offset="1" stop-color="#4042E2"/>
</linearGradient>
<linearGradient id="paint156_linear_68_2798" x1="198.398" y1="193.452" x2="200.782" y2="193.452" gradientUnits="userSpaceOnUse">
<stop stop-color="#4F52FF"/>
<stop offset="1" stop-color="#4042E2"/>
</linearGradient>
<linearGradient id="paint157_linear_68_2798" x1="198.345" y1="193.432" x2="200.729" y2="193.432" gradientUnits="userSpaceOnUse">
<stop stop-color="#4F52FF"/>
<stop offset="1" stop-color="#4042E2"/>
</linearGradient>
<linearGradient id="paint158_linear_68_2798" x1="198.292" y1="193.413" x2="200.676" y2="193.413" gradientUnits="userSpaceOnUse">
<stop stop-color="#4F52FF"/>
<stop offset="1" stop-color="#4042E2"/>
</linearGradient>
<linearGradient id="paint159_linear_68_2798" x1="198.238" y1="193.393" x2="200.622" y2="193.393" gradientUnits="userSpaceOnUse">
<stop stop-color="#4F52FF"/>
<stop offset="1" stop-color="#4042E2"/>
</linearGradient>
<linearGradient id="paint160_linear_68_2798" x1="198.185" y1="193.374" x2="200.569" y2="193.374" gradientUnits="userSpaceOnUse">
<stop stop-color="#4F52FF"/>
<stop offset="1" stop-color="#4042E2"/>
</linearGradient>
<linearGradient id="paint161_linear_68_2798" x1="198.131" y1="193.354" x2="200.515" y2="193.354" gradientUnits="userSpaceOnUse">
<stop stop-color="#4F52FF"/>
<stop offset="1" stop-color="#4042E2"/>
</linearGradient>
<linearGradient id="paint162_linear_68_2798" x1="198.078" y1="193.334" x2="200.462" y2="193.334" gradientUnits="userSpaceOnUse">
<stop stop-color="#4F52FF"/>
<stop offset="1" stop-color="#4042E2"/>
</linearGradient>
<linearGradient id="paint163_linear_68_2798" x1="198.078" y1="193.46" x2="200.408" y2="193.46" gradientUnits="userSpaceOnUse">
<stop stop-color="#4F52FF"/>
<stop offset="1" stop-color="#4042E2"/>
</linearGradient>
<linearGradient id="paint164_linear_68_2798" x1="199.51" y1="191.93" x2="200.277" y2="191.93" gradientUnits="userSpaceOnUse">
<stop stop-color="#4F52FF"/>
<stop offset="1" stop-color="#4042E2"/>
</linearGradient>
<linearGradient id="paint165_linear_68_2798" x1="171.888" y1="104.252" x2="359.094" y2="210.144" gradientUnits="userSpaceOnUse">
<stop stop-color="#4F52FF"/>
<stop offset="1" stop-color="#4042E2"/>
</linearGradient>
<linearGradient id="paint166_linear_68_2798" x1="274.743" y1="119.711" x2="259.661" y2="146.257" gradientUnits="userSpaceOnUse">
<stop stop-color="#4F52FF"/>
<stop offset="1" stop-color="#4042E2"/>
</linearGradient>
<linearGradient id="paint167_linear_68_2798" x1="242.524" y1="175.807" x2="290.859" y2="134.437" gradientUnits="userSpaceOnUse">
<stop stop-color="#4F52FF"/>
<stop offset="1" stop-color="#4042E2"/>
</linearGradient>
<clipPath id="clip0_68_2798">
<rect width="461" height="462" fill="white"/>
</clipPath>
</defs>




<style>
.buble {
     animation: buble 5s infinite;
    -webkit-animation: buble 5s infinite;
}

@-webkit-keyframes buble {

    0% {
       transform: translateY(0);
    }
    50% {
      transform: translateY(10px);
    }
    100% {
       transform: translateY(0);
    }
}

@keyframes buble {
    0% {
       transform: translateY(0);
    }
    50% {
      transform: translateY(10px);
    }
    100% {
       transform: translateY(0);
    }
}

.head {
     animation: head 3s infinite;
    -webkit-animation: head 3s infinite;
    transform-origin: 200px 60px;
}

@-webkit-keyframes head {

    0% {
       transform: rotate(0);
    }
    50% {
      transform: rotate(-1deg);
    }
    100% {
       transform: rotate(0);
    }
}

@keyframes head {
     0% {
       transform: rotate(0);
    }
    50% {
      transform: rotate(-1deg);
    }
    100% {
       transform: rotate(0);
    }
}


.letters1 {
    animation: lett 5s infinite;
    -webkit-animation: lett 5s infinite;
}

@-webkit-keyframes lett {

    0% {
       transform: rotate(0);
    }
    50% {
      transform: rotate(-1deg);
    }
    100% {
       transform: rotate(0);
    }
}

@keyframes lett {
     0% {
       transform: rotate(0);
    }
    50% {
      transform: rotate(-1deg);
    }
    100% {
       transform: rotate(0);
    }
}

.l1 {
    animation-delay: 0s;
}
.l2 {
    animation-delay: 1s;
}
.l3 {
    animation-delay: 0.4s;
}


</style>
</svg>
