<svg width="532" height="337" viewBox="0 0 532 337" fill="none" xmlns="http://www.w3.org/2000/svg">
<g opacity="0.45">
<path d="M22.5416 228.904L24.6718 228.832C24.9606 228.832 25.2133 229.048 25.2494 229.373C25.2494 229.661 25.0328 229.913 24.7078 229.949L22.5777 230.021C22.2889 230.021 22.0361 229.805 22 229.481C22 229.156 22.2527 228.904 22.5416 228.904Z" fill="#1D87B7"/>
<path d="M0.546048 230.535L2.65855 230.252C2.94596 230.223 3.2189 230.413 3.28704 230.732C3.31566 231.019 3.12516 231.292 2.8054 231.36L0.692925 231.643C0.405516 231.672 0.132548 231.482 0.0644142 231.162C0.0322069 230.84 0.258639 230.564 0.546048 230.535Z" fill="#1D87B7"/>
<path d="M29.6543 228.796L31.7845 228.832C32.0734 228.832 32.3261 229.084 32.3261 229.409C32.3261 229.697 32.0733 229.949 31.7484 229.949L29.6182 229.913C29.3294 229.913 29.0767 229.661 29.0767 229.337C29.1128 229.012 29.3655 228.796 29.6543 228.796Z" fill="#1D87B7"/>
<path d="M7.6129 229.721L9.73614 229.545C10.0236 229.517 10.3001 229.743 10.3323 230.065C10.3609 230.352 10.1345 230.628 9.81114 230.661L7.68792 230.836C7.40051 230.865 7.12397 230.639 7.09177 230.316C7.09548 229.99 7.32549 229.75 7.6129 229.721Z" fill="#1D87B7"/>
<path d="M36.7669 229.049L38.8971 229.193C39.186 229.229 39.4387 229.481 39.4026 229.769C39.3665 230.058 39.1138 230.31 38.8249 230.274L36.7308 230.13C36.442 230.094 36.1893 229.841 36.2254 229.553C36.1893 229.229 36.442 229.013 36.7669 229.049Z" fill="#1D87B7"/>
<path d="M14.7153 229.266L16.8493 229.198C17.1403 229.205 17.4168 229.431 17.4095 229.721C17.4022 230.012 17.1758 230.288 16.8848 230.281L14.7868 230.345C14.4958 230.338 14.2192 230.112 14.2265 229.822C14.1584 229.503 14.3884 229.262 14.7153 229.266Z" fill="#1D87B7"/>
<path d="M43.8072 229.625L45.9374 229.841C46.2623 229.877 46.479 230.13 46.4429 230.454C46.4068 230.778 46.154 230.994 45.8291 230.958L43.735 230.742C43.4461 230.706 43.1934 230.454 43.2295 230.13C43.2295 229.805 43.5184 229.589 43.8072 229.625Z" fill="#1D87B7"/>
<path d="M50.8838 230.418L52.9779 230.706C53.3028 230.742 53.5194 231.03 53.4472 231.319C53.4111 231.643 53.1223 231.859 52.8334 231.787L50.7394 231.499C50.4144 231.463 50.1978 231.175 50.27 230.886C50.27 230.598 50.5588 230.382 50.8838 230.418Z" fill="#1D87B7"/>
<path d="M57.8881 231.391L59.9821 231.715C60.3071 231.751 60.4876 232.04 60.4515 232.364C60.4154 232.688 60.1265 232.868 59.8016 232.832L57.7076 232.508C57.3826 232.472 57.2021 232.184 57.2382 231.859C57.3104 231.535 57.5992 231.355 57.8881 231.391Z" fill="#1D87B7"/>
<path d="M64.8925 232.544L66.9865 232.905C67.3115 232.977 67.492 233.265 67.4559 233.553C67.3837 233.878 67.0948 234.058 66.806 234.022L64.712 233.625C64.387 233.553 64.2065 233.265 64.2426 232.977C64.2787 232.688 64.5675 232.472 64.8925 232.544Z" fill="#1D87B7"/>
<path d="M71.8608 233.841L73.9549 234.274C74.2798 234.346 74.4604 234.634 74.3881 234.959C74.3159 235.283 74.0271 235.463 73.7021 235.391L71.6441 234.959C71.3192 234.887 71.1387 234.598 71.2109 234.274C71.247 233.986 71.5358 233.805 71.8608 233.841Z" fill="#1D87B7"/>
<path d="M78.7929 235.319L80.8509 235.788C81.1758 235.86 81.3563 236.184 81.2841 236.472C81.2119 236.797 80.887 236.977 80.5982 236.905L78.5401 236.436C78.2152 236.364 78.0347 236.04 78.1069 235.751C78.1791 235.463 78.4679 235.247 78.7929 235.319Z" fill="#1D87B7"/>
<path d="M85.6888 236.977L87.7468 237.481C88.0717 237.553 88.2522 237.878 88.18 238.202C88.1078 238.526 87.7829 238.707 87.4579 238.635L85.4 238.13C85.075 238.058 84.8945 237.734 84.9667 237.445C85.0389 237.085 85.3639 236.869 85.6888 236.977Z" fill="#1D87B7"/>
<path d="M92.5485 238.743L94.6065 239.283C94.9314 239.355 95.1119 239.68 95.0036 240.004C94.8953 240.328 94.6065 240.508 94.2815 240.4L92.2236 239.86C91.8986 239.788 91.7181 239.463 91.8264 239.139C91.8986 238.851 92.2236 238.634 92.5485 238.743Z" fill="#1D87B7"/>
<path d="M99.3725 240.653L101.394 241.265C101.719 241.373 101.9 241.698 101.791 241.986C101.683 242.31 101.358 242.491 101.069 242.382L99.0475 241.77C98.7226 241.698 98.5421 241.337 98.6504 241.049C98.7226 240.725 99.0475 240.545 99.3725 240.653Z" fill="#1D87B7"/>
<path d="M106.16 242.671L108.182 243.32C108.507 243.428 108.651 243.752 108.579 244.076C108.471 244.401 108.146 244.545 107.821 244.473L105.799 243.824C105.474 243.716 105.33 243.392 105.402 243.103C105.51 242.743 105.835 242.599 106.16 242.671Z" fill="#1D87B7"/>
<path d="M112.912 244.833L114.933 245.518C115.258 245.626 115.403 245.95 115.295 246.275C115.186 246.599 114.861 246.743 114.536 246.635L112.514 245.95C112.19 245.842 112.045 245.518 112.117 245.193C112.262 244.905 112.587 244.725 112.912 244.833Z" fill="#1D87B7"/>
<path d="M119.627 247.103L121.649 247.788C121.974 247.896 122.119 248.221 122.01 248.545C121.902 248.869 121.577 249.013 121.252 248.905L119.266 248.221C118.941 248.112 118.797 247.788 118.905 247.464C118.977 247.139 119.302 246.995 119.627 247.103Z" fill="#1D87B7"/>
<path d="M126.306 249.446L128.292 250.167C128.617 250.275 128.762 250.635 128.653 250.924C128.545 251.248 128.184 251.392 127.895 251.284L125.909 250.563C125.584 250.455 125.44 250.095 125.548 249.806C125.62 249.518 125.982 249.338 126.306 249.446Z" fill="#1D87B7"/>
<path d="M132.95 251.896L134.935 252.653C135.26 252.761 135.405 253.122 135.297 253.446C135.188 253.77 134.827 253.915 134.502 253.807L132.516 253.05C132.192 252.942 132.047 252.581 132.155 252.257C132.264 251.969 132.625 251.788 132.95 251.896Z" fill="#1D87B7"/>
<path d="M139.557 254.455L141.543 255.248C141.868 255.356 142.012 255.717 141.904 256.041C141.795 256.365 141.434 256.509 141.109 256.401L139.124 255.608C138.799 255.5 138.654 255.14 138.763 254.816C138.871 254.491 139.232 254.347 139.557 254.455Z" fill="#1D87B7"/>
<path d="M146.128 257.086L148.078 257.879C148.402 258.023 148.547 258.347 148.402 258.672C148.258 258.996 147.933 259.14 147.608 258.996L145.659 258.203C145.334 258.059 145.189 257.735 145.334 257.41C145.442 257.086 145.803 256.942 146.128 257.086Z" fill="#1D87B7"/>
<path d="M152.663 259.753L154.613 260.582C154.938 260.726 155.082 261.086 154.938 261.374C154.793 261.699 154.432 261.843 154.143 261.699L152.194 260.87C151.869 260.726 151.724 260.365 151.869 260.077C151.977 259.789 152.338 259.645 152.663 259.753Z" fill="#1D87B7"/>
<path d="M159.198 262.528L161.148 263.357C161.472 263.501 161.617 263.861 161.472 264.185C161.328 264.51 160.967 264.654 160.642 264.51L158.692 263.681C158.368 263.537 158.223 263.176 158.368 262.852C158.512 262.528 158.873 262.384 159.198 262.528Z" fill="#1D87B7"/>
<path d="M165.697 265.303L167.646 266.168C167.971 266.312 168.116 266.672 167.971 266.996C167.827 267.321 167.466 267.465 167.141 267.321L165.191 266.456C164.866 266.312 164.722 265.951 164.866 265.627C165.011 265.339 165.372 265.195 165.697 265.303Z" fill="#1D87B7"/>
<path d="M172.16 268.186L174.109 269.051C174.434 269.195 174.579 269.555 174.434 269.879C174.29 270.204 173.929 270.348 173.604 270.204L171.654 269.339C171.329 269.195 171.185 268.834 171.329 268.51C171.474 268.186 171.835 268.041 172.16 268.186Z" fill="#1D87B7"/>
<path d="M178.622 271.069L180.572 271.933C180.897 272.078 181.041 272.438 180.897 272.762C180.752 273.087 180.391 273.231 180.066 273.087L178.117 272.222C177.792 272.078 177.647 271.717 177.792 271.393C177.936 271.069 178.297 270.924 178.622 271.069Z" fill="#1D87B7"/>
<path d="M185.085 273.988L186.999 274.853C187.323 274.997 187.468 275.357 187.323 275.682C187.179 276.006 186.818 276.15 186.493 276.006L184.58 275.141C184.255 274.997 184.11 274.636 184.255 274.312C184.363 273.988 184.76 273.844 185.085 273.988Z" fill="#1D87B7"/>
<path d="M191.512 276.943L193.425 277.844C193.75 277.988 193.894 278.384 193.75 278.673C193.606 278.997 193.208 279.141 192.92 278.997L191.006 278.096C190.681 277.952 190.537 277.555 190.681 277.267C190.79 276.907 191.187 276.799 191.512 276.943Z" fill="#1D87B7"/>
<path d="M197.938 279.898L199.852 280.799C200.177 280.943 200.321 281.34 200.177 281.664C200.032 281.988 199.635 282.132 199.31 281.988L197.397 281.087C197.072 280.943 196.927 280.547 197.072 280.222C197.216 279.862 197.613 279.754 197.938 279.898Z" fill="#1D87B7"/>
<path d="M204.365 282.853L206.278 283.754C206.603 283.898 206.748 284.295 206.603 284.619C206.459 284.943 206.062 285.087 205.737 284.943L203.823 284.042C203.498 283.898 203.354 283.502 203.498 283.177C203.643 282.853 204.04 282.709 204.365 282.853Z" fill="#1D87B7"/>
<path d="M210.792 285.808L212.705 286.709C213.03 286.853 213.174 287.25 213.03 287.574C212.886 287.898 212.489 288.042 212.164 287.898L210.25 286.997C209.925 286.853 209.781 286.457 209.925 286.132C210.07 285.808 210.467 285.664 210.792 285.808Z" fill="#1D87B7"/>
<path d="M217.218 288.763L219.132 289.628C219.457 289.772 219.601 290.169 219.457 290.493C219.312 290.818 218.915 290.962 218.59 290.818L216.677 289.953C216.352 289.808 216.207 289.412 216.352 289.088C216.496 288.763 216.857 288.619 217.218 288.763Z" fill="#1D87B7"/>
<path d="M223.645 291.682L225.595 292.547C225.919 292.692 226.064 293.088 225.919 293.412C225.775 293.737 225.378 293.881 225.053 293.737L223.103 292.872C222.778 292.728 222.634 292.331 222.778 292.007C222.923 291.682 223.32 291.538 223.645 291.682Z" fill="#1D87B7"/>
<path d="M230.071 294.565L232.021 295.43C232.346 295.574 232.49 295.971 232.346 296.295C232.202 296.62 231.805 296.764 231.48 296.62L229.53 295.755C229.205 295.61 229.06 295.214 229.205 294.89C229.349 294.565 229.746 294.421 230.071 294.565Z" fill="#1D87B7"/>
<path d="M236.534 297.449L238.484 298.313C238.809 298.458 238.989 298.854 238.845 299.178C238.701 299.503 238.304 299.683 237.979 299.539L236.029 298.674C235.704 298.53 235.56 298.133 235.704 297.809C235.812 297.449 236.209 297.304 236.534 297.449Z" fill="#1D87B7"/>
<path d="M243.033 300.259L244.983 301.088C245.308 301.232 245.488 301.629 245.344 301.953C245.199 302.277 244.802 302.458 244.477 302.314L242.528 301.485C242.203 301.34 242.022 300.944 242.167 300.62C242.311 300.259 242.708 300.115 243.033 300.259Z" fill="#1D87B7"/>
<path d="M249.532 303.034L251.481 303.863C251.806 304.007 251.987 304.404 251.842 304.728C251.698 305.052 251.301 305.233 250.976 305.088L249.026 304.26C248.701 304.115 248.521 303.719 248.665 303.395C248.81 303.034 249.207 302.89 249.532 303.034Z" fill="#1D87B7"/>
<path d="M256.067 305.737L258.017 306.53C258.378 306.674 258.522 307.07 258.378 307.395C258.233 307.755 257.836 307.899 257.511 307.755L255.561 306.962C255.2 306.818 255.056 306.422 255.2 306.097C255.309 305.773 255.706 305.593 256.067 305.737Z" fill="#1D87B7"/>
<path d="M262.602 308.368L264.588 309.161C264.949 309.305 265.093 309.701 264.985 310.026C264.84 310.386 264.443 310.53 264.118 310.422L262.133 309.629C261.771 309.485 261.627 309.089 261.735 308.764C261.88 308.404 262.277 308.224 262.602 308.368Z" fill="#1D87B7"/>
<path d="M269.209 310.927L271.195 311.684C271.556 311.828 271.736 312.224 271.592 312.548C271.447 312.909 271.05 313.089 270.725 312.945L268.74 312.188C268.379 312.044 268.198 311.647 268.343 311.323C268.451 310.963 268.848 310.783 269.209 310.927Z" fill="#1D87B7"/>
<path d="M275.816 313.413L277.802 314.134C278.163 314.278 278.343 314.639 278.199 314.999C278.054 315.359 277.693 315.54 277.332 315.395L275.347 314.675C274.986 314.53 274.805 314.17 274.95 313.81C275.058 313.449 275.455 313.269 275.816 313.413Z" fill="#1D87B7"/>
<path d="M282.459 315.792L284.445 316.476C284.806 316.584 284.987 316.981 284.878 317.341C284.77 317.702 284.373 317.882 284.012 317.774L281.99 317.089C281.629 316.981 281.449 316.584 281.557 316.224C281.701 315.864 282.098 315.684 282.459 315.792Z" fill="#1D87B7"/>
<path d="M289.139 318.098L291.16 318.747C291.521 318.855 291.738 319.251 291.594 319.612C291.485 319.972 291.088 320.188 290.727 320.044L288.705 319.36C288.344 319.251 288.164 318.855 288.272 318.495C288.38 318.17 288.778 317.954 289.139 318.098Z" fill="#1D87B7"/>
<path d="M295.854 320.26L297.876 320.873C298.237 320.981 298.454 321.378 298.345 321.738C298.237 322.098 297.84 322.315 297.479 322.206L295.457 321.558C295.096 321.45 294.879 321.053 294.987 320.693C295.096 320.332 295.493 320.152 295.854 320.26Z" fill="#1D87B7"/>
<path d="M302.606 322.315L304.628 322.891C304.989 322.999 305.205 323.396 305.097 323.756C304.989 324.117 304.592 324.333 304.231 324.225L302.173 323.612C301.812 323.504 301.595 323.108 301.703 322.747C301.848 322.423 302.245 322.207 302.606 322.315Z" fill="#1D87B7"/>
<path d="M309.43 324.261L311.487 324.801C311.848 324.909 312.101 325.306 311.993 325.666C311.885 326.027 311.487 326.279 311.126 326.171L309.069 325.63C308.708 325.522 308.491 325.126 308.563 324.765C308.635 324.369 309.032 324.153 309.43 324.261Z" fill="#1D87B7"/>
<path d="M316.253 326.063L318.311 326.567C318.672 326.675 318.925 327.036 318.817 327.432C318.708 327.792 318.347 328.045 317.95 327.937L315.892 327.432C315.531 327.324 315.279 326.963 315.387 326.567C315.459 326.171 315.856 325.954 316.253 326.063Z" fill="#1D87B7"/>
<path d="M323.113 327.684L325.171 328.153C325.568 328.225 325.785 328.621 325.713 329.018C325.641 329.414 325.243 329.631 324.846 329.558L322.788 329.09C322.391 329.018 322.174 328.621 322.247 328.225C322.319 327.865 322.716 327.612 323.113 327.684Z" fill="#1D87B7"/>
<path d="M330.009 329.198L332.067 329.63C332.464 329.702 332.717 330.099 332.609 330.459C332.537 330.856 332.139 331.108 331.778 331L329.684 330.567C329.287 330.495 329.035 330.099 329.143 329.738C329.215 329.378 329.612 329.126 330.009 329.198Z" fill="#1D87B7"/>
<path d="M336.941 330.567L339.035 330.928C339.432 331 339.685 331.36 339.613 331.757C339.541 332.153 339.18 332.405 338.783 332.333L336.689 331.973C336.291 331.901 336.039 331.54 336.111 331.144C336.147 330.748 336.544 330.495 336.941 330.567Z" fill="#1D87B7"/>
<path d="M343.873 331.757L345.967 332.081C346.365 332.153 346.617 332.513 346.581 332.91C346.509 333.306 346.148 333.559 345.751 333.523L343.657 333.198C343.26 333.126 343.007 332.766 343.043 332.369C343.115 331.973 343.476 331.685 343.873 331.757Z" fill="#1D87B7"/>
<path d="M350.878 332.766L352.972 333.018C353.369 333.054 353.658 333.414 353.585 333.811C353.549 334.207 353.188 334.495 352.791 334.423L350.661 334.171C350.264 334.135 349.975 333.775 350.047 333.378C350.083 332.982 350.444 332.694 350.878 332.766Z" fill="#1D87B7"/>
<path d="M357.882 333.559L359.976 333.775C360.373 333.811 360.662 334.171 360.626 334.568C360.59 334.964 360.229 335.252 359.832 335.216L357.702 335C357.304 334.964 357.016 334.604 357.052 334.207C357.124 333.811 357.485 333.523 357.882 333.559Z" fill="#1D87B7"/>
<path d="M364.886 334.135L366.981 334.279C367.378 334.315 367.703 334.64 367.667 335.072C367.63 335.468 367.305 335.793 366.872 335.757L364.742 335.613C364.345 335.577 364.02 335.252 364.056 334.82C364.128 334.423 364.489 334.135 364.886 334.135Z" fill="#1D87B7"/>
<path d="M371.927 334.568L374.057 334.64C374.454 334.64 374.779 335 374.779 335.397C374.779 335.793 374.418 336.117 374.021 336.117L371.891 336.045C371.493 336.045 371.168 335.685 371.168 335.288C371.205 334.856 371.53 334.532 371.927 334.568Z" fill="#1D87B7"/>
<path d="M379.003 334.748L381.134 334.784C381.531 334.784 381.856 335.108 381.856 335.541C381.856 335.937 381.531 336.261 381.097 336.261L378.967 336.225C378.57 336.225 378.245 335.901 378.245 335.469C378.245 335.072 378.57 334.748 379.003 334.748Z" fill="#1D87B7"/>
<path d="M386.044 334.748L388.174 334.712C388.571 334.712 388.932 335.036 388.932 335.432C388.932 335.829 388.607 336.189 388.21 336.189L386.08 336.225C385.683 336.225 385.322 335.901 385.322 335.504C385.322 335.108 385.647 334.748 386.044 334.748Z" fill="#1D87B7"/>
<path d="M393.084 334.531L395.214 334.423C395.612 334.387 395.973 334.712 396.009 335.144C396.045 335.541 395.72 335.901 395.287 335.937L393.156 336.045C392.759 336.081 392.398 335.757 392.362 335.324C392.362 334.892 392.687 334.568 393.084 334.531Z" fill="#1D87B7"/>
<path d="M400.124 334.135L402.218 333.955C402.616 333.919 402.977 334.243 403.013 334.64C403.049 335.036 402.724 335.396 402.327 335.432L400.197 335.613C399.799 335.649 399.438 335.324 399.402 334.928C399.402 334.495 399.727 334.135 400.124 334.135Z" fill="#1D87B7"/>
<path d="M407.165 333.486L409.259 333.234C409.656 333.198 410.053 333.486 410.089 333.883C410.126 334.279 409.837 334.676 409.439 334.712L407.309 334.964C406.912 335 406.515 334.712 406.479 334.315C406.443 333.883 406.732 333.522 407.165 333.486Z" fill="#1D87B7"/>
<path d="M414.169 332.622L416.263 332.333C416.66 332.261 417.058 332.55 417.13 332.982C417.202 333.378 416.913 333.775 416.48 333.847L414.386 334.135C413.989 334.207 413.592 333.919 413.519 333.486C413.447 333.054 413.736 332.658 414.169 332.622Z" fill="#1D87B7"/>
<path d="M421.138 331.504L423.232 331.144C423.629 331.072 424.026 331.36 424.134 331.757C424.207 332.153 423.918 332.549 423.521 332.658L421.427 333.018C421.029 333.09 420.632 332.802 420.56 332.405C420.416 331.973 420.704 331.576 421.138 331.504Z" fill="#1D87B7"/>
<path d="M428.034 330.171L430.091 329.702C430.489 329.594 430.922 329.883 430.994 330.279C431.102 330.675 430.814 331.108 430.416 331.18L428.322 331.648C427.925 331.721 427.492 331.468 427.42 331.072C427.348 330.675 427.636 330.279 428.034 330.171Z" fill="#1D87B7"/>
<path d="M434.893 328.585L436.951 328.045C437.348 327.937 437.782 328.189 437.89 328.585C437.998 328.982 437.746 329.414 437.348 329.522L435.291 330.063C434.893 330.171 434.46 329.919 434.352 329.522C434.244 329.09 434.496 328.693 434.893 328.585Z" fill="#1D87B7"/>
<path d="M441.717 326.711L443.739 326.099C444.136 325.991 444.569 326.207 444.714 326.603C444.822 327 444.606 327.432 444.208 327.576L442.15 328.189C441.753 328.297 441.32 328.081 441.176 327.684C441.067 327.288 441.284 326.856 441.717 326.711Z" fill="#1D87B7"/>
<path d="M448.433 324.585L450.418 323.9C450.816 323.756 451.249 323.972 451.393 324.369C451.538 324.765 451.321 325.198 450.924 325.342L448.902 326.027C448.505 326.171 448.072 325.955 447.927 325.558C447.783 325.162 447.999 324.729 448.433 324.585Z" fill="#1D87B7"/>
<path d="M455.04 322.171L456.989 321.378C457.386 321.234 457.856 321.414 458 321.81C458.145 322.207 457.964 322.675 457.567 322.819L455.581 323.612C455.184 323.756 454.715 323.576 454.57 323.18C454.426 322.783 454.607 322.351 455.04 322.171Z" fill="#1D87B7"/>
<path d="M461.502 319.468L463.416 318.603C463.813 318.423 464.283 318.603 464.463 318.999C464.644 319.396 464.463 319.864 464.066 320.044L462.116 320.945C461.719 321.125 461.25 320.945 461.069 320.549C460.925 320.116 461.105 319.648 461.502 319.468Z" fill="#1D87B7"/>
<path d="M467.857 316.441L469.734 315.468C470.132 315.251 470.601 315.432 470.781 315.792C470.998 316.188 470.818 316.657 470.456 316.837L468.579 317.81C468.182 318.026 467.713 317.846 467.532 317.486C467.315 317.089 467.46 316.621 467.857 316.441Z" fill="#1D87B7"/>
<path d="M474.031 313.089L475.836 312.008C476.197 311.792 476.703 311.9 476.919 312.296C477.136 312.656 477.028 313.161 476.63 313.377L474.789 314.458C474.428 314.674 473.923 314.566 473.706 314.17C473.525 313.774 473.67 313.305 474.031 313.089Z" fill="#1D87B7"/>
<path d="M480.024 309.377L481.757 308.188C482.118 307.936 482.624 308.044 482.877 308.404C483.129 308.764 483.021 309.269 482.66 309.521L480.891 310.71C480.53 310.963 480.024 310.855 479.808 310.494C479.555 310.134 479.627 309.629 480.024 309.377Z" fill="#1D87B7"/>
<path d="M485.765 305.341L487.426 304.079C487.787 303.827 488.292 303.863 488.545 304.224C488.798 304.584 488.762 305.088 488.401 305.341L486.704 306.638C486.342 306.89 485.837 306.854 485.584 306.494C485.331 306.134 485.404 305.629 485.765 305.341Z" fill="#1D87B7"/>
<path d="M491.253 300.944L492.841 299.575C493.166 299.286 493.672 299.322 493.961 299.647C494.249 299.971 494.213 300.476 493.888 300.764L492.264 302.169C491.939 302.458 491.433 302.422 491.144 302.097C490.856 301.773 490.892 301.269 491.253 300.944Z" fill="#1D87B7"/>
<path d="M496.416 296.223L497.896 294.746C498.221 294.421 498.726 294.421 499.051 294.746C499.376 295.07 499.376 295.574 499.051 295.899L497.535 297.412C497.21 297.737 496.704 297.737 496.416 297.412C496.091 297.052 496.091 296.548 496.416 296.223Z" fill="#1D87B7"/>
<path d="M501.254 291.142L502.626 289.556C502.915 289.232 503.42 289.196 503.781 289.484C504.106 289.772 504.142 290.277 503.853 290.637L502.445 292.259C502.156 292.583 501.651 292.619 501.29 292.331C501.001 292.007 500.965 291.502 501.254 291.142Z" fill="#1D87B7"/>
<path d="M505.767 285.772L507.031 284.114C507.319 283.754 507.825 283.682 508.186 283.97C508.547 284.259 508.619 284.763 508.33 285.123L507.031 286.817C506.742 287.178 506.236 287.25 505.911 286.961C505.55 286.637 505.478 286.133 505.767 285.772Z" fill="#1D87B7"/>
<path d="M509.883 280.114L511.038 278.348C511.291 277.988 511.796 277.88 512.157 278.132C512.518 278.384 512.627 278.889 512.374 279.249L511.183 281.015C510.93 281.375 510.424 281.484 510.063 281.231C509.738 280.979 509.63 280.474 509.883 280.114Z" fill="#1D87B7"/>
<path d="M513.602 274.168L514.649 272.33C514.865 271.934 515.371 271.789 515.768 272.042C516.165 272.258 516.31 272.763 516.057 273.159L515.01 274.997C514.793 275.393 514.288 275.537 513.891 275.285C513.53 275.069 513.385 274.564 513.602 274.168Z" fill="#1D87B7"/>
<path d="M516.923 268.005L517.862 266.131C518.079 265.735 518.548 265.555 518.945 265.735C519.342 265.951 519.523 266.42 519.342 266.816L518.403 268.726C518.187 269.123 517.717 269.303 517.32 269.087C516.887 268.906 516.743 268.402 516.923 268.005Z" fill="#1D87B7"/>
<path d="M519.884 261.627L520.678 259.681C520.858 259.248 521.328 259.068 521.761 259.248C522.194 259.428 522.375 259.897 522.194 260.329L521.364 262.311C521.183 262.744 520.714 262.924 520.281 262.744C519.884 262.528 519.703 262.059 519.884 261.627Z" fill="#1D87B7"/>
<path d="M522.411 255.068L523.097 253.086C523.242 252.653 523.711 252.437 524.144 252.581C524.577 252.725 524.794 253.194 524.65 253.626L523.964 255.644C523.819 256.077 523.35 256.293 522.917 256.149C522.483 256.005 522.267 255.536 522.411 255.068Z" fill="#1D87B7"/>
<path d="M524.541 248.401L525.119 246.383C525.227 245.95 525.697 245.698 526.13 245.806C526.563 245.914 526.816 246.383 526.708 246.815L526.13 248.869C526.022 249.302 525.552 249.554 525.119 249.446C524.686 249.302 524.397 248.869 524.541 248.401Z" fill="#1D87B7"/>
<path d="M526.274 241.59L526.708 239.535C526.816 239.067 527.249 238.815 527.718 238.887C528.188 238.995 528.441 239.427 528.368 239.896L527.899 241.986C527.791 242.419 527.357 242.707 526.888 242.635C526.455 242.527 526.166 242.058 526.274 241.59Z" fill="#1D87B7"/>
<path d="M527.646 234.706L527.971 232.616C528.043 232.148 528.477 231.859 528.946 231.931C529.416 232.003 529.704 232.436 529.632 232.904L529.307 234.995C529.235 235.463 528.802 235.751 528.332 235.679C527.863 235.607 527.574 235.211 527.646 234.706Z" fill="#1D87B7"/>
<path d="M528.621 227.787L528.838 225.697C528.874 225.228 529.307 224.904 529.776 224.94C530.246 224.976 530.571 225.409 530.535 225.877L530.318 228.003C530.282 228.472 529.849 228.796 529.379 228.76C528.91 228.652 528.585 228.256 528.621 227.787Z" fill="#1D87B7"/>
<path d="M529.235 220.796L529.343 218.706C529.379 218.237 529.776 217.877 530.246 217.913C530.715 217.949 531.076 218.345 531.04 218.814L530.932 220.94C530.896 221.408 530.499 221.769 530.029 221.733C529.56 221.661 529.199 221.264 529.235 220.796Z" fill="#1D87B7"/>
<path d="M529.488 213.768V211.678C529.488 211.21 529.885 210.813 530.354 210.813C530.824 210.813 531.221 211.21 531.221 211.678V213.804C531.221 214.273 530.824 214.669 530.354 214.633C529.849 214.633 529.488 214.237 529.488 213.768Z" fill="#1D87B7"/>
<path d="M529.379 206.741L529.271 204.651C529.235 204.182 529.632 203.786 530.101 203.75C530.571 203.714 530.968 204.11 531.004 204.579L531.112 206.705C531.148 207.173 530.751 207.57 530.282 207.606C529.813 207.606 529.416 207.246 529.379 206.741Z" fill="#1D87B7"/>
<path d="M528.946 199.75L528.766 197.659C528.73 197.191 529.055 196.758 529.524 196.722C529.993 196.686 530.426 197.011 530.463 197.479L530.643 199.606C530.679 200.074 530.354 200.506 529.885 200.543C529.416 200.579 528.982 200.218 528.946 199.75Z" fill="#1D87B7"/>
<path d="M528.188 192.758L527.899 190.668C527.827 190.2 528.152 189.767 528.621 189.695C529.091 189.623 529.524 189.947 529.596 190.416L529.885 192.542C529.957 193.011 529.632 193.443 529.163 193.515C528.693 193.587 528.26 193.227 528.188 192.758Z" fill="#1D87B7"/>
<path d="M527.105 185.839L526.708 183.785C526.635 183.316 526.924 182.848 527.394 182.776C527.863 182.704 528.332 182.992 528.404 183.46L528.802 185.551C528.874 186.019 528.585 186.488 528.116 186.56C527.646 186.632 527.177 186.308 527.105 185.839Z" fill="#1D87B7"/>
<path d="M525.661 178.956L525.191 176.902C525.083 176.433 525.372 175.965 525.841 175.856C526.31 175.748 526.78 176.037 526.888 176.505L527.394 178.595C527.502 179.064 527.213 179.532 526.744 179.64C526.274 179.713 525.805 179.424 525.661 178.956Z" fill="#1D87B7"/>
<path d="M523.964 172.145L523.386 170.126C523.242 169.658 523.53 169.189 524 169.045C524.469 168.901 524.939 169.189 525.083 169.658L525.661 171.712C525.805 172.181 525.516 172.649 525.047 172.793C524.577 172.865 524.072 172.613 523.964 172.145Z" fill="#1D87B7"/>
<path d="M521.906 165.406L521.256 163.424C521.111 162.955 521.364 162.487 521.797 162.306C522.267 162.162 522.736 162.414 522.917 162.847L523.603 164.865C523.747 165.334 523.494 165.802 523.061 165.982C522.592 166.126 522.086 165.874 521.906 165.406Z" fill="#1D87B7"/>
<path d="M519.595 158.775L518.837 156.792C518.656 156.324 518.873 155.819 519.342 155.675C519.811 155.495 520.317 155.711 520.461 156.18L521.22 158.162C521.4 158.63 521.147 159.135 520.714 159.279C520.281 159.459 519.775 159.243 519.595 158.775Z" fill="#1D87B7"/>
<path d="M516.995 152.252L516.165 150.306C515.985 149.873 516.165 149.333 516.634 149.152C517.068 148.972 517.609 149.152 517.79 149.621L518.62 151.567C518.801 151.999 518.62 152.54 518.151 152.72C517.718 152.936 517.176 152.72 516.995 152.252Z" fill="#1D87B7"/>
<path d="M514.107 145.873L513.205 143.963C512.988 143.53 513.168 142.99 513.602 142.774C514.035 142.557 514.577 142.738 514.793 143.17L515.732 145.08C515.949 145.513 515.768 146.053 515.335 146.269C514.865 146.486 514.324 146.305 514.107 145.873Z" fill="#1D87B7"/>
<path d="M510.966 139.566L509.955 137.692C509.738 137.26 509.883 136.719 510.316 136.503C510.749 136.287 511.291 136.431 511.508 136.864L512.518 138.737C512.735 139.17 512.591 139.711 512.157 139.927C511.724 140.179 511.183 139.999 510.966 139.566Z" fill="#1D87B7"/>
<path d="M507.536 133.44L506.453 131.638C506.2 131.206 506.345 130.665 506.778 130.413C507.211 130.16 507.753 130.305 508.006 130.737L509.089 132.575C509.341 133.007 509.197 133.548 508.764 133.8C508.331 134.017 507.789 133.872 507.536 133.44Z" fill="#1D87B7"/>
<path d="M503.89 127.422L502.734 125.656C502.481 125.223 502.59 124.683 502.987 124.43C503.42 124.178 503.962 124.286 504.214 124.683L505.37 126.485C505.623 126.917 505.514 127.458 505.117 127.71C504.72 127.962 504.178 127.854 503.89 127.422Z" fill="#1D87B7"/>
<path d="M499.99 121.583L498.762 119.854C498.473 119.457 498.582 118.881 498.979 118.592C499.376 118.304 499.954 118.412 500.243 118.808L501.47 120.538C501.759 120.935 501.651 121.511 501.254 121.8C500.856 122.088 500.279 121.98 499.99 121.583Z" fill="#1D87B7"/>
<path d="M495.874 115.89L494.611 114.196C494.322 113.799 494.394 113.223 494.791 112.934C495.188 112.646 495.766 112.718 496.055 113.115L497.354 114.808C497.643 115.205 497.571 115.781 497.174 116.07C496.741 116.358 496.163 116.286 495.874 115.89Z" fill="#1D87B7"/>
<path d="M491.541 110.34L490.206 108.718C489.881 108.322 489.953 107.745 490.314 107.457C490.675 107.168 491.289 107.204 491.578 107.565L492.95 109.222C493.275 109.619 493.202 110.196 492.841 110.484C492.408 110.808 491.866 110.736 491.541 110.34Z" fill="#1D87B7"/>
<path d="M486.956 105.006L485.548 103.42C485.223 103.06 485.26 102.483 485.621 102.123C485.982 101.798 486.559 101.835 486.92 102.195L488.328 103.781C488.653 104.141 488.617 104.718 488.256 105.078C487.895 105.402 487.317 105.366 486.956 105.006Z" fill="#1D87B7"/>
<path d="M482.227 99.8164L480.746 98.3029C480.385 97.9425 480.421 97.3659 480.782 97.0055C481.144 96.6451 481.721 96.6812 482.082 97.0415L483.563 98.5912C483.924 98.9515 483.888 99.5281 483.527 99.8885C483.165 100.177 482.588 100.177 482.227 99.8164Z" fill="#1D87B7"/>
<path d="M477.28 94.8071L475.764 93.3295C475.403 92.9692 475.403 92.3925 475.728 92.0322C476.089 91.6718 476.666 91.6718 477.028 91.9961L478.544 93.4737C478.905 93.8341 478.905 94.4107 478.58 94.771C478.219 95.1675 477.641 95.1675 477.28 94.8071Z" fill="#1D87B7"/>
<path d="M472.153 89.9781L470.565 88.5726C470.168 88.2483 470.168 87.6356 470.493 87.2753C470.818 86.8788 471.431 86.8788 471.792 87.2032L473.381 88.6087C473.742 88.933 473.778 89.5456 473.453 89.906C473.128 90.3024 472.514 90.3385 472.153 89.9781Z" fill="#1D87B7"/>
<path d="M466.846 85.3652L465.221 83.9957C464.824 83.6714 464.788 83.0948 465.113 82.6984C465.438 82.302 466.016 82.2659 466.413 82.5903L468.037 83.9597C468.435 84.284 468.471 84.8606 468.146 85.2571C467.821 85.6535 467.243 85.6895 466.846 85.3652Z" fill="#1D87B7"/>
<path d="M461.394 80.9325L459.733 79.6351C459.336 79.3108 459.264 78.7342 459.589 78.3378C459.914 77.9414 460.492 77.8693 460.889 78.1936L462.586 79.491C462.983 79.8153 463.055 80.3919 462.73 80.7884C462.369 81.1487 461.791 81.2208 461.394 80.9325Z" fill="#1D87B7"/>
<path d="M455.762 76.6801L454.065 75.4548C453.632 75.1665 453.56 74.5538 453.848 74.1574C454.137 73.7249 454.751 73.6529 455.148 73.9412L456.881 75.2025C457.314 75.4908 457.386 76.1035 457.098 76.4999C456.773 76.8963 456.195 76.9684 455.762 76.6801Z" fill="#1D87B7"/>
<path d="M450.021 72.6078L448.288 71.4185C447.855 71.1302 447.747 70.5536 448.035 70.1212C448.324 69.6887 448.902 69.5806 449.335 69.8689L451.104 71.0582C451.538 71.3465 451.646 71.9231 451.357 72.3555C451.068 72.788 450.454 72.8961 450.021 72.6078Z" fill="#1D87B7"/>
<path d="M444.172 68.7158L442.403 67.5986C441.97 67.3103 441.826 66.7337 442.114 66.3012C442.403 65.8688 442.981 65.7246 443.414 66.0129L445.219 67.1661C445.653 67.4544 445.797 68.031 445.508 68.4635C445.183 68.8599 444.606 69.0041 444.172 68.7158Z" fill="#1D87B7"/>
<path d="M438.179 65.0039L436.374 63.9227C435.94 63.6705 435.76 63.0939 436.049 62.6254C436.301 62.1929 436.879 62.0127 437.348 62.301L439.19 63.3822C439.623 63.6344 439.803 64.211 439.515 64.6795C439.19 65.148 438.612 65.2922 438.179 65.0039Z" fill="#1D87B7"/>
<path d="M432.077 61.5082L430.236 60.4991C429.766 60.2468 429.622 59.6702 429.875 59.2017C430.127 58.7332 430.705 58.5891 431.174 58.8413L433.052 59.8864C433.521 60.1387 433.666 60.7153 433.413 61.1838C433.124 61.5802 432.546 61.7604 432.077 61.5082Z" fill="#1D87B7"/>
<path d="M425.867 58.1565L423.99 57.1835C423.52 56.9312 423.34 56.3546 423.592 55.8861C423.845 55.4176 424.423 55.2375 424.892 55.4897L426.77 56.4628C427.239 56.715 427.42 57.2916 427.167 57.7241C426.914 58.2286 426.336 58.4088 425.867 58.1565Z" fill="#1D87B7"/>
<path d="M419.549 55.0213L417.635 54.1204C417.166 53.9041 416.949 53.3275 417.202 52.859C417.419 52.3905 417.996 52.1743 418.466 52.3905L420.379 53.2915C420.848 53.5077 421.065 54.0843 420.812 54.5528C420.596 55.0574 420.054 55.2376 419.549 55.0213Z" fill="#1D87B7"/>
<path d="M413.158 52.0662L411.208 51.2013C410.739 50.9851 410.522 50.4084 410.703 49.94C410.92 49.4715 411.497 49.2552 411.967 49.4354L413.916 50.3003C414.386 50.5166 414.602 51.0932 414.422 51.5617C414.205 52.0662 413.664 52.2824 413.158 52.0662Z" fill="#1D87B7"/>
<path d="M406.696 49.2553L404.746 48.4624C404.241 48.2462 404.024 47.7056 404.204 47.2011C404.421 46.6966 404.963 46.4803 405.468 46.6605L407.454 47.4534C407.959 47.6696 408.176 48.2102 407.995 48.7147C407.743 49.2553 407.201 49.4715 406.696 49.2553Z" fill="#1D87B7"/>
<path d="M400.161 46.6605L398.175 45.9037C397.669 45.7235 397.417 45.1469 397.597 44.6424C397.778 44.1378 398.355 43.8856 398.861 44.0657L400.847 44.8225C401.352 45.0027 401.605 45.5793 401.424 46.0478C401.208 46.6244 400.666 46.8407 400.161 46.6605Z" fill="#1D87B7"/>
<path d="M393.517 44.246L391.531 43.5613C391.026 43.3811 390.773 42.8405 390.918 42.336C391.098 41.8314 391.64 41.5792 392.145 41.7233L394.167 42.4081C394.672 42.5882 394.925 43.1288 394.781 43.6333C394.6 44.1739 394.023 44.4262 393.517 44.246Z" fill="#1D87B7"/>
<path d="M386.838 42.0117L384.816 41.363C384.311 41.2188 384.022 40.6422 384.166 40.1377C384.311 39.6332 384.888 39.3449 385.394 39.489L387.416 40.1377C387.921 40.2818 388.21 40.8584 388.066 41.363C387.921 41.9035 387.38 42.1918 386.838 42.0117Z" fill="#1D87B7"/>
<path d="M380.087 39.9574L378.065 39.3808C377.559 39.2366 377.234 38.6961 377.379 38.1915C377.523 37.687 378.065 37.3627 378.57 37.5068L380.628 38.0834C381.134 38.2276 381.459 38.7681 381.314 39.2727C381.17 39.8132 380.628 40.1015 380.087 39.9574Z" fill="#1D87B7"/>
<path d="M373.299 38.0835L371.241 37.543C370.699 37.3988 370.411 36.8583 370.519 36.3537C370.663 35.8132 371.205 35.5249 371.71 35.633L373.768 36.1735C374.31 36.3177 374.599 36.8583 374.49 37.3628C374.382 37.9034 373.84 38.2277 373.299 38.0835Z" fill="#1D87B7"/>
<path d="M366.475 36.3897L364.417 35.9212C363.875 35.8131 363.55 35.2725 363.659 34.732C363.767 34.1914 364.309 33.8671 364.85 33.9752L366.944 34.4437C367.486 34.5518 367.811 35.0924 367.666 35.6329C367.522 36.2095 367.017 36.5339 366.475 36.3897Z" fill="#1D87B7"/>
<path d="M359.579 34.9123L357.521 34.4798C356.979 34.3717 356.654 33.8672 356.763 33.3266C356.871 32.786 357.376 32.4617 357.918 32.5698L360.012 33.0022C360.554 33.1104 360.879 33.6149 360.77 34.1555C360.626 34.66 360.12 35.0204 359.579 34.9123Z" fill="#1D87B7"/>
<path d="M352.647 33.5788L350.553 33.2184C350.011 33.1103 349.65 32.6058 349.758 32.0652C349.867 31.5246 350.372 31.1642 350.914 31.2724L353.008 31.6327C353.55 31.7408 353.911 32.2454 353.802 32.786C353.73 33.3265 353.188 33.6869 352.647 33.5788Z" fill="#1D87B7"/>
<path d="M345.715 32.4617L343.621 32.1734C343.079 32.1013 342.682 31.5968 342.79 31.0562C342.863 30.5156 343.368 30.1192 343.91 30.2273L346.004 30.5517C346.545 30.6237 346.906 31.1283 346.834 31.6688C346.762 32.1373 346.256 32.5337 345.715 32.4617Z" fill="#1D87B7"/>
<path d="M338.71 31.4885L336.797 31.2723C336.255 31.2002 335.858 30.6957 335.93 30.1551C336.003 29.6146 336.508 29.2181 337.05 29.2902L338.963 29.5064C339.505 29.5785 339.902 30.083 339.83 30.6236C339.758 31.1642 339.252 31.5606 338.71 31.4885Z" fill="#1D87B7"/>
<path d="M326.543 16.6769L327.59 29.8307L318.203 24.8935L326.543 16.6769Z" fill="#1D87B7"/>
<path d="M266.609 13.8299L304.736 42.1918C305.458 42.7323 306.397 42.9485 307.299 42.8044C308.202 42.6602 308.996 42.1557 309.502 41.3989L336.616 2.11757C336.941 1.68512 336.941 1.07247 336.616 0.603979C336.327 0.135486 335.75 -0.080742 335.244 0.0273718L266.609 13.8299Z" fill="#79BCD9"/>
<path d="M326.543 16.677L266.609 13.83L322.211 23.0196L322.644 26.6595L326.543 16.677Z" fill="#1D87B7"/>
<path d="M319.575 26.7675L327.59 29.8307L322.211 23.0195L319.575 26.7675Z" fill="#1D779F"/>
</g>
</svg>
