<svg width="14" height="12" viewBox="0 0 14 12" fill="none" xmlns="http://www.w3.org/2000/svg">
<path d="M12.5685 9.36857C12.4044 9.5326 12.1819 9.62476 11.9499 9.62476C11.7179 9.62476 11.4954 9.5326 11.3313 9.36857L7.00003 5.03732L2.66878 9.36857C2.50375 9.52795 2.28273 9.61615 2.05331 9.61416C1.82388 9.61216 1.60442 9.52014 1.44219 9.35791C1.27996 9.19568 1.18794 8.97622 1.18594 8.74679C1.18395 8.51737 1.27215 8.29634 1.43153 8.13132L6.3814 3.18144C6.54549 3.0174 6.76801 2.92525 7.00003 2.92525C7.23204 2.92525 7.45456 3.0174 7.61865 3.18144L12.5685 8.13132C12.7326 8.2954 12.8247 8.51792 12.8247 8.74994C12.8247 8.98196 12.7326 9.20448 12.5685 9.36857Z" fill="#5F6E80"/>
</svg>
